<svg xmlns="http://www.w3.org/2000/svg" viewBox="0 0 820 378" style="font-family:system-ui,-apple-system,sans-serif">
  <text x="800" y="11" text-anchor="end" font-size="11" font-weight="600" fill="#6b7280">Second-order allpass, fc=1kHz, Q=1</text>
  <line x1="34" y1="16" x2="34" y2="171" stroke="#d1d5db"/>
  <line x1="34" y1="47.0" x2="399" y2="47.0" stroke="#d1d5db"/>
  <text x="216.5" y="197" text-anchor="middle" font-size="9" fill="#6b7280">Hz</text>
  <text x="12" y="93.5" text-anchor="middle" font-size="9" fill="#6b7280" transform="rotate(-90 12 93.5)">dB</text>
  <line x1="67.3" y1="16" x2="67.3" y2="171" stroke="#e5e7eb" stroke-width="0.5"/>
  <line x1="86.8" y1="16" x2="86.8" y2="171" stroke="#e5e7eb" stroke-width="0.5"/>
  <line x1="100.6" y1="16" x2="100.6" y2="171" stroke="#e5e7eb" stroke-width="0.5"/>
  <line x1="111.3" y1="16" x2="111.3" y2="171" stroke="#e5e7eb" stroke-width="0.5"/>
  <line x1="120.0" y1="16" x2="120.0" y2="171" stroke="#e5e7eb" stroke-width="0.5"/>
  <line x1="127.4" y1="16" x2="127.4" y2="171" stroke="#e5e7eb" stroke-width="0.5"/>
  <line x1="133.9" y1="16" x2="133.9" y2="171" stroke="#e5e7eb" stroke-width="0.5"/>
  <line x1="139.5" y1="16" x2="139.5" y2="171" stroke="#e5e7eb" stroke-width="0.5"/>
  <line x1="177.9" y1="16" x2="177.9" y2="171" stroke="#e5e7eb" stroke-width="0.5"/>
  <line x1="197.3" y1="16" x2="197.3" y2="171" stroke="#e5e7eb" stroke-width="0.5"/>
  <line x1="211.1" y1="16" x2="211.1" y2="171" stroke="#e5e7eb" stroke-width="0.5"/>
  <line x1="221.9" y1="16" x2="221.9" y2="171" stroke="#e5e7eb" stroke-width="0.5"/>
  <line x1="230.6" y1="16" x2="230.6" y2="171" stroke="#e5e7eb" stroke-width="0.5"/>
  <line x1="238.0" y1="16" x2="238.0" y2="171" stroke="#e5e7eb" stroke-width="0.5"/>
  <line x1="244.4" y1="16" x2="244.4" y2="171" stroke="#e5e7eb" stroke-width="0.5"/>
  <line x1="250.1" y1="16" x2="250.1" y2="171" stroke="#e5e7eb" stroke-width="0.5"/>
  <line x1="288.4" y1="16" x2="288.4" y2="171" stroke="#e5e7eb" stroke-width="0.5"/>
  <line x1="307.9" y1="16" x2="307.9" y2="171" stroke="#e5e7eb" stroke-width="0.5"/>
  <line x1="321.7" y1="16" x2="321.7" y2="171" stroke="#e5e7eb" stroke-width="0.5"/>
  <line x1="332.4" y1="16" x2="332.4" y2="171" stroke="#e5e7eb" stroke-width="0.5"/>
  <line x1="341.2" y1="16" x2="341.2" y2="171" stroke="#e5e7eb" stroke-width="0.5"/>
  <line x1="348.6" y1="16" x2="348.6" y2="171" stroke="#e5e7eb" stroke-width="0.5"/>
  <line x1="355.0" y1="16" x2="355.0" y2="171" stroke="#e5e7eb" stroke-width="0.5"/>
  <line x1="360.7" y1="16" x2="360.7" y2="171" stroke="#e5e7eb" stroke-width="0.5"/>
  <line x1="399.0" y1="16" x2="399.0" y2="171" stroke="#e5e7eb" stroke-width="0.5"/>
  <line x1="144.6" y1="16" x2="144.6" y2="171" stroke="#e5e7eb" stroke-width="0.5"/>
  <text x="144.6" y="183" text-anchor="middle" font-size="8" fill="#6b7280">100</text>
  <line x1="255.1" y1="16" x2="255.1" y2="171" stroke="#e5e7eb" stroke-width="0.5"/>
  <text x="255.1" y="183" text-anchor="middle" font-size="8" fill="#6b7280">1k</text>
  <line x1="365.7" y1="16" x2="365.7" y2="171" stroke="#e5e7eb" stroke-width="0.5"/>
  <text x="365.7" y="183" text-anchor="middle" font-size="8" fill="#6b7280">10k</text>
  <line x1="34" y1="31.5" x2="399" y2="31.5" stroke="#e5e7eb" stroke-width="0.5"/>
  <line x1="34" y1="62.5" x2="399" y2="62.5" stroke="#e5e7eb" stroke-width="0.5"/>
  <line x1="34" y1="16.0" x2="399" y2="16.0" stroke="#e5e7eb" stroke-width="0.5"/>
  <text x="30" y="19.0" text-anchor="end" font-size="8" fill="#6b7280">+20</text>
  <text x="30" y="50.0" text-anchor="end" font-size="8" fill="#6b7280">0</text>
  <line x1="34" y1="78.0" x2="399" y2="78.0" stroke="#e5e7eb" stroke-width="0.5"/>
  <text x="30" y="81.0" text-anchor="end" font-size="8" fill="#6b7280">-20</text>
  <line x1="34" y1="109.0" x2="399" y2="109.0" stroke="#e5e7eb" stroke-width="0.5"/>
  <text x="30" y="112.0" text-anchor="end" font-size="8" fill="#6b7280">-40</text>
  <line x1="34" y1="140.0" x2="399" y2="140.0" stroke="#e5e7eb" stroke-width="0.5"/>
  <text x="30" y="143.0" text-anchor="end" font-size="8" fill="#6b7280">-60</text>
  <line x1="34" y1="171.0" x2="399" y2="171.0" stroke="#e5e7eb" stroke-width="0.5"/>
  <text x="30" y="174.0" text-anchor="end" font-size="8" fill="#6b7280">-80</text>
  <line x1="255.1" y1="16" x2="255.1" y2="171" stroke="#d1d5db" stroke-width="1" stroke-dasharray="4 3"/>
  <defs><linearGradient id="g299" x1="0" y1="16" x2="0" y2="171" gradientUnits="userSpaceOnUse">
    <stop offset="0%" stop-color="#4a90d9" stop-opacity="0.15"/>
    <stop offset="100%" stop-color="#4a90d9" stop-opacity="0.02"/>
  </linearGradient></defs>
  <path d="M37.5,47.0 37.5,47.0 70.8,47.0 90.3,47.0 104.1,47.0 114.8,47.0 123.6,47.0 131.0,47.0 137.4,47.0 143.1,47.0 148.1,47.0 152.7,47.0 156.9,47.0 160.7,47.0 164.3,47.0 167.6,47.0 170.7,47.0 173.6,47.0 176.3,47.0 178.9,47.0 181.4,47.0 183.7,47.0 186.0,47.0 188.1,47.0 190.2,47.0 192.1,47.0 194.0,47.0 195.8,47.0 197.6,47.0 199.2,47.0 200.9,47.0 202.4,47.0 204.0,47.0 205.5,47.0 206.9,47.0 208.3,47.0 209.6,47.0 210.9,47.0 212.2,47.0 213.5,47.0 214.7,47.0 215.9,47.0 217.0,47.0 218.2,47.0 219.3,47.0 220.3,47.0 221.4,47.0 222.4,47.0 223.4,47.0 224.4,47.0 225.4,47.0 226.4,47.0 227.3,47.0 228.2,47.0 229.1,47.0 230.0,47.0 230.8,47.0 231.7,47.0 232.5,47.0 233.4,47.0 234.2,47.0 235.7,47.0 237.3,47.0 238.7,47.0 240.2,47.0 241.6,47.0 242.9,47.0 244.2,47.0 245.5,47.0 246.8,47.0 248.0,47.0 249.2,47.0 250.3,47.0 251.4,47.0 252.6,47.0 253.6,47.0 254.7,47.0 255.7,47.0 256.7,47.0 257.7,47.0 258.7,47.0 259.6,47.0 260.6,47.0 261.5,47.0 262.4,47.0 263.3,47.0 264.1,47.0 265.0,47.0 265.8,47.0 266.6,47.0 267.4,47.0 268.6,47.0 269.8,47.0 270.9,47.0 272.0,47.0 273.1,47.0 274.2,47.0 275.2,47.0 276.2,47.0 277.2,47.0 278.2,47.0 279.1,47.0 280.0,47.0 281.0,47.0 281.9,47.0 282.7,47.0 283.6,47.0 284.5,47.0 285.3,47.0 286.1,47.0 286.9,47.0 288.0,47.0 289.0,47.0 290.0,47.0 291.0,47.0 292.0,47.0 292.9,47.0 293.9,47.0 294.8,47.0 295.7,47.0 296.6,47.0 297.4,47.0 298.3,47.0 299.1,47.0 299.9,47.0 300.7,47.0 301.7,47.0 302.7,47.0 303.6,47.0 304.6,47.0 305.5,47.0 306.4,47.0 307.3,47.0 308.1,47.0 309.0,47.0 309.8,47.0 310.6,47.0 311.4,47.0 312.4,47.0 313.3,47.0 314.2,47.0 315.1,47.0 316.0,47.0 316.9,47.0 317.7,47.0 318.6,47.0 319.4,47.0 320.2,47.0 321.1,47.0 322.0,47.0 322.9,47.0 323.8,47.0 324.7,47.0 325.5,47.0 326.3,47.0 327.1,47.0 327.9,47.0 328.8,47.0 329.7,47.0 330.6,47.0 331.4,47.0 332.3,47.0 333.1,47.0 333.9,47.0 334.8,47.0 335.7,47.0 336.5,47.0 337.4,47.0 338.2,47.0 339.0,47.0 339.8,47.0 340.7,47.0 341.6,47.0 342.4,47.0 343.3,47.0 344.1,47.0 344.9,47.0 345.8,47.0 346.6,47.0 347.5,47.0 348.3,47.0 349.1,47.0 350.0,47.0 350.8,47.0 351.7,47.0 352.5,47.0 353.3,47.0 354.1,47.0 355.0,47.0 355.8,47.0 356.6,47.0 357.5,47.0 358.3,47.0 359.1,47.0 360.0,47.0 360.8,47.0 361.6,47.0 362.5,47.0 363.3,47.0 364.1,47.0 364.9,47.0 365.8,47.0 366.6,47.0 367.4,47.0 368.2,47.0 369.1,47.0 369.9,47.0 370.7,47.0 371.6,47.0 372.4,47.0 373.2,47.0 374.0,47.0 374.8,47.0 375.6,47.0 376.5,47.0 377.3,47.0 378.1,47.0 378.9,47.0 379.7,47.0 380.5,47.0 381.4,47.0 382.2,47.0 383.0,47.0 383.8,47.0 384.6,47.0 385.5,47.0 386.3,47.0 387.1,47.0 387.9,47.0 388.7,47.0 389.5,47.0 390.3,47.0 391.2,47.0 392.0,47.0 392.8,47.0 393.6,47.0 394.4,47.0 395.2,47.0 396.0,47.0 396.8,47.0 397.6,47.0 398.5,47.0 L398.5,171.0 L37.5,171.0 Z" fill="url(#g299)"/>
  <defs><clipPath id="pc300"><rect x="34" y="16" width="365" height="155"/></clipPath></defs>
  <polyline points="37.5,47.0 70.8,47.0 90.3,47.0 104.1,47.0 114.8,47.0 123.6,47.0 131.0,47.0 137.4,47.0 143.1,47.0 148.1,47.0 152.7,47.0 156.9,47.0 160.7,47.0 164.3,47.0 167.6,47.0 170.7,47.0 173.6,47.0 176.3,47.0 178.9,47.0 181.4,47.0 183.7,47.0 186.0,47.0 188.1,47.0 190.2,47.0 192.1,47.0 194.0,47.0 195.8,47.0 197.6,47.0 199.2,47.0 200.9,47.0 202.4,47.0 204.0,47.0 205.5,47.0 206.9,47.0 208.3,47.0 209.6,47.0 210.9,47.0 212.2,47.0 213.5,47.0 214.7,47.0 215.9,47.0 217.0,47.0 218.2,47.0 219.3,47.0 220.3,47.0 221.4,47.0 222.4,47.0 223.4,47.0 224.4,47.0 225.4,47.0 226.4,47.0 227.3,47.0 228.2,47.0 229.1,47.0 230.0,47.0 230.8,47.0 231.7,47.0 232.5,47.0 233.4,47.0 234.2,47.0 235.7,47.0 237.3,47.0 238.7,47.0 240.2,47.0 241.6,47.0 242.9,47.0 244.2,47.0 245.5,47.0 246.8,47.0 248.0,47.0 249.2,47.0 250.3,47.0 251.4,47.0 252.6,47.0 253.6,47.0 254.7,47.0 255.7,47.0 256.7,47.0 257.7,47.0 258.7,47.0 259.6,47.0 260.6,47.0 261.5,47.0 262.4,47.0 263.3,47.0 264.1,47.0 265.0,47.0 265.8,47.0 266.6,47.0 267.4,47.0 268.6,47.0 269.8,47.0 270.9,47.0 272.0,47.0 273.1,47.0 274.2,47.0 275.2,47.0 276.2,47.0 277.2,47.0 278.2,47.0 279.1,47.0 280.0,47.0 281.0,47.0 281.9,47.0 282.7,47.0 283.6,47.0 284.5,47.0 285.3,47.0 286.1,47.0 286.9,47.0 288.0,47.0 289.0,47.0 290.0,47.0 291.0,47.0 292.0,47.0 292.9,47.0 293.9,47.0 294.8,47.0 295.7,47.0 296.6,47.0 297.4,47.0 298.3,47.0 299.1,47.0 299.9,47.0 300.7,47.0 301.7,47.0 302.7,47.0 303.6,47.0 304.6,47.0 305.5,47.0 306.4,47.0 307.3,47.0 308.1,47.0 309.0,47.0 309.8,47.0 310.6,47.0 311.4,47.0 312.4,47.0 313.3,47.0 314.2,47.0 315.1,47.0 316.0,47.0 316.9,47.0 317.7,47.0 318.6,47.0 319.4,47.0 320.2,47.0 321.1,47.0 322.0,47.0 322.9,47.0 323.8,47.0 324.7,47.0 325.5,47.0 326.3,47.0 327.1,47.0 327.9,47.0 328.8,47.0 329.7,47.0 330.6,47.0 331.4,47.0 332.3,47.0 333.1,47.0 333.9,47.0 334.8,47.0 335.7,47.0 336.5,47.0 337.4,47.0 338.2,47.0 339.0,47.0 339.8,47.0 340.7,47.0 341.6,47.0 342.4,47.0 343.3,47.0 344.1,47.0 344.9,47.0 345.8,47.0 346.6,47.0 347.5,47.0 348.3,47.0 349.1,47.0 350.0,47.0 350.8,47.0 351.7,47.0 352.5,47.0 353.3,47.0 354.1,47.0 355.0,47.0 355.8,47.0 356.6,47.0 357.5,47.0 358.3,47.0 359.1,47.0 360.0,47.0 360.8,47.0 361.6,47.0 362.5,47.0 363.3,47.0 364.1,47.0 364.9,47.0 365.8,47.0 366.6,47.0 367.4,47.0 368.2,47.0 369.1,47.0 369.9,47.0 370.7,47.0 371.6,47.0 372.4,47.0 373.2,47.0 374.0,47.0 374.8,47.0 375.6,47.0 376.5,47.0 377.3,47.0 378.1,47.0 378.9,47.0 379.7,47.0 380.5,47.0 381.4,47.0 382.2,47.0 383.0,47.0 383.8,47.0 384.6,47.0 385.5,47.0 386.3,47.0 387.1,47.0 387.9,47.0 388.7,47.0 389.5,47.0 390.3,47.0 391.2,47.0 392.0,47.0 392.8,47.0 393.6,47.0 394.4,47.0 395.2,47.0 396.0,47.0 396.8,47.0 397.6,47.0 398.5,47.0" fill="none" stroke="#4a90d9" stroke-width="1.5" stroke-linejoin="round" clip-path="url(#pc300)"/>
  <line x1="435" y1="16" x2="435" y2="171" stroke="#d1d5db"/>
  <line x1="435" y1="93.5" x2="800" y2="93.5" stroke="#d1d5db"/>
  <text x="617.5" y="197" text-anchor="middle" font-size="9" fill="#6b7280">Hz</text>
  <text x="413" y="93.5" text-anchor="middle" font-size="9" fill="#6b7280" transform="rotate(-90 413 93.5)">Phase (deg)</text>
  <line x1="468.3" y1="16" x2="468.3" y2="171" stroke="#e5e7eb" stroke-width="0.5"/>
  <line x1="487.8" y1="16" x2="487.8" y2="171" stroke="#e5e7eb" stroke-width="0.5"/>
  <line x1="501.6" y1="16" x2="501.6" y2="171" stroke="#e5e7eb" stroke-width="0.5"/>
  <line x1="512.3" y1="16" x2="512.3" y2="171" stroke="#e5e7eb" stroke-width="0.5"/>
  <line x1="521.0" y1="16" x2="521.0" y2="171" stroke="#e5e7eb" stroke-width="0.5"/>
  <line x1="528.4" y1="16" x2="528.4" y2="171" stroke="#e5e7eb" stroke-width="0.5"/>
  <line x1="534.9" y1="16" x2="534.9" y2="171" stroke="#e5e7eb" stroke-width="0.5"/>
  <line x1="540.5" y1="16" x2="540.5" y2="171" stroke="#e5e7eb" stroke-width="0.5"/>
  <line x1="578.9" y1="16" x2="578.9" y2="171" stroke="#e5e7eb" stroke-width="0.5"/>
  <line x1="598.3" y1="16" x2="598.3" y2="171" stroke="#e5e7eb" stroke-width="0.5"/>
  <line x1="612.1" y1="16" x2="612.1" y2="171" stroke="#e5e7eb" stroke-width="0.5"/>
  <line x1="622.9" y1="16" x2="622.9" y2="171" stroke="#e5e7eb" stroke-width="0.5"/>
  <line x1="631.6" y1="16" x2="631.6" y2="171" stroke="#e5e7eb" stroke-width="0.5"/>
  <line x1="639.0" y1="16" x2="639.0" y2="171" stroke="#e5e7eb" stroke-width="0.5"/>
  <line x1="645.4" y1="16" x2="645.4" y2="171" stroke="#e5e7eb" stroke-width="0.5"/>
  <line x1="651.1" y1="16" x2="651.1" y2="171" stroke="#e5e7eb" stroke-width="0.5"/>
  <line x1="689.4" y1="16" x2="689.4" y2="171" stroke="#e5e7eb" stroke-width="0.5"/>
  <line x1="708.9" y1="16" x2="708.9" y2="171" stroke="#e5e7eb" stroke-width="0.5"/>
  <line x1="722.7" y1="16" x2="722.7" y2="171" stroke="#e5e7eb" stroke-width="0.5"/>
  <line x1="733.4" y1="16" x2="733.4" y2="171" stroke="#e5e7eb" stroke-width="0.5"/>
  <line x1="742.2" y1="16" x2="742.2" y2="171" stroke="#e5e7eb" stroke-width="0.5"/>
  <line x1="749.6" y1="16" x2="749.6" y2="171" stroke="#e5e7eb" stroke-width="0.5"/>
  <line x1="756.0" y1="16" x2="756.0" y2="171" stroke="#e5e7eb" stroke-width="0.5"/>
  <line x1="761.7" y1="16" x2="761.7" y2="171" stroke="#e5e7eb" stroke-width="0.5"/>
  <line x1="800.0" y1="16" x2="800.0" y2="171" stroke="#e5e7eb" stroke-width="0.5"/>
  <line x1="545.6" y1="16" x2="545.6" y2="171" stroke="#e5e7eb" stroke-width="0.5"/>
  <text x="545.6" y="183" text-anchor="middle" font-size="8" fill="#6b7280">100</text>
  <line x1="656.1" y1="16" x2="656.1" y2="171" stroke="#e5e7eb" stroke-width="0.5"/>
  <text x="656.1" y="183" text-anchor="middle" font-size="8" fill="#6b7280">1k</text>
  <line x1="766.7" y1="16" x2="766.7" y2="171" stroke="#e5e7eb" stroke-width="0.5"/>
  <text x="766.7" y="183" text-anchor="middle" font-size="8" fill="#6b7280">10k</text>
  <line x1="435" y1="58.6" x2="800" y2="58.6" stroke="#e5e7eb" stroke-width="0.5"/>
  <line x1="435" y1="128.4" x2="800" y2="128.4" stroke="#e5e7eb" stroke-width="0.5"/>
  <line x1="435" y1="23.8" x2="800" y2="23.8" stroke="#e5e7eb" stroke-width="0.5"/>
  <text x="431" y="26.8" text-anchor="end" font-size="8" fill="#6b7280">180</text>
  <text x="431" y="96.5" text-anchor="end" font-size="8" fill="#6b7280">0</text>
  <line x1="435" y1="163.3" x2="800" y2="163.3" stroke="#e5e7eb" stroke-width="0.5"/>
  <text x="431" y="166.3" text-anchor="end" font-size="8" fill="#6b7280">-180</text>
  <line x1="656.1" y1="16" x2="656.1" y2="171" stroke="#d1d5db" stroke-width="1" stroke-dasharray="4 3"/>
  <defs><linearGradient id="g301" x1="0" y1="16" x2="0" y2="93.5" gradientUnits="userSpaceOnUse">
    <stop offset="0%" stop-color="#e74c3c" stop-opacity="0.15"/>
    <stop offset="100%" stop-color="#e74c3c" stop-opacity="0.02"/>
  </linearGradient></defs>
  <defs><linearGradient id="g302" x1="0" y1="171" x2="0" y2="93.5" gradientUnits="userSpaceOnUse">
    <stop offset="0%" stop-color="#e74c3c" stop-opacity="0.15"/>
    <stop offset="100%" stop-color="#e74c3c" stop-opacity="0.02"/>
  </linearGradient></defs>
  <defs><clipPath id="c303"><rect x="435" y="16" width="365" height="77.5"/></clipPath></defs>
  <defs><clipPath id="c304"><rect x="435" y="93.5" width="365" height="77.5"/></clipPath></defs>
  <path d="M438.5,94.0 438.5,94.0 471.8,94.5 491.3,94.9 505.1,95.4 515.8,95.9 524.6,96.4 532.0,96.9 538.4,97.3 544.1,97.8 549.1,98.3 553.7,98.8 557.9,99.3 561.7,99.8 565.3,100.3 568.6,100.8 571.7,101.3 574.6,101.8 577.3,102.3 579.9,102.8 582.4,103.3 584.7,103.9 587.0,104.4 589.1,104.9 591.2,105.5 593.1,106.0 595.0,106.6 596.8,107.1 598.6,107.7 600.2,108.3 601.9,108.8 603.4,109.4 605.0,110.0 606.5,110.6 607.9,111.2 609.3,111.8 610.6,112.5 611.9,113.1 613.2,113.7 614.5,114.4 615.7,115.1 616.9,115.7 618.0,116.4 619.2,117.1 620.3,117.8 621.3,118.5 622.4,119.2 623.4,120.0 624.4,120.7 625.4,121.5 626.4,122.3 627.4,123.0 628.3,123.8 629.2,124.6 630.1,125.5 631.0,126.3 631.8,127.1 632.7,128.0 633.5,128.8 634.4,129.7 635.2,130.6 636.7,132.4 638.3,134.3 639.7,136.2 641.2,138.1 642.6,140.1 643.9,142.1 645.2,144.1 646.5,146.2 647.8,148.2 649.0,150.3 650.2,152.3 651.3,154.4 652.4,156.4 653.6,158.5 654.6,160.4 655.7,162.4 656.7,24.8 657.7,26.7 658.7,28.5 659.7,30.3 660.6,32.0 661.6,33.7 662.5,35.3 663.4,36.9 664.3,38.4 665.1,39.8 666.0,41.2 666.8,42.5 667.6,43.8 668.4,45.1 669.6,46.8 670.8,48.5 671.9,50.0 673.0,51.5 674.1,52.9 675.2,54.2 676.2,55.4 677.2,56.5 678.2,57.6 679.2,58.7 680.1,59.6 681.0,60.6 682.0,61.4 682.9,62.3 683.7,63.0 684.6,63.8 685.5,64.5 686.3,65.2 687.1,65.8 687.9,66.5 689.0,67.2 690.0,68.0 691.0,68.7 692.0,69.3 693.0,69.9 693.9,70.5 694.9,71.1 695.8,71.6 696.7,72.1 697.6,72.6 698.4,73.1 699.3,73.5 700.1,74.0 700.9,74.4 701.7,74.8 702.7,75.2 703.7,75.7 704.6,76.1 705.6,76.5 706.5,76.9 707.4,77.2 708.3,77.6 709.1,77.9 710.0,78.2 710.8,78.5 711.6,78.8 712.4,79.1 713.4,79.4 714.3,79.8 715.2,80.1 716.1,80.3 717.0,80.6 717.9,80.9 718.7,81.1 719.6,81.4 720.4,81.6 721.2,81.8 722.1,82.1 723.0,82.3 723.9,82.6 724.8,82.8 725.7,83.0 726.5,83.2 727.3,83.4 728.1,83.6 728.9,83.8 729.8,84.0 730.7,84.2 731.6,84.4 732.4,84.6 733.3,84.7 734.1,84.9 734.9,85.1 735.8,85.3 736.7,85.4 737.5,85.6 738.4,85.8 739.2,85.9 740.0,86.1 740.8,86.2 741.7,86.4 742.6,86.5 743.4,86.6 744.3,86.8 745.1,86.9 745.9,87.0 746.8,87.2 747.6,87.3 748.5,87.4 749.3,87.6 750.1,87.7 751.0,87.8 751.8,87.9 752.7,88.1 753.5,88.2 754.3,88.3 755.1,88.4 756.0,88.5 756.8,88.6 757.6,88.7 758.5,88.8 759.3,88.9 760.1,89.0 761.0,89.1 761.8,89.2 762.6,89.3 763.5,89.4 764.3,89.5 765.1,89.6 765.9,89.7 766.8,89.8 767.6,89.9 768.4,90.0 769.2,90.1 770.1,90.2 770.9,90.3 771.7,90.4 772.6,90.4 773.4,90.5 774.2,90.6 775.0,90.7 775.8,90.8 776.6,90.9 777.5,90.9 778.3,91.0 779.1,91.1 779.9,91.2 780.7,91.2 781.5,91.3 782.4,91.4 783.2,91.5 784.0,91.6 784.8,91.6 785.6,91.7 786.5,91.8 787.3,91.9 788.1,91.9 788.9,92.0 789.7,92.1 790.5,92.2 791.3,92.2 792.2,92.3 793.0,92.4 793.8,92.5 794.6,92.5 795.4,92.6 796.2,92.7 797.0,92.8 797.8,92.8 798.6,92.9 799.5,93.0 L799.5,93.5 L438.5,93.5 Z" fill="url(#g301)" clip-path="url(#c303)"/>
  <path d="M438.5,94.0 438.5,94.0 471.8,94.5 491.3,94.9 505.1,95.4 515.8,95.9 524.6,96.4 532.0,96.9 538.4,97.3 544.1,97.8 549.1,98.3 553.7,98.8 557.9,99.3 561.7,99.8 565.3,100.3 568.6,100.8 571.7,101.3 574.6,101.8 577.3,102.3 579.9,102.8 582.4,103.3 584.7,103.9 587.0,104.4 589.1,104.9 591.2,105.5 593.1,106.0 595.0,106.6 596.8,107.1 598.6,107.7 600.2,108.3 601.9,108.8 603.4,109.4 605.0,110.0 606.5,110.6 607.9,111.2 609.3,111.8 610.6,112.5 611.9,113.1 613.2,113.7 614.5,114.4 615.7,115.1 616.9,115.7 618.0,116.4 619.2,117.1 620.3,117.8 621.3,118.5 622.4,119.2 623.4,120.0 624.4,120.7 625.4,121.5 626.4,122.3 627.4,123.0 628.3,123.8 629.2,124.6 630.1,125.5 631.0,126.3 631.8,127.1 632.7,128.0 633.5,128.8 634.4,129.7 635.2,130.6 636.7,132.4 638.3,134.3 639.7,136.2 641.2,138.1 642.6,140.1 643.9,142.1 645.2,144.1 646.5,146.2 647.8,148.2 649.0,150.3 650.2,152.3 651.3,154.4 652.4,156.4 653.6,158.5 654.6,160.4 655.7,162.4 656.7,24.8 657.7,26.7 658.7,28.5 659.7,30.3 660.6,32.0 661.6,33.7 662.5,35.3 663.4,36.9 664.3,38.4 665.1,39.8 666.0,41.2 666.8,42.5 667.6,43.8 668.4,45.1 669.6,46.8 670.8,48.5 671.9,50.0 673.0,51.5 674.1,52.9 675.2,54.2 676.2,55.4 677.2,56.5 678.2,57.6 679.2,58.7 680.1,59.6 681.0,60.6 682.0,61.4 682.9,62.3 683.7,63.0 684.6,63.8 685.5,64.5 686.3,65.2 687.1,65.8 687.9,66.5 689.0,67.2 690.0,68.0 691.0,68.7 692.0,69.3 693.0,69.9 693.9,70.5 694.9,71.1 695.8,71.6 696.7,72.1 697.6,72.6 698.4,73.1 699.3,73.5 700.1,74.0 700.9,74.4 701.7,74.8 702.7,75.2 703.7,75.7 704.6,76.1 705.6,76.5 706.5,76.9 707.4,77.2 708.3,77.6 709.1,77.9 710.0,78.2 710.8,78.5 711.6,78.8 712.4,79.1 713.4,79.4 714.3,79.8 715.2,80.1 716.1,80.3 717.0,80.6 717.9,80.9 718.7,81.1 719.6,81.4 720.4,81.6 721.2,81.8 722.1,82.1 723.0,82.3 723.9,82.6 724.8,82.8 725.7,83.0 726.5,83.2 727.3,83.4 728.1,83.6 728.9,83.8 729.8,84.0 730.7,84.2 731.6,84.4 732.4,84.6 733.3,84.7 734.1,84.9 734.9,85.1 735.8,85.3 736.7,85.4 737.5,85.6 738.4,85.8 739.2,85.9 740.0,86.1 740.8,86.2 741.7,86.4 742.6,86.5 743.4,86.6 744.3,86.8 745.1,86.9 745.9,87.0 746.8,87.2 747.6,87.3 748.5,87.4 749.3,87.6 750.1,87.7 751.0,87.8 751.8,87.9 752.7,88.1 753.5,88.2 754.3,88.3 755.1,88.4 756.0,88.5 756.8,88.6 757.6,88.7 758.5,88.8 759.3,88.9 760.1,89.0 761.0,89.1 761.8,89.2 762.6,89.3 763.5,89.4 764.3,89.5 765.1,89.6 765.9,89.7 766.8,89.8 767.6,89.9 768.4,90.0 769.2,90.1 770.1,90.2 770.9,90.3 771.7,90.4 772.6,90.4 773.4,90.5 774.2,90.6 775.0,90.7 775.8,90.8 776.6,90.9 777.5,90.9 778.3,91.0 779.1,91.1 779.9,91.2 780.7,91.2 781.5,91.3 782.4,91.4 783.2,91.5 784.0,91.6 784.8,91.6 785.6,91.7 786.5,91.8 787.3,91.9 788.1,91.9 788.9,92.0 789.7,92.1 790.5,92.2 791.3,92.2 792.2,92.3 793.0,92.4 793.8,92.5 794.6,92.5 795.4,92.6 796.2,92.7 797.0,92.8 797.8,92.8 798.6,92.9 799.5,93.0 L799.5,93.5 L438.5,93.5 Z" fill="url(#g302)" clip-path="url(#c304)"/>
  <defs><clipPath id="pc305"><rect x="435" y="16" width="365" height="155"/></clipPath></defs>
  <polyline points="438.5,94.0 471.8,94.5 491.3,94.9 505.1,95.4 515.8,95.9 524.6,96.4 532.0,96.9 538.4,97.3 544.1,97.8 549.1,98.3 553.7,98.8 557.9,99.3 561.7,99.8 565.3,100.3 568.6,100.8 571.7,101.3 574.6,101.8 577.3,102.3 579.9,102.8 582.4,103.3 584.7,103.9 587.0,104.4 589.1,104.9 591.2,105.5 593.1,106.0 595.0,106.6 596.8,107.1 598.6,107.7 600.2,108.3 601.9,108.8 603.4,109.4 605.0,110.0 606.5,110.6 607.9,111.2 609.3,111.8 610.6,112.5 611.9,113.1 613.2,113.7 614.5,114.4 615.7,115.1 616.9,115.7 618.0,116.4 619.2,117.1 620.3,117.8 621.3,118.5 622.4,119.2 623.4,120.0 624.4,120.7 625.4,121.5 626.4,122.3 627.4,123.0 628.3,123.8 629.2,124.6 630.1,125.5 631.0,126.3 631.8,127.1 632.7,128.0 633.5,128.8 634.4,129.7 635.2,130.6 636.7,132.4 638.3,134.3 639.7,136.2 641.2,138.1 642.6,140.1 643.9,142.1 645.2,144.1 646.5,146.2 647.8,148.2 649.0,150.3 650.2,152.3 651.3,154.4 652.4,156.4 653.6,158.5 654.6,160.4 655.7,162.4 656.7,24.8 657.7,26.7 658.7,28.5 659.7,30.3 660.6,32.0 661.6,33.7 662.5,35.3 663.4,36.9 664.3,38.4 665.1,39.8 666.0,41.2 666.8,42.5 667.6,43.8 668.4,45.1 669.6,46.8 670.8,48.5 671.9,50.0 673.0,51.5 674.1,52.9 675.2,54.2 676.2,55.4 677.2,56.5 678.2,57.6 679.2,58.7 680.1,59.6 681.0,60.6 682.0,61.4 682.9,62.3 683.7,63.0 684.6,63.8 685.5,64.5 686.3,65.2 687.1,65.8 687.9,66.5 689.0,67.2 690.0,68.0 691.0,68.7 692.0,69.3 693.0,69.9 693.9,70.5 694.9,71.1 695.8,71.6 696.7,72.1 697.6,72.6 698.4,73.1 699.3,73.5 700.1,74.0 700.9,74.4 701.7,74.8 702.7,75.2 703.7,75.7 704.6,76.1 705.6,76.5 706.5,76.9 707.4,77.2 708.3,77.6 709.1,77.9 710.0,78.2 710.8,78.5 711.6,78.8 712.4,79.1 713.4,79.4 714.3,79.8 715.2,80.1 716.1,80.3 717.0,80.6 717.9,80.9 718.7,81.1 719.6,81.4 720.4,81.6 721.2,81.8 722.1,82.1 723.0,82.3 723.9,82.6 724.8,82.8 725.7,83.0 726.5,83.2 727.3,83.4 728.1,83.6 728.9,83.8 729.8,84.0 730.7,84.2 731.6,84.4 732.4,84.6 733.3,84.7 734.1,84.9 734.9,85.1 735.8,85.3 736.7,85.4 737.5,85.6 738.4,85.8 739.2,85.9 740.0,86.1 740.8,86.2 741.7,86.4 742.6,86.5 743.4,86.6 744.3,86.8 745.1,86.9 745.9,87.0 746.8,87.2 747.6,87.3 748.5,87.4 749.3,87.6 750.1,87.7 751.0,87.8 751.8,87.9 752.7,88.1 753.5,88.2 754.3,88.3 755.1,88.4 756.0,88.5 756.8,88.6 757.6,88.7 758.5,88.8 759.3,88.9 760.1,89.0 761.0,89.1 761.8,89.2 762.6,89.3 763.5,89.4 764.3,89.5 765.1,89.6 765.9,89.7 766.8,89.8 767.6,89.9 768.4,90.0 769.2,90.1 770.1,90.2 770.9,90.3 771.7,90.4 772.6,90.4 773.4,90.5 774.2,90.6 775.0,90.7 775.8,90.8 776.6,90.9 777.5,90.9 778.3,91.0 779.1,91.1 779.9,91.2 780.7,91.2 781.5,91.3 782.4,91.4 783.2,91.5 784.0,91.6 784.8,91.6 785.6,91.7 786.5,91.8 787.3,91.9 788.1,91.9 788.9,92.0 789.7,92.1 790.5,92.2 791.3,92.2 792.2,92.3 793.0,92.4 793.8,92.5 794.6,92.5 795.4,92.6 796.2,92.7 797.0,92.8 797.8,92.8 798.6,92.9 799.5,93.0" fill="none" stroke="#e74c3c" stroke-width="1.5" stroke-linejoin="round" clip-path="url(#pc305)"/>
  <line x1="34" y1="207" x2="34" y2="362" stroke="#d1d5db"/>
  <line x1="34" y1="284.5" x2="399" y2="284.5" stroke="#d1d5db"/>
  <text x="216.5" y="388" text-anchor="middle" font-size="9" fill="#6b7280">Hz</text>
  <text x="12" y="284.5" text-anchor="middle" font-size="9" fill="#6b7280" transform="rotate(-90 12 284.5)">Group delay</text>
  <line x1="67.3" y1="207" x2="67.3" y2="362" stroke="#e5e7eb" stroke-width="0.5"/>
  <line x1="86.8" y1="207" x2="86.8" y2="362" stroke="#e5e7eb" stroke-width="0.5"/>
  <line x1="100.6" y1="207" x2="100.6" y2="362" stroke="#e5e7eb" stroke-width="0.5"/>
  <line x1="111.3" y1="207" x2="111.3" y2="362" stroke="#e5e7eb" stroke-width="0.5"/>
  <line x1="120.0" y1="207" x2="120.0" y2="362" stroke="#e5e7eb" stroke-width="0.5"/>
  <line x1="127.4" y1="207" x2="127.4" y2="362" stroke="#e5e7eb" stroke-width="0.5"/>
  <line x1="133.9" y1="207" x2="133.9" y2="362" stroke="#e5e7eb" stroke-width="0.5"/>
  <line x1="139.5" y1="207" x2="139.5" y2="362" stroke="#e5e7eb" stroke-width="0.5"/>
  <line x1="177.9" y1="207" x2="177.9" y2="362" stroke="#e5e7eb" stroke-width="0.5"/>
  <line x1="197.3" y1="207" x2="197.3" y2="362" stroke="#e5e7eb" stroke-width="0.5"/>
  <line x1="211.1" y1="207" x2="211.1" y2="362" stroke="#e5e7eb" stroke-width="0.5"/>
  <line x1="221.9" y1="207" x2="221.9" y2="362" stroke="#e5e7eb" stroke-width="0.5"/>
  <line x1="230.6" y1="207" x2="230.6" y2="362" stroke="#e5e7eb" stroke-width="0.5"/>
  <line x1="238.0" y1="207" x2="238.0" y2="362" stroke="#e5e7eb" stroke-width="0.5"/>
  <line x1="244.4" y1="207" x2="244.4" y2="362" stroke="#e5e7eb" stroke-width="0.5"/>
  <line x1="250.1" y1="207" x2="250.1" y2="362" stroke="#e5e7eb" stroke-width="0.5"/>
  <line x1="288.4" y1="207" x2="288.4" y2="362" stroke="#e5e7eb" stroke-width="0.5"/>
  <line x1="307.9" y1="207" x2="307.9" y2="362" stroke="#e5e7eb" stroke-width="0.5"/>
  <line x1="321.7" y1="207" x2="321.7" y2="362" stroke="#e5e7eb" stroke-width="0.5"/>
  <line x1="332.4" y1="207" x2="332.4" y2="362" stroke="#e5e7eb" stroke-width="0.5"/>
  <line x1="341.2" y1="207" x2="341.2" y2="362" stroke="#e5e7eb" stroke-width="0.5"/>
  <line x1="348.6" y1="207" x2="348.6" y2="362" stroke="#e5e7eb" stroke-width="0.5"/>
  <line x1="355.0" y1="207" x2="355.0" y2="362" stroke="#e5e7eb" stroke-width="0.5"/>
  <line x1="360.7" y1="207" x2="360.7" y2="362" stroke="#e5e7eb" stroke-width="0.5"/>
  <line x1="399.0" y1="207" x2="399.0" y2="362" stroke="#e5e7eb" stroke-width="0.5"/>
  <line x1="144.6" y1="207" x2="144.6" y2="362" stroke="#e5e7eb" stroke-width="0.5"/>
  <text x="144.6" y="374" text-anchor="middle" font-size="8" fill="#6b7280">100</text>
  <line x1="255.1" y1="207" x2="255.1" y2="362" stroke="#e5e7eb" stroke-width="0.5"/>
  <text x="255.1" y="374" text-anchor="middle" font-size="8" fill="#6b7280">1k</text>
  <line x1="365.7" y1="207" x2="365.7" y2="362" stroke="#e5e7eb" stroke-width="0.5"/>
  <text x="365.7" y="374" text-anchor="middle" font-size="8" fill="#6b7280">10k</text>
  <line x1="34" y1="323.8" x2="399" y2="323.8" stroke="#e5e7eb" stroke-width="0.5"/>
  <text x="30" y="326.8" text-anchor="end" font-size="8" fill="#6b7280">-20</text>
  <text x="30" y="287.5" text-anchor="end" font-size="8" fill="#6b7280">0</text>
  <line x1="34" y1="245.2" x2="399" y2="245.2" stroke="#e5e7eb" stroke-width="0.5"/>
  <text x="30" y="248.2" text-anchor="end" font-size="8" fill="#6b7280">20</text>
  <line x1="255.1" y1="207" x2="255.1" y2="362" stroke="#d1d5db" stroke-width="1" stroke-dasharray="4 3"/>
  <defs><linearGradient id="g306" x1="0" y1="207" x2="0" y2="284.5" gradientUnits="userSpaceOnUse">
    <stop offset="0%" stop-color="#2ecc71" stop-opacity="0.15"/>
    <stop offset="100%" stop-color="#2ecc71" stop-opacity="0.02"/>
  </linearGradient></defs>
  <path d="M37.5,256.9 37.5,256.9 70.8,256.9 90.3,256.9 104.1,256.8 114.8,256.8 123.6,256.7 131.0,256.6 137.4,256.5 143.1,256.4 148.1,256.3 152.7,256.1 156.9,256.0 160.7,255.8 164.3,255.7 167.6,255.5 170.7,255.3 173.6,255.1 176.3,254.8 178.9,254.6 181.4,254.3 183.7,254.0 186.0,253.8 188.1,253.5 190.2,253.1 192.1,252.8 194.0,252.5 195.8,252.1 197.6,251.7 199.2,251.3 200.9,250.9 202.4,250.5 204.0,250.1 205.5,249.6 206.9,249.1 208.3,248.6 209.6,248.1 210.9,247.6 212.2,247.1 213.5,246.6 214.7,246.0 215.9,245.4 217.0,244.8 218.2,244.2 219.3,243.6 220.3,243.0 221.4,242.4 222.4,241.7 223.4,241.0 224.4,240.4 225.4,239.7 226.4,239.0 227.3,238.3 228.2,237.6 229.1,236.9 230.0,236.2 230.8,235.5 231.7,234.8 232.5,234.2 233.4,233.5 234.2,232.8 235.7,231.5 237.3,230.2 238.7,229.1 240.2,228.0 241.6,227.1 242.9,226.3 244.2,225.7 245.5,225.2 246.8,224.9 248.0,224.9 249.2,225.0 250.3,225.4 251.4,225.9 252.6,226.6 253.6,227.5 254.7,228.6 255.7,229.8 256.7,231.1 257.7,232.5 258.7,234.0 259.6,235.5 260.6,237.1 261.5,238.7 262.4,240.3 263.3,241.9 264.1,243.5 265.0,245.1 265.8,246.6 266.6,248.1 267.4,249.5 268.6,251.6 269.8,253.6 270.9,255.4 272.0,257.1 273.1,258.7 274.2,260.2 275.2,261.6 276.2,262.9 277.2,264.1 278.2,265.2 279.1,266.3 280.0,267.2 281.0,268.1 281.9,269.0 282.7,269.7 283.6,270.4 284.5,271.1 285.3,271.7 286.1,272.3 286.9,272.9 288.0,273.5 289.0,274.2 290.0,274.7 291.0,275.3 292.0,275.7 292.9,276.2 293.9,276.6 294.8,277.0 295.7,277.3 296.6,277.7 297.4,278.0 298.3,278.3 299.1,278.5 299.9,278.8 300.7,279.0 301.7,279.3 302.7,279.5 303.6,279.8 304.6,280.0 305.5,280.2 306.4,280.4 307.3,280.6 308.1,280.7 309.0,280.9 309.8,281.0 310.6,281.2 311.4,281.3 312.4,281.4 313.3,281.6 314.2,281.7 315.1,281.8 316.0,281.9 316.9,282.0 317.7,282.1 318.6,282.2 319.4,282.3 320.2,282.4 321.1,282.5 322.0,282.5 322.9,282.6 323.8,282.7 324.7,282.8 325.5,282.8 326.3,282.9 327.1,282.9 327.9,283.0 328.8,283.0 329.7,283.1 330.6,283.2 331.4,283.2 332.3,283.3 333.1,283.3 333.9,283.3 334.8,283.4 335.7,283.4 336.5,283.5 337.4,283.5 338.2,283.5 339.0,283.6 339.8,283.6 340.7,283.6 341.6,283.7 342.4,283.7 343.3,283.7 344.1,283.7 344.9,283.8 345.8,283.8 346.6,283.8 347.5,283.8 348.3,283.9 349.1,283.9 350.0,283.9 350.8,283.9 351.7,283.9 352.5,284.0 353.3,284.0 354.1,284.0 355.0,284.0 355.8,284.0 356.6,284.0 357.5,284.0 358.3,284.1 359.1,284.1 360.0,284.1 360.8,284.1 361.6,284.1 362.5,284.1 363.3,284.1 364.1,284.1 364.9,284.2 365.8,284.2 366.6,284.2 367.4,284.2 368.2,284.2 369.1,284.2 369.9,284.2 370.7,284.2 371.6,284.2 372.4,284.2 373.2,284.2 374.0,284.2 374.8,284.3 375.6,284.3 376.5,284.3 377.3,284.3 378.1,284.3 378.9,284.3 379.7,284.3 380.5,284.3 381.4,284.3 382.2,284.3 383.0,284.3 383.8,284.3 384.6,284.3 385.5,284.3 386.3,284.3 387.1,284.3 387.9,284.3 388.7,284.3 389.5,284.3 390.3,284.3 391.2,284.3 392.0,284.3 392.8,284.3 393.6,284.3 394.4,284.3 395.2,284.4 396.0,284.4 396.8,284.4 397.6,284.4 398.5,284.4 L398.5,284.5 L37.5,284.5 Z" fill="url(#g306)"/>
  <defs><clipPath id="pc307"><rect x="34" y="207" width="365" height="155"/></clipPath></defs>
  <polyline points="37.5,256.9 70.8,256.9 90.3,256.9 104.1,256.8 114.8,256.8 123.6,256.7 131.0,256.6 137.4,256.5 143.1,256.4 148.1,256.3 152.7,256.1 156.9,256.0 160.7,255.8 164.3,255.7 167.6,255.5 170.7,255.3 173.6,255.1 176.3,254.8 178.9,254.6 181.4,254.3 183.7,254.0 186.0,253.8 188.1,253.5 190.2,253.1 192.1,252.8 194.0,252.5 195.8,252.1 197.6,251.7 199.2,251.3 200.9,250.9 202.4,250.5 204.0,250.1 205.5,249.6 206.9,249.1 208.3,248.6 209.6,248.1 210.9,247.6 212.2,247.1 213.5,246.6 214.7,246.0 215.9,245.4 217.0,244.8 218.2,244.2 219.3,243.6 220.3,243.0 221.4,242.4 222.4,241.7 223.4,241.0 224.4,240.4 225.4,239.7 226.4,239.0 227.3,238.3 228.2,237.6 229.1,236.9 230.0,236.2 230.8,235.5 231.7,234.8 232.5,234.2 233.4,233.5 234.2,232.8 235.7,231.5 237.3,230.2 238.7,229.1 240.2,228.0 241.6,227.1 242.9,226.3 244.2,225.7 245.5,225.2 246.8,224.9 248.0,224.9 249.2,225.0 250.3,225.4 251.4,225.9 252.6,226.6 253.6,227.5 254.7,228.6 255.7,229.8 256.7,231.1 257.7,232.5 258.7,234.0 259.6,235.5 260.6,237.1 261.5,238.7 262.4,240.3 263.3,241.9 264.1,243.5 265.0,245.1 265.8,246.6 266.6,248.1 267.4,249.5 268.6,251.6 269.8,253.6 270.9,255.4 272.0,257.1 273.1,258.7 274.2,260.2 275.2,261.6 276.2,262.9 277.2,264.1 278.2,265.2 279.1,266.3 280.0,267.2 281.0,268.1 281.9,269.0 282.7,269.7 283.6,270.4 284.5,271.1 285.3,271.7 286.1,272.3 286.9,272.9 288.0,273.5 289.0,274.2 290.0,274.7 291.0,275.3 292.0,275.7 292.9,276.2 293.9,276.6 294.8,277.0 295.7,277.3 296.6,277.7 297.4,278.0 298.3,278.3 299.1,278.5 299.9,278.8 300.7,279.0 301.7,279.3 302.7,279.5 303.6,279.8 304.6,280.0 305.5,280.2 306.4,280.4 307.3,280.6 308.1,280.7 309.0,280.9 309.8,281.0 310.6,281.2 311.4,281.3 312.4,281.4 313.3,281.6 314.2,281.7 315.1,281.8 316.0,281.9 316.9,282.0 317.7,282.1 318.6,282.2 319.4,282.3 320.2,282.4 321.1,282.5 322.0,282.5 322.9,282.6 323.8,282.7 324.7,282.8 325.5,282.8 326.3,282.9 327.1,282.9 327.9,283.0 328.8,283.0 329.7,283.1 330.6,283.2 331.4,283.2 332.3,283.3 333.1,283.3 333.9,283.3 334.8,283.4 335.7,283.4 336.5,283.5 337.4,283.5 338.2,283.5 339.0,283.6 339.8,283.6 340.7,283.6 341.6,283.7 342.4,283.7 343.3,283.7 344.1,283.7 344.9,283.8 345.8,283.8 346.6,283.8 347.5,283.8 348.3,283.9 349.1,283.9 350.0,283.9 350.8,283.9 351.7,283.9 352.5,284.0 353.3,284.0 354.1,284.0 355.0,284.0 355.8,284.0 356.6,284.0 357.5,284.0 358.3,284.1 359.1,284.1 360.0,284.1 360.8,284.1 361.6,284.1 362.5,284.1 363.3,284.1 364.1,284.1 364.9,284.2 365.8,284.2 366.6,284.2 367.4,284.2 368.2,284.2 369.1,284.2 369.9,284.2 370.7,284.2 371.6,284.2 372.4,284.2 373.2,284.2 374.0,284.2 374.8,284.3 375.6,284.3 376.5,284.3 377.3,284.3 378.1,284.3 378.9,284.3 379.7,284.3 380.5,284.3 381.4,284.3 382.2,284.3 383.0,284.3 383.8,284.3 384.6,284.3 385.5,284.3 386.3,284.3 387.1,284.3 387.9,284.3 388.7,284.3 389.5,284.3 390.3,284.3 391.2,284.3 392.0,284.3 392.8,284.3 393.6,284.3 394.4,284.3 395.2,284.4 396.0,284.4 396.8,284.4 397.6,284.4 398.5,284.4" fill="none" stroke="#2ecc71" stroke-width="1.5" stroke-linejoin="round" clip-path="url(#pc307)"/>
  <line x1="435" y1="207" x2="435" y2="362" stroke="#d1d5db"/>
  <line x1="435" y1="284.5" x2="800" y2="284.5" stroke="#d1d5db"/>
  <text x="617.5" y="388" text-anchor="middle" font-size="9" fill="#6b7280">Samples</text>
  <text x="413" y="284.5" text-anchor="middle" font-size="9" fill="#6b7280" transform="rotate(-90 413 284.5)">Impulse response</text>
  <line x1="435.0" y1="207" x2="435.0" y2="362" stroke="#e5e7eb" stroke-width="0.5"/>
  <text x="435.0" y="374" text-anchor="middle" font-size="8" fill="#6b7280">0</text>
  <line x1="563.3" y1="207" x2="563.3" y2="362" stroke="#e5e7eb" stroke-width="0.5"/>
  <text x="563.3" y="374" text-anchor="middle" font-size="8" fill="#6b7280">90</text>
  <line x1="691.6" y1="207" x2="691.6" y2="362" stroke="#e5e7eb" stroke-width="0.5"/>
  <text x="691.6" y="374" text-anchor="middle" font-size="8" fill="#6b7280">180</text>
  <line x1="435" y1="338.1" x2="800" y2="338.1" stroke="#e5e7eb" stroke-width="0.5"/>
  <text x="431" y="341.1" text-anchor="end" font-size="8" fill="#6b7280">-0.6</text>
  <text x="431" y="287.5" text-anchor="end" font-size="8" fill="#6b7280">0</text>
  <line x1="435" y1="230.9" x2="800" y2="230.9" stroke="#e5e7eb" stroke-width="0.5"/>
  <text x="431" y="233.9" text-anchor="end" font-size="8" fill="#6b7280">0.6</text>
  <defs><linearGradient id="g308" x1="0" y1="207" x2="0" y2="284.5" gradientUnits="userSpaceOnUse">
    <stop offset="0%" stop-color="#f39c12" stop-opacity="0.15"/>
    <stop offset="100%" stop-color="#f39c12" stop-opacity="0.02"/>
  </linearGradient></defs>
  <defs><linearGradient id="g309" x1="0" y1="362" x2="0" y2="284.5" gradientUnits="userSpaceOnUse">
    <stop offset="0%" stop-color="#f39c12" stop-opacity="0.15"/>
    <stop offset="100%" stop-color="#f39c12" stop-opacity="0.02"/>
  </linearGradient></defs>
  <defs><clipPath id="c310"><rect x="435" y="207" width="365" height="77.5"/></clipPath></defs>
  <defs><clipPath id="c311"><rect x="435" y="284.5" width="365" height="77.5"/></clipPath></defs>
  <path d="M435.0,207.0 435.0,207.0 436.4,306.4 437.9,302.9 439.3,299.4 440.7,296.2 442.1,293.1 443.6,290.3 445.0,287.8 446.4,285.5 447.8,283.6 449.3,281.9 450.7,280.4 452.1,279.3 453.5,278.4 455.0,277.7 456.4,277.2 457.8,277.0 459.2,276.9 460.7,277.0 462.1,277.2 463.5,277.5 464.9,277.9 466.4,278.4 467.8,278.9 469.2,279.5 470.6,280.1 472.1,280.7 473.5,281.2 474.9,281.8 476.3,282.4 477.8,282.9 479.2,283.4 480.6,283.8 482.1,284.2 483.5,284.5 484.9,284.8 486.3,285.1 487.8,285.3 489.2,285.5 490.6,285.6 492.0,285.7 493.5,285.7 494.9,285.7 496.3,285.7 497.7,285.7 499.2,285.7 500.6,285.6 502.0,285.5 503.4,285.5 504.9,285.4 506.3,285.3 507.7,285.2 509.1,285.1 510.6,285.0 512.0,284.9 513.4,284.8 514.8,284.7 516.3,284.6 517.7,284.6 519.1,284.5 520.5,284.5 522.0,284.4 523.4,284.4 524.8,284.4 526.3,284.3 527.7,284.3 529.1,284.3 530.5,284.3 532.0,284.3 533.4,284.3 534.8,284.3 536.2,284.3 537.7,284.3 539.1,284.3 540.5,284.4 541.9,284.4 543.4,284.4 544.8,284.4 546.2,284.4 547.6,284.4 549.1,284.4 550.5,284.5 551.9,284.5 553.3,284.5 554.8,284.5 556.2,284.5 557.6,284.5 559.0,284.5 560.5,284.5 561.9,284.5 563.3,284.5 564.7,284.5 566.2,284.5 567.6,284.5 569.0,284.5 570.4,284.5 571.9,284.5 573.3,284.5 574.7,284.5 576.2,284.5 577.6,284.5 579.0,284.5 580.4,284.5 581.9,284.5 583.3,284.5 584.7,284.5 586.1,284.5 587.6,284.5 589.0,284.5 590.4,284.5 591.8,284.5 593.3,284.5 594.7,284.5 596.1,284.5 597.5,284.5 599.0,284.5 600.4,284.5 601.8,284.5 603.2,284.5 604.7,284.5 606.1,284.5 607.5,284.5 608.9,284.5 610.4,284.5 611.8,284.5 613.2,284.5 614.6,284.5 616.1,284.5 617.5,284.5 618.9,284.5 620.4,284.5 621.8,284.5 623.2,284.5 624.6,284.5 626.1,284.5 627.5,284.5 628.9,284.5 630.3,284.5 631.8,284.5 633.2,284.5 634.6,284.5 636.0,284.5 637.5,284.5 638.9,284.5 640.3,284.5 641.7,284.5 643.2,284.5 644.6,284.5 646.0,284.5 647.4,284.5 648.9,284.5 650.3,284.5 651.7,284.5 653.1,284.5 654.6,284.5 656.0,284.5 657.4,284.5 658.8,284.5 660.3,284.5 661.7,284.5 663.1,284.5 664.6,284.5 666.0,284.5 667.4,284.5 668.8,284.5 670.3,284.5 671.7,284.5 673.1,284.5 674.5,284.5 676.0,284.5 677.4,284.5 678.8,284.5 680.2,284.5 681.7,284.5 683.1,284.5 684.5,284.5 685.9,284.5 687.4,284.5 688.8,284.5 690.2,284.5 691.6,284.5 693.1,284.5 694.5,284.5 695.9,284.5 697.3,284.5 698.8,284.5 700.2,284.5 701.6,284.5 703.0,284.5 704.5,284.5 705.9,284.5 707.3,284.5 708.8,284.5 710.2,284.5 711.6,284.5 713.0,284.5 714.5,284.5 715.9,284.5 717.3,284.5 718.7,284.5 720.2,284.5 721.6,284.5 723.0,284.5 724.4,284.5 725.9,284.5 727.3,284.5 728.7,284.5 730.1,284.5 731.6,284.5 733.0,284.5 734.4,284.5 735.8,284.5 737.3,284.5 738.7,284.5 740.1,284.5 741.5,284.5 743.0,284.5 744.4,284.5 745.8,284.5 747.2,284.5 748.7,284.5 750.1,284.5 751.5,284.5 752.9,284.5 754.4,284.5 755.8,284.5 757.2,284.5 758.7,284.5 760.1,284.5 761.5,284.5 762.9,284.5 764.4,284.5 765.8,284.5 767.2,284.5 768.6,284.5 770.1,284.5 771.5,284.5 772.9,284.5 774.3,284.5 775.8,284.5 777.2,284.5 778.6,284.5 780.0,284.5 781.5,284.5 782.9,284.5 784.3,284.5 785.7,284.5 787.2,284.5 788.6,284.5 790.0,284.5 791.4,284.5 792.9,284.5 794.3,284.5 795.7,284.5 797.1,284.5 798.6,284.5 L798.6,284.5 L435.0,284.5 Z" fill="url(#g308)" clip-path="url(#c310)"/>
  <path d="M435.0,207.0 435.0,207.0 436.4,306.4 437.9,302.9 439.3,299.4 440.7,296.2 442.1,293.1 443.6,290.3 445.0,287.8 446.4,285.5 447.8,283.6 449.3,281.9 450.7,280.4 452.1,279.3 453.5,278.4 455.0,277.7 456.4,277.2 457.8,277.0 459.2,276.9 460.7,277.0 462.1,277.2 463.5,277.5 464.9,277.9 466.4,278.4 467.8,278.9 469.2,279.5 470.6,280.1 472.1,280.7 473.5,281.2 474.9,281.8 476.3,282.4 477.8,282.9 479.2,283.4 480.6,283.8 482.1,284.2 483.5,284.5 484.9,284.8 486.3,285.1 487.8,285.3 489.2,285.5 490.6,285.6 492.0,285.7 493.5,285.7 494.9,285.7 496.3,285.7 497.7,285.7 499.2,285.7 500.6,285.6 502.0,285.5 503.4,285.5 504.9,285.4 506.3,285.3 507.7,285.2 509.1,285.1 510.6,285.0 512.0,284.9 513.4,284.8 514.8,284.7 516.3,284.6 517.7,284.6 519.1,284.5 520.5,284.5 522.0,284.4 523.4,284.4 524.8,284.4 526.3,284.3 527.7,284.3 529.1,284.3 530.5,284.3 532.0,284.3 533.4,284.3 534.8,284.3 536.2,284.3 537.7,284.3 539.1,284.3 540.5,284.4 541.9,284.4 543.4,284.4 544.8,284.4 546.2,284.4 547.6,284.4 549.1,284.4 550.5,284.5 551.9,284.5 553.3,284.5 554.8,284.5 556.2,284.5 557.6,284.5 559.0,284.5 560.5,284.5 561.9,284.5 563.3,284.5 564.7,284.5 566.2,284.5 567.6,284.5 569.0,284.5 570.4,284.5 571.9,284.5 573.3,284.5 574.7,284.5 576.2,284.5 577.6,284.5 579.0,284.5 580.4,284.5 581.9,284.5 583.3,284.5 584.7,284.5 586.1,284.5 587.6,284.5 589.0,284.5 590.4,284.5 591.8,284.5 593.3,284.5 594.7,284.5 596.1,284.5 597.5,284.5 599.0,284.5 600.4,284.5 601.8,284.5 603.2,284.5 604.7,284.5 606.1,284.5 607.5,284.5 608.9,284.5 610.4,284.5 611.8,284.5 613.2,284.5 614.6,284.5 616.1,284.5 617.5,284.5 618.9,284.5 620.4,284.5 621.8,284.5 623.2,284.5 624.6,284.5 626.1,284.5 627.5,284.5 628.9,284.5 630.3,284.5 631.8,284.5 633.2,284.5 634.6,284.5 636.0,284.5 637.5,284.5 638.9,284.5 640.3,284.5 641.7,284.5 643.2,284.5 644.6,284.5 646.0,284.5 647.4,284.5 648.9,284.5 650.3,284.5 651.7,284.5 653.1,284.5 654.6,284.5 656.0,284.5 657.4,284.5 658.8,284.5 660.3,284.5 661.7,284.5 663.1,284.5 664.6,284.5 666.0,284.5 667.4,284.5 668.8,284.5 670.3,284.5 671.7,284.5 673.1,284.5 674.5,284.5 676.0,284.5 677.4,284.5 678.8,284.5 680.2,284.5 681.7,284.5 683.1,284.5 684.5,284.5 685.9,284.5 687.4,284.5 688.8,284.5 690.2,284.5 691.6,284.5 693.1,284.5 694.5,284.5 695.9,284.5 697.3,284.5 698.8,284.5 700.2,284.5 701.6,284.5 703.0,284.5 704.5,284.5 705.9,284.5 707.3,284.5 708.8,284.5 710.2,284.5 711.6,284.5 713.0,284.5 714.5,284.5 715.9,284.5 717.3,284.5 718.7,284.5 720.2,284.5 721.6,284.5 723.0,284.5 724.4,284.5 725.9,284.5 727.3,284.5 728.7,284.5 730.1,284.5 731.6,284.5 733.0,284.5 734.4,284.5 735.8,284.5 737.3,284.5 738.7,284.5 740.1,284.5 741.5,284.5 743.0,284.5 744.4,284.5 745.8,284.5 747.2,284.5 748.7,284.5 750.1,284.5 751.5,284.5 752.9,284.5 754.4,284.5 755.8,284.5 757.2,284.5 758.7,284.5 760.1,284.5 761.5,284.5 762.9,284.5 764.4,284.5 765.8,284.5 767.2,284.5 768.6,284.5 770.1,284.5 771.5,284.5 772.9,284.5 774.3,284.5 775.8,284.5 777.2,284.5 778.6,284.5 780.0,284.5 781.5,284.5 782.9,284.5 784.3,284.5 785.7,284.5 787.2,284.5 788.6,284.5 790.0,284.5 791.4,284.5 792.9,284.5 794.3,284.5 795.7,284.5 797.1,284.5 798.6,284.5 L798.6,284.5 L435.0,284.5 Z" fill="url(#g309)" clip-path="url(#c311)"/>
  <defs><clipPath id="pc312"><rect x="435" y="207" width="365" height="155"/></clipPath></defs>
  <polyline points="435.0,207.0 436.4,306.4 437.9,302.9 439.3,299.4 440.7,296.2 442.1,293.1 443.6,290.3 445.0,287.8 446.4,285.5 447.8,283.6 449.3,281.9 450.7,280.4 452.1,279.3 453.5,278.4 455.0,277.7 456.4,277.2 457.8,277.0 459.2,276.9 460.7,277.0 462.1,277.2 463.5,277.5 464.9,277.9 466.4,278.4 467.8,278.9 469.2,279.5 470.6,280.1 472.1,280.7 473.5,281.2 474.9,281.8 476.3,282.4 477.8,282.9 479.2,283.4 480.6,283.8 482.1,284.2 483.5,284.5 484.9,284.8 486.3,285.1 487.8,285.3 489.2,285.5 490.6,285.6 492.0,285.7 493.5,285.7 494.9,285.7 496.3,285.7 497.7,285.7 499.2,285.7 500.6,285.6 502.0,285.5 503.4,285.5 504.9,285.4 506.3,285.3 507.7,285.2 509.1,285.1 510.6,285.0 512.0,284.9 513.4,284.8 514.8,284.7 516.3,284.6 517.7,284.6 519.1,284.5 520.5,284.5 522.0,284.4 523.4,284.4 524.8,284.4 526.3,284.3 527.7,284.3 529.1,284.3 530.5,284.3 532.0,284.3 533.4,284.3 534.8,284.3 536.2,284.3 537.7,284.3 539.1,284.3 540.5,284.4 541.9,284.4 543.4,284.4 544.8,284.4 546.2,284.4 547.6,284.4 549.1,284.4 550.5,284.5 551.9,284.5 553.3,284.5 554.8,284.5 556.2,284.5 557.6,284.5 559.0,284.5 560.5,284.5 561.9,284.5 563.3,284.5 564.7,284.5 566.2,284.5 567.6,284.5 569.0,284.5 570.4,284.5 571.9,284.5 573.3,284.5 574.7,284.5 576.2,284.5 577.6,284.5 579.0,284.5 580.4,284.5 581.9,284.5 583.3,284.5 584.7,284.5 586.1,284.5 587.6,284.5 589.0,284.5 590.4,284.5 591.8,284.5 593.3,284.5 594.7,284.5 596.1,284.5 597.5,284.5 599.0,284.5 600.4,284.5 601.8,284.5 603.2,284.5 604.7,284.5 606.1,284.5 607.5,284.5 608.9,284.5 610.4,284.5 611.8,284.5 613.2,284.5 614.6,284.5 616.1,284.5 617.5,284.5 618.9,284.5 620.4,284.5 621.8,284.5 623.2,284.5 624.6,284.5 626.1,284.5 627.5,284.5 628.9,284.5 630.3,284.5 631.8,284.5 633.2,284.5 634.6,284.5 636.0,284.5 637.5,284.5 638.9,284.5 640.3,284.5 641.7,284.5 643.2,284.5 644.6,284.5 646.0,284.5 647.4,284.5 648.9,284.5 650.3,284.5 651.7,284.5 653.1,284.5 654.6,284.5 656.0,284.5 657.4,284.5 658.8,284.5 660.3,284.5 661.7,284.5 663.1,284.5 664.6,284.5 666.0,284.5 667.4,284.5 668.8,284.5 670.3,284.5 671.7,284.5 673.1,284.5 674.5,284.5 676.0,284.5 677.4,284.5 678.8,284.5 680.2,284.5 681.7,284.5 683.1,284.5 684.5,284.5 685.9,284.5 687.4,284.5 688.8,284.5 690.2,284.5 691.6,284.5 693.1,284.5 694.5,284.5 695.9,284.5 697.3,284.5 698.8,284.5 700.2,284.5 701.6,284.5 703.0,284.5 704.5,284.5 705.9,284.5 707.3,284.5 708.8,284.5 710.2,284.5 711.6,284.5 713.0,284.5 714.5,284.5 715.9,284.5 717.3,284.5 718.7,284.5 720.2,284.5 721.6,284.5 723.0,284.5 724.4,284.5 725.9,284.5 727.3,284.5 728.7,284.5 730.1,284.5 731.6,284.5 733.0,284.5 734.4,284.5 735.8,284.5 737.3,284.5 738.7,284.5 740.1,284.5 741.5,284.5 743.0,284.5 744.4,284.5 745.8,284.5 747.2,284.5 748.7,284.5 750.1,284.5 751.5,284.5 752.9,284.5 754.4,284.5 755.8,284.5 757.2,284.5 758.7,284.5 760.1,284.5 761.5,284.5 762.9,284.5 764.4,284.5 765.8,284.5 767.2,284.5 768.6,284.5 770.1,284.5 771.5,284.5 772.9,284.5 774.3,284.5 775.8,284.5 777.2,284.5 778.6,284.5 780.0,284.5 781.5,284.5 782.9,284.5 784.3,284.5 785.7,284.5 787.2,284.5 788.6,284.5 790.0,284.5 791.4,284.5 792.9,284.5 794.3,284.5 795.7,284.5 797.1,284.5 798.6,284.5" fill="none" stroke="#f39c12" stroke-width="1.3" stroke-linejoin="round" clip-path="url(#pc312)"/>
</svg>
