<svg xmlns="http://www.w3.org/2000/svg" viewBox="0 0 775 252" style="font-family:system-ui,-apple-system,sans-serif">
  <text x="755" y="7" text-anchor="end" font-size="11" font-weight="600" fill="#6b7280">4-way crossover at 500Hz / 2kHz / 8kHz</text>
  <line x1="55" y1="12" x2="55" y2="212" stroke="#d1d5db"/>
  <line x1="55" y1="52.0" x2="755" y2="52.0" stroke="#d1d5db"/>
  <text x="405" y="238" text-anchor="middle" font-size="9" fill="#6b7280">Hz</text>
  <text x="33" y="112" text-anchor="middle" font-size="9" fill="#6b7280" transform="rotate(-90 33 112)">dB</text>
  <line x1="55.0" y1="12" x2="55.0" y2="212" stroke="#e5e7eb" stroke-width="0.5"/>
  <line x1="96.1" y1="12" x2="96.1" y2="212" stroke="#e5e7eb" stroke-width="0.5"/>
  <line x1="125.2" y1="12" x2="125.2" y2="212" stroke="#e5e7eb" stroke-width="0.5"/>
  <line x1="147.9" y1="12" x2="147.9" y2="212" stroke="#e5e7eb" stroke-width="0.5"/>
  <line x1="166.3" y1="12" x2="166.3" y2="212" stroke="#e5e7eb" stroke-width="0.5"/>
  <line x1="181.9" y1="12" x2="181.9" y2="212" stroke="#e5e7eb" stroke-width="0.5"/>
  <line x1="195.5" y1="12" x2="195.5" y2="212" stroke="#e5e7eb" stroke-width="0.5"/>
  <line x1="207.4" y1="12" x2="207.4" y2="212" stroke="#e5e7eb" stroke-width="0.5"/>
  <line x1="288.3" y1="12" x2="288.3" y2="212" stroke="#e5e7eb" stroke-width="0.5"/>
  <line x1="329.4" y1="12" x2="329.4" y2="212" stroke="#e5e7eb" stroke-width="0.5"/>
  <line x1="358.6" y1="12" x2="358.6" y2="212" stroke="#e5e7eb" stroke-width="0.5"/>
  <line x1="381.2" y1="12" x2="381.2" y2="212" stroke="#e5e7eb" stroke-width="0.5"/>
  <line x1="399.7" y1="12" x2="399.7" y2="212" stroke="#e5e7eb" stroke-width="0.5"/>
  <line x1="415.3" y1="12" x2="415.3" y2="212" stroke="#e5e7eb" stroke-width="0.5"/>
  <line x1="428.8" y1="12" x2="428.8" y2="212" stroke="#e5e7eb" stroke-width="0.5"/>
  <line x1="440.7" y1="12" x2="440.7" y2="212" stroke="#e5e7eb" stroke-width="0.5"/>
  <line x1="521.7" y1="12" x2="521.7" y2="212" stroke="#e5e7eb" stroke-width="0.5"/>
  <line x1="562.8" y1="12" x2="562.8" y2="212" stroke="#e5e7eb" stroke-width="0.5"/>
  <line x1="591.9" y1="12" x2="591.9" y2="212" stroke="#e5e7eb" stroke-width="0.5"/>
  <line x1="614.5" y1="12" x2="614.5" y2="212" stroke="#e5e7eb" stroke-width="0.5"/>
  <line x1="633.0" y1="12" x2="633.0" y2="212" stroke="#e5e7eb" stroke-width="0.5"/>
  <line x1="648.6" y1="12" x2="648.6" y2="212" stroke="#e5e7eb" stroke-width="0.5"/>
  <line x1="662.1" y1="12" x2="662.1" y2="212" stroke="#e5e7eb" stroke-width="0.5"/>
  <line x1="674.1" y1="12" x2="674.1" y2="212" stroke="#e5e7eb" stroke-width="0.5"/>
  <line x1="755.0" y1="12" x2="755.0" y2="212" stroke="#e5e7eb" stroke-width="0.5"/>
  <line x1="218.1" y1="12" x2="218.1" y2="212" stroke="#e5e7eb" stroke-width="0.5"/>
  <text x="218.1" y="224" text-anchor="middle" font-size="8" fill="#6b7280">100</text>
  <line x1="451.4" y1="12" x2="451.4" y2="212" stroke="#e5e7eb" stroke-width="0.5"/>
  <text x="451.4" y="224" text-anchor="middle" font-size="8" fill="#6b7280">1k</text>
  <line x1="684.8" y1="12" x2="684.8" y2="212" stroke="#e5e7eb" stroke-width="0.5"/>
  <text x="684.8" y="224" text-anchor="middle" font-size="8" fill="#6b7280">10k</text>
  <line x1="55" y1="32.0" x2="755" y2="32.0" stroke="#e5e7eb" stroke-width="0.5"/>
  <line x1="55" y1="72.0" x2="755" y2="72.0" stroke="#e5e7eb" stroke-width="0.5"/>
  <line x1="55" y1="12.0" x2="755" y2="12.0" stroke="#e5e7eb" stroke-width="0.5"/>
  <text x="51" y="15.0" text-anchor="end" font-size="8" fill="#6b7280">+20</text>
  <text x="51" y="55.0" text-anchor="end" font-size="8" fill="#6b7280">0</text>
  <line x1="55" y1="92.0" x2="755" y2="92.0" stroke="#e5e7eb" stroke-width="0.5"/>
  <text x="51" y="95.0" text-anchor="end" font-size="8" fill="#6b7280">-20</text>
  <line x1="55" y1="132.0" x2="755" y2="132.0" stroke="#e5e7eb" stroke-width="0.5"/>
  <text x="51" y="135.0" text-anchor="end" font-size="8" fill="#6b7280">-40</text>
  <line x1="55" y1="172.0" x2="755" y2="172.0" stroke="#e5e7eb" stroke-width="0.5"/>
  <text x="51" y="175.0" text-anchor="end" font-size="8" fill="#6b7280">-60</text>
  <line x1="55" y1="212.0" x2="755" y2="212.0" stroke="#e5e7eb" stroke-width="0.5"/>
  <text x="51" y="215.0" text-anchor="end" font-size="8" fill="#6b7280">-80</text>
  <defs><clipPath id="pc254"><rect x="55" y="12" width="700" height="200"/></clipPath></defs>
  <polyline points="62.5,52.0 103.6,52.0 132.7,52.0 155.3,52.0 173.8,52.0 189.4,52.0 203.0,52.0 214.9,52.0 225.6,52.0 235.2,52.1 244.1,52.1 252.2,52.1 259.7,52.1 266.7,52.2 273.2,52.2 279.3,52.3 285.1,52.4 290.6,52.5 295.8,52.6 300.8,52.7 305.5,52.9 310.0,53.0 314.3,53.2 318.4,53.4 322.4,53.6 326.2,53.9 329.9,54.2 333.5,54.5 336.9,54.8 340.2,55.1 343.4,55.5 346.6,55.9 349.6,56.4 352.5,56.9 355.4,57.4 358.2,57.9 360.9,58.4 363.5,59.0 366.1,59.6 368.6,60.2 371.0,60.9 373.4,61.6 375.7,62.3 378.0,63.0 380.2,63.7 382.4,64.5 384.5,65.2 386.6,66.0 388.7,66.8 390.7,67.6 392.6,68.4 394.6,69.2 396.5,70.1 398.3,70.9 400.2,71.7 401.9,72.6 403.7,73.4 405.4,74.3 407.1,75.1 408.8,76.0 410.5,76.9 412.1,77.7 413.7,78.6 415.3,79.4 416.8,80.3 418.3,81.1 419.8,81.9 421.3,82.8 422.8,83.6 424.2,84.5 425.6,85.3 427.0,86.1 428.4,86.9 429.8,87.7 431.1,88.5 432.4,89.3 433.7,90.1 435.0,90.9 436.3,91.7 437.6,92.5 438.8,93.3 440.0,94.0 441.2,94.8 442.4,95.6 443.6,96.3 444.8,97.0 446.0,97.8 447.1,98.5 448.2,99.2 449.4,100.0 450.5,100.7 451.6,101.4 452.6,102.1 453.7,102.8 454.8,103.5 455.8,104.2 456.9,104.8 457.9,105.5 458.9,106.2 459.9,106.9 460.9,107.5 461.9,108.2 462.9,108.8 463.9,109.5 464.8,110.1 465.8,110.7 466.7,111.4 467.6,112.0 468.6,112.6 469.5,113.2 470.4,113.8 471.3,114.4 472.2,115.0 473.1,115.6 474.0,116.2 474.8,116.8 475.7,117.4 476.5,117.9 477.4,118.5 478.2,119.1 479.1,119.6 479.9,120.2 480.7,120.8 481.5,121.3 482.3,121.9 483.1,122.4 484.7,123.5 486.3,124.5 487.8,125.6 489.3,126.6 490.8,127.6 492.3,128.6 493.7,129.6 495.2,130.6 496.6,131.6 498.0,132.5 499.3,133.4 500.7,134.4 502.0,135.3 503.3,136.2 504.6,137.1 505.9,138.0 507.2,138.8 508.4,139.7 509.7,140.5 510.9,141.4 512.1,142.2 513.3,143.0 514.5,143.9 515.6,144.7 516.8,145.5 517.9,146.2 519.0,147.0 520.1,147.8 521.3,148.6 522.3,149.3 523.4,150.1 524.5,150.8 525.5,151.5 526.6,152.2 527.6,153.0 528.6,153.7 529.7,154.4 530.7,155.1 531.7,155.8 532.6,156.5 533.6,157.1 534.6,157.8 535.5,158.5 536.5,159.1 537.4,159.8 538.3,160.4 539.3,161.1 540.2,161.7 541.1,162.3 542.0,163.0 542.9,163.6 543.8,164.2 544.6,164.8 545.5,165.4 546.4,166.0 547.2,166.6 548.0,167.2 548.9,167.8 549.7,168.4 550.5,169.0 551.4,169.5 552.2,170.1 553.0,170.7 554.2,171.5 555.3,172.3 556.5,173.2 557.7,174.0 558.8,174.8 559.9,175.6 561.1,176.4 562.2,177.1 563.2,177.9 564.3,178.7 565.4,179.4 566.5,180.2 567.5,180.9 568.5,181.6 569.6,182.4 570.6,183.1 571.6,183.8 572.6,184.5 573.6,185.2 574.5,185.9 575.5,186.6 576.5,187.3 577.4,188.0 578.4,188.6 579.3,189.3 580.2,190.0 581.1,190.6 582.0,191.3 582.9,191.9 583.8,192.5 584.7,193.2 585.6,193.8 586.4,194.4 587.3,195.1 588.2,195.7 589.0,196.3 589.8,196.9 590.7,197.5 591.5,198.1 592.3,198.7 593.1,199.3 593.9,199.9 595.0,200.6 596.0,201.4 597.1,202.1 598.1,202.9 599.1,203.6 600.1,204.4 601.2,205.1 602.1,205.8 603.1,206.6 604.1,207.3 605.1,208.0 606.0,208.7 607.0,209.4 607.9,210.1 608.8,210.8 609.7,211.4 610.6,212.1 611.6,212.8 612.4,213.5 613.3,214.1 614.2,214.8 615.1,215.4 615.9,216.1 616.8,216.7 617.7,217.4 618.5,218.0 619.3,218.6 620.2,219.2 621.0,219.9 621.8,220.5 622.6,221.1 623.4,221.7 624.4,222.5 625.4,223.2 626.4,224.0 627.3,224.7 628.3,225.4 629.2,226.2 630.2,226.9 631.1,227.6 632.0,228.3 632.9,229.0 633.8,229.7 634.7,230.4 635.6,231.1 636.5,231.8 637.4,232.5 638.3,233.2 639.1,233.9 640.0,234.5 640.8,235.2 641.7,235.9 642.5,236.5 643.3,237.2 644.1,237.8 644.9,238.5 645.7,239.1 646.7,239.9 647.7,240.7 648.6,241.5 649.5,242.2 650.4,243.0 651.4,243.7 652.3,244.5 653.2,245.2 654.1,245.9 654.9,246.7 655.8,247.4 656.7,248.1 657.5,248.9 658.4,249.6 659.2,250.3 660.1,251.0 660.9,251.7 661.7,252.4 662.6,253.1 663.4,253.8 664.2,254.5 665.1,255.3 666.0,256.1 666.9,256.9 667.8,257.7 668.7,258.5 669.6,259.3 670.5,260.1 671.4,260.9 672.3,261.7 673.1,262.5 674.0,263.3 674.8,264.0 675.7,264.8 676.5,265.6 677.3,266.4 678.1,267.1 678.9,267.9 679.8,268.7 680.7,269.5 681.6,270.4 682.5,271.3 683.4,272.1 684.2,273.0 685.1,273.9 686.0,274.7 686.8,275.6 687.7,276.4 688.5,277.3 689.4,278.2 690.2,279.0 691.0,279.9 691.8,280.7 692.6,281.6 693.5,282.4 694.4,283.4 695.2,284.3 696.1,285.3 697.0,286.3 697.9,287.2 698.7,288.2 699.6,289.1 700.4,290.1 701.3,291.1 702.1,292.0 702.9,293.0 703.7,294.0 704.5,294.9 705.3,295.9 706.2,297.0 707.1,298.1 708.0,299.2 708.8,300.3 709.7,301.4 710.6,302.5 711.4,303.6 712.2,304.7 713.1,305.8 713.9,306.9 714.7,308.1 715.5,309.2 716.3,310.3 717.2,311.6 718.0,312.9 718.9,314.2 719.8,315.5 720.6,316.8 721.4,318.1 722.3,319.4 723.1,320.7 723.9,322.1 724.7,323.4 725.5,324.8 726.4,326.3 727.3,327.9 728.1,329.4 729.0,331.0 729.8,332.6 730.7,334.2 731.5,335.9 732.3,337.5 733.1,339.2 733.9,341.0 734.7,342.7 735.6,344.6 736.5,346.6 737.3,348.6 738.1,350.7 739.0,352.8 739.8,355.0 740.6,357.2 741.4,359.4 742.3,361.7 743.1,364.1 743.9,366.8 744.8,369.5 745.6,372.4 746.4,375.3 747.3,378.3 748.1,381.5 748.9,384.8 749.7,388.2 750.5,391.8 751.4,395.9 752.2,400.2 753.0,404.8 753.9,409.6 754.7,414.8" fill="none" stroke="#4a90d9" stroke-width="1.3" stroke-linejoin="round" clip-path="url(#pc254)"/>
  <defs><clipPath id="pc255"><rect x="55" y="12" width="700" height="200"/></clipPath></defs>
  <polyline points="62.5,270.6 103.6,242.4 132.7,222.4 155.3,206.9 173.8,194.2 189.4,183.5 203.0,174.3 214.9,166.1 225.6,158.8 235.2,152.2 244.1,146.1 252.2,140.6 259.7,135.5 266.7,130.7 273.2,126.3 279.3,122.2 285.1,118.3 290.6,114.6 295.8,111.2 300.8,107.9 305.5,104.8 310.0,101.9 314.3,99.1 318.4,96.5 322.4,94.0 326.2,91.6 329.9,89.3 333.5,87.2 336.9,85.2 340.2,83.3 343.4,81.4 346.6,79.7 349.6,78.1 352.5,76.5 355.4,75.1 358.2,73.7 360.9,72.4 363.5,71.2 366.1,70.0 368.6,68.9 371.0,67.9 373.4,67.0 375.7,66.1 378.0,65.2 380.2,64.4 382.4,63.7 384.5,63.0 386.6,62.4 388.7,61.8 390.7,61.2 392.6,60.7 394.6,60.2 396.5,59.7 398.3,59.3 400.2,58.9 401.9,58.5 403.7,58.1 405.4,57.8 407.1,57.5 408.8,57.2 410.5,57.0 412.1,56.7 413.7,56.5 415.3,56.3 416.8,56.1 418.3,55.9 419.8,55.7 421.3,55.6 422.8,55.4 424.2,55.3 425.6,55.1 427.0,55.0 428.4,54.9 429.8,54.8 431.1,54.7 432.4,54.6 433.7,54.6 435.0,54.5 436.3,54.4 437.6,54.4 438.8,54.3 440.0,54.3 441.2,54.2 442.4,54.2 443.6,54.2 444.8,54.2 446.0,54.1 447.1,54.1 448.2,54.1 449.4,54.1 450.5,54.1 451.6,54.1 452.6,54.1 453.7,54.1 454.8,54.1 455.8,54.1 456.9,54.1 457.9,54.1 458.9,54.2 459.9,54.2 460.9,54.2 461.9,54.2 462.9,54.3 463.9,54.3 464.8,54.3 465.8,54.4 466.7,54.4 467.6,54.5 468.6,54.5 469.5,54.6 470.4,54.6 471.3,54.7 472.2,54.7 473.1,54.8 474.0,54.9 474.8,54.9 475.7,55.0 476.5,55.1 477.4,55.1 478.2,55.2 479.1,55.3 479.9,55.4 480.7,55.4 481.5,55.5 482.3,55.6 483.1,55.7 484.7,55.9 486.3,56.1 487.8,56.3 489.3,56.5 490.8,56.7 492.3,56.9 493.7,57.1 495.2,57.4 496.6,57.6 498.0,57.9 499.3,58.1 500.7,58.4 502.0,58.7 503.3,59.0 504.6,59.2 505.9,59.5 507.2,59.8 508.4,60.2 509.7,60.5 510.9,60.8 512.1,61.1 513.3,61.5 514.5,61.8 515.6,62.2 516.8,62.5 517.9,62.9 519.0,63.2 520.1,63.6 521.3,64.0 522.3,64.3 523.4,64.7 524.5,65.1 525.5,65.5 526.6,65.9 527.6,66.3 528.6,66.7 529.7,67.1 530.7,67.5 531.7,67.9 532.6,68.3 533.6,68.7 534.6,69.2 535.5,69.6 536.5,70.0 537.4,70.4 538.3,70.8 539.3,71.3 540.2,71.7 541.1,72.1 542.0,72.6 542.9,73.0 543.8,73.4 544.6,73.9 545.5,74.3 546.4,74.7 547.2,75.2 548.0,75.6 548.9,76.0 549.7,76.5 550.5,76.9 551.4,77.4 552.2,77.8 553.0,78.2 554.2,78.9 555.3,79.5 556.5,80.2 557.7,80.9 558.8,81.5 559.9,82.2 561.1,82.8 562.2,83.5 563.2,84.1 564.3,84.8 565.4,85.4 566.5,86.0 567.5,86.7 568.5,87.3 569.6,88.0 570.6,88.6 571.6,89.2 572.6,89.8 573.6,90.5 574.5,91.1 575.5,91.7 576.5,92.3 577.4,92.9 578.4,93.5 579.3,94.1 580.2,94.7 581.1,95.3 582.0,95.9 582.9,96.5 583.8,97.1 584.7,97.7 585.6,98.3 586.4,98.9 587.3,99.5 588.2,100.0 589.0,100.6 589.8,101.2 590.7,101.7 591.5,102.3 592.3,102.9 593.1,103.4 593.9,104.0 595.0,104.7 596.0,105.4 597.1,106.2 598.1,106.9 599.1,107.6 600.1,108.3 601.2,109.0 602.1,109.7 603.1,110.4 604.1,111.1 605.1,111.8 606.0,112.5 607.0,113.1 607.9,113.8 608.8,114.5 609.7,115.1 610.6,115.8 611.6,116.4 612.4,117.1 613.3,117.7 614.2,118.4 615.1,119.0 615.9,119.7 616.8,120.3 617.7,120.9 618.5,121.5 619.3,122.2 620.2,122.8 621.0,123.4 621.8,124.0 622.6,124.6 623.4,125.2 624.4,125.9 625.4,126.7 626.4,127.4 627.3,128.1 628.3,128.9 629.2,129.6 630.2,130.3 631.1,131.0 632.0,131.7 632.9,132.4 633.8,133.1 634.7,133.8 635.6,134.5 636.5,135.2 637.4,135.9 638.3,136.5 639.1,137.2 640.0,137.9 640.8,138.6 641.7,139.2 642.5,139.9 643.3,140.5 644.1,141.2 644.9,141.8 645.7,142.5 646.7,143.2 647.7,144.0 648.6,144.8 649.5,145.5 650.4,146.3 651.4,147.0 652.3,147.8 653.2,148.5 654.1,149.2 654.9,150.0 655.8,150.7 656.7,151.4 657.5,152.1 658.4,152.9 659.2,153.6 660.1,154.3 660.9,155.0 661.7,155.7 662.6,156.4 663.4,157.1 664.2,157.8 665.1,158.6 666.0,159.4 666.9,160.2 667.8,161.0 668.7,161.8 669.6,162.6 670.5,163.4 671.4,164.2 672.3,165.0 673.1,165.7 674.0,166.5 674.8,167.3 675.7,168.1 676.5,168.8 677.3,169.6 678.1,170.4 678.9,171.1 679.8,171.9 680.7,172.8 681.6,173.6 682.5,174.5 683.4,175.4 684.2,176.2 685.1,177.1 686.0,178.0 686.8,178.8 687.7,179.7 688.5,180.5 689.4,181.4 690.2,182.2 691.0,183.1 691.8,184.0 692.6,184.8 693.5,185.7 694.4,186.6 695.2,187.6 696.1,188.5 697.0,189.5 697.9,190.5 698.7,191.4 699.6,192.4 700.4,193.3 701.3,194.3 702.1,195.3 702.9,196.2 703.7,197.2 704.5,198.2 705.3,199.1 706.2,200.2 707.1,201.3 708.0,202.4 708.8,203.5 709.7,204.6 710.6,205.7 711.4,206.8 712.2,207.9 713.1,209.0 713.9,210.2 714.7,211.3 715.5,212.4 716.3,213.6 717.2,214.8 718.0,216.1 718.9,217.4 719.8,218.7 720.6,220.0 721.4,221.3 722.3,222.6 723.1,224.0 723.9,225.3 724.7,226.7 725.5,228.0 726.4,229.6 727.3,231.1 728.1,232.7 729.0,234.2 729.8,235.8 730.7,237.5 731.5,239.1 732.3,240.8 733.1,242.5 733.9,244.2 734.7,245.9 735.6,247.9 736.5,249.8 737.3,251.9 738.1,253.9 739.0,256.0 739.8,258.2 740.6,260.4 741.4,262.6 742.3,265.0 743.1,267.4 743.9,270.0 744.8,272.7 745.6,275.6 746.4,278.5 747.3,281.6 748.1,284.7 748.9,288.0 749.7,291.5 750.5,295.1 751.4,299.1 752.2,303.4 753.0,308.0 753.9,312.9 754.7,318.1" fill="none" stroke="#e74c3c" stroke-width="1.3" stroke-linejoin="round" clip-path="url(#pc255)"/>
  <defs><clipPath id="pc256"><rect x="55" y="12" width="700" height="200"/></clipPath></defs>
  <polyline points="62.5,367.3 103.6,339.2 132.7,319.2 155.3,303.7 173.8,291.0 189.4,280.3 203.0,271.0 214.9,262.8 225.6,255.5 235.2,248.9 244.1,242.8 252.2,237.3 259.7,232.1 266.7,227.3 273.2,222.8 279.3,218.6 285.1,214.7 290.6,210.9 295.8,207.3 300.8,203.9 305.5,200.7 310.0,197.6 314.3,194.7 318.4,191.8 322.4,189.1 326.2,186.5 329.9,184.0 333.5,181.5 336.9,179.2 340.2,176.9 343.4,174.7 346.6,172.5 349.6,170.5 352.5,168.5 355.4,166.5 358.2,164.6 360.9,162.7 363.5,160.9 366.1,159.2 368.6,157.5 371.0,155.8 373.4,154.2 375.7,152.6 378.0,151.0 380.2,149.5 382.4,148.0 384.5,146.6 386.6,145.1 388.7,143.7 390.7,142.4 392.6,141.0 394.6,139.7 396.5,138.4 398.3,137.1 400.2,135.9 401.9,134.7 403.7,133.5 405.4,132.3 407.1,131.1 408.8,130.0 410.5,128.9 412.1,127.8 413.7,126.7 415.3,125.6 416.8,124.6 418.3,123.6 419.8,122.5 421.3,121.5 422.8,120.6 424.2,119.6 425.6,118.6 427.0,117.7 428.4,116.8 429.8,115.9 431.1,115.0 432.4,114.1 433.7,113.2 435.0,112.3 436.3,111.5 437.6,110.7 438.8,109.8 440.0,109.0 441.2,108.2 442.4,107.4 443.6,106.7 444.8,105.9 446.0,105.1 447.1,104.4 448.2,103.6 449.4,102.9 450.5,102.2 451.6,101.5 452.6,100.8 453.7,100.1 454.8,99.4 455.8,98.7 456.9,98.1 457.9,97.4 458.9,96.7 459.9,96.1 460.9,95.5 461.9,94.9 462.9,94.2 463.9,93.6 464.8,93.0 465.8,92.4 466.7,91.9 467.6,91.3 468.6,90.7 469.5,90.1 470.4,89.6 471.3,89.0 472.2,88.5 473.1,88.0 474.0,87.4 474.8,86.9 475.7,86.4 476.5,85.9 477.4,85.4 478.2,84.9 479.1,84.4 479.9,83.9 480.7,83.5 481.5,83.0 482.3,82.5 483.1,82.1 484.7,81.2 486.3,80.3 487.8,79.5 489.3,78.6 490.8,77.8 492.3,77.1 493.7,76.3 495.2,75.6 496.6,74.8 498.0,74.2 499.3,73.5 500.7,72.8 502.0,72.2 503.3,71.6 504.6,71.0 505.9,70.4 507.2,69.8 508.4,69.3 509.7,68.7 510.9,68.2 512.1,67.7 513.3,67.2 514.5,66.8 515.6,66.3 516.8,65.9 517.9,65.4 519.0,65.0 520.1,64.6 521.3,64.2 522.3,63.9 523.4,63.5 524.5,63.1 525.5,62.8 526.6,62.5 527.6,62.1 528.6,61.8 529.7,61.5 530.7,61.3 531.7,61.0 532.6,60.7 533.6,60.4 534.6,60.2 535.5,60.0 536.5,59.7 537.4,59.5 538.3,59.3 539.3,59.1 540.2,58.9 541.1,58.7 542.0,58.5 542.9,58.3 543.8,58.1 544.6,57.9 545.5,57.8 546.4,57.6 547.2,57.4 548.0,57.3 548.9,57.1 549.7,57.0 550.5,56.9 551.4,56.7 552.2,56.6 553.0,56.5 554.2,56.3 555.3,56.2 556.5,56.0 557.7,55.8 558.8,55.7 559.9,55.6 561.1,55.4 562.2,55.3 563.2,55.2 564.3,55.1 565.4,55.0 566.5,54.9 567.5,54.8 568.5,54.7 569.6,54.6 570.6,54.6 571.6,54.5 572.6,54.4 573.6,54.4 574.5,54.3 575.5,54.2 576.5,54.2 577.4,54.1 578.4,54.1 579.3,54.1 580.2,54.0 581.1,54.0 582.0,53.9 582.9,53.9 583.8,53.9 584.7,53.9 585.6,53.8 586.4,53.8 587.3,53.8 588.2,53.8 589.0,53.8 589.8,53.7 590.7,53.7 591.5,53.7 592.3,53.7 593.1,53.7 593.9,53.7 595.0,53.7 596.0,53.7 597.1,53.7 598.1,53.7 599.1,53.7 600.1,53.7 601.2,53.7 602.1,53.8 603.1,53.8 604.1,53.8 605.1,53.8 606.0,53.9 607.0,53.9 607.9,53.9 608.8,54.0 609.7,54.0 610.6,54.0 611.6,54.1 612.4,54.1 613.3,54.2 614.2,54.2 615.1,54.3 615.9,54.3 616.8,54.4 617.7,54.5 618.5,54.5 619.3,54.6 620.2,54.7 621.0,54.7 621.8,54.8 622.6,54.9 623.4,54.9 624.4,55.0 625.4,55.1 626.4,55.3 627.3,55.4 628.3,55.5 629.2,55.6 630.2,55.7 631.1,55.8 632.0,56.0 632.9,56.1 633.8,56.3 634.7,56.4 635.6,56.5 636.5,56.7 637.4,56.8 638.3,57.0 639.1,57.2 640.0,57.3 640.8,57.5 641.7,57.7 642.5,57.9 643.3,58.0 644.1,58.2 644.9,58.4 645.7,58.6 646.7,58.9 647.7,59.1 648.6,59.4 649.5,59.6 650.4,59.9 651.4,60.2 652.3,60.4 653.2,60.7 654.1,61.0 654.9,61.3 655.8,61.6 656.7,61.9 657.5,62.2 658.4,62.6 659.2,62.9 660.1,63.2 660.9,63.6 661.7,63.9 662.6,64.3 663.4,64.6 664.2,65.0 665.1,65.4 666.0,65.8 666.9,66.3 667.8,66.7 668.7,67.2 669.6,67.7 670.5,68.1 671.4,68.6 672.3,69.1 673.1,69.6 674.0,70.1 674.8,70.6 675.7,71.1 676.5,71.6 677.3,72.1 678.1,72.7 678.9,73.2 679.8,73.8 680.7,74.4 681.6,75.0 682.5,75.7 683.4,76.3 684.2,77.0 685.1,77.6 686.0,78.3 686.8,79.0 687.7,79.6 688.5,80.3 689.4,81.0 690.2,81.7 691.0,82.4 691.8,83.1 692.6,83.8 693.5,84.5 694.4,85.4 695.2,86.2 696.1,87.0 697.0,87.8 697.9,88.7 698.7,89.5 699.6,90.4 700.4,91.2 701.3,92.1 702.1,93.0 702.9,93.9 703.7,94.7 704.5,95.6 705.3,96.5 706.2,97.5 707.1,98.5 708.0,99.6 708.8,100.6 709.7,101.6 710.6,102.7 711.4,103.7 712.2,104.8 713.1,105.8 713.9,106.9 714.7,108.0 715.5,109.1 716.3,110.2 717.2,111.4 718.0,112.6 718.9,113.9 719.8,115.1 720.6,116.4 721.4,117.7 722.3,119.0 723.1,120.3 723.9,121.6 724.7,123.0 725.5,124.3 726.4,125.8 727.3,127.3 728.1,128.9 729.0,130.4 729.8,132.0 730.7,133.6 731.5,135.2 732.3,136.9 733.1,138.6 733.9,140.3 734.7,142.0 735.6,144.0 736.5,145.9 737.3,147.9 738.1,150.0 739.0,152.1 739.8,154.2 740.6,156.4 741.4,158.7 742.3,161.0 743.1,163.4 743.9,166.0 744.8,168.8 745.6,171.6 746.4,174.5 747.3,177.6 748.1,180.7 748.9,184.0 749.7,187.5 750.5,191.1 751.4,195.1 752.2,199.4 753.0,204.0 753.9,208.9 754.7,214.1" fill="none" stroke="#2ecc71" stroke-width="1.3" stroke-linejoin="round" clip-path="url(#pc256)"/>
  <defs><clipPath id="pc257"><rect x="55" y="12" width="700" height="200"/></clipPath></defs>
  <polyline points="62.5,471.3 103.6,443.2 132.7,423.2 155.3,407.7 173.8,395.0 189.4,384.3 203.0,375.0 214.9,366.8 225.6,359.5 235.2,352.9 244.1,346.8 252.2,341.3 259.7,336.1 266.7,331.3 273.2,326.9 279.3,322.6 285.1,318.7 290.6,314.9 295.8,311.3 300.8,308.0 305.5,304.7 310.0,301.6 314.3,298.7 318.4,295.8 322.4,293.1 326.2,290.5 329.9,288.0 333.5,285.5 336.9,283.2 340.2,280.9 343.4,278.7 346.6,276.5 349.6,274.5 352.5,272.4 355.4,270.5 358.2,268.6 360.9,266.7 363.5,264.9 366.1,263.2 368.6,261.4 371.0,259.8 373.4,258.1 375.7,256.5 378.0,255.0 380.2,253.4 382.4,251.9 384.5,250.5 386.6,249.0 388.7,247.6 390.7,246.3 392.6,244.9 394.6,243.6 396.5,242.3 398.3,241.0 400.2,239.8 401.9,238.5 403.7,237.3 405.4,236.1 407.1,235.0 408.8,233.8 410.5,232.7 412.1,231.6 413.7,230.5 415.3,229.4 416.8,228.3 418.3,227.3 419.8,226.2 421.3,225.2 422.8,224.2 424.2,223.2 425.6,222.3 427.0,221.3 428.4,220.4 429.8,219.4 431.1,218.5 432.4,217.6 433.7,216.7 435.0,215.8 436.3,214.9 437.6,214.1 438.8,213.2 440.0,212.4 441.2,211.5 442.4,210.7 443.6,209.9 444.8,209.1 446.0,208.3 447.1,207.5 448.2,206.7 449.4,206.0 450.5,205.2 451.6,204.4 452.6,203.7 453.7,203.0 454.8,202.2 455.8,201.5 456.9,200.8 457.9,200.1 458.9,199.4 459.9,198.7 460.9,198.0 461.9,197.3 462.9,196.6 463.9,196.0 464.8,195.3 465.8,194.7 466.7,194.0 467.6,193.4 468.6,192.7 469.5,192.1 470.4,191.5 471.3,190.9 472.2,190.2 473.1,189.6 474.0,189.0 474.8,188.4 475.7,187.8 476.5,187.2 477.4,186.7 478.2,186.1 479.1,185.5 479.9,184.9 480.7,184.4 481.5,183.8 482.3,183.2 483.1,182.7 484.7,181.6 486.3,180.5 487.8,179.5 489.3,178.4 490.8,177.4 492.3,176.4 493.7,175.4 495.2,174.4 496.6,173.4 498.0,172.5 499.3,171.5 500.7,170.6 502.0,169.7 503.3,168.8 504.6,167.9 505.9,167.0 507.2,166.1 508.4,165.2 509.7,164.4 510.9,163.5 512.1,162.7 513.3,161.9 514.5,161.0 515.6,160.2 516.8,159.4 517.9,158.7 519.0,157.9 520.1,157.1 521.3,156.3 522.3,155.6 523.4,154.8 524.5,154.1 525.5,153.4 526.6,152.6 527.6,151.9 528.6,151.2 529.7,150.5 530.7,149.8 531.7,149.1 532.6,148.4 533.6,147.8 534.6,147.1 535.5,146.4 536.5,145.8 537.4,145.1 538.3,144.5 539.3,143.8 540.2,143.2 541.1,142.6 542.0,141.9 542.9,141.3 543.8,140.7 544.6,140.1 545.5,139.5 546.4,138.9 547.2,138.3 548.0,137.7 548.9,137.1 549.7,136.6 550.5,136.0 551.4,135.4 552.2,134.8 553.0,134.3 554.2,133.5 555.3,132.6 556.5,131.8 557.7,131.0 558.8,130.2 559.9,129.4 561.1,128.7 562.2,127.9 563.2,127.1 564.3,126.4 565.4,125.6 566.5,124.9 567.5,124.2 568.5,123.4 569.6,122.7 570.6,122.0 571.6,121.3 572.6,120.6 573.6,119.9 574.5,119.2 575.5,118.6 576.5,117.9 577.4,117.2 578.4,116.6 579.3,115.9 580.2,115.3 581.1,114.6 582.0,114.0 582.9,113.4 583.8,112.8 584.7,112.2 585.6,111.5 586.4,110.9 587.3,110.3 588.2,109.8 589.0,109.2 589.8,108.6 590.7,108.0 591.5,107.4 592.3,106.9 593.1,106.3 593.9,105.7 595.0,105.0 596.0,104.3 597.1,103.6 598.1,102.8 599.1,102.1 600.1,101.4 601.2,100.8 602.1,100.1 603.1,99.4 604.1,98.7 605.1,98.1 606.0,97.4 607.0,96.8 607.9,96.1 608.8,95.5 609.7,94.9 610.6,94.3 611.6,93.6 612.4,93.0 613.3,92.4 614.2,91.9 615.1,91.3 615.9,90.7 616.8,90.1 617.7,89.6 618.5,89.0 619.3,88.4 620.2,87.9 621.0,87.4 621.8,86.8 622.6,86.3 623.4,85.8 624.4,85.1 625.4,84.5 626.4,83.9 627.3,83.2 628.3,82.6 629.2,82.0 630.2,81.4 631.1,80.8 632.0,80.3 632.9,79.7 633.8,79.1 634.7,78.6 635.6,78.0 636.5,77.5 637.4,77.0 638.3,76.5 639.1,76.0 640.0,75.5 640.8,75.0 641.7,74.5 642.5,74.0 643.3,73.5 644.1,73.1 644.9,72.6 645.7,72.2 646.7,71.6 647.7,71.1 648.6,70.6 649.5,70.1 650.4,69.6 651.4,69.2 652.3,68.7 653.2,68.2 654.1,67.8 654.9,67.4 655.8,66.9 656.7,66.5 657.5,66.1 658.4,65.7 659.2,65.3 660.1,65.0 660.9,64.6 661.7,64.2 662.6,63.9 663.4,63.5 664.2,63.2 665.1,62.8 666.0,62.4 666.9,62.1 667.8,61.7 668.7,61.4 669.6,61.1 670.5,60.8 671.4,60.4 672.3,60.1 673.1,59.9 674.0,59.6 674.8,59.3 675.7,59.0 676.5,58.8 677.3,58.5 678.1,58.3 678.9,58.1 679.8,57.9 680.7,57.6 681.6,57.4 682.5,57.1 683.4,56.9 684.2,56.7 685.1,56.5 686.0,56.3 686.8,56.1 687.7,56.0 688.5,55.8 689.4,55.6 690.2,55.5 691.0,55.3 691.8,55.2 692.6,55.0 693.5,54.9 694.4,54.8 695.2,54.6 696.1,54.5 697.0,54.4 697.9,54.2 698.7,54.1 699.6,54.0 700.4,53.9 701.3,53.8 702.1,53.7 702.9,53.6 703.7,53.6 704.5,53.5 705.3,53.4 706.2,53.3 707.1,53.2 708.0,53.2 708.8,53.1 709.7,53.0 710.6,53.0 711.4,52.9 712.2,52.9 713.1,52.8 713.9,52.8 714.7,52.7 715.5,52.7 716.3,52.6 717.2,52.6 718.0,52.5 718.9,52.5 719.8,52.5 720.6,52.4 721.4,52.4 722.3,52.4 723.1,52.3 723.9,52.3 724.7,52.3 725.5,52.3 726.4,52.2 727.3,52.2 728.1,52.2 729.0,52.2 729.8,52.2 730.7,52.2 731.5,52.1 732.3,52.1 733.1,52.1 733.9,52.1 734.7,52.1 735.6,52.1 736.5,52.1 737.3,52.1 738.1,52.1 739.0,52.1 739.8,52.0 740.6,52.0 741.4,52.0 742.3,52.0 743.1,52.0 743.9,52.0 744.8,52.0 745.6,52.0 746.4,52.0 747.3,52.0 748.1,52.0 748.9,52.0 749.7,52.0 750.5,52.0 751.4,52.0 752.2,52.0 753.0,52.0 753.9,52.0 754.7,52.0" fill="none" stroke="#f39c12" stroke-width="1.3" stroke-linejoin="round" clip-path="url(#pc257)"/>
  <rect x="69" y="148" width="92" height="58" fill="white" fill-opacity="0.85" rx="3"/>
  <line x1="75" y1="159" x2="87" y2="159" stroke="#4a90d9" stroke-width="2"/>
  <text x="91" y="162" font-size="8" fill="#6b7280">low</text>
  <line x1="75" y1="171" x2="87" y2="171" stroke="#e74c3c" stroke-width="2"/>
  <text x="91" y="174" font-size="8" fill="#6b7280">mid-low</text>
  <line x1="75" y1="183" x2="87" y2="183" stroke="#2ecc71" stroke-width="2"/>
  <text x="91" y="186" font-size="8" fill="#6b7280">mid-high</text>
  <line x1="75" y1="195" x2="87" y2="195" stroke="#f39c12" stroke-width="2"/>
  <text x="91" y="198" font-size="8" fill="#6b7280">high</text>
</svg>
