<svg xmlns="http://www.w3.org/2000/svg" viewBox="0 0 775 252" style="font-family:system-ui,-apple-system,sans-serif">
  <text x="755" y="7" text-anchor="end" font-size="11" font-weight="600" fill="#6b7280">ERB auditory filter bank (gammatone)</text>
  <line x1="55" y1="12" x2="55" y2="212" stroke="#d1d5db"/>
  <line x1="55" y1="52.0" x2="755" y2="52.0" stroke="#d1d5db"/>
  <text x="405" y="238" text-anchor="middle" font-size="9" fill="#6b7280">Hz</text>
  <text x="33" y="112" text-anchor="middle" font-size="9" fill="#6b7280" transform="rotate(-90 33 112)">dB</text>
  <line x1="55.0" y1="12" x2="55.0" y2="212" stroke="#e5e7eb" stroke-width="0.5"/>
  <line x1="96.1" y1="12" x2="96.1" y2="212" stroke="#e5e7eb" stroke-width="0.5"/>
  <line x1="125.2" y1="12" x2="125.2" y2="212" stroke="#e5e7eb" stroke-width="0.5"/>
  <line x1="147.9" y1="12" x2="147.9" y2="212" stroke="#e5e7eb" stroke-width="0.5"/>
  <line x1="166.3" y1="12" x2="166.3" y2="212" stroke="#e5e7eb" stroke-width="0.5"/>
  <line x1="181.9" y1="12" x2="181.9" y2="212" stroke="#e5e7eb" stroke-width="0.5"/>
  <line x1="195.5" y1="12" x2="195.5" y2="212" stroke="#e5e7eb" stroke-width="0.5"/>
  <line x1="207.4" y1="12" x2="207.4" y2="212" stroke="#e5e7eb" stroke-width="0.5"/>
  <line x1="288.3" y1="12" x2="288.3" y2="212" stroke="#e5e7eb" stroke-width="0.5"/>
  <line x1="329.4" y1="12" x2="329.4" y2="212" stroke="#e5e7eb" stroke-width="0.5"/>
  <line x1="358.6" y1="12" x2="358.6" y2="212" stroke="#e5e7eb" stroke-width="0.5"/>
  <line x1="381.2" y1="12" x2="381.2" y2="212" stroke="#e5e7eb" stroke-width="0.5"/>
  <line x1="399.7" y1="12" x2="399.7" y2="212" stroke="#e5e7eb" stroke-width="0.5"/>
  <line x1="415.3" y1="12" x2="415.3" y2="212" stroke="#e5e7eb" stroke-width="0.5"/>
  <line x1="428.8" y1="12" x2="428.8" y2="212" stroke="#e5e7eb" stroke-width="0.5"/>
  <line x1="440.7" y1="12" x2="440.7" y2="212" stroke="#e5e7eb" stroke-width="0.5"/>
  <line x1="521.7" y1="12" x2="521.7" y2="212" stroke="#e5e7eb" stroke-width="0.5"/>
  <line x1="562.8" y1="12" x2="562.8" y2="212" stroke="#e5e7eb" stroke-width="0.5"/>
  <line x1="591.9" y1="12" x2="591.9" y2="212" stroke="#e5e7eb" stroke-width="0.5"/>
  <line x1="614.5" y1="12" x2="614.5" y2="212" stroke="#e5e7eb" stroke-width="0.5"/>
  <line x1="633.0" y1="12" x2="633.0" y2="212" stroke="#e5e7eb" stroke-width="0.5"/>
  <line x1="648.6" y1="12" x2="648.6" y2="212" stroke="#e5e7eb" stroke-width="0.5"/>
  <line x1="662.1" y1="12" x2="662.1" y2="212" stroke="#e5e7eb" stroke-width="0.5"/>
  <line x1="674.1" y1="12" x2="674.1" y2="212" stroke="#e5e7eb" stroke-width="0.5"/>
  <line x1="755.0" y1="12" x2="755.0" y2="212" stroke="#e5e7eb" stroke-width="0.5"/>
  <line x1="218.1" y1="12" x2="218.1" y2="212" stroke="#e5e7eb" stroke-width="0.5"/>
  <text x="218.1" y="224" text-anchor="middle" font-size="8" fill="#6b7280">100</text>
  <line x1="451.4" y1="12" x2="451.4" y2="212" stroke="#e5e7eb" stroke-width="0.5"/>
  <text x="451.4" y="224" text-anchor="middle" font-size="8" fill="#6b7280">1k</text>
  <line x1="684.8" y1="12" x2="684.8" y2="212" stroke="#e5e7eb" stroke-width="0.5"/>
  <text x="684.8" y="224" text-anchor="middle" font-size="8" fill="#6b7280">10k</text>
  <line x1="55" y1="32.0" x2="755" y2="32.0" stroke="#e5e7eb" stroke-width="0.5"/>
  <line x1="55" y1="72.0" x2="755" y2="72.0" stroke="#e5e7eb" stroke-width="0.5"/>
  <line x1="55" y1="12.0" x2="755" y2="12.0" stroke="#e5e7eb" stroke-width="0.5"/>
  <text x="51" y="15.0" text-anchor="end" font-size="8" fill="#6b7280">+20</text>
  <text x="51" y="55.0" text-anchor="end" font-size="8" fill="#6b7280">0</text>
  <line x1="55" y1="92.0" x2="755" y2="92.0" stroke="#e5e7eb" stroke-width="0.5"/>
  <text x="51" y="95.0" text-anchor="end" font-size="8" fill="#6b7280">-20</text>
  <line x1="55" y1="132.0" x2="755" y2="132.0" stroke="#e5e7eb" stroke-width="0.5"/>
  <text x="51" y="135.0" text-anchor="end" font-size="8" fill="#6b7280">-40</text>
  <line x1="55" y1="172.0" x2="755" y2="172.0" stroke="#e5e7eb" stroke-width="0.5"/>
  <text x="51" y="175.0" text-anchor="end" font-size="8" fill="#6b7280">-60</text>
  <line x1="55" y1="212.0" x2="755" y2="212.0" stroke="#e5e7eb" stroke-width="0.5"/>
  <text x="51" y="215.0" text-anchor="end" font-size="8" fill="#6b7280">-80</text>
  <defs><clipPath id="pc146"><rect x="55" y="12" width="700" height="200"/></clipPath></defs>
  <polyline points="62.5,124.2 103.6,112.3 132.7,95.1 155.3,80.3 173.8,65.7 189.4,55.1 203.0,51.4 214.9,53.8 225.6,61.0 235.2,69.4 244.1,78.0 252.2,86.3 259.7,93.4 266.7,100.8 273.2,106.3 279.3,112.9 285.1,117.0 290.6,123.3 295.8,126.0 300.8,132.4 305.5,133.9 310.0,140.4 314.3,140.8 318.4,147.7 322.4,146.9 326.2,154.4 329.9,152.4 333.5,160.5 336.9,157.3 340.2,166.3 343.4,161.9 346.6,171.8 349.6,166.0 352.5,176.9 355.4,169.9 358.2,181.9 360.9,173.4 363.5,186.8 366.1,176.7 368.6,191.5 371.0,179.8 373.4,196.1 375.7,182.7 378.0,200.7 380.2,185.5 382.4,205.4 384.5,188.0 386.6,210.0 388.7,190.4 390.7,214.8 392.6,192.7 394.6,219.8 396.5,194.9 398.3,225.1 400.2,196.9 401.9,230.9 403.7,198.9 405.4,237.4 407.1,200.8 408.8,244.9 410.5,202.5 412.1,253.9 413.7,204.2 415.3,261.7 416.8,205.9 418.3,260.2 419.8,207.4 421.3,254.8 422.8,208.9 424.2,250.6 425.6,210.4 427.0,247.6 428.4,211.7 429.8,245.5 431.1,213.1 432.4,244.0 433.7,214.3 435.0,242.9 436.3,215.6 437.6,242.1 438.8,216.8 440.0,241.5 441.2,217.9 442.4,241.1 443.6,219.0 444.8,240.8 446.0,220.1 447.1,240.6 448.2,221.1 449.4,240.5 450.5,222.1 451.6,240.5 452.6,223.1 453.7,240.5 454.8,224.1 455.8,240.6 456.9,225.0 457.9,240.8 458.9,225.9 459.9,240.9 460.9,226.7 461.9,241.1 462.9,227.6 463.9,241.4 464.8,228.4 465.8,241.6 466.7,229.2 467.6,241.8 468.6,230.0 469.5,242.1 470.4,230.7 471.3,242.4 472.2,231.5 473.1,242.7 474.0,232.2 474.8,243.0 475.7,232.9 476.5,243.3 477.4,233.6 478.2,243.6 479.1,234.3 479.9,243.9 480.7,234.9 481.5,244.2 482.3,235.6 483.1,244.5 484.7,244.9 486.3,245.2 487.8,245.5 489.3,245.8 490.8,246.2 492.3,246.5 493.7,246.8 495.2,247.1 496.6,247.5 498.0,247.8 499.3,248.1 500.7,248.4 502.0,248.8 503.3,249.1 504.6,249.4 505.9,249.7 507.2,250.0 508.4,250.3 509.7,250.6 510.9,250.9 512.1,251.2 513.3,251.5 514.5,251.8 515.6,252.1 516.8,252.4 517.9,252.7 519.0,253.0 520.1,253.2 521.3,253.5 522.3,253.8 523.4,254.1 524.5,254.3 525.5,254.6 526.6,254.9 527.6,255.2 528.6,255.4 529.7,255.7 530.7,255.9 531.7,256.2 532.6,256.4 533.6,256.7 534.6,256.9 535.5,257.2 536.5,257.4 537.4,257.7 538.3,257.9 539.3,258.1 540.2,258.4 541.1,258.6 542.0,258.8 542.9,259.1 543.8,259.3 544.6,259.5 545.5,259.7 546.4,260.0 547.2,260.2 548.0,260.4 548.9,260.6 549.7,260.8 550.5,261.0 551.4,261.2 552.2,261.4 553.0,261.7 554.2,260.2 555.3,262.3 556.5,260.9 557.7,262.8 558.8,261.5 559.9,263.4 561.1,262.2 562.2,264.0 563.2,262.8 564.3,264.5 565.4,263.4 566.5,265.0 567.5,264.0 568.5,265.6 569.6,264.6 570.6,266.1 571.6,265.1 572.6,266.6 573.6,265.7 574.5,267.0 575.5,266.2 576.5,267.5 577.4,266.7 578.4,268.0 579.3,267.2 580.2,268.4 581.1,267.7 582.0,268.8 582.9,268.2 583.8,269.3 584.7,268.6 585.6,269.7 586.4,269.1 587.3,270.1 588.2,269.5 589.0,270.5 589.8,269.9 590.7,270.9 591.5,270.3 592.3,271.3 593.1,270.8 593.9,271.6 595.0,271.9 596.0,272.1 597.1,272.4 598.1,272.6 599.1,272.8 600.1,273.1 601.2,273.3 602.1,273.5 603.1,273.7 604.1,274.0 605.1,274.2 606.0,274.4 607.0,274.6 607.9,274.8 608.8,275.0 609.7,275.2 610.6,275.4 611.6,275.6 612.4,275.8 613.3,276.0 614.2,276.2 615.1,276.4 615.9,276.5 616.8,276.7 617.7,276.9 618.5,277.1 619.3,277.3 620.2,277.4 621.0,277.6 621.8,277.8 622.6,278.0 623.4,278.1 624.4,278.0 625.4,278.5 626.4,278.4 627.3,278.9 628.3,278.8 629.2,279.3 630.2,279.2 631.1,279.7 632.0,279.6 632.9,280.1 633.8,280.0 634.7,280.4 635.6,280.4 636.5,280.8 637.4,280.7 638.3,281.1 639.1,281.1 640.0,281.5 640.8,281.4 641.7,281.8 642.5,281.8 643.3,282.1 644.1,282.1 644.9,282.4 645.7,282.4 646.7,282.6 647.7,282.8 648.6,283.0 649.5,283.1 650.4,283.3 651.4,283.5 652.3,283.7 653.2,283.8 654.1,284.0 654.9,284.2 655.8,284.3 656.7,284.5 657.5,284.7 658.4,284.8 659.2,285.0 660.1,285.1 660.9,285.3 661.7,285.4 662.6,285.6 663.4,285.7 664.2,285.9 665.1,286.1 666.0,286.2 666.9,286.5 667.8,286.5 668.7,286.8 669.6,286.8 670.5,287.1 671.4,287.2 672.3,287.4 673.1,287.4 674.0,287.7 674.8,287.7 675.7,288.0 676.5,288.0 677.3,288.2 678.1,288.3 678.9,288.5 679.8,288.6 680.7,288.7 681.6,288.9 682.5,289.0 683.4,289.2 684.2,289.3 685.1,289.4 686.0,289.6 686.8,289.7 687.7,289.9 688.5,290.0 689.4,290.1 690.2,290.2 691.0,290.4 691.8,290.5 692.6,290.6 693.5,290.7 694.4,290.9 695.2,291.0 696.1,291.2 697.0,291.3 697.9,291.4 698.7,291.5 699.6,291.7 700.4,291.8 701.3,291.9 702.1,292.0 702.9,292.2 703.7,292.2 704.5,292.4 705.3,292.5 706.2,292.6 707.1,292.7 708.0,292.8 708.8,293.0 709.7,293.1 710.6,293.2 711.4,293.3 712.2,293.4 713.1,293.5 713.9,293.6 714.7,293.7 715.5,293.8 716.3,293.9 717.2,294.0 718.0,294.1 718.9,294.2 719.8,294.3 720.6,294.4 721.4,294.5 722.3,294.6 723.1,294.7 723.9,294.8 724.7,294.9 725.5,295.0 726.4,295.1 727.3,295.2 728.1,295.3 729.0,295.4 729.8,295.4 730.7,295.5 731.5,295.6 732.3,295.7 733.1,295.8 733.9,295.8 734.7,295.9 735.6,296.0 736.5,296.1 737.3,296.1 738.1,296.2 739.0,296.3 739.8,296.3 740.6,296.4 741.4,296.5 742.3,296.5 743.1,296.6 743.9,296.7 744.8,296.7 745.6,296.8 746.4,296.8 747.3,296.9 748.1,296.9 748.9,297.0 749.7,297.0 750.5,297.1 751.4,297.1 752.2,297.1 753.0,297.2 753.9,297.2 754.7,297.3" fill="none" stroke="#4a90d9" stroke-width="1.3" stroke-linejoin="round" clip-path="url(#pc146)"/>
  <defs><clipPath id="pc147"><rect x="55" y="12" width="700" height="200"/></clipPath></defs>
  <polyline points="62.5,213.0 103.6,209.0 132.7,200.5 155.3,194.1 173.8,185.7 189.4,177.8 203.0,169.8 214.9,161.7 225.6,153.8 235.2,145.6 244.1,137.6 252.2,129.3 259.7,121.0 266.7,112.5 273.2,103.8 279.3,94.9 285.1,85.9 290.6,76.9 295.8,68.4 300.8,61.0 305.5,55.3 310.0,52.2 314.3,52.0 318.4,54.4 322.4,58.9 326.2,64.4 329.9,70.4 333.5,76.4 336.9,82.3 340.2,87.9 343.4,93.2 346.6,98.2 349.6,102.9 352.5,107.2 355.4,111.4 358.2,115.2 360.9,118.9 363.5,122.3 366.1,125.7 368.6,128.7 371.0,131.7 373.4,134.4 375.7,137.2 378.0,139.7 380.2,142.2 382.4,144.5 384.5,146.9 386.6,149.0 388.7,151.2 390.7,153.1 392.6,155.2 394.6,157.0 396.5,159.0 398.3,160.6 400.2,162.5 401.9,164.0 403.7,165.8 405.4,167.2 407.1,169.0 408.8,170.3 410.5,172.0 412.1,173.2 413.7,174.9 415.3,175.9 416.8,177.6 418.3,178.6 419.8,180.2 421.3,181.1 422.8,182.7 424.2,183.5 425.6,185.2 427.0,185.9 428.4,187.5 429.8,188.1 431.1,189.7 432.4,190.3 433.7,191.9 435.0,192.3 436.3,194.0 437.6,194.3 438.8,196.0 440.0,196.3 441.2,198.0 442.4,198.2 443.6,199.9 444.8,200.0 446.0,201.7 447.1,201.7 448.2,203.5 449.4,203.5 450.5,205.3 451.6,205.1 452.6,207.0 453.7,206.7 454.8,208.7 455.8,208.3 456.9,210.3 457.9,209.8 458.9,211.9 459.9,211.3 460.9,213.5 461.9,212.7 462.9,215.0 463.9,214.1 464.8,216.5 465.8,215.5 466.7,217.9 467.6,216.8 468.6,219.3 469.5,218.1 470.4,220.7 471.3,219.4 472.2,222.1 473.1,220.6 474.0,223.5 474.8,221.8 475.7,224.8 476.5,223.0 477.4,226.1 478.2,224.1 479.1,227.4 479.9,225.2 480.7,228.6 481.5,226.3 482.3,229.8 483.1,227.4 484.7,228.4 486.3,229.4 487.8,230.4 489.3,231.3 490.8,232.3 492.3,233.2 493.7,234.1 495.2,234.9 496.6,235.8 498.0,236.6 499.3,237.4 500.7,238.2 502.0,238.9 503.3,239.7 504.6,240.4 505.9,241.1 507.2,241.8 508.4,242.4 509.7,243.1 510.9,243.7 512.1,244.3 513.3,244.9 514.5,245.5 515.6,246.1 516.8,246.7 517.9,247.2 519.0,247.7 520.1,248.2 521.3,248.7 522.3,249.2 523.4,249.7 524.5,250.2 525.5,250.6 526.6,251.1 527.6,251.5 528.6,251.9 529.7,252.3 530.7,252.7 531.7,253.1 532.6,253.5 533.6,253.9 534.6,254.3 535.5,254.6 536.5,255.0 537.4,255.3 538.3,255.6 539.3,256.0 540.2,256.3 541.1,256.6 542.0,256.9 542.9,257.2 543.8,257.5 544.6,257.8 545.5,258.1 546.4,258.3 547.2,258.6 548.0,258.9 548.9,259.1 549.7,259.4 550.5,259.6 551.4,259.9 552.2,260.1 553.0,260.4 554.2,268.8 555.3,261.1 556.5,269.2 557.7,261.7 558.8,269.6 559.9,262.3 561.1,269.9 562.2,262.9 563.2,270.2 564.3,263.5 565.4,270.5 566.5,264.1 567.5,270.8 568.5,264.6 569.6,271.1 570.6,265.1 571.6,271.3 572.6,265.6 573.6,271.6 574.5,266.0 575.5,271.8 576.5,266.5 577.4,272.1 578.4,266.9 579.3,272.3 580.2,267.4 581.1,272.5 582.0,267.8 582.9,272.7 583.8,268.2 584.7,273.0 585.6,268.6 586.4,273.2 587.3,268.9 588.2,273.4 589.0,269.3 589.8,273.6 590.7,269.7 591.5,273.8 592.3,270.0 593.1,274.0 593.9,270.4 595.0,270.6 596.0,270.8 597.1,271.0 598.1,271.2 599.1,271.4 600.1,271.6 601.2,271.8 602.1,272.0 603.1,272.2 604.1,272.4 605.1,272.6 606.0,272.8 607.0,273.0 607.9,273.2 608.8,273.4 609.7,273.6 610.6,273.7 611.6,273.9 612.4,274.1 613.3,274.3 614.2,274.4 615.1,274.6 615.9,274.8 616.8,274.9 617.7,275.1 618.5,275.2 619.3,275.4 620.2,275.5 621.0,275.7 621.8,275.9 622.6,276.0 623.4,276.2 624.4,278.2 625.4,276.5 626.4,278.5 627.3,276.9 628.3,278.8 629.2,277.2 630.2,279.0 631.1,277.6 632.0,279.3 632.9,277.9 633.8,279.6 634.7,278.2 635.6,279.8 636.5,278.5 637.4,280.1 638.3,278.8 639.1,280.3 640.0,279.1 640.8,280.5 641.7,279.4 642.5,280.8 643.3,279.7 644.1,281.0 644.9,280.0 645.7,281.3 646.7,281.4 647.7,281.5 648.6,281.7 649.5,281.8 650.4,281.9 651.4,282.1 652.3,282.2 653.2,282.3 654.1,282.4 654.9,282.6 655.8,282.7 656.7,282.8 657.5,282.9 658.4,283.1 659.2,283.2 660.1,283.3 660.9,283.4 661.7,283.5 662.6,283.7 663.4,283.8 664.2,283.9 665.1,283.4 666.0,284.2 666.9,283.7 667.8,284.4 668.7,284.0 669.6,284.7 670.5,284.2 671.4,284.9 672.3,284.5 673.1,285.2 674.0,284.8 674.8,285.4 675.7,285.0 676.5,285.6 677.3,285.3 678.1,285.8 678.9,285.5 679.8,286.1 680.7,286.2 681.6,286.3 682.5,286.4 683.4,286.6 684.2,286.7 685.1,286.8 686.0,286.9 686.8,287.0 687.7,287.1 688.5,287.3 689.4,287.4 690.2,287.5 691.0,287.6 691.8,287.7 692.6,287.8 693.5,287.9 694.4,287.8 695.2,288.1 696.1,288.0 697.0,288.4 697.9,288.3 698.7,288.6 699.6,288.5 700.4,288.8 701.3,288.7 702.1,289.0 702.9,289.0 703.7,289.2 704.5,289.2 705.3,289.4 706.2,289.5 707.1,289.6 708.0,289.7 708.8,289.8 709.7,289.9 710.6,290.0 711.4,290.1 712.2,290.2 713.1,290.3 713.9,290.4 714.7,290.5 715.5,290.6 716.3,290.7 717.2,290.7 718.0,290.9 718.9,290.9 719.8,291.1 720.6,291.1 721.4,291.2 722.3,291.3 723.1,291.4 723.9,291.5 724.7,291.6 725.5,291.7 726.4,291.7 727.3,291.8 728.1,291.9 729.0,292.0 729.8,292.1 730.7,292.2 731.5,292.2 732.3,292.3 733.1,292.4 733.9,292.5 734.7,292.5 735.6,292.6 736.5,292.7 737.3,292.7 738.1,292.8 739.0,292.8 739.8,293.0 740.6,292.9 741.4,293.1 742.3,293.1 743.1,293.2 743.9,293.3 744.8,293.3 745.6,293.4 746.4,293.4 747.3,293.5 748.1,293.5 748.9,293.6 749.7,293.6 750.5,293.6 751.4,293.6 752.2,293.7 753.0,293.7 753.9,293.8 754.7,293.7" fill="none" stroke="#e74c3c" stroke-width="1.3" stroke-linejoin="round" clip-path="url(#pc147)"/>
  <defs><clipPath id="pc148"><rect x="55" y="12" width="700" height="200"/></clipPath></defs>
  <polyline points="62.5,245.7 103.6,243.7 132.7,240.9 155.3,237.7 173.8,234.0 189.4,230.1 203.0,226.0 214.9,221.7 225.6,217.3 235.2,212.9 244.1,208.6 252.2,204.2 259.7,199.8 266.7,195.5 273.2,191.2 279.3,186.9 285.1,182.6 290.6,178.4 295.8,174.1 300.8,169.9 305.5,165.6 310.0,161.4 314.3,157.1 318.4,152.8 322.4,148.4 326.2,144.0 329.9,139.6 333.5,135.1 336.9,130.5 340.2,125.8 343.4,121.0 346.6,116.1 349.6,111.0 352.5,105.9 355.4,100.7 358.2,95.3 360.9,89.9 363.5,84.4 366.1,78.9 368.6,73.5 371.0,68.2 373.4,63.4 375.7,59.1 378.0,55.7 380.2,53.2 382.4,52.0 384.5,52.0 386.6,53.1 388.7,55.3 390.7,58.2 392.6,61.7 394.6,65.6 396.5,69.6 398.3,73.6 400.2,77.7 401.9,81.7 403.7,85.5 405.4,89.2 407.1,92.8 408.8,96.3 410.5,99.6 412.1,102.7 413.7,105.8 415.3,108.7 416.8,111.5 418.3,114.2 419.8,116.7 421.3,119.2 422.8,121.6 424.2,123.9 425.6,126.1 427.0,128.3 428.4,130.3 429.8,132.3 431.1,134.3 432.4,136.1 433.7,138.0 435.0,139.7 436.3,141.4 437.6,143.1 438.8,144.7 440.0,146.3 441.2,147.8 442.4,149.3 443.6,150.8 444.8,152.2 446.0,153.6 447.1,154.9 448.2,156.2 449.4,157.5 450.5,158.8 451.6,160.0 452.6,161.2 453.7,162.4 454.8,163.6 455.8,164.7 456.9,165.9 457.9,166.9 458.9,168.0 459.9,169.1 460.9,170.1 461.9,171.1 462.9,172.1 463.9,173.1 464.8,174.1 465.8,175.0 466.7,176.0 467.6,176.9 468.6,177.8 469.5,178.7 470.4,179.6 471.3,180.4 472.2,181.3 473.1,182.1 474.0,183.0 474.8,183.8 475.7,184.6 476.5,185.4 477.4,186.2 478.2,186.9 479.1,187.7 479.9,188.5 480.7,189.2 481.5,189.9 482.3,190.7 483.1,191.4 484.7,192.8 486.3,194.2 487.8,195.5 489.3,196.8 490.8,198.1 492.3,199.4 493.7,200.6 495.2,201.8 496.6,203.0 498.0,204.2 499.3,205.3 500.7,206.4 502.0,207.5 503.3,208.6 504.6,209.7 505.9,210.7 507.2,211.7 508.4,212.7 509.7,213.7 510.9,214.7 512.1,215.7 513.3,216.6 514.5,217.5 515.6,218.5 516.8,219.4 517.9,220.3 519.0,221.1 520.1,222.0 521.3,222.8 522.3,223.7 523.4,224.5 524.5,225.3 525.5,226.2 526.6,226.9 527.6,227.7 528.6,228.5 529.7,229.3 530.7,230.0 531.7,230.8 532.6,231.5 533.6,232.3 534.6,233.0 535.5,233.7 536.5,234.4 537.4,235.1 538.3,235.8 539.3,236.5 540.2,237.2 541.1,237.8 542.0,238.5 542.9,239.2 543.8,239.8 544.6,240.5 545.5,241.1 546.4,241.7 547.2,242.3 548.0,243.0 548.9,243.6 549.7,244.2 550.5,244.8 551.4,245.4 552.2,246.0 553.0,246.6 554.2,247.4 555.3,248.3 556.5,249.1 557.7,249.9 558.8,250.8 559.9,251.6 561.1,252.4 562.2,253.2 563.2,254.0 564.3,254.7 565.4,255.5 566.5,256.2 567.5,257.0 568.5,257.7 569.6,258.5 570.6,259.2 571.6,259.9 572.6,260.6 573.6,261.3 574.5,261.9 575.5,262.7 576.5,263.3 577.4,264.0 578.4,264.6 579.3,265.3 580.2,265.9 581.1,266.6 582.0,267.2 582.9,267.8 583.8,268.4 584.7,269.1 585.6,269.7 586.4,270.3 587.3,270.8 588.2,271.5 589.0,272.0 589.8,272.6 590.7,273.2 591.5,273.8 592.3,274.3 593.1,274.9 593.9,275.4 595.0,276.1 596.0,276.9 597.1,277.6 598.1,278.3 599.1,279.0 600.1,279.7 601.2,280.4 602.1,281.0 603.1,281.7 604.1,282.4 605.1,283.0 606.0,283.7 607.0,284.3 607.9,284.9 608.8,285.5 609.7,286.2 610.6,286.8 611.6,287.4 612.4,288.0 613.3,288.6 614.2,289.2 615.1,289.8 615.9,290.3 616.8,290.9 617.7,291.5 618.5,292.0 619.3,292.6 620.2,293.1 621.0,293.7 621.8,294.2 622.6,294.8 623.4,295.3 624.4,296.1 625.4,296.6 626.4,297.4 627.3,297.9 628.3,298.7 629.2,299.1 630.2,299.9 631.1,300.3 632.0,301.1 632.9,301.5 633.8,302.3 634.7,302.7 635.6,303.5 636.5,303.8 637.4,304.6 638.3,305.0 639.1,305.8 640.0,306.1 640.8,306.9 641.7,307.2 642.5,307.9 643.3,308.2 644.1,309.0 644.9,309.2 645.7,310.0 646.7,310.7 647.7,311.3 648.6,311.9 649.5,312.5 650.4,313.0 651.4,313.6 652.3,314.2 653.2,314.8 654.1,315.3 654.9,315.9 655.8,316.4 656.7,317.0 657.5,317.5 658.4,318.1 659.2,318.6 660.1,319.1 660.9,319.6 661.7,320.1 662.6,320.7 663.4,321.2 664.2,321.7 665.1,321.8 666.0,322.8 666.9,322.9 667.8,323.9 668.7,324.0 669.6,325.0 670.5,325.0 671.4,326.1 672.3,326.1 673.1,327.1 674.0,327.1 674.8,328.1 675.7,328.1 676.5,329.1 677.3,329.0 678.1,330.1 678.9,330.0 679.8,331.0 680.7,331.6 681.6,332.1 682.5,332.6 683.4,333.1 684.2,333.6 685.1,334.1 686.0,334.6 686.8,335.1 687.7,335.6 688.5,336.1 689.4,336.5 690.2,337.0 691.0,337.5 691.8,337.9 692.6,338.4 693.5,338.8 694.4,338.6 695.2,339.8 696.1,339.6 697.0,340.7 697.9,340.5 698.7,341.6 699.6,341.4 700.4,342.5 701.3,342.3 702.1,343.4 702.9,343.2 703.7,344.2 704.5,344.0 705.3,345.0 706.2,345.4 707.1,345.9 708.0,346.3 708.8,346.7 709.7,347.1 710.6,347.5 711.4,347.9 712.2,348.3 713.1,348.7 713.9,349.1 714.7,349.4 715.5,349.8 716.3,350.1 717.2,350.2 718.0,350.9 718.9,351.0 719.8,351.6 720.6,351.8 721.4,352.3 722.3,352.6 723.1,353.0 723.9,353.3 724.7,353.6 725.5,354.0 726.4,354.4 727.3,354.8 728.1,355.1 729.0,355.5 729.8,355.8 730.7,356.2 731.5,356.5 732.3,356.8 733.1,357.2 733.9,357.5 734.7,357.8 735.6,357.3 736.5,358.4 737.3,357.8 738.1,359.1 739.0,358.2 739.8,359.7 740.6,358.7 741.4,360.2 742.3,359.1 743.1,360.7 743.9,361.0 744.8,361.3 745.6,361.5 746.4,361.8 747.3,362.0 748.1,362.2 748.9,362.4 749.7,362.6 750.5,362.8 751.4,360.9 752.2,363.2 753.0,361.1 753.9,363.6 754.7,361.3" fill="none" stroke="#2ecc71" stroke-width="1.3" stroke-linejoin="round" clip-path="url(#pc148)"/>
  <defs><clipPath id="pc149"><rect x="55" y="12" width="700" height="200"/></clipPath></defs>
  <polyline points="62.5,254.6 103.6,254.0 132.7,253.1 155.3,252.0 173.8,250.7 189.4,249.2 203.0,247.5 214.9,245.7 225.6,243.8 235.2,241.7 244.1,239.6 252.2,237.4 259.7,235.1 266.7,232.8 273.2,230.5 279.3,228.1 285.1,225.7 290.6,223.3 295.8,220.9 300.8,218.5 305.5,216.0 310.0,213.6 314.3,211.2 318.4,208.8 322.4,206.4 326.2,204.0 329.9,201.6 333.5,199.2 336.9,196.8 340.2,194.4 343.4,192.0 346.6,189.6 349.6,187.2 352.5,184.8 355.4,182.5 358.2,180.1 360.9,177.7 363.5,175.3 366.1,172.9 368.6,170.5 371.0,168.1 373.4,165.6 375.7,163.2 378.0,160.7 380.2,158.2 382.4,155.7 384.5,153.2 386.6,150.7 388.7,148.1 390.7,145.5 392.6,142.9 394.6,140.2 396.5,137.6 398.3,134.8 400.2,132.1 401.9,129.3 403.7,126.4 405.4,123.5 407.1,120.6 408.8,117.6 410.5,114.5 412.1,111.4 413.7,108.3 415.3,105.1 416.8,101.8 418.3,98.5 419.8,95.2 421.3,91.7 422.8,88.3 424.2,84.8 425.6,81.4 427.0,77.9 428.4,74.4 429.8,71.1 431.1,67.8 432.4,64.6 433.7,61.7 435.0,59.1 436.3,56.7 437.6,54.8 438.8,53.3 440.0,52.4 441.2,51.9 442.4,52.0 443.6,52.5 444.8,53.6 446.0,55.0 447.1,56.8 448.2,58.9 449.4,61.2 450.5,63.6 451.6,66.2 452.6,68.9 453.7,71.5 454.8,74.2 455.8,76.9 456.9,79.6 457.9,82.2 458.9,84.7 459.9,87.2 460.9,89.7 461.9,92.1 462.9,94.4 463.9,96.7 464.8,98.9 465.8,101.0 466.7,103.1 467.6,105.2 468.6,107.1 469.5,109.1 470.4,110.9 471.3,112.8 472.2,114.5 473.1,116.3 474.0,118.0 474.8,119.6 475.7,121.2 476.5,122.8 477.4,124.3 478.2,125.8 479.1,127.2 479.9,128.7 480.7,130.0 481.5,131.4 482.3,132.7 483.1,134.0 484.7,136.5 486.3,139.0 487.8,141.3 489.3,143.5 490.8,145.7 492.3,147.8 493.7,149.8 495.2,151.7 496.6,153.6 498.0,155.4 499.3,157.1 500.7,158.8 502.0,160.5 503.3,162.1 504.6,163.7 505.9,165.2 507.2,166.7 508.4,168.1 509.7,169.6 510.9,170.9 512.1,172.3 513.3,173.6 514.5,174.9 515.6,176.1 516.8,177.4 517.9,178.6 519.0,179.7 520.1,180.9 521.3,182.0 522.3,183.1 523.4,184.2 524.5,185.3 525.5,186.3 526.6,187.4 527.6,188.4 528.6,189.4 529.7,190.3 530.7,191.3 531.7,192.3 532.6,193.2 533.6,194.1 534.6,195.0 535.5,195.9 536.5,196.8 537.4,197.6 538.3,198.5 539.3,199.3 540.2,200.1 541.1,200.9 542.0,201.7 542.9,202.5 543.8,203.3 544.6,204.1 545.5,204.8 546.4,205.6 547.2,206.3 548.0,207.0 548.9,207.8 549.7,208.5 550.5,209.2 551.4,209.9 552.2,210.6 553.0,211.2 554.2,212.2 555.3,213.2 556.5,214.2 557.7,215.2 558.8,216.1 559.9,217.0 561.1,217.9 562.2,218.8 563.2,219.7 564.3,220.6 565.4,221.4 566.5,222.3 567.5,223.1 568.5,224.0 569.6,224.8 570.6,225.6 571.6,226.4 572.6,227.1 573.6,227.9 574.5,228.7 575.5,229.4 576.5,230.2 577.4,230.9 578.4,231.6 579.3,232.3 580.2,233.0 581.1,233.7 582.0,234.4 582.9,235.1 583.8,235.8 584.7,236.4 585.6,237.1 586.4,237.7 587.3,238.4 588.2,239.0 589.0,239.7 589.8,240.3 590.7,240.9 591.5,241.5 592.3,242.1 593.1,242.7 593.9,243.3 595.0,244.1 596.0,244.9 597.1,245.6 598.1,246.4 599.1,247.1 600.1,247.9 601.2,248.6 602.1,249.3 603.1,250.0 604.1,250.7 605.1,251.4 606.0,252.1 607.0,252.8 607.9,253.4 608.8,254.1 609.7,254.7 610.6,255.4 611.6,256.0 612.4,256.7 613.3,257.3 614.2,257.9 615.1,258.5 615.9,259.1 616.8,259.7 617.7,260.3 618.5,260.9 619.3,261.5 620.2,262.1 621.0,262.6 621.8,263.2 622.6,263.7 623.4,264.3 624.4,265.0 625.4,265.7 626.4,266.3 627.3,267.0 628.3,267.6 629.2,268.3 630.2,268.9 631.1,269.6 632.0,270.2 632.9,270.8 633.8,271.4 634.7,272.0 635.6,272.6 636.5,273.2 637.4,273.8 638.3,274.4 639.1,274.9 640.0,275.5 640.8,276.1 641.7,276.6 642.5,277.2 643.3,277.7 644.1,278.3 644.9,278.8 645.7,279.3 646.7,279.9 647.7,280.6 648.6,281.2 649.5,281.8 650.4,282.4 651.4,283.0 652.3,283.6 653.2,284.1 654.1,284.7 654.9,285.3 655.8,285.8 656.7,286.4 657.5,286.9 658.4,287.5 659.2,288.0 660.1,288.5 660.9,289.1 661.7,289.6 662.6,290.1 663.4,290.6 664.2,291.1 665.1,291.7 666.0,292.3 666.9,292.8 667.8,293.4 668.7,293.9 669.6,294.5 670.5,295.0 671.4,295.6 672.3,296.1 673.1,296.6 674.0,297.1 674.8,297.6 675.7,298.1 676.5,298.6 677.3,299.1 678.1,299.6 678.9,300.1 679.8,300.6 680.7,301.1 681.6,301.6 682.5,302.2 683.4,302.7 684.2,303.2 685.1,303.7 686.0,304.2 686.8,304.7 687.7,305.2 688.5,305.6 689.4,306.1 690.2,306.6 691.0,307.0 691.8,307.5 692.6,307.9 693.5,308.4 694.4,308.9 695.2,309.4 696.1,309.9 697.0,310.3 697.9,310.8 698.7,311.3 699.6,311.7 700.4,312.2 701.3,312.6 702.1,313.0 702.9,313.5 703.7,313.9 704.5,314.3 705.3,314.7 706.2,315.2 707.1,315.6 708.0,316.0 708.8,316.5 709.7,316.9 710.6,317.3 711.4,317.7 712.2,318.1 713.1,318.5 713.9,318.9 714.7,319.3 715.5,319.7 716.3,320.0 717.2,320.4 718.0,320.8 718.9,321.2 719.8,321.6 720.6,322.0 721.4,322.3 722.3,322.7 723.1,323.0 723.9,323.4 724.7,323.7 725.5,324.0 726.4,324.4 727.3,324.7 728.1,325.1 729.0,325.4 729.8,325.7 730.7,326.1 731.5,326.4 732.3,326.7 733.1,327.0 733.9,327.2 734.7,327.5 735.6,327.8 736.5,328.1 737.3,328.4 738.1,328.7 739.0,328.9 739.8,329.2 740.6,329.4 741.4,329.7 742.3,329.9 743.1,330.1 743.9,330.3 744.8,330.6 745.6,330.8 746.4,331.0 747.3,331.2 748.1,331.4 748.9,331.6 749.7,331.7 750.5,331.9 751.4,332.1 752.2,332.2 753.0,332.4 753.9,332.5 754.7,332.6" fill="none" stroke="#f39c12" stroke-width="1.3" stroke-linejoin="round" clip-path="url(#pc149)"/>
  <defs><clipPath id="pc150"><rect x="55" y="12" width="700" height="200"/></clipPath></defs>
  <polyline points="62.5,250.9 103.6,250.7 132.7,250.5 155.3,250.1 173.8,249.8 189.4,249.3 203.0,248.8 214.9,248.2 225.6,247.6 235.2,246.9 244.1,246.2 252.2,245.4 259.7,244.6 266.7,243.7 273.2,242.8 279.3,241.8 285.1,240.8 290.6,239.8 295.8,238.7 300.8,237.6 305.5,236.5 310.0,235.4 314.3,234.2 318.4,233.0 322.4,231.8 326.2,230.6 329.9,229.4 333.5,228.1 336.9,226.9 340.2,225.6 343.4,224.3 346.6,223.1 349.6,221.8 352.5,220.5 355.4,219.2 358.2,217.8 360.9,216.5 363.5,215.2 366.1,213.9 368.6,212.5 371.0,211.2 373.4,209.9 375.7,208.5 378.0,207.2 380.2,205.9 382.4,204.5 384.5,203.2 386.6,201.8 388.7,200.5 390.7,199.1 392.6,197.8 394.6,196.4 396.5,195.0 398.3,193.7 400.2,192.3 401.9,191.0 403.7,189.6 405.4,188.2 407.1,186.9 408.8,185.5 410.5,184.1 412.1,182.7 413.7,181.3 415.3,179.9 416.8,178.5 418.3,177.1 419.8,175.7 421.3,174.3 422.8,172.9 424.2,171.5 425.6,170.1 427.0,168.6 428.4,167.2 429.8,165.8 431.1,164.3 432.4,162.8 433.7,161.4 435.0,159.9 436.3,158.4 437.6,156.9 438.8,155.4 440.0,153.9 441.2,152.3 442.4,150.8 443.6,149.2 444.8,147.7 446.0,146.1 447.1,144.5 448.2,142.9 449.4,141.3 450.5,139.6 451.6,138.0 452.6,136.3 453.7,134.6 454.8,132.9 455.8,131.2 456.9,129.4 457.9,127.7 458.9,125.9 459.9,124.1 460.9,122.3 461.9,120.4 462.9,118.6 463.9,116.7 464.8,114.8 465.8,112.8 466.7,110.9 467.6,108.9 468.6,106.9 469.5,104.9 470.4,102.8 471.3,100.7 472.2,98.6 473.1,96.5 474.0,94.3 474.8,92.2 475.7,90.0 476.5,87.8 477.4,85.6 478.2,83.4 479.1,81.1 479.9,78.9 480.7,76.7 481.5,74.5 482.3,72.3 483.1,70.2 484.7,66.0 486.3,62.2 487.8,58.7 489.3,55.9 490.8,53.7 492.3,52.4 493.7,51.9 495.2,52.3 496.6,53.5 498.0,55.4 499.3,57.9 500.7,60.9 502.0,64.1 503.3,67.5 504.6,71.0 505.9,74.5 507.2,78.0 508.4,81.5 509.7,84.9 510.9,88.2 512.1,91.4 513.3,94.5 514.5,97.4 515.6,100.3 516.8,103.1 517.9,105.8 519.0,108.4 520.1,110.9 521.3,113.3 522.3,115.6 523.4,117.8 524.5,120.0 525.5,122.1 526.6,124.2 527.6,126.1 528.6,128.1 529.7,129.9 530.7,131.7 531.7,133.5 532.6,135.2 533.6,136.8 534.6,138.4 535.5,140.0 536.5,141.5 537.4,143.0 538.3,144.5 539.3,145.9 540.2,147.3 541.1,148.6 542.0,150.0 542.9,151.2 543.8,152.5 544.6,153.7 545.5,155.0 546.4,156.1 547.2,157.3 548.0,158.4 548.9,159.6 549.7,160.6 550.5,161.7 551.4,162.8 552.2,163.8 553.0,164.8 554.2,166.3 555.3,167.8 556.5,169.2 557.7,170.6 558.8,171.9 559.9,173.2 561.1,174.5 562.2,175.8 563.2,177.0 564.3,178.2 565.4,179.4 566.5,180.5 567.5,181.7 568.5,182.8 569.6,183.8 570.6,184.9 571.6,186.0 572.6,187.0 573.6,188.0 574.5,189.0 575.5,190.0 576.5,190.9 577.4,191.8 578.4,192.8 579.3,193.7 580.2,194.6 581.1,195.5 582.0,196.3 582.9,197.2 583.8,198.0 584.7,198.8 585.6,199.7 586.4,200.5 587.3,201.3 588.2,202.0 589.0,202.8 589.8,203.6 590.7,204.3 591.5,205.1 592.3,205.8 593.1,206.5 593.9,207.2 595.0,208.2 596.0,209.1 597.1,210.0 598.1,210.9 599.1,211.7 600.1,212.6 601.2,213.5 602.1,214.3 603.1,215.1 604.1,215.9 605.1,216.7 606.0,217.5 607.0,218.3 607.9,219.1 608.8,219.8 609.7,220.6 610.6,221.3 611.6,222.0 612.4,222.8 613.3,223.5 614.2,224.2 615.1,224.9 615.9,225.5 616.8,226.2 617.7,226.9 618.5,227.5 619.3,228.2 620.2,228.8 621.0,229.5 621.8,230.1 622.6,230.7 623.4,231.3 624.4,232.1 625.4,232.8 626.4,233.6 627.3,234.3 628.3,235.0 629.2,235.7 630.2,236.4 631.1,237.1 632.0,237.8 632.9,238.5 633.8,239.1 634.7,239.8 635.6,240.5 636.5,241.1 637.4,241.7 638.3,242.4 639.1,243.0 640.0,243.6 640.8,244.2 641.7,244.8 642.5,245.4 643.3,246.0 644.1,246.5 644.9,247.1 645.7,247.7 646.7,248.4 647.7,249.0 648.6,249.7 649.5,250.3 650.4,251.0 651.4,251.6 652.3,252.2 653.2,252.8 654.1,253.4 654.9,254.0 655.8,254.6 656.7,255.2 657.5,255.8 658.4,256.4 659.2,256.9 660.1,257.5 660.9,258.0 661.7,258.6 662.6,259.1 663.4,259.7 664.2,260.2 665.1,260.8 666.0,261.4 666.9,262.0 667.8,262.6 668.7,263.2 669.6,263.7 670.5,264.3 671.4,264.9 672.3,265.4 673.1,265.9 674.0,266.5 674.8,267.0 675.7,267.5 676.5,268.1 677.3,268.6 678.1,269.1 678.9,269.6 679.8,270.1 680.7,270.6 681.6,271.2 682.5,271.7 683.4,272.3 684.2,272.8 685.1,273.3 686.0,273.8 686.8,274.3 687.7,274.8 688.5,275.3 689.4,275.8 690.2,276.3 691.0,276.8 691.8,277.2 692.6,277.7 693.5,278.2 694.4,278.7 695.2,279.2 696.1,279.7 697.0,280.2 697.9,280.6 698.7,281.1 699.6,281.6 700.4,282.0 701.3,282.5 702.1,282.9 702.9,283.4 703.7,283.8 704.5,284.2 705.3,284.7 706.2,285.1 707.1,285.6 708.0,286.0 708.8,286.5 709.7,286.9 710.6,287.3 711.4,287.7 712.2,288.2 713.1,288.6 713.9,289.0 714.7,289.3 715.5,289.7 716.3,290.1 717.2,290.5 718.0,290.9 718.9,291.3 719.8,291.7 720.6,292.1 721.4,292.5 722.3,292.8 723.1,293.2 723.9,293.5 724.7,293.9 725.5,294.2 726.4,294.6 727.3,294.9 728.1,295.3 729.0,295.6 729.8,295.9 730.7,296.3 731.5,296.6 732.3,296.9 733.1,297.2 733.9,297.5 734.7,297.8 735.6,298.1 736.5,298.4 737.3,298.6 738.1,298.9 739.0,299.2 739.8,299.4 740.6,299.7 741.4,299.9 742.3,300.2 743.1,300.4 743.9,300.6 744.8,300.9 745.6,301.1 746.4,301.3 747.3,301.5 748.1,301.7 748.9,301.9 749.7,302.0 750.5,302.2 751.4,302.4 752.2,302.5 753.0,302.7 753.9,302.8 754.7,302.9" fill="none" stroke="#9b59b6" stroke-width="1.3" stroke-linejoin="round" clip-path="url(#pc150)"/>
  <defs><clipPath id="pc151"><rect x="55" y="12" width="700" height="200"/></clipPath></defs>
  <polyline points="62.5,239.3 103.6,239.2 132.7,239.2 155.3,239.1 173.8,239.0 189.4,238.9 203.0,238.8 214.9,238.6 225.6,238.4 235.2,238.3 244.1,238.1 252.2,237.8 259.7,237.6 266.7,237.4 273.2,237.1 279.3,236.8 285.1,236.5 290.6,236.2 295.8,235.9 300.8,235.5 305.5,235.2 310.0,234.8 314.3,234.4 318.4,234.1 322.4,233.6 326.2,233.2 329.9,232.8 333.5,232.4 336.9,231.9 340.2,231.4 343.4,231.0 346.6,230.5 349.6,230.0 352.5,229.5 355.4,228.9 358.2,228.4 360.9,227.9 363.5,227.3 366.1,226.8 368.6,226.2 371.0,225.6 373.4,225.1 375.7,224.5 378.0,223.9 380.2,223.3 382.4,222.7 384.5,222.1 386.6,221.5 388.7,220.8 390.7,220.2 392.6,219.6 394.6,218.9 396.5,218.3 398.3,217.6 400.2,217.0 401.9,216.3 403.7,215.6 405.4,215.0 407.1,214.3 408.8,213.6 410.5,212.9 412.1,212.2 413.7,211.6 415.3,210.9 416.8,210.2 418.3,209.5 419.8,208.8 421.3,208.0 422.8,207.3 424.2,206.6 425.6,205.9 427.0,205.2 428.4,204.5 429.8,203.7 431.1,203.0 432.4,202.3 433.7,201.5 435.0,200.8 436.3,200.1 437.6,199.3 438.8,198.6 440.0,197.8 441.2,197.1 442.4,196.3 443.6,195.6 444.8,194.8 446.0,194.1 447.1,193.3 448.2,192.5 449.4,191.8 450.5,191.0 451.6,190.2 452.6,189.4 453.7,188.7 454.8,187.9 455.8,187.1 456.9,186.3 457.9,185.5 458.9,184.7 459.9,184.0 460.9,183.2 461.9,182.4 462.9,181.6 463.9,180.8 464.8,180.0 465.8,179.1 466.7,178.3 467.6,177.5 468.6,176.7 469.5,175.9 470.4,175.1 471.3,174.2 472.2,173.4 473.1,172.6 474.0,171.7 474.8,170.9 475.7,170.0 476.5,169.2 477.4,168.3 478.2,167.5 479.1,166.6 479.9,165.8 480.7,164.9 481.5,164.0 482.3,163.2 483.1,162.3 484.7,160.5 486.3,158.7 487.8,156.9 489.3,155.1 490.8,153.2 492.3,151.4 493.7,149.5 495.2,147.6 496.6,145.6 498.0,143.7 499.3,141.7 500.7,139.7 502.0,137.6 503.3,135.6 504.6,133.5 505.9,131.3 507.2,129.2 508.4,127.0 509.7,124.7 510.9,122.4 512.1,120.1 513.3,117.8 514.5,115.4 515.6,113.0 516.8,110.5 517.9,108.0 519.0,105.4 520.1,102.8 521.3,100.2 522.3,97.5 523.4,94.8 524.5,92.0 525.5,89.2 526.6,86.4 527.6,83.6 528.6,80.7 529.7,77.9 530.7,75.0 531.7,72.2 532.6,69.5 533.6,66.8 534.6,64.2 535.5,61.8 536.5,59.6 537.4,57.6 538.3,55.8 539.3,54.3 540.2,53.2 541.1,52.4 542.0,52.0 542.9,51.9 543.8,52.3 544.6,52.9 545.5,53.9 546.4,55.2 547.2,56.8 548.0,58.5 548.9,60.4 549.7,62.5 550.5,64.6 551.4,66.9 552.2,69.1 553.0,71.5 554.2,74.9 555.3,78.4 556.5,81.8 557.7,85.1 558.8,88.4 559.9,91.5 561.1,94.5 562.2,97.5 563.2,100.3 564.3,103.1 565.4,105.7 566.5,108.3 567.5,110.8 568.5,113.2 569.6,115.5 570.6,117.7 571.6,119.9 572.6,122.0 573.6,124.0 574.5,126.0 575.5,127.9 576.5,129.7 577.4,131.5 578.4,133.3 579.3,135.0 580.2,136.6 581.1,138.2 582.0,139.8 582.9,141.3 583.8,142.8 584.7,144.2 585.6,145.6 586.4,147.0 587.3,148.4 588.2,149.7 589.0,151.0 589.8,152.2 590.7,153.5 591.5,154.7 592.3,155.8 593.1,157.0 593.9,158.1 595.0,159.6 596.0,161.0 597.1,162.4 598.1,163.8 599.1,165.2 600.1,166.5 601.2,167.7 602.1,169.0 603.1,170.2 604.1,171.4 605.1,172.5 606.0,173.7 607.0,174.8 607.9,175.9 608.8,177.0 609.7,178.0 610.6,179.1 611.6,180.1 612.4,181.1 613.3,182.0 614.2,183.0 615.1,183.9 615.9,184.9 616.8,185.8 617.7,186.7 618.5,187.5 619.3,188.4 620.2,189.3 621.0,190.1 621.8,190.9 622.6,191.7 623.4,192.5 624.4,193.5 625.4,194.5 626.4,195.4 627.3,196.4 628.3,197.3 629.2,198.2 630.2,199.1 631.1,199.9 632.0,200.8 632.9,201.6 633.8,202.5 634.7,203.3 635.6,204.1 636.5,204.9 637.4,205.6 638.3,206.4 639.1,207.2 640.0,207.9 640.8,208.6 641.7,209.4 642.5,210.1 643.3,210.8 644.1,211.5 644.9,212.2 645.7,212.8 646.7,213.6 647.7,214.4 648.6,215.2 649.5,215.9 650.4,216.7 651.4,217.4 652.3,218.2 653.2,218.9 654.1,219.6 654.9,220.3 655.8,221.0 656.7,221.6 657.5,222.3 658.4,223.0 659.2,223.6 660.1,224.3 660.9,224.9 661.7,225.5 662.6,226.1 663.4,226.7 664.2,227.3 665.1,228.0 666.0,228.7 666.9,229.4 667.8,230.0 668.7,230.7 669.6,231.3 670.5,232.0 671.4,232.6 672.3,233.2 673.1,233.8 674.0,234.4 674.8,235.0 675.7,235.6 676.5,236.1 677.3,236.7 678.1,237.3 678.9,237.8 679.8,238.4 680.7,239.0 681.6,239.6 682.5,240.2 683.4,240.8 684.2,241.4 685.1,241.9 686.0,242.5 686.8,243.0 687.7,243.6 688.5,244.1 689.4,244.7 690.2,245.2 691.0,245.7 691.8,246.2 692.6,246.7 693.5,247.2 694.4,247.8 695.2,248.3 696.1,248.8 697.0,249.4 697.9,249.9 698.7,250.4 699.6,250.9 700.4,251.4 701.3,251.9 702.1,252.3 702.9,252.8 703.7,253.3 704.5,253.7 705.3,254.2 706.2,254.7 707.1,255.2 708.0,255.6 708.8,256.1 709.7,256.6 710.6,257.0 711.4,257.5 712.2,257.9 713.1,258.3 713.9,258.7 714.7,259.2 715.5,259.6 716.3,260.0 717.2,260.4 718.0,260.8 718.9,261.2 719.8,261.6 720.6,262.0 721.4,262.4 722.3,262.8 723.1,263.2 723.9,263.6 724.7,263.9 725.5,264.3 726.4,264.7 727.3,265.0 728.1,265.4 729.0,265.8 729.8,266.1 730.7,266.4 731.5,266.8 732.3,267.1 733.1,267.4 733.9,267.7 734.7,268.0 735.6,268.3 736.5,268.6 737.3,268.9 738.1,269.2 739.0,269.5 739.8,269.8 740.6,270.0 741.4,270.3 742.3,270.5 743.1,270.8 743.9,271.0 744.8,271.2 745.6,271.5 746.4,271.7 747.3,271.9 748.1,272.1 748.9,272.3 749.7,272.5 750.5,272.6 751.4,272.8 752.2,273.0 753.0,273.1 753.9,273.3 754.7,273.4" fill="none" stroke="#1abc9c" stroke-width="1.3" stroke-linejoin="round" clip-path="url(#pc151)"/>
  <defs><clipPath id="pc152"><rect x="55" y="12" width="700" height="200"/></clipPath></defs>
  <polyline points="62.5,222.6 103.6,222.6 132.7,222.6 155.3,222.5 173.8,222.5 189.4,222.5 203.0,222.5 214.9,222.4 225.6,222.4 235.2,222.3 244.1,222.3 252.2,222.2 259.7,222.2 266.7,222.1 273.2,222.1 279.3,222.0 285.1,221.9 290.6,221.8 295.8,221.8 300.8,221.7 305.5,221.6 310.0,221.5 314.3,221.4 318.4,221.3 322.4,221.2 326.2,221.1 329.9,221.0 333.5,220.8 336.9,220.7 340.2,220.6 343.4,220.5 346.6,220.3 349.6,220.2 352.5,220.0 355.4,219.9 358.2,219.7 360.9,219.6 363.5,219.4 366.1,219.3 368.6,219.1 371.0,218.9 373.4,218.8 375.7,218.6 378.0,218.4 380.2,218.2 382.4,218.1 384.5,217.9 386.6,217.7 388.7,217.5 390.7,217.3 392.6,217.1 394.6,216.9 396.5,216.7 398.3,216.5 400.2,216.2 401.9,216.0 403.7,215.8 405.4,215.6 407.1,215.3 408.8,215.1 410.5,214.9 412.1,214.6 413.7,214.4 415.3,214.2 416.8,213.9 418.3,213.7 419.8,213.4 421.3,213.2 422.8,212.9 424.2,212.6 425.6,212.4 427.0,212.1 428.4,211.8 429.8,211.6 431.1,211.3 432.4,211.0 433.7,210.7 435.0,210.5 436.3,210.2 437.6,209.9 438.8,209.6 440.0,209.3 441.2,209.0 442.4,208.7 443.6,208.4 444.8,208.1 446.0,207.8 447.1,207.5 448.2,207.2 449.4,206.9 450.5,206.6 451.6,206.3 452.6,205.9 453.7,205.6 454.8,205.3 455.8,205.0 456.9,204.6 457.9,204.3 458.9,204.0 459.9,203.7 460.9,203.3 461.9,203.0 462.9,202.6 463.9,202.3 464.8,202.0 465.8,201.6 466.7,201.3 467.6,200.9 468.6,200.6 469.5,200.2 470.4,199.9 471.3,199.5 472.2,199.1 473.1,198.8 474.0,198.4 474.8,198.1 475.7,197.7 476.5,197.3 477.4,197.0 478.2,196.6 479.1,196.2 479.9,195.8 480.7,195.5 481.5,195.1 482.3,194.7 483.1,194.3 484.7,193.6 486.3,192.8 487.8,192.0 489.3,191.2 490.8,190.4 492.3,189.6 493.7,188.8 495.2,188.0 496.6,187.2 498.0,186.3 499.3,185.5 500.7,184.7 502.0,183.8 503.3,183.0 504.6,182.1 505.9,181.2 507.2,180.3 508.4,179.5 509.7,178.6 510.9,177.7 512.1,176.8 513.3,175.9 514.5,175.0 515.6,174.0 516.8,173.1 517.9,172.2 519.0,171.2 520.1,170.3 521.3,169.3 522.3,168.3 523.4,167.4 524.5,166.4 525.5,165.4 526.6,164.4 527.6,163.4 528.6,162.4 529.7,161.4 530.7,160.3 531.7,159.3 532.6,158.2 533.6,157.2 534.6,156.1 535.5,155.1 536.5,154.0 537.4,152.9 538.3,151.8 539.3,150.7 540.2,149.5 541.1,148.4 542.0,147.3 542.9,146.1 543.8,144.9 544.6,143.7 545.5,142.6 546.4,141.4 547.2,140.1 548.0,138.9 548.9,137.7 549.7,136.4 550.5,135.1 551.4,133.9 552.2,132.6 553.0,131.3 554.2,129.3 555.3,127.2 556.5,125.2 557.7,123.1 558.8,121.0 559.9,118.8 561.1,116.6 562.2,114.3 563.2,112.0 564.3,109.7 565.4,107.3 566.5,104.9 567.5,102.5 568.5,100.0 569.6,97.4 570.6,94.8 571.6,92.2 572.6,89.6 573.6,86.9 574.5,84.2 575.5,81.4 576.5,78.7 577.4,76.0 578.4,73.3 579.3,70.6 580.2,68.0 581.1,65.5 582.0,63.1 582.9,60.8 583.8,58.7 584.7,56.9 585.6,55.3 586.4,53.9 587.3,52.9 588.2,52.3 589.0,52.0 589.8,52.0 590.7,52.4 591.5,53.1 592.3,54.1 593.1,55.4 593.9,57.0 595.0,59.3 596.0,61.9 597.1,64.7 598.1,67.7 599.1,70.7 600.1,73.7 601.2,76.8 602.1,79.8 603.1,82.7 604.1,85.6 605.1,88.5 606.0,91.2 607.0,93.9 607.9,96.6 608.8,99.1 609.7,101.6 610.6,103.9 611.6,106.3 612.4,108.5 613.3,110.7 614.2,112.8 615.1,114.9 615.9,116.9 616.8,118.8 617.7,120.7 618.5,122.5 619.3,124.3 620.2,126.0 621.0,127.7 621.8,129.3 622.6,130.9 623.4,132.5 624.4,134.4 625.4,136.2 626.4,138.0 627.3,139.7 628.3,141.4 629.2,143.0 630.2,144.6 631.1,146.1 632.0,147.6 632.9,149.1 633.8,150.5 634.7,151.9 635.6,153.3 636.5,154.6 637.4,155.9 638.3,157.2 639.1,158.4 640.0,159.6 640.8,160.8 641.7,161.9 642.5,163.1 643.3,164.2 644.1,165.3 644.9,166.3 645.7,167.4 646.7,168.6 647.7,169.8 648.6,170.9 649.5,172.1 650.4,173.2 651.4,174.3 652.3,175.4 653.2,176.4 654.1,177.4 654.9,178.4 655.8,179.4 656.7,180.4 657.5,181.4 658.4,182.3 659.2,183.2 660.1,184.1 660.9,185.0 661.7,185.8 662.6,186.7 663.4,187.5 664.2,188.3 665.1,189.3 666.0,190.2 666.9,191.1 667.8,192.0 668.7,192.9 669.6,193.7 670.5,194.6 671.4,195.4 672.3,196.2 673.1,197.0 674.0,197.8 674.8,198.5 675.7,199.3 676.5,200.0 677.3,200.7 678.1,201.5 678.9,202.2 679.8,202.9 680.7,203.6 681.6,204.4 682.5,205.2 683.4,205.9 684.2,206.6 685.1,207.3 686.0,208.0 686.8,208.7 687.7,209.4 688.5,210.1 689.4,210.7 690.2,211.4 691.0,212.0 691.8,212.6 692.6,213.2 693.5,213.8 694.4,214.5 695.2,215.1 696.1,215.8 697.0,216.4 697.9,217.0 698.7,217.6 699.6,218.2 700.4,218.8 701.3,219.4 702.1,220.0 702.9,220.5 703.7,221.1 704.5,221.6 705.3,222.1 706.2,222.7 707.1,223.3 708.0,223.8 708.8,224.4 709.7,224.9 710.6,225.4 711.4,226.0 712.2,226.5 713.1,227.0 713.9,227.5 714.7,227.9 715.5,228.4 716.3,228.9 717.2,229.4 718.0,229.9 718.9,230.3 719.8,230.8 720.6,231.3 721.4,231.7 722.3,232.1 723.1,232.6 723.9,233.0 724.7,233.4 725.5,233.8 726.4,234.2 727.3,234.7 728.1,235.1 729.0,235.5 729.8,235.9 730.7,236.2 731.5,236.6 732.3,237.0 733.1,237.3 733.9,237.7 734.7,238.0 735.6,238.3 736.5,238.7 737.3,239.0 738.1,239.3 739.0,239.7 739.8,240.0 740.6,240.2 741.4,240.5 742.3,240.8 743.1,241.1 743.9,241.3 744.8,241.6 745.6,241.9 746.4,242.1 747.3,242.3 748.1,242.5 748.9,242.8 749.7,243.0 750.5,243.1 751.4,243.3 752.2,243.5 753.0,243.7 753.9,243.9 754.7,244.0" fill="none" stroke="#e67e22" stroke-width="1.3" stroke-linejoin="round" clip-path="url(#pc152)"/>
  <defs><clipPath id="pc153"><rect x="55" y="12" width="700" height="200"/></clipPath></defs>
  <polyline points="62.5,202.6 103.6,202.6 132.7,202.6 155.3,202.6 173.8,202.6 189.4,202.6 203.0,202.6 214.9,202.6 225.6,202.6 235.2,202.6 244.1,202.6 252.2,202.6 259.7,202.5 266.7,202.5 273.2,202.5 279.3,202.5 285.1,202.5 290.6,202.5 295.8,202.4 300.8,202.4 305.5,202.4 310.0,202.4 314.3,202.4 318.4,202.3 322.4,202.3 326.2,202.3 329.9,202.3 333.5,202.2 336.9,202.2 340.2,202.2 343.4,202.1 346.6,202.1 349.6,202.1 352.5,202.0 355.4,202.0 358.2,202.0 360.9,201.9 363.5,201.9 366.1,201.8 368.6,201.8 371.0,201.8 373.4,201.7 375.7,201.7 378.0,201.6 380.2,201.6 382.4,201.5 384.5,201.5 386.6,201.4 388.7,201.4 390.7,201.3 392.6,201.3 394.6,201.2 396.5,201.2 398.3,201.1 400.2,201.1 401.9,201.0 403.7,201.0 405.4,200.9 407.1,200.8 408.8,200.8 410.5,200.7 412.1,200.7 413.7,200.6 415.3,200.5 416.8,200.5 418.3,200.4 419.8,200.3 421.3,200.3 422.8,200.2 424.2,200.1 425.6,200.1 427.0,200.0 428.4,199.9 429.8,199.8 431.1,199.8 432.4,199.7 433.7,199.6 435.0,199.5 436.3,199.5 437.6,199.4 438.8,199.3 440.0,199.2 441.2,199.1 442.4,199.1 443.6,199.0 444.8,198.9 446.0,198.8 447.1,198.7 448.2,198.6 449.4,198.5 450.5,198.5 451.6,198.4 452.6,198.3 453.7,198.2 454.8,198.1 455.8,198.0 456.9,197.9 457.9,197.8 458.9,197.7 459.9,197.6 460.9,197.5 461.9,197.4 462.9,197.3 463.9,197.2 464.8,197.1 465.8,197.0 466.7,196.9 467.6,196.8 468.6,196.7 469.5,196.6 470.4,196.5 471.3,196.4 472.2,196.3 473.1,196.1 474.0,196.0 474.8,195.9 475.7,195.8 476.5,195.7 477.4,195.6 478.2,195.5 479.1,195.3 479.9,195.2 480.7,195.1 481.5,195.0 482.3,194.9 483.1,194.7 484.7,194.5 486.3,194.3 487.8,194.0 489.3,193.7 490.8,193.5 492.3,193.2 493.7,193.0 495.2,192.7 496.6,192.4 498.0,192.1 499.3,191.9 500.7,191.6 502.0,191.3 503.3,191.0 504.6,190.7 505.9,190.4 507.2,190.1 508.4,189.8 509.7,189.5 510.9,189.2 512.1,188.9 513.3,188.6 514.5,188.2 515.6,187.9 516.8,187.6 517.9,187.3 519.0,186.9 520.1,186.6 521.3,186.2 522.3,185.9 523.4,185.6 524.5,185.2 525.5,184.8 526.6,184.5 527.6,184.1 528.6,183.8 529.7,183.4 530.7,183.0 531.7,182.7 532.6,182.3 533.6,181.9 534.6,181.5 535.5,181.1 536.5,180.7 537.4,180.4 538.3,180.0 539.3,179.6 540.2,179.2 541.1,178.7 542.0,178.3 542.9,177.9 543.8,177.5 544.6,177.1 545.5,176.7 546.4,176.2 547.2,175.8 548.0,175.4 548.9,174.9 549.7,174.5 550.5,174.1 551.4,173.6 552.2,173.2 553.0,172.7 554.2,172.0 555.3,171.3 556.5,170.6 557.7,169.9 558.8,169.2 559.9,168.5 561.1,167.7 562.2,167.0 563.2,166.2 564.3,165.5 565.4,164.7 566.5,163.9 567.5,163.2 568.5,162.4 569.6,161.6 570.6,160.8 571.6,159.9 572.6,159.1 573.6,158.3 574.5,157.4 575.5,156.6 576.5,155.7 577.4,154.8 578.4,154.0 579.3,153.1 580.2,152.2 581.1,151.2 582.0,150.3 582.9,149.4 583.8,148.4 584.7,147.5 585.6,146.5 586.4,145.5 587.3,144.5 588.2,143.5 589.0,142.5 589.8,141.5 590.7,140.5 591.5,139.4 592.3,138.4 593.1,137.3 593.9,136.2 595.0,134.7 596.0,133.2 597.1,131.7 598.1,130.2 599.1,128.6 600.1,127.0 601.2,125.4 602.1,123.7 603.1,122.0 604.1,120.3 605.1,118.6 606.0,116.8 607.0,115.0 607.9,113.2 608.8,111.3 609.7,109.4 610.6,107.5 611.6,105.5 612.4,103.5 613.3,101.5 614.2,99.4 615.1,97.3 615.9,95.2 616.8,93.0 617.7,90.8 618.5,88.6 619.3,86.4 620.2,84.1 621.0,81.8 621.8,79.5 622.6,77.2 623.4,74.9 624.4,72.1 625.4,69.3 626.4,66.6 627.3,63.9 628.3,61.5 629.2,59.2 630.2,57.2 631.1,55.4 632.0,54.0 632.9,52.9 633.8,52.2 634.7,52.0 635.6,52.1 636.5,52.7 637.4,53.6 638.3,54.9 639.1,56.5 640.0,58.3 640.8,60.3 641.7,62.5 642.5,64.9 643.3,67.3 644.1,69.8 644.9,72.3 645.7,74.8 646.7,77.8 647.7,80.7 648.6,83.7 649.5,86.5 650.4,89.3 651.4,92.1 652.3,94.7 653.2,97.3 654.1,99.8 654.9,102.3 655.8,104.6 656.7,106.9 657.5,109.2 658.4,111.3 659.2,113.4 660.1,115.5 660.9,117.4 661.7,119.3 662.6,121.2 663.4,123.0 664.2,124.8 665.1,126.8 666.0,128.7 666.9,130.6 667.8,132.4 668.7,134.2 669.6,135.9 670.5,137.5 671.4,139.2 672.3,140.7 673.1,142.2 674.0,143.7 674.8,145.2 675.7,146.6 676.5,148.0 677.3,149.3 678.1,150.6 678.9,151.9 679.8,153.1 680.7,154.5 681.6,155.9 682.5,157.2 683.4,158.5 684.2,159.7 685.1,160.9 686.0,162.1 686.8,163.3 687.7,164.4 688.5,165.5 689.4,166.6 690.2,167.6 691.0,168.7 691.8,169.7 692.6,170.7 693.5,171.6 694.4,172.7 695.2,173.7 696.1,174.7 697.0,175.7 697.9,176.7 698.7,177.6 699.6,178.5 700.4,179.4 701.3,180.3 702.1,181.2 702.9,182.0 703.7,182.8 704.5,183.6 705.3,184.4 706.2,185.3 707.1,186.1 708.0,186.9 708.8,187.7 709.7,188.5 710.6,189.3 711.4,190.0 712.2,190.7 713.1,191.5 713.9,192.2 714.7,192.8 715.5,193.5 716.3,194.2 717.2,194.9 718.0,195.5 718.9,196.2 719.8,196.9 720.6,197.5 721.4,198.1 722.3,198.7 723.1,199.3 723.9,199.9 724.7,200.4 725.5,201.0 726.4,201.6 727.3,202.1 728.1,202.7 729.0,203.2 729.8,203.7 730.7,204.3 731.5,204.8 732.3,205.2 733.1,205.7 733.9,206.2 734.7,206.6 735.6,207.1 736.5,207.5 737.3,208.0 738.1,208.4 739.0,208.8 739.8,209.2 740.6,209.6 741.4,209.9 742.3,210.3 743.1,210.6 743.9,211.0 744.8,211.3 745.6,211.6 746.4,212.0 747.3,212.3 748.1,212.5 748.9,212.8 749.7,213.1 750.5,213.3 751.4,213.6 752.2,213.8 753.0,214.0 753.9,214.2 754.7,214.4" fill="none" stroke="#34495e" stroke-width="1.3" stroke-linejoin="round" clip-path="url(#pc153)"/>
</svg>
