<svg xmlns="http://www.w3.org/2000/svg" viewBox="0 0 820 378" style="font-family:system-ui,-apple-system,sans-serif">
  <text x="800" y="11" text-anchor="end" font-size="11" font-weight="600" fill="#6b7280">Formant filter (vowel /a/)</text>
  <line x1="34" y1="16" x2="34" y2="171" stroke="#d1d5db"/>
  <line x1="34" y1="47.0" x2="399" y2="47.0" stroke="#d1d5db"/>
  <text x="216.5" y="197" text-anchor="middle" font-size="9" fill="#6b7280">Hz</text>
  <text x="12" y="93.5" text-anchor="middle" font-size="9" fill="#6b7280" transform="rotate(-90 12 93.5)">dB</text>
  <line x1="67.3" y1="16" x2="67.3" y2="171" stroke="#e5e7eb" stroke-width="0.5"/>
  <line x1="86.8" y1="16" x2="86.8" y2="171" stroke="#e5e7eb" stroke-width="0.5"/>
  <line x1="100.6" y1="16" x2="100.6" y2="171" stroke="#e5e7eb" stroke-width="0.5"/>
  <line x1="111.3" y1="16" x2="111.3" y2="171" stroke="#e5e7eb" stroke-width="0.5"/>
  <line x1="120.0" y1="16" x2="120.0" y2="171" stroke="#e5e7eb" stroke-width="0.5"/>
  <line x1="127.4" y1="16" x2="127.4" y2="171" stroke="#e5e7eb" stroke-width="0.5"/>
  <line x1="133.9" y1="16" x2="133.9" y2="171" stroke="#e5e7eb" stroke-width="0.5"/>
  <line x1="139.5" y1="16" x2="139.5" y2="171" stroke="#e5e7eb" stroke-width="0.5"/>
  <line x1="177.9" y1="16" x2="177.9" y2="171" stroke="#e5e7eb" stroke-width="0.5"/>
  <line x1="197.3" y1="16" x2="197.3" y2="171" stroke="#e5e7eb" stroke-width="0.5"/>
  <line x1="211.1" y1="16" x2="211.1" y2="171" stroke="#e5e7eb" stroke-width="0.5"/>
  <line x1="221.9" y1="16" x2="221.9" y2="171" stroke="#e5e7eb" stroke-width="0.5"/>
  <line x1="230.6" y1="16" x2="230.6" y2="171" stroke="#e5e7eb" stroke-width="0.5"/>
  <line x1="238.0" y1="16" x2="238.0" y2="171" stroke="#e5e7eb" stroke-width="0.5"/>
  <line x1="244.4" y1="16" x2="244.4" y2="171" stroke="#e5e7eb" stroke-width="0.5"/>
  <line x1="250.1" y1="16" x2="250.1" y2="171" stroke="#e5e7eb" stroke-width="0.5"/>
  <line x1="288.4" y1="16" x2="288.4" y2="171" stroke="#e5e7eb" stroke-width="0.5"/>
  <line x1="307.9" y1="16" x2="307.9" y2="171" stroke="#e5e7eb" stroke-width="0.5"/>
  <line x1="321.7" y1="16" x2="321.7" y2="171" stroke="#e5e7eb" stroke-width="0.5"/>
  <line x1="332.4" y1="16" x2="332.4" y2="171" stroke="#e5e7eb" stroke-width="0.5"/>
  <line x1="341.2" y1="16" x2="341.2" y2="171" stroke="#e5e7eb" stroke-width="0.5"/>
  <line x1="348.6" y1="16" x2="348.6" y2="171" stroke="#e5e7eb" stroke-width="0.5"/>
  <line x1="355.0" y1="16" x2="355.0" y2="171" stroke="#e5e7eb" stroke-width="0.5"/>
  <line x1="360.7" y1="16" x2="360.7" y2="171" stroke="#e5e7eb" stroke-width="0.5"/>
  <line x1="399.0" y1="16" x2="399.0" y2="171" stroke="#e5e7eb" stroke-width="0.5"/>
  <line x1="144.6" y1="16" x2="144.6" y2="171" stroke="#e5e7eb" stroke-width="0.5"/>
  <text x="144.6" y="183" text-anchor="middle" font-size="8" fill="#6b7280">100</text>
  <line x1="255.1" y1="16" x2="255.1" y2="171" stroke="#e5e7eb" stroke-width="0.5"/>
  <text x="255.1" y="183" text-anchor="middle" font-size="8" fill="#6b7280">1k</text>
  <line x1="365.7" y1="16" x2="365.7" y2="171" stroke="#e5e7eb" stroke-width="0.5"/>
  <text x="365.7" y="183" text-anchor="middle" font-size="8" fill="#6b7280">10k</text>
  <line x1="34" y1="31.5" x2="399" y2="31.5" stroke="#e5e7eb" stroke-width="0.5"/>
  <line x1="34" y1="62.5" x2="399" y2="62.5" stroke="#e5e7eb" stroke-width="0.5"/>
  <line x1="34" y1="16.0" x2="399" y2="16.0" stroke="#e5e7eb" stroke-width="0.5"/>
  <text x="30" y="19.0" text-anchor="end" font-size="8" fill="#6b7280">+20</text>
  <text x="30" y="50.0" text-anchor="end" font-size="8" fill="#6b7280">0</text>
  <line x1="34" y1="78.0" x2="399" y2="78.0" stroke="#e5e7eb" stroke-width="0.5"/>
  <text x="30" y="81.0" text-anchor="end" font-size="8" fill="#6b7280">-20</text>
  <line x1="34" y1="109.0" x2="399" y2="109.0" stroke="#e5e7eb" stroke-width="0.5"/>
  <text x="30" y="112.0" text-anchor="end" font-size="8" fill="#6b7280">-40</text>
  <line x1="34" y1="140.0" x2="399" y2="140.0" stroke="#e5e7eb" stroke-width="0.5"/>
  <text x="30" y="143.0" text-anchor="end" font-size="8" fill="#6b7280">-60</text>
  <line x1="34" y1="171.0" x2="399" y2="171.0" stroke="#e5e7eb" stroke-width="0.5"/>
  <text x="30" y="174.0" text-anchor="end" font-size="8" fill="#6b7280">-80</text>
  <defs><linearGradient id="g206" x1="0" y1="16" x2="0" y2="171" gradientUnits="userSpaceOnUse">
    <stop offset="0%" stop-color="#4a90d9" stop-opacity="0.15"/>
    <stop offset="100%" stop-color="#4a90d9" stop-opacity="0.02"/>
  </linearGradient></defs>
  <path d="M37.5,93.9 37.5,93.9 70.8,94.1 90.3,94.3 104.1,94.4 114.8,94.3 123.6,94.0 131.0,93.8 137.4,93.7 143.1,93.7 148.1,93.9 152.7,94.1 156.9,94.1 160.7,94.0 164.3,93.7 167.6,93.4 170.7,93.3 173.6,93.3 176.3,93.5 178.9,93.6 181.4,93.6 183.7,93.4 186.0,93.1 188.1,92.8 190.2,92.6 192.1,92.6 194.0,92.7 195.8,92.8 197.6,92.8 199.2,92.5 200.9,92.2 202.4,91.8 204.0,91.6 205.5,91.5 206.9,91.5 208.3,91.6 209.6,91.5 210.9,91.2 212.2,90.7 213.5,90.3 214.7,90.0 215.9,89.8 217.0,89.8 218.2,89.8 219.3,89.6 220.3,89.1 221.4,88.6 222.4,88.0 223.4,87.6 224.4,87.3 225.4,87.1 226.4,86.9 227.3,86.5 228.2,85.9 229.1,85.1 230.0,84.3 230.8,83.5 231.7,83.0 232.5,82.5 233.4,81.9 234.2,81.1 235.7,78.7 237.3,76.1 238.7,74.8 240.2,75.2 241.6,77.6 242.9,81.9 244.2,87.7 245.5,92.7 246.8,96.3 248.0,100.4 249.2,102.5 250.3,100.3 251.4,98.0 252.6,95.3 253.6,92.1 254.7,89.2 255.7,86.3 256.7,83.1 257.7,80.1 258.7,78.2 259.6,77.8 260.6,79.0 261.5,81.5 262.4,84.5 263.3,86.9 264.1,88.9 265.0,91.1 265.8,93.4 266.6,95.1 267.4,96.4 268.6,99.2 269.8,101.5 270.9,103.2 272.0,106.1 273.1,107.8 274.2,110.0 275.2,113.0 276.2,114.4 277.2,118.0 278.2,120.7 279.1,123.2 280.0,128.8 281.0,129.0 281.9,132.6 282.7,128.5 283.6,126.2 284.5,123.3 285.3,119.5 286.1,118.0 286.9,115.1 288.0,112.6 289.0,109.8 290.0,107.5 291.0,104.9 292.0,102.5 292.9,99.8 293.9,97.0 294.8,93.9 295.7,90.4 296.6,86.7 297.4,83.5 298.3,82.8 299.1,84.8 299.9,88.0 300.7,90.9 301.7,94.2 302.7,96.8 303.6,99.0 304.6,101.0 305.5,102.6 306.4,104.1 307.3,105.5 308.1,106.6 309.0,107.9 309.8,108.9 310.6,109.8 311.4,110.9 312.4,111.8 313.3,112.7 314.2,113.7 315.1,114.7 316.0,115.3 316.9,116.1 317.7,117.0 318.6,117.7 319.4,118.3 320.2,118.9 321.1,119.7 322.0,120.5 322.9,121.2 323.8,121.9 324.7,122.4 325.5,123.0 326.3,123.5 327.1,124.1 327.9,124.7 328.8,125.3 329.7,125.9 330.6,126.5 331.4,127.1 332.3,127.7 333.1,128.2 333.9,128.7 334.8,129.2 335.7,129.7 336.5,130.4 337.4,131.0 338.2,131.6 339.0,132.2 339.8,132.6 340.7,132.9 341.6,133.4 342.4,134.2 343.3,134.6 344.1,134.8 344.9,135.4 345.8,136.2 346.6,136.3 347.5,137.0 348.3,137.5 349.1,137.7 350.0,138.6 350.8,138.6 351.7,139.5 352.5,139.5 353.3,140.4 354.1,140.5 355.0,141.1 355.8,141.8 356.6,141.8 357.5,142.6 358.3,143.1 359.1,143.2 360.0,143.5 360.8,144.3 361.6,144.8 362.5,145.2 363.3,145.5 364.1,145.7 364.9,146.1 365.8,146.5 366.6,146.9 367.4,147.3 368.2,147.9 369.1,148.5 369.9,148.9 370.7,148.9 371.6,149.1 372.4,149.8 373.2,150.4 374.0,150.2 374.8,150.9 375.6,151.3 376.5,151.4 377.3,152.0 378.1,152.0 378.9,152.4 379.7,153.1 380.5,152.8 381.4,153.3 382.2,154.1 383.0,154.2 383.8,154.2 384.6,154.3 385.5,154.6 386.3,154.8 387.1,155.1 387.9,155.6 388.7,156.1 389.5,156.5 390.3,156.2 391.2,156.5 392.0,157.2 392.8,156.6 393.6,157.6 394.4,157.0 395.2,157.9 396.0,157.6 396.8,157.4 397.6,158.0 398.5,158.4 L398.5,171.0 L37.5,171.0 Z" fill="url(#g206)"/>
  <defs><clipPath id="pc207"><rect x="34" y="16" width="365" height="155"/></clipPath></defs>
  <polyline points="37.5,93.9 70.8,94.1 90.3,94.3 104.1,94.4 114.8,94.3 123.6,94.0 131.0,93.8 137.4,93.7 143.1,93.7 148.1,93.9 152.7,94.1 156.9,94.1 160.7,94.0 164.3,93.7 167.6,93.4 170.7,93.3 173.6,93.3 176.3,93.5 178.9,93.6 181.4,93.6 183.7,93.4 186.0,93.1 188.1,92.8 190.2,92.6 192.1,92.6 194.0,92.7 195.8,92.8 197.6,92.8 199.2,92.5 200.9,92.2 202.4,91.8 204.0,91.6 205.5,91.5 206.9,91.5 208.3,91.6 209.6,91.5 210.9,91.2 212.2,90.7 213.5,90.3 214.7,90.0 215.9,89.8 217.0,89.8 218.2,89.8 219.3,89.6 220.3,89.1 221.4,88.6 222.4,88.0 223.4,87.6 224.4,87.3 225.4,87.1 226.4,86.9 227.3,86.5 228.2,85.9 229.1,85.1 230.0,84.3 230.8,83.5 231.7,83.0 232.5,82.5 233.4,81.9 234.2,81.1 235.7,78.7 237.3,76.1 238.7,74.8 240.2,75.2 241.6,77.6 242.9,81.9 244.2,87.7 245.5,92.7 246.8,96.3 248.0,100.4 249.2,102.5 250.3,100.3 251.4,98.0 252.6,95.3 253.6,92.1 254.7,89.2 255.7,86.3 256.7,83.1 257.7,80.1 258.7,78.2 259.6,77.8 260.6,79.0 261.5,81.5 262.4,84.5 263.3,86.9 264.1,88.9 265.0,91.1 265.8,93.4 266.6,95.1 267.4,96.4 268.6,99.2 269.8,101.5 270.9,103.2 272.0,106.1 273.1,107.8 274.2,110.0 275.2,113.0 276.2,114.4 277.2,118.0 278.2,120.7 279.1,123.2 280.0,128.8 281.0,129.0 281.9,132.6 282.7,128.5 283.6,126.2 284.5,123.3 285.3,119.5 286.1,118.0 286.9,115.1 288.0,112.6 289.0,109.8 290.0,107.5 291.0,104.9 292.0,102.5 292.9,99.8 293.9,97.0 294.8,93.9 295.7,90.4 296.6,86.7 297.4,83.5 298.3,82.8 299.1,84.8 299.9,88.0 300.7,90.9 301.7,94.2 302.7,96.8 303.6,99.0 304.6,101.0 305.5,102.6 306.4,104.1 307.3,105.5 308.1,106.6 309.0,107.9 309.8,108.9 310.6,109.8 311.4,110.9 312.4,111.8 313.3,112.7 314.2,113.7 315.1,114.7 316.0,115.3 316.9,116.1 317.7,117.0 318.6,117.7 319.4,118.3 320.2,118.9 321.1,119.7 322.0,120.5 322.9,121.2 323.8,121.9 324.7,122.4 325.5,123.0 326.3,123.5 327.1,124.1 327.9,124.7 328.8,125.3 329.7,125.9 330.6,126.5 331.4,127.1 332.3,127.7 333.1,128.2 333.9,128.7 334.8,129.2 335.7,129.7 336.5,130.4 337.4,131.0 338.2,131.6 339.0,132.2 339.8,132.6 340.7,132.9 341.6,133.4 342.4,134.2 343.3,134.6 344.1,134.8 344.9,135.4 345.8,136.2 346.6,136.3 347.5,137.0 348.3,137.5 349.1,137.7 350.0,138.6 350.8,138.6 351.7,139.5 352.5,139.5 353.3,140.4 354.1,140.5 355.0,141.1 355.8,141.8 356.6,141.8 357.5,142.6 358.3,143.1 359.1,143.2 360.0,143.5 360.8,144.3 361.6,144.8 362.5,145.2 363.3,145.5 364.1,145.7 364.9,146.1 365.8,146.5 366.6,146.9 367.4,147.3 368.2,147.9 369.1,148.5 369.9,148.9 370.7,148.9 371.6,149.1 372.4,149.8 373.2,150.4 374.0,150.2 374.8,150.9 375.6,151.3 376.5,151.4 377.3,152.0 378.1,152.0 378.9,152.4 379.7,153.1 380.5,152.8 381.4,153.3 382.2,154.1 383.0,154.2 383.8,154.2 384.6,154.3 385.5,154.6 386.3,154.8 387.1,155.1 387.9,155.6 388.7,156.1 389.5,156.5 390.3,156.2 391.2,156.5 392.0,157.2 392.8,156.6 393.6,157.6 394.4,157.0 395.2,157.9 396.0,157.6 396.8,157.4 397.6,158.0 398.5,158.4" fill="none" stroke="#4a90d9" stroke-width="1.5" stroke-linejoin="round" clip-path="url(#pc207)"/>
  <line x1="435" y1="16" x2="435" y2="171" stroke="#d1d5db"/>
  <line x1="435" y1="93.5" x2="800" y2="93.5" stroke="#d1d5db"/>
  <text x="617.5" y="197" text-anchor="middle" font-size="9" fill="#6b7280">Hz</text>
  <text x="413" y="93.5" text-anchor="middle" font-size="9" fill="#6b7280" transform="rotate(-90 413 93.5)">Phase (deg)</text>
  <line x1="468.3" y1="16" x2="468.3" y2="171" stroke="#e5e7eb" stroke-width="0.5"/>
  <line x1="487.8" y1="16" x2="487.8" y2="171" stroke="#e5e7eb" stroke-width="0.5"/>
  <line x1="501.6" y1="16" x2="501.6" y2="171" stroke="#e5e7eb" stroke-width="0.5"/>
  <line x1="512.3" y1="16" x2="512.3" y2="171" stroke="#e5e7eb" stroke-width="0.5"/>
  <line x1="521.0" y1="16" x2="521.0" y2="171" stroke="#e5e7eb" stroke-width="0.5"/>
  <line x1="528.4" y1="16" x2="528.4" y2="171" stroke="#e5e7eb" stroke-width="0.5"/>
  <line x1="534.9" y1="16" x2="534.9" y2="171" stroke="#e5e7eb" stroke-width="0.5"/>
  <line x1="540.5" y1="16" x2="540.5" y2="171" stroke="#e5e7eb" stroke-width="0.5"/>
  <line x1="578.9" y1="16" x2="578.9" y2="171" stroke="#e5e7eb" stroke-width="0.5"/>
  <line x1="598.3" y1="16" x2="598.3" y2="171" stroke="#e5e7eb" stroke-width="0.5"/>
  <line x1="612.1" y1="16" x2="612.1" y2="171" stroke="#e5e7eb" stroke-width="0.5"/>
  <line x1="622.9" y1="16" x2="622.9" y2="171" stroke="#e5e7eb" stroke-width="0.5"/>
  <line x1="631.6" y1="16" x2="631.6" y2="171" stroke="#e5e7eb" stroke-width="0.5"/>
  <line x1="639.0" y1="16" x2="639.0" y2="171" stroke="#e5e7eb" stroke-width="0.5"/>
  <line x1="645.4" y1="16" x2="645.4" y2="171" stroke="#e5e7eb" stroke-width="0.5"/>
  <line x1="651.1" y1="16" x2="651.1" y2="171" stroke="#e5e7eb" stroke-width="0.5"/>
  <line x1="689.4" y1="16" x2="689.4" y2="171" stroke="#e5e7eb" stroke-width="0.5"/>
  <line x1="708.9" y1="16" x2="708.9" y2="171" stroke="#e5e7eb" stroke-width="0.5"/>
  <line x1="722.7" y1="16" x2="722.7" y2="171" stroke="#e5e7eb" stroke-width="0.5"/>
  <line x1="733.4" y1="16" x2="733.4" y2="171" stroke="#e5e7eb" stroke-width="0.5"/>
  <line x1="742.2" y1="16" x2="742.2" y2="171" stroke="#e5e7eb" stroke-width="0.5"/>
  <line x1="749.6" y1="16" x2="749.6" y2="171" stroke="#e5e7eb" stroke-width="0.5"/>
  <line x1="756.0" y1="16" x2="756.0" y2="171" stroke="#e5e7eb" stroke-width="0.5"/>
  <line x1="761.7" y1="16" x2="761.7" y2="171" stroke="#e5e7eb" stroke-width="0.5"/>
  <line x1="800.0" y1="16" x2="800.0" y2="171" stroke="#e5e7eb" stroke-width="0.5"/>
  <line x1="545.6" y1="16" x2="545.6" y2="171" stroke="#e5e7eb" stroke-width="0.5"/>
  <text x="545.6" y="183" text-anchor="middle" font-size="8" fill="#6b7280">100</text>
  <line x1="656.1" y1="16" x2="656.1" y2="171" stroke="#e5e7eb" stroke-width="0.5"/>
  <text x="656.1" y="183" text-anchor="middle" font-size="8" fill="#6b7280">1k</text>
  <line x1="766.7" y1="16" x2="766.7" y2="171" stroke="#e5e7eb" stroke-width="0.5"/>
  <text x="766.7" y="183" text-anchor="middle" font-size="8" fill="#6b7280">10k</text>
  <line x1="435" y1="58.6" x2="800" y2="58.6" stroke="#e5e7eb" stroke-width="0.5"/>
  <line x1="435" y1="128.4" x2="800" y2="128.4" stroke="#e5e7eb" stroke-width="0.5"/>
  <line x1="435" y1="23.8" x2="800" y2="23.8" stroke="#e5e7eb" stroke-width="0.5"/>
  <text x="431" y="26.8" text-anchor="end" font-size="8" fill="#6b7280">180</text>
  <text x="431" y="96.5" text-anchor="end" font-size="8" fill="#6b7280">0</text>
  <line x1="435" y1="163.3" x2="800" y2="163.3" stroke="#e5e7eb" stroke-width="0.5"/>
  <text x="431" y="166.3" text-anchor="end" font-size="8" fill="#6b7280">-180</text>
  <defs><linearGradient id="g208" x1="0" y1="171" x2="0" y2="93.5" gradientUnits="userSpaceOnUse">
    <stop offset="0%" stop-color="#e74c3c" stop-opacity="0.15"/>
    <stop offset="100%" stop-color="#e74c3c" stop-opacity="0.02"/>
  </linearGradient></defs>
  <path d="M438.5,93.8 438.5,93.8 471.8,94.0 491.3,93.8 505.1,93.5 515.8,93.1 524.6,93.0 532.0,93.1 538.4,93.5 544.1,93.8 549.1,93.9 553.7,93.8 557.9,93.4 561.7,93.1 565.3,93.0 568.6,93.1 571.7,93.4 574.6,93.8 577.3,93.9 579.9,93.8 582.4,93.4 584.7,93.1 587.0,93.0 589.1,93.1 591.2,93.5 593.1,93.8 595.0,94.0 596.8,93.9 598.6,93.5 600.2,93.2 601.9,93.0 603.4,93.2 605.0,93.6 606.5,94.0 607.9,94.2 609.3,94.0 610.6,93.7 611.9,93.4 613.2,93.3 614.5,93.5 615.7,93.9 616.9,94.3 618.0,94.6 619.2,94.5 620.3,94.2 621.3,93.9 622.4,93.8 623.4,94.2 624.4,94.7 625.4,95.2 626.4,95.6 627.4,95.6 628.3,95.4 629.2,95.2 630.1,95.4 631.0,96.0 631.8,96.8 632.7,97.8 633.5,98.5 634.4,99.0 635.2,99.4 636.7,101.4 638.3,106.4 639.7,113.7 641.2,122.0 642.6,130.2 643.9,136.6 645.2,139.2 646.5,137.3 647.8,134.5 649.0,130.3 650.2,120.5 651.3,113.1 652.4,109.2 653.6,106.2 654.6,105.1 655.7,105.7 656.7,106.8 657.7,109.3 658.7,114.1 659.7,120.9 660.6,128.6 661.6,135.9 662.5,141.7 663.4,145.2 664.3,147.0 665.1,148.7 666.0,150.5 666.8,151.1 667.6,151.0 668.4,151.6 669.6,152.8 670.8,151.9 671.9,152.7 673.0,152.7 674.1,151.4 675.2,152.4 676.2,150.6 677.2,149.8 678.2,149.9 679.2,145.4 680.1,144.9 681.0,138.4 682.0,130.4 682.9,122.1 683.7,109.6 684.6,106.7 685.5,100.3 686.3,99.3 687.1,97.7 687.9,95.9 689.0,96.0 690.0,94.7 691.0,95.1 692.0,94.6 693.0,95.4 693.9,95.7 694.9,97.1 695.8,98.6 696.7,101.7 697.6,106.4 698.4,114.7 699.3,125.2 700.1,134.5 700.9,140.3 701.7,143.8 702.7,146.3 703.7,148.1 704.6,148.9 705.6,149.6 706.5,150.1 707.4,150.2 708.3,150.7 709.1,150.7 710.0,150.7 710.8,151.0 711.6,150.7 712.4,150.8 713.4,150.9 714.3,150.6 715.2,150.4 716.1,150.6 717.0,150.6 717.9,150.2 718.7,150.0 719.6,150.1 720.4,150.0 721.2,149.6 722.1,149.3 723.0,149.1 723.9,149.1 724.8,149.0 725.7,149.0 726.5,148.7 727.3,148.4 728.1,148.0 728.9,147.7 729.8,147.4 730.7,147.2 731.6,146.9 732.4,146.7 733.3,146.4 734.1,146.2 734.9,145.9 735.8,145.8 736.7,145.7 737.5,145.6 738.4,145.3 739.2,144.9 740.0,144.4 740.8,143.9 741.7,143.7 742.6,143.8 743.4,143.4 744.3,142.6 745.1,142.4 745.9,142.5 746.8,141.8 747.6,141.3 748.5,141.5 749.3,140.5 750.1,140.5 751.0,139.9 751.8,139.7 752.7,139.1 753.5,138.9 754.3,138.3 755.1,138.3 756.0,137.2 756.8,137.3 757.6,136.8 758.5,135.9 759.3,136.0 760.1,135.7 761.0,134.6 761.8,134.0 762.6,133.8 763.5,133.6 764.3,133.3 765.1,132.8 765.9,132.2 766.8,131.7 767.6,131.2 768.4,130.6 769.2,130.1 770.1,129.3 770.9,128.4 771.7,127.4 772.6,127.4 773.4,127.2 774.2,125.9 775.0,125.2 775.8,125.3 776.6,123.7 777.5,124.0 778.3,122.3 779.1,122.6 779.9,120.9 780.7,121.0 781.5,120.2 782.4,118.7 783.2,118.3 784.0,118.3 784.8,117.6 785.6,116.5 786.5,115.7 787.3,114.9 788.1,114.1 788.9,113.5 789.7,112.7 790.5,110.9 791.3,109.8 792.2,110.0 793.0,108.2 793.8,107.4 794.6,106.8 795.4,105.6 796.2,104.3 797.0,104.4 797.8,102.6 798.6,101.0 799.5,100.2 L799.5,93.5 L438.5,93.5 Z" fill="url(#g208)"/>
  <defs><clipPath id="pc209"><rect x="435" y="16" width="365" height="155"/></clipPath></defs>
  <polyline points="438.5,93.8 471.8,94.0 491.3,93.8 505.1,93.5 515.8,93.1 524.6,93.0 532.0,93.1 538.4,93.5 544.1,93.8 549.1,93.9 553.7,93.8 557.9,93.4 561.7,93.1 565.3,93.0 568.6,93.1 571.7,93.4 574.6,93.8 577.3,93.9 579.9,93.8 582.4,93.4 584.7,93.1 587.0,93.0 589.1,93.1 591.2,93.5 593.1,93.8 595.0,94.0 596.8,93.9 598.6,93.5 600.2,93.2 601.9,93.0 603.4,93.2 605.0,93.6 606.5,94.0 607.9,94.2 609.3,94.0 610.6,93.7 611.9,93.4 613.2,93.3 614.5,93.5 615.7,93.9 616.9,94.3 618.0,94.6 619.2,94.5 620.3,94.2 621.3,93.9 622.4,93.8 623.4,94.2 624.4,94.7 625.4,95.2 626.4,95.6 627.4,95.6 628.3,95.4 629.2,95.2 630.1,95.4 631.0,96.0 631.8,96.8 632.7,97.8 633.5,98.5 634.4,99.0 635.2,99.4 636.7,101.4 638.3,106.4 639.7,113.7 641.2,122.0 642.6,130.2 643.9,136.6 645.2,139.2 646.5,137.3 647.8,134.5 649.0,130.3 650.2,120.5 651.3,113.1 652.4,109.2 653.6,106.2 654.6,105.1 655.7,105.7 656.7,106.8 657.7,109.3 658.7,114.1 659.7,120.9 660.6,128.6 661.6,135.9 662.5,141.7 663.4,145.2 664.3,147.0 665.1,148.7 666.0,150.5 666.8,151.1 667.6,151.0 668.4,151.6 669.6,152.8 670.8,151.9 671.9,152.7 673.0,152.7 674.1,151.4 675.2,152.4 676.2,150.6 677.2,149.8 678.2,149.9 679.2,145.4 680.1,144.9 681.0,138.4 682.0,130.4 682.9,122.1 683.7,109.6 684.6,106.7 685.5,100.3 686.3,99.3 687.1,97.7 687.9,95.9 689.0,96.0 690.0,94.7 691.0,95.1 692.0,94.6 693.0,95.4 693.9,95.7 694.9,97.1 695.8,98.6 696.7,101.7 697.6,106.4 698.4,114.7 699.3,125.2 700.1,134.5 700.9,140.3 701.7,143.8 702.7,146.3 703.7,148.1 704.6,148.9 705.6,149.6 706.5,150.1 707.4,150.2 708.3,150.7 709.1,150.7 710.0,150.7 710.8,151.0 711.6,150.7 712.4,150.8 713.4,150.9 714.3,150.6 715.2,150.4 716.1,150.6 717.0,150.6 717.9,150.2 718.7,150.0 719.6,150.1 720.4,150.0 721.2,149.6 722.1,149.3 723.0,149.1 723.9,149.1 724.8,149.0 725.7,149.0 726.5,148.7 727.3,148.4 728.1,148.0 728.9,147.7 729.8,147.4 730.7,147.2 731.6,146.9 732.4,146.7 733.3,146.4 734.1,146.2 734.9,145.9 735.8,145.8 736.7,145.7 737.5,145.6 738.4,145.3 739.2,144.9 740.0,144.4 740.8,143.9 741.7,143.7 742.6,143.8 743.4,143.4 744.3,142.6 745.1,142.4 745.9,142.5 746.8,141.8 747.6,141.3 748.5,141.5 749.3,140.5 750.1,140.5 751.0,139.9 751.8,139.7 752.7,139.1 753.5,138.9 754.3,138.3 755.1,138.3 756.0,137.2 756.8,137.3 757.6,136.8 758.5,135.9 759.3,136.0 760.1,135.7 761.0,134.6 761.8,134.0 762.6,133.8 763.5,133.6 764.3,133.3 765.1,132.8 765.9,132.2 766.8,131.7 767.6,131.2 768.4,130.6 769.2,130.1 770.1,129.3 770.9,128.4 771.7,127.4 772.6,127.4 773.4,127.2 774.2,125.9 775.0,125.2 775.8,125.3 776.6,123.7 777.5,124.0 778.3,122.3 779.1,122.6 779.9,120.9 780.7,121.0 781.5,120.2 782.4,118.7 783.2,118.3 784.0,118.3 784.8,117.6 785.6,116.5 786.5,115.7 787.3,114.9 788.1,114.1 788.9,113.5 789.7,112.7 790.5,110.9 791.3,109.8 792.2,110.0 793.0,108.2 793.8,107.4 794.6,106.8 795.4,105.6 796.2,104.3 797.0,104.4 797.8,102.6 798.6,101.0 799.5,100.2" fill="none" stroke="#e74c3c" stroke-width="1.5" stroke-linejoin="round" clip-path="url(#pc209)"/>
  <line x1="34" y1="207" x2="34" y2="362" stroke="#d1d5db"/>
  <line x1="34" y1="284.5" x2="399" y2="284.5" stroke="#d1d5db"/>
  <text x="216.5" y="388" text-anchor="middle" font-size="9" fill="#6b7280">Hz</text>
  <text x="12" y="284.5" text-anchor="middle" font-size="9" fill="#6b7280" transform="rotate(-90 12 284.5)">Group delay</text>
  <line x1="67.3" y1="207" x2="67.3" y2="362" stroke="#e5e7eb" stroke-width="0.5"/>
  <line x1="86.8" y1="207" x2="86.8" y2="362" stroke="#e5e7eb" stroke-width="0.5"/>
  <line x1="100.6" y1="207" x2="100.6" y2="362" stroke="#e5e7eb" stroke-width="0.5"/>
  <line x1="111.3" y1="207" x2="111.3" y2="362" stroke="#e5e7eb" stroke-width="0.5"/>
  <line x1="120.0" y1="207" x2="120.0" y2="362" stroke="#e5e7eb" stroke-width="0.5"/>
  <line x1="127.4" y1="207" x2="127.4" y2="362" stroke="#e5e7eb" stroke-width="0.5"/>
  <line x1="133.9" y1="207" x2="133.9" y2="362" stroke="#e5e7eb" stroke-width="0.5"/>
  <line x1="139.5" y1="207" x2="139.5" y2="362" stroke="#e5e7eb" stroke-width="0.5"/>
  <line x1="177.9" y1="207" x2="177.9" y2="362" stroke="#e5e7eb" stroke-width="0.5"/>
  <line x1="197.3" y1="207" x2="197.3" y2="362" stroke="#e5e7eb" stroke-width="0.5"/>
  <line x1="211.1" y1="207" x2="211.1" y2="362" stroke="#e5e7eb" stroke-width="0.5"/>
  <line x1="221.9" y1="207" x2="221.9" y2="362" stroke="#e5e7eb" stroke-width="0.5"/>
  <line x1="230.6" y1="207" x2="230.6" y2="362" stroke="#e5e7eb" stroke-width="0.5"/>
  <line x1="238.0" y1="207" x2="238.0" y2="362" stroke="#e5e7eb" stroke-width="0.5"/>
  <line x1="244.4" y1="207" x2="244.4" y2="362" stroke="#e5e7eb" stroke-width="0.5"/>
  <line x1="250.1" y1="207" x2="250.1" y2="362" stroke="#e5e7eb" stroke-width="0.5"/>
  <line x1="288.4" y1="207" x2="288.4" y2="362" stroke="#e5e7eb" stroke-width="0.5"/>
  <line x1="307.9" y1="207" x2="307.9" y2="362" stroke="#e5e7eb" stroke-width="0.5"/>
  <line x1="321.7" y1="207" x2="321.7" y2="362" stroke="#e5e7eb" stroke-width="0.5"/>
  <line x1="332.4" y1="207" x2="332.4" y2="362" stroke="#e5e7eb" stroke-width="0.5"/>
  <line x1="341.2" y1="207" x2="341.2" y2="362" stroke="#e5e7eb" stroke-width="0.5"/>
  <line x1="348.6" y1="207" x2="348.6" y2="362" stroke="#e5e7eb" stroke-width="0.5"/>
  <line x1="355.0" y1="207" x2="355.0" y2="362" stroke="#e5e7eb" stroke-width="0.5"/>
  <line x1="360.7" y1="207" x2="360.7" y2="362" stroke="#e5e7eb" stroke-width="0.5"/>
  <line x1="399.0" y1="207" x2="399.0" y2="362" stroke="#e5e7eb" stroke-width="0.5"/>
  <line x1="144.6" y1="207" x2="144.6" y2="362" stroke="#e5e7eb" stroke-width="0.5"/>
  <text x="144.6" y="374" text-anchor="middle" font-size="8" fill="#6b7280">100</text>
  <line x1="255.1" y1="207" x2="255.1" y2="362" stroke="#e5e7eb" stroke-width="0.5"/>
  <text x="255.1" y="374" text-anchor="middle" font-size="8" fill="#6b7280">1k</text>
  <line x1="365.7" y1="207" x2="365.7" y2="362" stroke="#e5e7eb" stroke-width="0.5"/>
  <text x="365.7" y="374" text-anchor="middle" font-size="8" fill="#6b7280">10k</text>
  <line x1="34" y1="361.1" x2="399" y2="361.1" stroke="#e5e7eb" stroke-width="0.5"/>
  <text x="30" y="364.1" text-anchor="end" font-size="8" fill="#6b7280">-200</text>
  <text x="30" y="287.5" text-anchor="end" font-size="8" fill="#6b7280">0</text>
  <line x1="34" y1="207.9" x2="399" y2="207.9" stroke="#e5e7eb" stroke-width="0.5"/>
  <text x="30" y="210.9" text-anchor="end" font-size="8" fill="#6b7280">200</text>
  <defs><linearGradient id="g210" x1="0" y1="207" x2="0" y2="284.5" gradientUnits="userSpaceOnUse">
    <stop offset="0%" stop-color="#2ecc71" stop-opacity="0.15"/>
    <stop offset="100%" stop-color="#2ecc71" stop-opacity="0.02"/>
  </linearGradient></defs>
  <defs><linearGradient id="g211" x1="0" y1="362" x2="0" y2="284.5" gradientUnits="userSpaceOnUse">
    <stop offset="0%" stop-color="#2ecc71" stop-opacity="0.15"/>
    <stop offset="100%" stop-color="#2ecc71" stop-opacity="0.02"/>
  </linearGradient></defs>
  <defs><clipPath id="c212"><rect x="34" y="207" width="365" height="77.5"/></clipPath></defs>
  <defs><clipPath id="c213"><rect x="34" y="284.5" width="365" height="77.5"/></clipPath></defs>
  <path d="M37.5,281.8 37.5,281.8 70.8,284.5 90.3,287.3 104.1,288.5 114.8,287.3 123.6,284.5 131.0,281.8 137.4,280.7 143.1,281.8 148.1,284.5 152.7,287.3 156.9,288.5 160.7,287.3 164.3,284.4 167.6,281.8 170.7,280.7 173.6,281.7 176.3,284.4 178.9,287.3 181.4,288.5 183.7,287.2 186.0,284.4 188.1,281.6 190.2,280.5 192.1,281.6 194.0,284.3 195.8,287.2 197.6,288.4 199.2,287.1 200.9,284.2 202.4,281.4 204.0,280.2 205.5,281.3 206.9,284.2 208.3,287.1 209.6,288.3 210.9,286.9 212.2,283.8 213.5,280.9 214.7,279.7 215.9,280.8 217.0,283.8 218.2,286.8 219.3,287.9 220.3,286.3 221.4,282.9 222.4,279.8 223.4,278.5 224.4,279.6 225.4,282.6 226.4,285.6 227.3,286.4 228.2,284.3 229.1,280.2 230.0,276.4 230.8,274.5 231.7,275.1 232.5,277.4 233.4,279.3 234.2,278.3 235.7,265.3 237.3,249.2 238.7,239.6 240.2,237.2 241.6,242.3 242.9,257.4 244.2,283.6 245.5,300.4 246.8,300.9 248.0,324.3 249.2,339.8 250.3,312.9 251.4,303.7 252.6,296.9 253.6,285.0 254.7,279.7 255.7,275.5 256.7,264.0 257.7,251.0 258.7,243.1 259.6,241.7 260.6,246.8 261.5,258.0 262.4,270.8 263.3,275.6 264.1,274.0 265.0,277.0 265.8,283.9 266.6,283.8 267.4,278.9 268.6,284.6 269.8,286.4 270.9,279.8 272.0,290.4 273.1,283.6 274.2,283.7 275.2,294.4 276.2,280.8 277.2,295.0 278.2,295.5 279.1,287.9 280.0,327.2 281.0,299.8 281.9,344.1 282.7,301.2 283.6,304.3 284.5,299.6 285.3,284.7 286.1,295.2 286.9,285.2 288.0,288.3 289.0,283.9 290.0,285.9 291.0,283.1 292.0,283.8 292.9,281.7 293.9,280.9 294.8,278.1 295.7,274.0 296.6,266.8 297.4,256.7 298.3,255.1 299.1,263.1 299.9,272.4 300.7,276.3 301.7,280.4 302.7,281.8 303.6,282.1 304.6,284.1 305.5,283.0 306.4,284.1 307.3,284.7 308.1,283.2 309.0,285.3 309.8,284.2 310.6,283.9 311.4,285.7 312.4,284.2 313.3,283.4 314.2,285.1 315.1,286.0 316.0,284.2 316.9,283.4 317.7,285.3 318.6,286.2 319.4,284.1 320.2,283.3 321.1,284.2 322.0,285.5 322.9,286.5 323.8,286.4 324.7,285.4 325.5,284.0 326.3,283.1 327.1,283.2 327.9,284.3 328.8,284.3 329.7,284.3 330.6,284.3 331.4,284.3 332.3,284.3 333.1,284.3 333.9,284.3 334.8,283.0 335.7,282.7 336.5,283.7 337.4,285.4 338.2,286.9 339.0,287.2 339.8,286.1 340.7,282.8 341.6,283.5 342.4,287.0 343.3,286.2 344.1,282.7 344.9,283.4 345.8,287.5 346.6,282.6 347.5,285.4 348.3,286.4 349.1,282.1 350.0,287.7 350.8,282.1 351.7,287.8 352.5,282.0 353.3,287.9 354.1,283.2 355.0,284.2 355.8,287.5 356.6,281.8 357.5,286.6 358.3,287.7 359.1,283.1 360.0,282.0 360.8,286.7 361.6,288.3 362.5,287.9 363.3,285.7 364.1,283.0 364.9,283.0 365.8,283.0 366.6,283.0 367.4,283.0 368.2,285.8 369.1,288.3 369.9,288.7 370.7,283.7 371.6,281.1 372.4,286.0 373.2,288.9 374.0,281.2 374.8,286.2 375.6,286.7 376.5,283.0 377.3,286.7 378.1,283.0 378.9,283.2 379.7,289.1 380.5,280.7 381.4,283.1 382.2,289.2 383.0,286.7 383.8,283.1 384.6,280.6 385.5,280.5 386.3,280.5 387.1,280.5 387.9,283.3 388.7,287.2 389.5,289.4 390.3,282.3 391.2,283.5 392.0,289.4 392.8,279.9 393.6,290.1 394.4,279.8 395.2,289.3 396.0,283.9 396.8,279.7 397.6,285.5 398.5,289.2 L398.5,284.5 L37.5,284.5 Z" fill="url(#g210)" clip-path="url(#c212)"/>
  <path d="M37.5,281.8 37.5,281.8 70.8,284.5 90.3,287.3 104.1,288.5 114.8,287.3 123.6,284.5 131.0,281.8 137.4,280.7 143.1,281.8 148.1,284.5 152.7,287.3 156.9,288.5 160.7,287.3 164.3,284.4 167.6,281.8 170.7,280.7 173.6,281.7 176.3,284.4 178.9,287.3 181.4,288.5 183.7,287.2 186.0,284.4 188.1,281.6 190.2,280.5 192.1,281.6 194.0,284.3 195.8,287.2 197.6,288.4 199.2,287.1 200.9,284.2 202.4,281.4 204.0,280.2 205.5,281.3 206.9,284.2 208.3,287.1 209.6,288.3 210.9,286.9 212.2,283.8 213.5,280.9 214.7,279.7 215.9,280.8 217.0,283.8 218.2,286.8 219.3,287.9 220.3,286.3 221.4,282.9 222.4,279.8 223.4,278.5 224.4,279.6 225.4,282.6 226.4,285.6 227.3,286.4 228.2,284.3 229.1,280.2 230.0,276.4 230.8,274.5 231.7,275.1 232.5,277.4 233.4,279.3 234.2,278.3 235.7,265.3 237.3,249.2 238.7,239.6 240.2,237.2 241.6,242.3 242.9,257.4 244.2,283.6 245.5,300.4 246.8,300.9 248.0,324.3 249.2,339.8 250.3,312.9 251.4,303.7 252.6,296.9 253.6,285.0 254.7,279.7 255.7,275.5 256.7,264.0 257.7,251.0 258.7,243.1 259.6,241.7 260.6,246.8 261.5,258.0 262.4,270.8 263.3,275.6 264.1,274.0 265.0,277.0 265.8,283.9 266.6,283.8 267.4,278.9 268.6,284.6 269.8,286.4 270.9,279.8 272.0,290.4 273.1,283.6 274.2,283.7 275.2,294.4 276.2,280.8 277.2,295.0 278.2,295.5 279.1,287.9 280.0,327.2 281.0,299.8 281.9,344.1 282.7,301.2 283.6,304.3 284.5,299.6 285.3,284.7 286.1,295.2 286.9,285.2 288.0,288.3 289.0,283.9 290.0,285.9 291.0,283.1 292.0,283.8 292.9,281.7 293.9,280.9 294.8,278.1 295.7,274.0 296.6,266.8 297.4,256.7 298.3,255.1 299.1,263.1 299.9,272.4 300.7,276.3 301.7,280.4 302.7,281.8 303.6,282.1 304.6,284.1 305.5,283.0 306.4,284.1 307.3,284.7 308.1,283.2 309.0,285.3 309.8,284.2 310.6,283.9 311.4,285.7 312.4,284.2 313.3,283.4 314.2,285.1 315.1,286.0 316.0,284.2 316.9,283.4 317.7,285.3 318.6,286.2 319.4,284.1 320.2,283.3 321.1,284.2 322.0,285.5 322.9,286.5 323.8,286.4 324.7,285.4 325.5,284.0 326.3,283.1 327.1,283.2 327.9,284.3 328.8,284.3 329.7,284.3 330.6,284.3 331.4,284.3 332.3,284.3 333.1,284.3 333.9,284.3 334.8,283.0 335.7,282.7 336.5,283.7 337.4,285.4 338.2,286.9 339.0,287.2 339.8,286.1 340.7,282.8 341.6,283.5 342.4,287.0 343.3,286.2 344.1,282.7 344.9,283.4 345.8,287.5 346.6,282.6 347.5,285.4 348.3,286.4 349.1,282.1 350.0,287.7 350.8,282.1 351.7,287.8 352.5,282.0 353.3,287.9 354.1,283.2 355.0,284.2 355.8,287.5 356.6,281.8 357.5,286.6 358.3,287.7 359.1,283.1 360.0,282.0 360.8,286.7 361.6,288.3 362.5,287.9 363.3,285.7 364.1,283.0 364.9,283.0 365.8,283.0 366.6,283.0 367.4,283.0 368.2,285.8 369.1,288.3 369.9,288.7 370.7,283.7 371.6,281.1 372.4,286.0 373.2,288.9 374.0,281.2 374.8,286.2 375.6,286.7 376.5,283.0 377.3,286.7 378.1,283.0 378.9,283.2 379.7,289.1 380.5,280.7 381.4,283.1 382.2,289.2 383.0,286.7 383.8,283.1 384.6,280.6 385.5,280.5 386.3,280.5 387.1,280.5 387.9,283.3 388.7,287.2 389.5,289.4 390.3,282.3 391.2,283.5 392.0,289.4 392.8,279.9 393.6,290.1 394.4,279.8 395.2,289.3 396.0,283.9 396.8,279.7 397.6,285.5 398.5,289.2 L398.5,284.5 L37.5,284.5 Z" fill="url(#g211)" clip-path="url(#c213)"/>
  <defs><clipPath id="pc214"><rect x="34" y="207" width="365" height="155"/></clipPath></defs>
  <polyline points="37.5,281.8 70.8,284.5 90.3,287.3 104.1,288.5 114.8,287.3 123.6,284.5 131.0,281.8 137.4,280.7 143.1,281.8 148.1,284.5 152.7,287.3 156.9,288.5 160.7,287.3 164.3,284.4 167.6,281.8 170.7,280.7 173.6,281.7 176.3,284.4 178.9,287.3 181.4,288.5 183.7,287.2 186.0,284.4 188.1,281.6 190.2,280.5 192.1,281.6 194.0,284.3 195.8,287.2 197.6,288.4 199.2,287.1 200.9,284.2 202.4,281.4 204.0,280.2 205.5,281.3 206.9,284.2 208.3,287.1 209.6,288.3 210.9,286.9 212.2,283.8 213.5,280.9 214.7,279.7 215.9,280.8 217.0,283.8 218.2,286.8 219.3,287.9 220.3,286.3 221.4,282.9 222.4,279.8 223.4,278.5 224.4,279.6 225.4,282.6 226.4,285.6 227.3,286.4 228.2,284.3 229.1,280.2 230.0,276.4 230.8,274.5 231.7,275.1 232.5,277.4 233.4,279.3 234.2,278.3 235.7,265.3 237.3,249.2 238.7,239.6 240.2,237.2 241.6,242.3 242.9,257.4 244.2,283.6 245.5,300.4 246.8,300.9 248.0,324.3 249.2,339.8 250.3,312.9 251.4,303.7 252.6,296.9 253.6,285.0 254.7,279.7 255.7,275.5 256.7,264.0 257.7,251.0 258.7,243.1 259.6,241.7 260.6,246.8 261.5,258.0 262.4,270.8 263.3,275.6 264.1,274.0 265.0,277.0 265.8,283.9 266.6,283.8 267.4,278.9 268.6,284.6 269.8,286.4 270.9,279.8 272.0,290.4 273.1,283.6 274.2,283.7 275.2,294.4 276.2,280.8 277.2,295.0 278.2,295.5 279.1,287.9 280.0,327.2 281.0,299.8 281.9,344.1 282.7,301.2 283.6,304.3 284.5,299.6 285.3,284.7 286.1,295.2 286.9,285.2 288.0,288.3 289.0,283.9 290.0,285.9 291.0,283.1 292.0,283.8 292.9,281.7 293.9,280.9 294.8,278.1 295.7,274.0 296.6,266.8 297.4,256.7 298.3,255.1 299.1,263.1 299.9,272.4 300.7,276.3 301.7,280.4 302.7,281.8 303.6,282.1 304.6,284.1 305.5,283.0 306.4,284.1 307.3,284.7 308.1,283.2 309.0,285.3 309.8,284.2 310.6,283.9 311.4,285.7 312.4,284.2 313.3,283.4 314.2,285.1 315.1,286.0 316.0,284.2 316.9,283.4 317.7,285.3 318.6,286.2 319.4,284.1 320.2,283.3 321.1,284.2 322.0,285.5 322.9,286.5 323.8,286.4 324.7,285.4 325.5,284.0 326.3,283.1 327.1,283.2 327.9,284.3 328.8,284.3 329.7,284.3 330.6,284.3 331.4,284.3 332.3,284.3 333.1,284.3 333.9,284.3 334.8,283.0 335.7,282.7 336.5,283.7 337.4,285.4 338.2,286.9 339.0,287.2 339.8,286.1 340.7,282.8 341.6,283.5 342.4,287.0 343.3,286.2 344.1,282.7 344.9,283.4 345.8,287.5 346.6,282.6 347.5,285.4 348.3,286.4 349.1,282.1 350.0,287.7 350.8,282.1 351.7,287.8 352.5,282.0 353.3,287.9 354.1,283.2 355.0,284.2 355.8,287.5 356.6,281.8 357.5,286.6 358.3,287.7 359.1,283.1 360.0,282.0 360.8,286.7 361.6,288.3 362.5,287.9 363.3,285.7 364.1,283.0 364.9,283.0 365.8,283.0 366.6,283.0 367.4,283.0 368.2,285.8 369.1,288.3 369.9,288.7 370.7,283.7 371.6,281.1 372.4,286.0 373.2,288.9 374.0,281.2 374.8,286.2 375.6,286.7 376.5,283.0 377.3,286.7 378.1,283.0 378.9,283.2 379.7,289.1 380.5,280.7 381.4,283.1 382.2,289.2 383.0,286.7 383.8,283.1 384.6,280.6 385.5,280.5 386.3,280.5 387.1,280.5 387.9,283.3 388.7,287.2 389.5,289.4 390.3,282.3 391.2,283.5 392.0,289.4 392.8,279.9 393.6,290.1 394.4,279.8 395.2,289.3 396.0,283.9 396.8,279.7 397.6,285.5 398.5,289.2" fill="none" stroke="#2ecc71" stroke-width="1.5" stroke-linejoin="round" clip-path="url(#pc214)"/>
  <line x1="435" y1="207" x2="435" y2="362" stroke="#d1d5db"/>
  <line x1="435" y1="284.5" x2="800" y2="284.5" stroke="#d1d5db"/>
  <text x="617.5" y="388" text-anchor="middle" font-size="9" fill="#6b7280">Samples</text>
  <text x="413" y="284.5" text-anchor="middle" font-size="9" fill="#6b7280" transform="rotate(-90 413 284.5)">Impulse response</text>
  <line x1="435.0" y1="207" x2="435.0" y2="362" stroke="#e5e7eb" stroke-width="0.5"/>
  <text x="435.0" y="374" text-anchor="middle" font-size="8" fill="#6b7280">0</text>
  <line x1="577.6" y1="207" x2="577.6" y2="362" stroke="#e5e7eb" stroke-width="0.5"/>
  <text x="577.6" y="374" text-anchor="middle" font-size="8" fill="#6b7280">200</text>
  <line x1="720.2" y1="207" x2="720.2" y2="362" stroke="#e5e7eb" stroke-width="0.5"/>
  <text x="720.2" y="374" text-anchor="middle" font-size="8" fill="#6b7280">400</text>
  <line x1="435" y1="350.9" x2="800" y2="350.9" stroke="#e5e7eb" stroke-width="0.5"/>
  <text x="431" y="353.9" text-anchor="end" font-size="8" fill="#6b7280">-0.003</text>
  <text x="431" y="287.5" text-anchor="end" font-size="8" fill="#6b7280">0</text>
  <line x1="435" y1="218.1" x2="800" y2="218.1" stroke="#e5e7eb" stroke-width="0.5"/>
  <text x="431" y="221.1" text-anchor="end" font-size="8" fill="#6b7280">0.003</text>
  <defs><linearGradient id="g215" x1="0" y1="207" x2="0" y2="284.5" gradientUnits="userSpaceOnUse">
    <stop offset="0%" stop-color="#f39c12" stop-opacity="0.15"/>
    <stop offset="100%" stop-color="#f39c12" stop-opacity="0.02"/>
  </linearGradient></defs>
  <defs><linearGradient id="g216" x1="0" y1="362" x2="0" y2="284.5" gradientUnits="userSpaceOnUse">
    <stop offset="0%" stop-color="#f39c12" stop-opacity="0.15"/>
    <stop offset="100%" stop-color="#f39c12" stop-opacity="0.02"/>
  </linearGradient></defs>
  <defs><clipPath id="c217"><rect x="435" y="207" width="365" height="77.5"/></clipPath></defs>
  <defs><clipPath id="c218"><rect x="435" y="284.5" width="365" height="77.5"/></clipPath></defs>
  <path d="M435.0,262.6 435.0,262.6 436.4,226.7 437.9,208.5 439.3,209.9 440.7,225.1 442.1,243.8 443.6,256.3 445.0,257.8 446.4,250.2 447.8,240.7 449.3,237.9 450.7,247.6 452.1,269.8 453.5,298.5 455.0,324.6 456.4,339.8 457.8,340.2 459.2,327.6 460.7,308.8 462.1,292.1 463.5,283.7 464.9,285.1 466.4,293.3 467.8,302.1 469.2,305.4 470.6,300.4 472.1,288.6 473.5,274.8 474.9,265.1 476.3,263.8 477.8,271.3 479.2,284.2 480.6,296.8 482.1,303.6 483.5,301.6 484.9,291.8 486.3,278.2 487.8,266.0 489.2,259.5 490.6,259.8 492.0,265.1 493.5,271.6 494.9,275.6 496.3,274.9 497.7,270.5 499.2,265.4 500.6,263.4 502.0,267.3 503.4,277.6 504.9,291.8 506.3,306.2 507.7,316.6 509.1,320.9 510.6,318.9 512.0,313.0 513.4,306.2 514.8,301.1 516.3,298.8 517.7,298.2 519.1,297.1 520.5,293.2 522.0,285.6 523.4,275.1 524.8,263.9 526.3,255.2 527.7,251.1 529.1,252.4 530.5,258.0 532.0,265.7 533.4,272.8 534.8,277.7 536.2,280.1 537.7,281.1 539.1,282.5 540.5,285.4 541.9,290.3 543.4,296.2 544.8,301.4 546.2,304.1 547.6,303.3 549.1,299.4 550.5,293.8 551.9,288.3 553.3,284.7 554.8,283.5 556.2,284.5 557.6,286.3 559.0,287.6 560.5,287.4 561.9,285.6 563.3,283.0 564.7,280.8 566.2,280.1 567.6,280.9 569.0,283.0 570.4,285.0 571.9,285.9 573.3,284.9 574.7,282.2 576.2,278.5 577.6,275.2 579.0,273.2 580.4,273.2 581.9,274.9 583.3,277.5 584.7,280.2 586.1,282.2 587.6,283.4 589.0,284.3 590.4,285.5 591.8,287.6 593.3,290.6 594.7,294.1 596.1,297.3 597.5,299.2 599.0,299.4 600.4,297.7 601.8,294.6 603.2,290.9 604.7,287.5 606.1,284.7 607.5,282.6 608.9,280.9 610.4,279.3 611.8,277.3 613.2,275.2 614.6,273.3 616.1,272.3 617.5,272.4 618.9,274.0 620.4,276.6 621.8,279.9 623.2,283.0 624.6,285.4 626.1,287.1 627.5,288.0 628.9,288.5 630.3,289.0 631.8,289.6 633.2,290.3 634.6,290.8 636.0,290.8 637.5,290.1 638.9,288.8 640.3,287.1 641.7,285.4 643.2,284.3 644.6,283.7 646.0,283.8 647.4,284.2 648.9,284.6 650.3,284.7 651.7,284.4 653.1,283.8 654.6,283.2 656.0,282.7 657.4,282.5 658.8,282.5 660.3,282.6 661.7,282.6 663.1,282.3 664.6,281.7 666.0,281.1 667.4,280.6 668.8,280.5 670.3,281.0 671.7,282.0 673.1,283.3 674.5,284.7 676.0,286.0 677.4,287.0 678.8,287.7 680.2,288.3 681.7,288.8 683.1,289.3 684.5,289.6 685.9,289.8 687.4,289.5 688.8,288.8 690.2,287.6 691.6,286.1 693.1,284.4 694.5,282.9 695.9,281.7 697.3,280.9 698.8,280.4 700.2,280.1 701.6,280.0 703.0,280.1 704.5,280.2 705.9,280.6 707.3,281.3 708.8,282.2 710.2,283.4 711.6,284.6 713.0,285.6 714.5,286.5 715.9,287.0 717.3,287.2 718.7,287.2 720.2,287.1 721.6,286.9 723.0,286.7 724.4,286.6 725.9,286.3 727.3,285.9 728.7,285.5 730.1,285.0 731.6,284.5 733.0,284.2 734.4,284.0 735.8,284.0 737.3,284.1 738.7,284.1 740.1,284.1 741.5,284.0 743.0,283.8 744.4,283.5 745.8,283.3 747.2,283.2 748.7,283.1 750.1,283.1 751.5,283.1 752.9,283.2 754.4,283.2 755.8,283.3 757.2,283.5 758.7,283.8 760.1,284.2 761.5,284.7 762.9,285.3 764.4,285.8 765.8,286.3 767.2,286.6 768.6,286.7 770.1,286.7 771.5,286.7 772.9,286.5 774.3,286.2 775.8,285.9 777.2,285.5 778.6,285.0 780.0,284.4 781.5,283.8 782.9,283.2 784.3,282.8 785.7,282.5 787.2,282.4 788.6,282.4 790.0,282.5 791.4,282.8 792.9,283.1 794.3,283.4 795.7,283.8 797.1,284.1 798.6,284.5 799.3,284.8 L799.3,284.5 L435.0,284.5 Z" fill="url(#g215)" clip-path="url(#c217)"/>
  <path d="M435.0,262.6 435.0,262.6 436.4,226.7 437.9,208.5 439.3,209.9 440.7,225.1 442.1,243.8 443.6,256.3 445.0,257.8 446.4,250.2 447.8,240.7 449.3,237.9 450.7,247.6 452.1,269.8 453.5,298.5 455.0,324.6 456.4,339.8 457.8,340.2 459.2,327.6 460.7,308.8 462.1,292.1 463.5,283.7 464.9,285.1 466.4,293.3 467.8,302.1 469.2,305.4 470.6,300.4 472.1,288.6 473.5,274.8 474.9,265.1 476.3,263.8 477.8,271.3 479.2,284.2 480.6,296.8 482.1,303.6 483.5,301.6 484.9,291.8 486.3,278.2 487.8,266.0 489.2,259.5 490.6,259.8 492.0,265.1 493.5,271.6 494.9,275.6 496.3,274.9 497.7,270.5 499.2,265.4 500.6,263.4 502.0,267.3 503.4,277.6 504.9,291.8 506.3,306.2 507.7,316.6 509.1,320.9 510.6,318.9 512.0,313.0 513.4,306.2 514.8,301.1 516.3,298.8 517.7,298.2 519.1,297.1 520.5,293.2 522.0,285.6 523.4,275.1 524.8,263.9 526.3,255.2 527.7,251.1 529.1,252.4 530.5,258.0 532.0,265.7 533.4,272.8 534.8,277.7 536.2,280.1 537.7,281.1 539.1,282.5 540.5,285.4 541.9,290.3 543.4,296.2 544.8,301.4 546.2,304.1 547.6,303.3 549.1,299.4 550.5,293.8 551.9,288.3 553.3,284.7 554.8,283.5 556.2,284.5 557.6,286.3 559.0,287.6 560.5,287.4 561.9,285.6 563.3,283.0 564.7,280.8 566.2,280.1 567.6,280.9 569.0,283.0 570.4,285.0 571.9,285.9 573.3,284.9 574.7,282.2 576.2,278.5 577.6,275.2 579.0,273.2 580.4,273.2 581.9,274.9 583.3,277.5 584.7,280.2 586.1,282.2 587.6,283.4 589.0,284.3 590.4,285.5 591.8,287.6 593.3,290.6 594.7,294.1 596.1,297.3 597.5,299.2 599.0,299.4 600.4,297.7 601.8,294.6 603.2,290.9 604.7,287.5 606.1,284.7 607.5,282.6 608.9,280.9 610.4,279.3 611.8,277.3 613.2,275.2 614.6,273.3 616.1,272.3 617.5,272.4 618.9,274.0 620.4,276.6 621.8,279.9 623.2,283.0 624.6,285.4 626.1,287.1 627.5,288.0 628.9,288.5 630.3,289.0 631.8,289.6 633.2,290.3 634.6,290.8 636.0,290.8 637.5,290.1 638.9,288.8 640.3,287.1 641.7,285.4 643.2,284.3 644.6,283.7 646.0,283.8 647.4,284.2 648.9,284.6 650.3,284.7 651.7,284.4 653.1,283.8 654.6,283.2 656.0,282.7 657.4,282.5 658.8,282.5 660.3,282.6 661.7,282.6 663.1,282.3 664.6,281.7 666.0,281.1 667.4,280.6 668.8,280.5 670.3,281.0 671.7,282.0 673.1,283.3 674.5,284.7 676.0,286.0 677.4,287.0 678.8,287.7 680.2,288.3 681.7,288.8 683.1,289.3 684.5,289.6 685.9,289.8 687.4,289.5 688.8,288.8 690.2,287.6 691.6,286.1 693.1,284.4 694.5,282.9 695.9,281.7 697.3,280.9 698.8,280.4 700.2,280.1 701.6,280.0 703.0,280.1 704.5,280.2 705.9,280.6 707.3,281.3 708.8,282.2 710.2,283.4 711.6,284.6 713.0,285.6 714.5,286.5 715.9,287.0 717.3,287.2 718.7,287.2 720.2,287.1 721.6,286.9 723.0,286.7 724.4,286.6 725.9,286.3 727.3,285.9 728.7,285.5 730.1,285.0 731.6,284.5 733.0,284.2 734.4,284.0 735.8,284.0 737.3,284.1 738.7,284.1 740.1,284.1 741.5,284.0 743.0,283.8 744.4,283.5 745.8,283.3 747.2,283.2 748.7,283.1 750.1,283.1 751.5,283.1 752.9,283.2 754.4,283.2 755.8,283.3 757.2,283.5 758.7,283.8 760.1,284.2 761.5,284.7 762.9,285.3 764.4,285.8 765.8,286.3 767.2,286.6 768.6,286.7 770.1,286.7 771.5,286.7 772.9,286.5 774.3,286.2 775.8,285.9 777.2,285.5 778.6,285.0 780.0,284.4 781.5,283.8 782.9,283.2 784.3,282.8 785.7,282.5 787.2,282.4 788.6,282.4 790.0,282.5 791.4,282.8 792.9,283.1 794.3,283.4 795.7,283.8 797.1,284.1 798.6,284.5 799.3,284.8 L799.3,284.5 L435.0,284.5 Z" fill="url(#g216)" clip-path="url(#c218)"/>
  <defs><clipPath id="pc219"><rect x="435" y="207" width="365" height="155"/></clipPath></defs>
  <polyline points="435.0,262.6 436.4,226.7 437.9,208.5 439.3,209.9 440.7,225.1 442.1,243.8 443.6,256.3 445.0,257.8 446.4,250.2 447.8,240.7 449.3,237.9 450.7,247.6 452.1,269.8 453.5,298.5 455.0,324.6 456.4,339.8 457.8,340.2 459.2,327.6 460.7,308.8 462.1,292.1 463.5,283.7 464.9,285.1 466.4,293.3 467.8,302.1 469.2,305.4 470.6,300.4 472.1,288.6 473.5,274.8 474.9,265.1 476.3,263.8 477.8,271.3 479.2,284.2 480.6,296.8 482.1,303.6 483.5,301.6 484.9,291.8 486.3,278.2 487.8,266.0 489.2,259.5 490.6,259.8 492.0,265.1 493.5,271.6 494.9,275.6 496.3,274.9 497.7,270.5 499.2,265.4 500.6,263.4 502.0,267.3 503.4,277.6 504.9,291.8 506.3,306.2 507.7,316.6 509.1,320.9 510.6,318.9 512.0,313.0 513.4,306.2 514.8,301.1 516.3,298.8 517.7,298.2 519.1,297.1 520.5,293.2 522.0,285.6 523.4,275.1 524.8,263.9 526.3,255.2 527.7,251.1 529.1,252.4 530.5,258.0 532.0,265.7 533.4,272.8 534.8,277.7 536.2,280.1 537.7,281.1 539.1,282.5 540.5,285.4 541.9,290.3 543.4,296.2 544.8,301.4 546.2,304.1 547.6,303.3 549.1,299.4 550.5,293.8 551.9,288.3 553.3,284.7 554.8,283.5 556.2,284.5 557.6,286.3 559.0,287.6 560.5,287.4 561.9,285.6 563.3,283.0 564.7,280.8 566.2,280.1 567.6,280.9 569.0,283.0 570.4,285.0 571.9,285.9 573.3,284.9 574.7,282.2 576.2,278.5 577.6,275.2 579.0,273.2 580.4,273.2 581.9,274.9 583.3,277.5 584.7,280.2 586.1,282.2 587.6,283.4 589.0,284.3 590.4,285.5 591.8,287.6 593.3,290.6 594.7,294.1 596.1,297.3 597.5,299.2 599.0,299.4 600.4,297.7 601.8,294.6 603.2,290.9 604.7,287.5 606.1,284.7 607.5,282.6 608.9,280.9 610.4,279.3 611.8,277.3 613.2,275.2 614.6,273.3 616.1,272.3 617.5,272.4 618.9,274.0 620.4,276.6 621.8,279.9 623.2,283.0 624.6,285.4 626.1,287.1 627.5,288.0 628.9,288.5 630.3,289.0 631.8,289.6 633.2,290.3 634.6,290.8 636.0,290.8 637.5,290.1 638.9,288.8 640.3,287.1 641.7,285.4 643.2,284.3 644.6,283.7 646.0,283.8 647.4,284.2 648.9,284.6 650.3,284.7 651.7,284.4 653.1,283.8 654.6,283.2 656.0,282.7 657.4,282.5 658.8,282.5 660.3,282.6 661.7,282.6 663.1,282.3 664.6,281.7 666.0,281.1 667.4,280.6 668.8,280.5 670.3,281.0 671.7,282.0 673.1,283.3 674.5,284.7 676.0,286.0 677.4,287.0 678.8,287.7 680.2,288.3 681.7,288.8 683.1,289.3 684.5,289.6 685.9,289.8 687.4,289.5 688.8,288.8 690.2,287.6 691.6,286.1 693.1,284.4 694.5,282.9 695.9,281.7 697.3,280.9 698.8,280.4 700.2,280.1 701.6,280.0 703.0,280.1 704.5,280.2 705.9,280.6 707.3,281.3 708.8,282.2 710.2,283.4 711.6,284.6 713.0,285.6 714.5,286.5 715.9,287.0 717.3,287.2 718.7,287.2 720.2,287.1 721.6,286.9 723.0,286.7 724.4,286.6 725.9,286.3 727.3,285.9 728.7,285.5 730.1,285.0 731.6,284.5 733.0,284.2 734.4,284.0 735.8,284.0 737.3,284.1 738.7,284.1 740.1,284.1 741.5,284.0 743.0,283.8 744.4,283.5 745.8,283.3 747.2,283.2 748.7,283.1 750.1,283.1 751.5,283.1 752.9,283.2 754.4,283.2 755.8,283.3 757.2,283.5 758.7,283.8 760.1,284.2 761.5,284.7 762.9,285.3 764.4,285.8 765.8,286.3 767.2,286.6 768.6,286.7 770.1,286.7 771.5,286.7 772.9,286.5 774.3,286.2 775.8,285.9 777.2,285.5 778.6,285.0 780.0,284.4 781.5,283.8 782.9,283.2 784.3,282.8 785.7,282.5 787.2,282.4 788.6,282.4 790.0,282.5 791.4,282.8 792.9,283.1 794.3,283.4 795.7,283.8 797.1,284.1 798.6,284.5 799.3,284.8" fill="none" stroke="#f39c12" stroke-width="1.3" stroke-linejoin="round" clip-path="url(#pc219)"/>
</svg>
