<svg xmlns="http://www.w3.org/2000/svg" viewBox="0 0 775 252" style="font-family:system-ui,-apple-system,sans-serif">
  <text x="755" y="7" text-anchor="end" font-size="11" font-weight="600" fill="#6b7280">Gammatone filter bank</text>
  <line x1="55" y1="12" x2="55" y2="212" stroke="#d1d5db"/>
  <line x1="55" y1="52.0" x2="755" y2="52.0" stroke="#d1d5db"/>
  <text x="405" y="238" text-anchor="middle" font-size="9" fill="#6b7280">Hz</text>
  <text x="33" y="112" text-anchor="middle" font-size="9" fill="#6b7280" transform="rotate(-90 33 112)">dB</text>
  <line x1="55.0" y1="12" x2="55.0" y2="212" stroke="#e5e7eb" stroke-width="0.5"/>
  <line x1="96.1" y1="12" x2="96.1" y2="212" stroke="#e5e7eb" stroke-width="0.5"/>
  <line x1="125.2" y1="12" x2="125.2" y2="212" stroke="#e5e7eb" stroke-width="0.5"/>
  <line x1="147.9" y1="12" x2="147.9" y2="212" stroke="#e5e7eb" stroke-width="0.5"/>
  <line x1="166.3" y1="12" x2="166.3" y2="212" stroke="#e5e7eb" stroke-width="0.5"/>
  <line x1="181.9" y1="12" x2="181.9" y2="212" stroke="#e5e7eb" stroke-width="0.5"/>
  <line x1="195.5" y1="12" x2="195.5" y2="212" stroke="#e5e7eb" stroke-width="0.5"/>
  <line x1="207.4" y1="12" x2="207.4" y2="212" stroke="#e5e7eb" stroke-width="0.5"/>
  <line x1="288.3" y1="12" x2="288.3" y2="212" stroke="#e5e7eb" stroke-width="0.5"/>
  <line x1="329.4" y1="12" x2="329.4" y2="212" stroke="#e5e7eb" stroke-width="0.5"/>
  <line x1="358.6" y1="12" x2="358.6" y2="212" stroke="#e5e7eb" stroke-width="0.5"/>
  <line x1="381.2" y1="12" x2="381.2" y2="212" stroke="#e5e7eb" stroke-width="0.5"/>
  <line x1="399.7" y1="12" x2="399.7" y2="212" stroke="#e5e7eb" stroke-width="0.5"/>
  <line x1="415.3" y1="12" x2="415.3" y2="212" stroke="#e5e7eb" stroke-width="0.5"/>
  <line x1="428.8" y1="12" x2="428.8" y2="212" stroke="#e5e7eb" stroke-width="0.5"/>
  <line x1="440.7" y1="12" x2="440.7" y2="212" stroke="#e5e7eb" stroke-width="0.5"/>
  <line x1="521.7" y1="12" x2="521.7" y2="212" stroke="#e5e7eb" stroke-width="0.5"/>
  <line x1="562.8" y1="12" x2="562.8" y2="212" stroke="#e5e7eb" stroke-width="0.5"/>
  <line x1="591.9" y1="12" x2="591.9" y2="212" stroke="#e5e7eb" stroke-width="0.5"/>
  <line x1="614.5" y1="12" x2="614.5" y2="212" stroke="#e5e7eb" stroke-width="0.5"/>
  <line x1="633.0" y1="12" x2="633.0" y2="212" stroke="#e5e7eb" stroke-width="0.5"/>
  <line x1="648.6" y1="12" x2="648.6" y2="212" stroke="#e5e7eb" stroke-width="0.5"/>
  <line x1="662.1" y1="12" x2="662.1" y2="212" stroke="#e5e7eb" stroke-width="0.5"/>
  <line x1="674.1" y1="12" x2="674.1" y2="212" stroke="#e5e7eb" stroke-width="0.5"/>
  <line x1="755.0" y1="12" x2="755.0" y2="212" stroke="#e5e7eb" stroke-width="0.5"/>
  <line x1="218.1" y1="12" x2="218.1" y2="212" stroke="#e5e7eb" stroke-width="0.5"/>
  <text x="218.1" y="224" text-anchor="middle" font-size="8" fill="#6b7280">100</text>
  <line x1="451.4" y1="12" x2="451.4" y2="212" stroke="#e5e7eb" stroke-width="0.5"/>
  <text x="451.4" y="224" text-anchor="middle" font-size="8" fill="#6b7280">1k</text>
  <line x1="684.8" y1="12" x2="684.8" y2="212" stroke="#e5e7eb" stroke-width="0.5"/>
  <text x="684.8" y="224" text-anchor="middle" font-size="8" fill="#6b7280">10k</text>
  <line x1="55" y1="32.0" x2="755" y2="32.0" stroke="#e5e7eb" stroke-width="0.5"/>
  <line x1="55" y1="72.0" x2="755" y2="72.0" stroke="#e5e7eb" stroke-width="0.5"/>
  <line x1="55" y1="12.0" x2="755" y2="12.0" stroke="#e5e7eb" stroke-width="0.5"/>
  <text x="51" y="15.0" text-anchor="end" font-size="8" fill="#6b7280">+20</text>
  <text x="51" y="55.0" text-anchor="end" font-size="8" fill="#6b7280">0</text>
  <line x1="55" y1="92.0" x2="755" y2="92.0" stroke="#e5e7eb" stroke-width="0.5"/>
  <text x="51" y="95.0" text-anchor="end" font-size="8" fill="#6b7280">-20</text>
  <line x1="55" y1="132.0" x2="755" y2="132.0" stroke="#e5e7eb" stroke-width="0.5"/>
  <text x="51" y="135.0" text-anchor="end" font-size="8" fill="#6b7280">-40</text>
  <line x1="55" y1="172.0" x2="755" y2="172.0" stroke="#e5e7eb" stroke-width="0.5"/>
  <text x="51" y="175.0" text-anchor="end" font-size="8" fill="#6b7280">-60</text>
  <line x1="55" y1="212.0" x2="755" y2="212.0" stroke="#e5e7eb" stroke-width="0.5"/>
  <text x="51" y="215.0" text-anchor="end" font-size="8" fill="#6b7280">-80</text>
  <defs><clipPath id="pc88"><rect x="55" y="12" width="700" height="200"/></clipPath></defs>
  <polyline points="62.5,213.8 103.6,209.9 132.7,199.8 155.3,195.6 173.8,185.4 189.4,178.8 203.0,170.0 214.9,162.4 225.6,154.3 235.2,146.3 244.1,138.2 252.2,130.1 259.7,121.8 266.7,113.3 273.2,104.6 279.3,95.8 285.1,86.8 290.6,77.9 295.8,69.3 300.8,61.7 305.5,55.8 310.0,52.4 314.3,51.8 318.4,54.0 322.4,58.2 326.2,63.6 329.9,69.6 333.5,75.6 336.9,81.5 340.2,87.2 343.4,92.5 346.6,97.5 349.6,102.2 352.5,106.6 355.4,110.8 358.2,114.7 360.9,118.4 363.5,121.8 366.1,125.1 368.6,128.2 371.0,131.2 373.4,134.0 375.7,136.7 378.0,139.3 380.2,141.8 382.4,144.1 384.5,146.5 386.6,148.6 388.7,150.8 390.7,152.8 392.6,154.8 394.6,156.6 396.5,158.6 398.3,160.3 400.2,162.1 401.9,163.7 403.7,165.5 405.4,167.0 407.1,168.6 408.8,170.0 410.5,171.6 412.1,173.0 413.7,174.5 415.3,175.7 416.8,177.2 418.3,178.4 419.8,179.8 421.3,180.9 422.8,182.4 424.2,183.4 425.6,184.8 427.0,185.7 428.4,187.1 429.8,188.0 431.1,189.3 432.4,190.1 433.7,191.5 435.0,192.2 436.3,193.6 437.6,194.3 438.8,195.6 440.0,196.2 441.2,197.5 442.4,198.1 443.6,199.4 444.8,199.9 446.0,201.3 447.1,201.7 448.2,203.1 449.4,203.4 450.5,204.8 451.6,205.1 452.6,206.5 453.7,206.8 454.8,208.2 455.8,208.3 456.9,209.8 457.9,209.9 458.9,211.4 459.9,211.4 460.9,212.9 461.9,212.8 462.9,214.5 463.9,214.3 464.8,215.9 465.8,215.6 466.7,217.4 467.6,217.0 468.6,218.8 469.5,218.3 470.4,220.2 471.3,219.6 472.2,221.5 473.1,220.9 474.0,222.9 474.8,222.1 475.7,224.2 476.5,223.3 477.4,225.5 478.2,224.4 479.1,226.7 479.9,225.6 480.7,228.0 481.5,226.7 482.3,229.2 483.1,227.8 484.7,228.8 486.3,229.9 487.8,230.9 489.3,231.9 490.8,232.8 492.3,233.8 493.7,234.7 495.2,235.6 496.6,236.5 498.0,237.3 499.3,238.2 500.7,239.0 502.0,239.8 503.3,240.6 504.6,241.3 505.9,242.1 507.2,242.8 508.4,243.5 509.7,244.2 510.9,244.9 512.1,245.5 513.3,246.2 514.5,246.8 515.6,247.4 516.8,248.0 517.9,248.6 519.0,249.2 520.1,249.7 521.3,250.3 522.3,250.8 523.4,251.3 524.5,251.8 525.5,252.3 526.6,252.8 527.6,253.2 528.6,253.7 529.7,254.1 530.7,254.6 531.7,255.0 532.6,255.4 533.6,255.8 534.6,256.2 535.5,256.6 536.5,257.0 537.4,257.4 538.3,257.7 539.3,258.1 540.2,258.4 541.1,258.8 542.0,259.1 542.9,259.4 543.8,259.7 544.6,260.0 545.5,260.3 546.4,260.6 547.2,260.9 548.0,261.2 548.9,261.5 549.7,261.8 550.5,262.0 551.4,262.3 552.2,262.6 553.0,262.8 554.2,271.9 555.3,263.6 556.5,272.5 557.7,264.3 558.8,273.0 559.9,264.9 561.1,273.4 562.2,265.6 563.2,273.8 564.3,266.2 565.4,274.1 566.5,266.8 567.5,274.5 568.5,267.3 569.6,274.8 570.6,267.8 571.6,275.0 572.6,268.4 573.6,275.3 574.5,268.9 575.5,275.6 576.5,269.3 577.4,275.8 578.4,269.8 579.3,276.1 580.2,270.2 581.1,276.3 582.0,270.7 582.9,276.5 583.8,271.1 584.7,276.7 585.6,271.5 586.4,276.9 587.3,271.9 588.2,277.2 589.0,272.3 589.8,277.4 590.7,272.6 591.5,277.6 592.3,273.0 593.1,277.8 593.9,273.4 595.0,273.6 596.0,273.8 597.1,274.0 598.1,274.3 599.1,274.5 600.1,274.7 601.2,274.9 602.1,275.1 603.1,275.3 604.1,275.5 605.1,275.7 606.0,275.9 607.0,276.1 607.9,276.3 608.8,276.5 609.7,276.7 610.6,276.8 611.6,277.0 612.4,277.2 613.3,277.4 614.2,277.5 615.1,277.7 615.9,277.9 616.8,278.1 617.7,278.2 618.5,278.4 619.3,278.5 620.2,278.7 621.0,278.9 621.8,279.0 622.6,279.2 623.4,279.3 624.4,281.8 625.4,279.7 626.4,282.1 627.3,280.1 628.3,282.3 629.2,280.4 630.2,282.6 631.1,280.8 632.0,282.8 632.9,281.1 633.8,283.1 634.7,281.4 635.6,283.3 636.5,281.7 637.4,283.6 638.3,282.1 639.1,283.8 640.0,282.4 640.8,284.1 641.7,282.7 642.5,284.3 643.3,283.0 644.1,284.5 644.9,283.3 645.7,284.8 646.7,284.9 647.7,285.0 648.6,285.2 649.5,285.3 650.4,285.4 651.4,285.5 652.3,285.7 653.2,285.8 654.1,285.9 654.9,286.0 655.8,286.2 656.7,286.3 657.5,286.4 658.4,286.5 659.2,286.6 660.1,286.8 660.9,286.9 661.7,287.0 662.6,287.1 663.4,287.2 664.2,287.3 665.1,286.7 666.0,287.6 666.9,287.0 667.8,287.9 668.7,287.3 669.6,288.1 670.5,287.5 671.4,288.3 672.3,287.8 673.1,288.6 674.0,288.1 674.8,288.8 675.7,288.4 676.5,289.0 677.3,288.6 678.1,289.3 678.9,288.9 679.8,289.5 680.7,289.6 681.6,289.7 682.5,289.9 683.4,290.0 684.2,290.1 685.1,290.2 686.0,290.3 686.8,290.4 687.7,290.6 688.5,290.7 689.4,290.8 690.2,290.9 691.0,291.0 691.8,291.1 692.6,291.2 693.5,291.3 694.4,291.1 695.2,291.5 696.1,291.4 697.0,291.8 697.9,291.6 698.7,292.0 699.6,291.9 700.4,292.2 701.3,292.1 702.1,292.4 702.9,292.3 703.7,292.6 704.5,292.5 705.3,292.8 706.2,292.9 707.1,293.0 708.0,293.1 708.8,293.2 709.7,293.3 710.6,293.4 711.4,293.5 712.2,293.6 713.1,293.7 713.9,293.8 714.7,293.9 715.5,294.0 716.3,294.1 717.2,294.1 718.0,294.2 718.9,294.3 719.8,294.4 720.6,294.5 721.4,294.6 722.3,294.7 723.1,294.8 723.9,294.9 724.7,294.9 725.5,295.0 726.4,295.1 727.3,295.2 728.1,295.3 729.0,295.4 729.8,295.5 730.7,295.5 731.5,295.6 732.3,295.7 733.1,295.8 733.9,295.8 734.7,295.9 735.6,295.9 736.5,296.1 737.3,296.1 738.1,296.2 739.0,296.2 739.8,296.3 740.6,296.3 741.4,296.5 742.3,296.4 743.1,296.6 743.9,296.6 744.8,296.7 745.6,296.7 746.4,296.8 747.3,296.9 748.1,296.9 748.9,296.9 749.7,297.0 750.5,297.0 751.4,296.9 752.2,297.1 753.0,297.0 753.9,297.2 754.7,297.1" fill="none" stroke="#4a90d9" stroke-width="1.3" stroke-linejoin="round" clip-path="url(#pc88)"/>
  <defs><clipPath id="pc89"><rect x="55" y="12" width="700" height="200"/></clipPath></defs>
  <polyline points="62.5,245.4 103.6,243.3 132.7,240.5 155.3,237.2 173.8,233.5 189.4,229.5 203.0,225.3 214.9,221.0 225.6,216.6 235.2,212.2 244.1,207.7 252.2,203.3 259.7,198.9 266.7,194.5 273.2,190.2 279.3,185.8 285.1,181.5 290.6,177.2 295.8,173.0 300.8,168.7 305.5,164.4 310.0,160.1 314.3,155.8 318.4,151.4 322.4,147.0 326.2,142.5 329.9,138.0 333.5,133.4 336.9,128.7 340.2,123.9 343.4,119.1 346.6,114.1 349.6,109.0 352.5,103.7 355.4,98.4 358.2,93.0 360.9,87.4 363.5,81.9 366.1,76.4 368.6,71.0 371.0,65.9 373.4,61.3 375.7,57.3 378.0,54.3 380.2,52.4 382.4,51.8 384.5,52.4 386.6,54.2 388.7,56.8 390.7,60.1 392.6,63.8 394.6,67.8 396.5,71.9 398.3,76.0 400.2,80.0 401.9,83.9 403.7,87.7 405.4,91.4 407.1,94.9 408.8,98.3 410.5,101.6 412.1,104.7 413.7,107.6 415.3,110.5 416.8,113.2 418.3,115.9 419.8,118.4 421.3,120.8 422.8,123.2 424.2,125.4 425.6,127.6 427.0,129.7 428.4,131.7 429.8,133.7 431.1,135.6 432.4,137.5 433.7,139.2 435.0,141.0 436.3,142.7 437.6,144.3 438.8,145.9 440.0,147.5 441.2,149.0 442.4,150.4 443.6,151.9 444.8,153.3 446.0,154.6 447.1,156.0 448.2,157.3 449.4,158.6 450.5,159.8 451.6,161.0 452.6,162.2 453.7,163.4 454.8,164.6 455.8,165.7 456.9,166.8 457.9,167.9 458.9,169.0 459.9,170.0 460.9,171.0 461.9,172.0 462.9,173.0 463.9,174.0 464.8,175.0 465.8,175.9 466.7,176.8 467.6,177.7 468.6,178.6 469.5,179.5 470.4,180.4 471.3,181.3 472.2,182.1 473.1,182.9 474.0,183.8 474.8,184.6 475.7,185.4 476.5,186.2 477.4,187.0 478.2,187.7 479.1,188.5 479.9,189.2 480.7,190.0 481.5,190.7 482.3,191.4 483.1,192.1 484.7,193.5 486.3,194.9 487.8,196.2 489.3,197.6 490.8,198.8 492.3,200.1 493.7,201.3 495.2,202.5 496.6,203.7 498.0,204.9 499.3,206.0 500.7,207.1 502.0,208.2 503.3,209.3 504.6,210.3 505.9,211.4 507.2,212.4 508.4,213.4 509.7,214.4 510.9,215.4 512.1,216.3 513.3,217.3 514.5,218.2 515.6,219.1 516.8,220.0 517.9,220.9 519.0,221.8 520.1,222.6 521.3,223.5 522.3,224.3 523.4,225.1 524.5,226.0 525.5,226.8 526.6,227.6 527.6,228.4 528.6,229.1 529.7,229.9 530.7,230.7 531.7,231.4 532.6,232.1 533.6,232.9 534.6,233.6 535.5,234.3 536.5,235.0 537.4,235.7 538.3,236.4 539.3,237.1 540.2,237.8 541.1,238.4 542.0,239.1 542.9,239.8 543.8,240.4 544.6,241.0 545.5,241.7 546.4,242.3 547.2,242.9 548.0,243.6 548.9,244.2 549.7,244.8 550.5,245.4 551.4,246.0 552.2,246.6 553.0,247.1 554.2,248.0 555.3,248.9 556.5,249.7 557.7,250.5 558.8,251.3 559.9,252.2 561.1,253.0 562.2,253.7 563.2,254.5 564.3,255.3 565.4,256.1 566.5,256.8 567.5,257.5 568.5,258.3 569.6,259.0 570.6,259.7 571.6,260.4 572.6,261.1 573.6,261.8 574.5,262.5 575.5,263.2 576.5,263.9 577.4,264.5 578.4,265.2 579.3,265.8 580.2,266.5 581.1,267.1 582.0,267.8 582.9,268.4 583.8,269.0 584.7,269.6 585.6,270.2 586.4,270.8 587.3,271.4 588.2,272.0 589.0,272.6 589.8,273.2 590.7,273.7 591.5,274.3 592.3,274.9 593.1,275.4 593.9,276.0 595.0,276.7 596.0,277.4 597.1,278.2 598.1,278.9 599.1,279.6 600.1,280.3 601.2,280.9 602.1,281.6 603.1,282.3 604.1,282.9 605.1,283.6 606.0,284.2 607.0,284.9 607.9,285.5 608.8,286.1 609.7,286.8 610.6,287.4 611.6,288.0 612.4,288.6 613.3,289.2 614.2,289.8 615.1,290.4 615.9,290.9 616.8,291.5 617.7,292.1 618.5,292.6 619.3,293.2 620.2,293.8 621.0,294.3 621.8,294.8 622.6,295.4 623.4,295.9 624.4,296.5 625.4,297.2 626.4,297.8 627.3,298.5 628.3,299.1 629.2,299.8 630.2,300.3 631.1,301.0 632.0,301.5 632.9,302.2 633.8,302.7 634.7,303.4 635.6,303.9 636.5,304.5 637.4,305.0 638.3,305.7 639.1,306.1 640.0,306.8 640.8,307.2 641.7,307.8 642.5,308.3 643.3,308.9 644.1,309.4 644.9,310.0 645.7,310.4 646.7,311.0 647.7,311.6 648.6,312.2 649.5,312.8 650.4,313.4 651.4,313.9 652.3,314.5 653.2,315.1 654.1,315.6 654.9,316.2 655.8,316.7 656.7,317.3 657.5,317.8 658.4,318.3 659.2,318.9 660.1,319.4 660.9,319.9 661.7,320.4 662.6,320.9 663.4,321.4 664.2,321.9 665.1,322.6 666.0,323.0 666.9,323.7 667.8,324.1 668.7,324.8 669.6,325.2 670.5,325.9 671.4,326.2 672.3,326.9 673.1,327.3 674.0,328.0 674.8,328.3 675.7,329.0 676.5,329.3 677.3,329.9 678.1,330.2 678.9,330.9 679.8,331.2 680.7,331.7 681.6,332.2 682.5,332.7 683.4,333.2 684.2,333.7 685.1,334.2 686.0,334.7 686.8,335.2 687.7,335.7 688.5,336.2 689.4,336.6 690.2,337.1 691.0,337.5 691.8,338.0 692.6,338.4 693.5,338.9 694.4,339.6 695.2,339.8 696.1,340.6 697.0,340.8 697.9,341.5 698.7,341.7 699.6,342.4 700.4,342.6 701.3,343.3 702.1,343.5 702.9,344.1 703.7,344.3 704.5,344.9 705.3,345.1 706.2,345.6 707.1,346.0 708.0,346.4 708.8,346.9 709.7,347.3 710.6,347.7 711.4,348.1 712.2,348.5 713.1,348.9 713.9,349.3 714.7,349.7 715.5,350.1 716.3,350.4 717.2,351.0 718.0,351.2 718.9,351.7 719.8,352.0 720.6,352.5 721.4,352.7 722.3,353.2 723.1,353.5 723.9,353.9 724.7,354.2 725.5,354.5 726.4,354.8 727.3,355.2 728.1,355.5 729.0,355.8 729.8,356.1 730.7,356.4 731.5,356.7 732.3,357.0 733.1,357.3 733.9,357.6 734.7,357.8 735.6,358.4 736.5,358.4 737.3,358.9 738.1,358.9 739.0,359.5 739.8,359.4 740.6,360.0 741.4,359.9 742.3,360.5 743.1,360.3 743.9,360.5 744.8,360.7 745.6,360.9 746.4,361.1 747.3,361.3 748.1,361.5 748.9,361.6 749.7,361.8 750.5,362.0 751.4,362.8 752.2,362.3 753.0,363.1 753.9,362.5 754.7,363.4" fill="none" stroke="#e74c3c" stroke-width="1.3" stroke-linejoin="round" clip-path="url(#pc89)"/>
  <defs><clipPath id="pc90"><rect x="55" y="12" width="700" height="200"/></clipPath></defs>
  <polyline points="62.5,254.7 103.6,254.2 132.7,253.5 155.3,252.6 173.8,251.6 189.4,250.4 203.0,249.0 214.9,247.6 225.6,246.0 235.2,244.3 244.1,242.5 252.2,240.7 259.7,238.7 266.7,236.8 273.2,234.8 279.3,232.7 285.1,230.6 290.6,228.5 295.8,226.4 300.8,224.3 305.5,222.1 310.0,220.0 314.3,217.8 318.4,215.7 322.4,213.5 326.2,211.4 329.9,209.2 333.5,207.1 336.9,204.9 340.2,202.8 343.4,200.6 346.6,198.5 349.6,196.4 352.5,194.2 355.4,192.1 358.2,189.9 360.9,187.8 363.5,185.7 366.1,183.5 368.6,181.4 371.0,179.3 373.4,177.1 375.7,175.0 378.0,172.8 380.2,170.6 382.4,168.4 384.5,166.3 386.6,164.1 388.7,161.8 390.7,159.6 392.6,157.4 394.6,155.1 396.5,152.8 398.3,150.5 400.2,148.2 401.9,145.8 403.7,143.5 405.4,141.1 407.1,138.6 408.8,136.2 410.5,133.7 412.1,131.2 413.7,128.6 415.3,126.0 416.8,123.4 418.3,120.7 419.8,118.0 421.3,115.2 422.8,112.4 424.2,109.5 425.6,106.6 427.0,103.7 428.4,100.7 429.8,97.6 431.1,94.5 432.4,91.4 433.7,88.3 435.0,85.1 436.3,81.9 437.6,78.7 438.8,75.6 440.0,72.4 441.2,69.4 442.4,66.4 443.6,63.6 444.8,61.0 446.0,58.6 447.1,56.6 448.2,54.8 449.4,53.4 450.5,52.5 451.6,52.0 452.6,51.9 453.7,52.3 454.8,53.0 455.8,54.2 456.9,55.6 457.9,57.4 458.9,59.3 459.9,61.5 460.9,63.8 461.9,66.1 462.9,68.6 463.9,71.0 464.8,73.5 465.8,76.0 466.7,78.4 467.6,80.9 468.6,83.2 469.5,85.6 470.4,87.9 471.3,90.1 472.2,92.3 473.1,94.5 474.0,96.6 474.8,98.6 475.7,100.6 476.5,102.5 477.4,104.4 478.2,106.3 479.1,108.1 479.9,109.8 480.7,111.5 481.5,113.2 482.3,114.8 483.1,116.4 484.7,119.5 486.3,122.4 487.8,125.2 489.3,127.9 490.8,130.5 492.3,133.0 493.7,135.3 495.2,137.6 496.6,139.8 498.0,141.9 499.3,144.0 500.7,146.0 502.0,147.9 503.3,149.7 504.6,151.5 505.9,153.2 507.2,154.9 508.4,156.6 509.7,158.2 510.9,159.7 512.1,161.2 513.3,162.7 514.5,164.1 515.6,165.5 516.8,166.9 517.9,168.2 519.0,169.5 520.1,170.8 521.3,172.1 522.3,173.3 523.4,174.5 524.5,175.6 525.5,176.8 526.6,177.9 527.6,179.0 528.6,180.1 529.7,181.1 530.7,182.2 531.7,183.2 532.6,184.2 533.6,185.2 534.6,186.2 535.5,187.1 536.5,188.1 537.4,189.0 538.3,189.9 539.3,190.8 540.2,191.7 541.1,192.5 542.0,193.4 542.9,194.2 543.8,195.0 544.6,195.9 545.5,196.7 546.4,197.5 547.2,198.2 548.0,199.0 548.9,199.8 549.7,200.5 550.5,201.3 551.4,202.0 552.2,202.7 553.0,203.4 554.2,204.5 555.3,205.5 556.5,206.6 557.7,207.6 558.8,208.5 559.9,209.5 561.1,210.5 562.2,211.4 563.2,212.3 564.3,213.2 565.4,214.1 566.5,215.0 567.5,215.9 568.5,216.7 569.6,217.6 570.6,218.4 571.6,219.2 572.6,220.0 573.6,220.8 574.5,221.6 575.5,222.4 576.5,223.2 577.4,223.9 578.4,224.7 579.3,225.4 580.2,226.1 581.1,226.8 582.0,227.5 582.9,228.3 583.8,228.9 584.7,229.6 585.6,230.3 586.4,231.0 587.3,231.6 588.2,232.3 589.0,232.9 589.8,233.6 590.7,234.2 591.5,234.8 592.3,235.5 593.1,236.1 593.9,236.7 595.0,237.5 596.0,238.3 597.1,239.1 598.1,239.8 599.1,240.6 600.1,241.3 601.2,242.1 602.1,242.8 603.1,243.5 604.1,244.2 605.1,244.9 606.0,245.6 607.0,246.3 607.9,247.0 608.8,247.7 609.7,248.3 610.6,249.0 611.6,249.6 612.4,250.3 613.3,250.9 614.2,251.6 615.1,252.2 615.9,252.8 616.8,253.4 617.7,254.0 618.5,254.6 619.3,255.2 620.2,255.8 621.0,256.3 621.8,256.9 622.6,257.5 623.4,258.0 624.4,258.7 625.4,259.4 626.4,260.1 627.3,260.8 628.3,261.4 629.2,262.1 630.2,262.7 631.1,263.4 632.0,264.0 632.9,264.6 633.8,265.2 634.7,265.9 635.6,266.5 636.5,267.1 637.4,267.6 638.3,268.2 639.1,268.8 640.0,269.4 640.8,270.0 641.7,270.5 642.5,271.1 643.3,271.6 644.1,272.2 644.9,272.7 645.7,273.2 646.7,273.9 647.7,274.5 648.6,275.1 649.5,275.7 650.4,276.3 651.4,276.9 652.3,277.5 653.2,278.1 654.1,278.7 654.9,279.2 655.8,279.8 656.7,280.4 657.5,280.9 658.4,281.5 659.2,282.0 660.1,282.5 660.9,283.1 661.7,283.6 662.6,284.1 663.4,284.6 664.2,285.1 665.1,285.7 666.0,286.3 666.9,286.8 667.8,287.4 668.7,288.0 669.6,288.5 670.5,289.1 671.4,289.6 672.3,290.1 673.1,290.6 674.0,291.2 674.8,291.7 675.7,292.2 676.5,292.7 677.3,293.2 678.1,293.7 678.9,294.1 679.8,294.6 680.7,295.2 681.6,295.7 682.5,296.2 683.4,296.7 684.2,297.3 685.1,297.8 686.0,298.3 686.8,298.8 687.7,299.2 688.5,299.7 689.4,300.2 690.2,300.7 691.0,301.1 691.8,301.6 692.6,302.0 693.5,302.5 694.4,303.0 695.2,303.5 696.1,304.0 697.0,304.4 697.9,304.9 698.7,305.4 699.6,305.8 700.4,306.3 701.3,306.7 702.1,307.1 702.9,307.6 703.7,308.0 704.5,308.4 705.3,308.8 706.2,309.3 707.1,309.7 708.0,310.2 708.8,310.6 709.7,311.0 710.6,311.4 711.4,311.8 712.2,312.2 713.1,312.6 713.9,313.0 714.7,313.4 715.5,313.8 716.3,314.2 717.2,314.6 718.0,315.0 718.9,315.3 719.8,315.7 720.6,316.1 721.4,316.5 722.3,316.8 723.1,317.2 723.9,317.5 724.7,317.9 725.5,318.2 726.4,318.5 727.3,318.9 728.1,319.2 729.0,319.6 729.8,319.9 730.7,320.2 731.5,320.5 732.3,320.8 733.1,321.1 733.9,321.4 734.7,321.7 735.6,322.0 736.5,322.3 737.3,322.5 738.1,322.8 739.0,323.1 739.8,323.3 740.6,323.6 741.4,323.8 742.3,324.1 743.1,324.3 743.9,324.5 744.8,324.7 745.6,324.9 746.4,325.2 747.3,325.4 748.1,325.5 748.9,325.7 749.7,325.9 750.5,326.1 751.4,326.2 752.2,326.4 753.0,326.5 753.9,326.7 754.7,326.8" fill="none" stroke="#2ecc71" stroke-width="1.3" stroke-linejoin="round" clip-path="url(#pc90)"/>
  <defs><clipPath id="pc91"><rect x="55" y="12" width="700" height="200"/></clipPath></defs>
  <polyline points="62.5,244.9 103.6,244.8 132.7,244.7 155.3,244.6 173.8,244.4 189.4,244.2 203.0,244.0 214.9,243.7 225.6,243.4 235.2,243.1 244.1,242.7 252.2,242.3 259.7,241.9 266.7,241.5 273.2,241.0 279.3,240.6 285.1,240.1 290.6,239.5 295.8,239.0 300.8,238.4 305.5,237.8 310.0,237.2 314.3,236.6 318.4,235.9 322.4,235.2 326.2,234.5 329.9,233.8 333.5,233.1 336.9,232.4 340.2,231.6 343.4,230.9 346.6,230.1 349.6,229.3 352.5,228.5 355.4,227.7 358.2,226.9 360.9,226.1 363.5,225.3 366.1,224.4 368.6,223.6 371.0,222.7 373.4,221.8 375.7,221.0 378.0,220.1 380.2,219.2 382.4,218.3 384.5,217.4 386.6,216.5 388.7,215.6 390.7,214.7 392.6,213.8 394.6,212.9 396.5,212.0 398.3,211.0 400.2,210.1 401.9,209.2 403.7,208.2 405.4,207.3 407.1,206.4 408.8,205.4 410.5,204.5 412.1,203.5 413.7,202.6 415.3,201.6 416.8,200.6 418.3,199.7 419.8,198.7 421.3,197.8 422.8,196.8 424.2,195.8 425.6,194.8 427.0,193.9 428.4,192.9 429.8,191.9 431.1,190.9 432.4,189.9 433.7,188.9 435.0,188.0 436.3,187.0 437.6,186.0 438.8,185.0 440.0,184.0 441.2,182.9 442.4,181.9 443.6,180.9 444.8,179.9 446.0,178.9 447.1,177.9 448.2,176.8 449.4,175.8 450.5,174.8 451.6,173.7 452.6,172.7 453.7,171.6 454.8,170.6 455.8,169.5 456.9,168.5 457.9,167.4 458.9,166.3 459.9,165.2 460.9,164.2 461.9,163.1 462.9,162.0 463.9,160.9 464.8,159.8 465.8,158.7 466.7,157.5 467.6,156.4 468.6,155.3 469.5,154.2 470.4,153.0 471.3,151.9 472.2,150.7 473.1,149.5 474.0,148.4 474.8,147.2 475.7,146.0 476.5,144.8 477.4,143.6 478.2,142.4 479.1,141.1 479.9,139.9 480.7,138.6 481.5,137.4 482.3,136.1 483.1,134.8 484.7,132.2 486.3,129.6 487.8,126.9 489.3,124.2 490.8,121.4 492.3,118.6 493.7,115.7 495.2,112.7 496.6,109.7 498.0,106.6 499.3,103.5 500.7,100.3 502.0,97.1 503.3,93.8 504.6,90.4 505.9,87.0 507.2,83.6 508.4,80.1 509.7,76.7 510.9,73.3 512.1,70.0 513.3,66.8 514.5,63.7 515.6,60.8 516.8,58.3 517.9,56.1 519.0,54.3 520.1,53.0 521.3,52.2 522.3,51.9 523.4,52.2 524.5,52.9 525.5,54.2 526.6,55.8 527.6,57.8 528.6,60.0 529.7,62.5 530.7,65.1 531.7,67.7 532.6,70.5 533.6,73.2 534.6,76.0 535.5,78.7 536.5,81.4 537.4,84.1 538.3,86.7 539.3,89.3 540.2,91.7 541.1,94.2 542.0,96.5 542.9,98.8 543.8,101.1 544.6,103.2 545.5,105.3 546.4,107.4 547.2,109.4 548.0,111.3 548.9,113.2 549.7,115.1 550.5,116.9 551.4,118.6 552.2,120.3 553.0,122.0 554.2,124.4 555.3,126.7 556.5,128.9 557.7,131.1 558.8,133.2 559.9,135.2 561.1,137.1 562.2,139.0 563.2,140.8 564.3,142.6 565.4,144.3 566.5,146.0 567.5,147.6 568.5,149.2 569.6,150.8 570.6,152.3 571.6,153.7 572.6,155.2 573.6,156.5 574.5,157.9 575.5,159.2 576.5,160.5 577.4,161.8 578.4,163.0 579.3,164.2 580.2,165.4 581.1,166.6 582.0,167.7 582.9,168.8 583.8,169.9 584.7,171.0 585.6,172.1 586.4,173.1 587.3,174.1 588.2,175.1 589.0,176.1 589.8,177.0 590.7,178.0 591.5,178.9 592.3,179.8 593.1,180.7 593.9,181.6 595.0,182.8 596.0,183.9 597.1,185.0 598.1,186.1 599.1,187.2 600.1,188.2 601.2,189.2 602.1,190.2 603.1,191.2 604.1,192.2 605.1,193.1 606.0,194.1 607.0,195.0 607.9,195.9 608.8,196.8 609.7,197.7 610.6,198.5 611.6,199.4 612.4,200.2 613.3,201.0 614.2,201.9 615.1,202.7 615.9,203.4 616.8,204.2 617.7,205.0 618.5,205.7 619.3,206.5 620.2,207.2 621.0,207.9 621.8,208.6 622.6,209.4 623.4,210.0 624.4,210.9 625.4,211.7 626.4,212.6 627.3,213.4 628.3,214.2 629.2,215.0 630.2,215.8 631.1,216.5 632.0,217.3 632.9,218.0 633.8,218.8 634.7,219.5 635.6,220.2 636.5,220.9 637.4,221.6 638.3,222.3 639.1,223.0 640.0,223.7 640.8,224.3 641.7,225.0 642.5,225.6 643.3,226.3 644.1,226.9 644.9,227.5 645.7,228.1 646.7,228.9 647.7,229.6 648.6,230.3 649.5,231.0 650.4,231.7 651.4,232.3 652.3,233.0 653.2,233.7 654.1,234.3 654.9,235.0 655.8,235.6 656.7,236.2 657.5,236.9 658.4,237.5 659.2,238.1 660.1,238.7 660.9,239.3 661.7,239.8 662.6,240.4 663.4,241.0 664.2,241.5 665.1,242.2 666.0,242.8 666.9,243.4 667.8,244.1 668.7,244.7 669.6,245.3 670.5,245.9 671.4,246.5 672.3,247.0 673.1,247.6 674.0,248.2 674.8,248.7 675.7,249.3 676.5,249.8 677.3,250.4 678.1,250.9 678.9,251.4 679.8,251.9 680.7,252.5 681.6,253.1 682.5,253.7 683.4,254.2 684.2,254.8 685.1,255.3 686.0,255.9 686.8,256.4 687.7,256.9 688.5,257.4 689.4,257.9 690.2,258.4 691.0,258.9 691.8,259.4 692.6,259.9 693.5,260.4 694.4,260.9 695.2,261.4 696.1,261.9 697.0,262.4 697.9,262.9 698.7,263.4 699.6,263.9 700.4,264.4 701.3,264.8 702.1,265.3 702.9,265.8 703.7,266.2 704.5,266.7 705.3,267.1 706.2,267.6 707.1,268.0 708.0,268.5 708.8,268.9 709.7,269.4 710.6,269.8 711.4,270.3 712.2,270.7 713.1,271.1 713.9,271.5 714.7,271.9 715.5,272.3 716.3,272.7 717.2,273.1 718.0,273.5 718.9,273.9 719.8,274.3 720.6,274.7 721.4,275.1 722.3,275.5 723.1,275.8 723.9,276.2 724.7,276.6 725.5,276.9 726.4,277.3 727.3,277.6 728.1,278.0 729.0,278.3 729.8,278.7 730.7,279.0 731.5,279.3 732.3,279.6 733.1,279.9 733.9,280.2 734.7,280.5 735.6,280.8 736.5,281.1 737.3,281.4 738.1,281.7 739.0,282.0 739.8,282.2 740.6,282.5 741.4,282.7 742.3,283.0 743.1,283.2 743.9,283.5 744.8,283.7 745.6,283.9 746.4,284.1 747.3,284.3 748.1,284.5 748.9,284.7 749.7,284.9 750.5,285.1 751.4,285.2 752.2,285.4 753.0,285.5 753.9,285.7 754.7,285.8" fill="none" stroke="#f39c12" stroke-width="1.3" stroke-linejoin="round" clip-path="url(#pc91)"/>
  <defs><clipPath id="pc92"><rect x="55" y="12" width="700" height="200"/></clipPath></defs>
  <polyline points="62.5,221.3 103.6,221.3 132.7,221.3 155.3,221.3 173.8,221.3 189.4,221.2 203.0,221.2 214.9,221.2 225.6,221.1 235.2,221.1 244.1,221.1 252.2,221.0 259.7,221.0 266.7,220.9 273.2,220.8 279.3,220.8 285.1,220.7 290.6,220.6 295.8,220.6 300.8,220.5 305.5,220.4 310.0,220.3 314.3,220.2 318.4,220.1 322.4,220.0 326.2,219.9 329.9,219.8 333.5,219.7 336.9,219.6 340.2,219.5 343.4,219.4 346.6,219.3 349.6,219.1 352.5,219.0 355.4,218.9 358.2,218.7 360.9,218.6 363.5,218.5 366.1,218.3 368.6,218.2 371.0,218.0 373.4,217.9 375.7,217.7 378.0,217.5 380.2,217.4 382.4,217.2 384.5,217.0 386.6,216.8 388.7,216.7 390.7,216.5 392.6,216.3 394.6,216.1 396.5,215.9 398.3,215.7 400.2,215.5 401.9,215.3 403.7,215.1 405.4,214.9 407.1,214.7 408.8,214.5 410.5,214.3 412.1,214.1 413.7,213.8 415.3,213.6 416.8,213.4 418.3,213.2 419.8,212.9 421.3,212.7 422.8,212.5 424.2,212.2 425.6,212.0 427.0,211.7 428.4,211.5 429.8,211.2 431.1,211.0 432.4,210.7 433.7,210.5 435.0,210.2 436.3,210.0 437.6,209.7 438.8,209.4 440.0,209.2 441.2,208.9 442.4,208.6 443.6,208.3 444.8,208.0 446.0,207.8 447.1,207.5 448.2,207.2 449.4,206.9 450.5,206.6 451.6,206.3 452.6,206.0 453.7,205.7 454.8,205.4 455.8,205.1 456.9,204.8 457.9,204.5 458.9,204.2 459.9,203.9 460.9,203.6 461.9,203.3 462.9,203.0 463.9,202.6 464.8,202.3 465.8,202.0 466.7,201.7 467.6,201.4 468.6,201.0 469.5,200.7 470.4,200.4 471.3,200.0 472.2,199.7 473.1,199.4 474.0,199.0 474.8,198.7 475.7,198.3 476.5,198.0 477.4,197.7 478.2,197.3 479.1,197.0 479.9,196.6 480.7,196.3 481.5,195.9 482.3,195.6 483.1,195.2 484.7,194.5 486.3,193.7 487.8,193.0 489.3,192.3 490.8,191.5 492.3,190.8 493.7,190.0 495.2,189.3 496.6,188.5 498.0,187.7 499.3,186.9 500.7,186.1 502.0,185.3 503.3,184.5 504.6,183.7 505.9,182.9 507.2,182.1 508.4,181.2 509.7,180.4 510.9,179.6 512.1,178.7 513.3,177.9 514.5,177.0 515.6,176.1 516.8,175.3 517.9,174.4 519.0,173.5 520.1,172.6 521.3,171.7 522.3,170.8 523.4,169.9 524.5,169.0 525.5,168.0 526.6,167.1 527.6,166.1 528.6,165.2 529.7,164.2 530.7,163.3 531.7,162.3 532.6,161.3 533.6,160.3 534.6,159.3 535.5,158.3 536.5,157.3 537.4,156.3 538.3,155.2 539.3,154.2 540.2,153.1 541.1,152.1 542.0,151.0 542.9,149.9 543.8,148.8 544.6,147.7 545.5,146.6 546.4,145.5 547.2,144.4 548.0,143.2 548.9,142.1 549.7,140.9 550.5,139.7 551.4,138.6 552.2,137.4 553.0,136.1 554.2,134.3 555.3,132.4 556.5,130.5 557.7,128.6 558.8,126.6 559.9,124.6 561.1,122.6 562.2,120.5 563.2,118.4 564.3,116.3 565.4,114.1 566.5,111.9 567.5,109.6 568.5,107.3 569.6,105.0 570.6,102.6 571.6,100.2 572.6,97.7 573.6,95.2 574.5,92.7 575.5,90.1 576.5,87.5 577.4,84.9 578.4,82.2 579.3,79.6 580.2,77.0 581.1,74.3 582.0,71.7 582.9,69.2 583.8,66.7 584.7,64.3 585.6,62.0 586.4,59.9 587.3,57.9 588.2,56.2 589.0,54.8 589.8,53.6 590.7,52.7 591.5,52.2 592.3,51.9 593.1,52.1 593.9,52.5 595.0,53.6 596.0,55.1 597.1,57.1 598.1,59.4 599.1,61.9 600.1,64.6 601.2,67.5 602.1,70.4 603.1,73.4 604.1,76.3 605.1,79.2 606.0,82.1 607.0,85.0 607.9,87.7 608.8,90.5 609.7,93.1 610.6,95.7 611.6,98.2 612.4,100.6 613.3,102.9 614.2,105.2 615.1,107.4 615.9,109.6 616.8,111.7 617.7,113.7 618.5,115.7 619.3,117.6 620.2,119.5 621.0,121.3 621.8,123.0 622.6,124.8 623.4,126.4 624.4,128.4 625.4,130.4 626.4,132.3 627.3,134.2 628.3,135.9 629.2,137.7 630.2,139.4 631.1,141.0 632.0,142.6 632.9,144.2 633.8,145.7 634.7,147.1 635.6,148.6 636.5,150.0 637.4,151.3 638.3,152.7 639.1,154.0 640.0,155.2 640.8,156.5 641.7,157.7 642.5,158.9 643.3,160.1 644.1,161.2 644.9,162.3 645.7,163.4 646.7,164.7 647.7,165.9 648.6,167.1 649.5,168.3 650.4,169.5 651.4,170.6 652.3,171.8 653.2,172.8 654.1,173.9 654.9,175.0 655.8,176.0 656.7,177.0 657.5,178.0 658.4,178.9 659.2,179.9 660.1,180.8 660.9,181.7 661.7,182.6 662.6,183.5 663.4,184.4 664.2,185.2 665.1,186.2 666.0,187.1 666.9,188.1 667.8,189.0 668.7,189.9 669.6,190.8 670.5,191.6 671.4,192.5 672.3,193.3 673.1,194.1 674.0,194.9 674.8,195.7 675.7,196.5 676.5,197.2 677.3,198.0 678.1,198.7 678.9,199.5 679.8,200.2 680.7,201.0 681.6,201.7 682.5,202.5 683.4,203.3 684.2,204.0 685.1,204.7 686.0,205.5 686.8,206.2 687.7,206.8 688.5,207.5 689.4,208.2 690.2,208.9 691.0,209.5 691.8,210.1 692.6,210.8 693.5,211.4 694.4,212.0 695.2,212.7 696.1,213.4 697.0,214.0 697.9,214.6 698.7,215.3 699.6,215.9 700.4,216.5 701.3,217.1 702.1,217.6 702.9,218.2 703.7,218.8 704.5,219.3 705.3,219.9 706.2,220.4 707.1,221.0 708.0,221.6 708.8,222.1 709.7,222.7 710.6,223.2 711.4,223.7 712.2,224.3 713.1,224.8 713.9,225.3 714.7,225.7 715.5,226.2 716.3,226.7 717.2,227.2 718.0,227.7 718.9,228.2 719.8,228.6 720.6,229.1 721.4,229.6 722.3,230.0 723.1,230.4 723.9,230.9 724.7,231.3 725.5,231.7 726.4,232.1 727.3,232.6 728.1,233.0 729.0,233.4 729.8,233.8 730.7,234.2 731.5,234.5 732.3,234.9 733.1,235.2 733.9,235.6 734.7,235.9 735.6,236.3 736.5,236.6 737.3,237.0 738.1,237.3 739.0,237.6 739.8,237.9 740.6,238.2 741.4,238.5 742.3,238.8 743.1,239.0 743.9,239.3 744.8,239.6 745.6,239.8 746.4,240.1 747.3,240.3 748.1,240.5 748.9,240.8 749.7,241.0 750.5,241.1 751.4,241.3 752.2,241.5 753.0,241.7 753.9,241.9 754.7,242.0" fill="none" stroke="#9b59b6" stroke-width="1.3" stroke-linejoin="round" clip-path="url(#pc92)"/>
  <defs><clipPath id="pc93"><rect x="55" y="12" width="700" height="200"/></clipPath></defs>
  <polyline points="62.5,189.4 103.6,189.4 132.7,189.4 155.3,189.4 173.8,189.4 189.4,189.4 203.0,189.4 214.9,189.4 225.6,189.4 235.2,189.4 244.1,189.4 252.2,189.4 259.7,189.4 266.7,189.4 273.2,189.4 279.3,189.4 285.1,189.3 290.6,189.3 295.8,189.3 300.8,189.3 305.5,189.3 310.0,189.3 314.3,189.3 318.4,189.3 322.4,189.3 326.2,189.3 329.9,189.3 333.5,189.2 336.9,189.2 340.2,189.2 343.4,189.2 346.6,189.2 349.6,189.2 352.5,189.2 355.4,189.1 358.2,189.1 360.9,189.1 363.5,189.1 366.1,189.1 368.6,189.1 371.0,189.0 373.4,189.0 375.7,189.0 378.0,189.0 380.2,189.0 382.4,189.0 384.5,188.9 386.6,188.9 388.7,188.9 390.7,188.9 392.6,188.8 394.6,188.8 396.5,188.8 398.3,188.8 400.2,188.8 401.9,188.7 403.7,188.7 405.4,188.7 407.1,188.7 408.8,188.6 410.5,188.6 412.1,188.6 413.7,188.6 415.3,188.5 416.8,188.5 418.3,188.5 419.8,188.4 421.3,188.4 422.8,188.4 424.2,188.4 425.6,188.3 427.0,188.3 428.4,188.3 429.8,188.2 431.1,188.2 432.4,188.2 433.7,188.1 435.0,188.1 436.3,188.1 437.6,188.0 438.8,188.0 440.0,188.0 441.2,187.9 442.4,187.9 443.6,187.9 444.8,187.8 446.0,187.8 447.1,187.7 448.2,187.7 449.4,187.7 450.5,187.6 451.6,187.6 452.6,187.6 453.7,187.5 454.8,187.5 455.8,187.4 456.9,187.4 457.9,187.4 458.9,187.3 459.9,187.3 460.9,187.2 461.9,187.2 462.9,187.1 463.9,187.1 464.8,187.0 465.8,187.0 466.7,187.0 467.6,186.9 468.6,186.9 469.5,186.8 470.4,186.8 471.3,186.7 472.2,186.7 473.1,186.6 474.0,186.6 474.8,186.5 475.7,186.5 476.5,186.4 477.4,186.4 478.2,186.3 479.1,186.3 479.9,186.2 480.7,186.2 481.5,186.1 482.3,186.1 483.1,186.0 484.7,185.9 486.3,185.8 487.8,185.7 489.3,185.6 490.8,185.5 492.3,185.3 493.7,185.2 495.2,185.1 496.6,185.0 498.0,184.9 499.3,184.7 500.7,184.6 502.0,184.5 503.3,184.4 504.6,184.2 505.9,184.1 507.2,183.9 508.4,183.8 509.7,183.7 510.9,183.5 512.1,183.4 513.3,183.2 514.5,183.1 515.6,183.0 516.8,182.8 517.9,182.7 519.0,182.5 520.1,182.3 521.3,182.2 522.3,182.0 523.4,181.9 524.5,181.7 525.5,181.6 526.6,181.4 527.6,181.2 528.6,181.1 529.7,180.9 530.7,180.7 531.7,180.5 532.6,180.4 533.6,180.2 534.6,180.0 535.5,179.8 536.5,179.6 537.4,179.5 538.3,179.3 539.3,179.1 540.2,178.9 541.1,178.7 542.0,178.5 542.9,178.3 543.8,178.1 544.6,177.9 545.5,177.7 546.4,177.5 547.2,177.3 548.0,177.1 548.9,176.9 549.7,176.7 550.5,176.5 551.4,176.3 552.2,176.1 553.0,175.8 554.2,175.5 555.3,175.2 556.5,174.9 557.7,174.5 558.8,174.2 559.9,173.8 561.1,173.5 562.2,173.1 563.2,172.8 564.3,172.4 565.4,172.0 566.5,171.6 567.5,171.3 568.5,170.9 569.6,170.5 570.6,170.1 571.6,169.7 572.6,169.3 573.6,168.9 574.5,168.5 575.5,168.1 576.5,167.7 577.4,167.3 578.4,166.8 579.3,166.4 580.2,166.0 581.1,165.5 582.0,165.1 582.9,164.6 583.8,164.2 584.7,163.7 585.6,163.3 586.4,162.8 587.3,162.3 588.2,161.8 589.0,161.3 589.8,160.9 590.7,160.4 591.5,159.9 592.3,159.4 593.1,158.9 593.9,158.3 595.0,157.7 596.0,157.0 597.1,156.2 598.1,155.5 599.1,154.8 600.1,154.0 601.2,153.3 602.1,152.5 603.1,151.8 604.1,151.0 605.1,150.2 606.0,149.4 607.0,148.6 607.9,147.8 608.8,146.9 609.7,146.1 610.6,145.2 611.6,144.3 612.4,143.5 613.3,142.6 614.2,141.7 615.1,140.7 615.9,139.8 616.8,138.9 617.7,137.9 618.5,136.9 619.3,136.0 620.2,135.0 621.0,133.9 621.8,132.9 622.6,131.9 623.4,130.8 624.4,129.5 625.4,128.1 626.4,126.7 627.3,125.3 628.3,123.9 629.2,122.4 630.2,120.9 631.1,119.4 632.0,117.8 632.9,116.3 633.8,114.7 634.7,113.0 635.6,111.3 636.5,109.6 637.4,107.9 638.3,106.2 639.1,104.4 640.0,102.5 640.8,100.7 641.7,98.8 642.5,96.9 643.3,94.9 644.1,92.9 644.9,90.9 645.7,88.9 646.7,86.4 647.7,83.9 648.6,81.3 649.5,78.8 650.4,76.2 651.4,73.6 652.3,71.1 653.2,68.6 654.1,66.1 654.9,63.8 655.8,61.6 656.7,59.5 657.5,57.6 658.4,55.9 659.2,54.5 660.1,53.4 660.9,52.6 661.7,52.1 662.6,52.0 663.4,52.2 664.2,52.8 665.1,53.9 666.0,55.3 666.9,57.1 667.8,59.2 668.7,61.5 669.6,64.0 670.5,66.6 671.4,69.3 672.3,72.0 673.1,74.7 674.0,77.5 674.8,80.2 675.7,82.9 676.5,85.5 677.3,88.1 678.1,90.6 678.9,93.1 679.8,95.5 680.7,98.2 681.6,100.8 682.5,103.3 683.4,105.8 684.2,108.1 685.1,110.4 686.0,112.7 686.8,114.8 687.7,116.9 688.5,118.9 689.4,120.9 690.2,122.8 691.0,124.7 691.8,126.5 692.6,128.2 693.5,129.9 694.4,131.7 695.2,133.5 696.1,135.3 697.0,137.0 697.9,138.6 698.7,140.2 699.6,141.7 700.4,143.2 701.3,144.7 702.1,146.1 702.9,147.5 703.7,148.8 704.5,150.1 705.3,151.4 706.2,152.8 707.1,154.1 708.0,155.4 708.8,156.6 709.7,157.9 710.6,159.1 711.4,160.2 712.2,161.3 713.1,162.4 713.9,163.5 714.7,164.6 715.5,165.6 716.3,166.6 717.2,167.6 718.0,168.6 718.9,169.6 719.8,170.6 720.6,171.5 721.4,172.5 722.3,173.4 723.1,174.2 723.9,175.1 724.7,175.9 725.5,176.7 726.4,177.5 727.3,178.4 728.1,179.2 729.0,179.9 729.8,180.7 730.7,181.4 731.5,182.1 732.3,182.8 733.1,183.5 733.9,184.1 734.7,184.7 735.6,185.4 736.5,186.0 737.3,186.6 738.1,187.2 739.0,187.8 739.8,188.4 740.6,188.9 741.4,189.4 742.3,189.9 743.1,190.4 743.9,190.9 744.8,191.3 745.6,191.8 746.4,192.2 747.3,192.6 748.1,193.0 748.9,193.4 749.7,193.7 750.5,194.1 751.4,194.4 752.2,194.7 753.0,195.0 753.9,195.3 754.7,195.5" fill="none" stroke="#1abc9c" stroke-width="1.3" stroke-linejoin="round" clip-path="url(#pc93)"/>
  <rect x="69" y="124" width="92" height="82" fill="white" fill-opacity="0.85" rx="3"/>
  <line x1="75" y1="135" x2="87" y2="135" stroke="#4a90d9" stroke-width="2"/>
  <text x="91" y="138" font-size="8" fill="#6b7280">fc=250Hz</text>
  <line x1="75" y1="147" x2="87" y2="147" stroke="#e74c3c" stroke-width="2"/>
  <text x="91" y="150" font-size="8" fill="#6b7280">fc=500Hz</text>
  <line x1="75" y1="159" x2="87" y2="159" stroke="#2ecc71" stroke-width="2"/>
  <text x="91" y="162" font-size="8" fill="#6b7280">fc=1kHz</text>
  <line x1="75" y1="171" x2="87" y2="171" stroke="#f39c12" stroke-width="2"/>
  <text x="91" y="174" font-size="8" fill="#6b7280">fc=2kHz</text>
  <line x1="75" y1="183" x2="87" y2="183" stroke="#9b59b6" stroke-width="2"/>
  <text x="91" y="186" font-size="8" fill="#6b7280">fc=4kHz</text>
  <line x1="75" y1="195" x2="87" y2="195" stroke="#1abc9c" stroke-width="2"/>
  <text x="91" y="198" font-size="8" fill="#6b7280">fc=8kHz</text>
</svg>
