<svg xmlns="http://www.w3.org/2000/svg" viewBox="0 0 820 378" style="font-family:system-ui,-apple-system,sans-serif">
  <text x="800" y="11" text-anchor="end" font-size="11" font-weight="600" fill="#6b7280">Graphic EQ (ISO octave bands)</text>
  <line x1="34" y1="16" x2="34" y2="171" stroke="#d1d5db"/>
  <line x1="34" y1="47.0" x2="399" y2="47.0" stroke="#d1d5db"/>
  <text x="216.5" y="197" text-anchor="middle" font-size="9" fill="#6b7280">Hz</text>
  <text x="12" y="93.5" text-anchor="middle" font-size="9" fill="#6b7280" transform="rotate(-90 12 93.5)">dB</text>
  <line x1="67.3" y1="16" x2="67.3" y2="171" stroke="#e5e7eb" stroke-width="0.5"/>
  <line x1="86.8" y1="16" x2="86.8" y2="171" stroke="#e5e7eb" stroke-width="0.5"/>
  <line x1="100.6" y1="16" x2="100.6" y2="171" stroke="#e5e7eb" stroke-width="0.5"/>
  <line x1="111.3" y1="16" x2="111.3" y2="171" stroke="#e5e7eb" stroke-width="0.5"/>
  <line x1="120.0" y1="16" x2="120.0" y2="171" stroke="#e5e7eb" stroke-width="0.5"/>
  <line x1="127.4" y1="16" x2="127.4" y2="171" stroke="#e5e7eb" stroke-width="0.5"/>
  <line x1="133.9" y1="16" x2="133.9" y2="171" stroke="#e5e7eb" stroke-width="0.5"/>
  <line x1="139.5" y1="16" x2="139.5" y2="171" stroke="#e5e7eb" stroke-width="0.5"/>
  <line x1="177.9" y1="16" x2="177.9" y2="171" stroke="#e5e7eb" stroke-width="0.5"/>
  <line x1="197.3" y1="16" x2="197.3" y2="171" stroke="#e5e7eb" stroke-width="0.5"/>
  <line x1="211.1" y1="16" x2="211.1" y2="171" stroke="#e5e7eb" stroke-width="0.5"/>
  <line x1="221.9" y1="16" x2="221.9" y2="171" stroke="#e5e7eb" stroke-width="0.5"/>
  <line x1="230.6" y1="16" x2="230.6" y2="171" stroke="#e5e7eb" stroke-width="0.5"/>
  <line x1="238.0" y1="16" x2="238.0" y2="171" stroke="#e5e7eb" stroke-width="0.5"/>
  <line x1="244.4" y1="16" x2="244.4" y2="171" stroke="#e5e7eb" stroke-width="0.5"/>
  <line x1="250.1" y1="16" x2="250.1" y2="171" stroke="#e5e7eb" stroke-width="0.5"/>
  <line x1="288.4" y1="16" x2="288.4" y2="171" stroke="#e5e7eb" stroke-width="0.5"/>
  <line x1="307.9" y1="16" x2="307.9" y2="171" stroke="#e5e7eb" stroke-width="0.5"/>
  <line x1="321.7" y1="16" x2="321.7" y2="171" stroke="#e5e7eb" stroke-width="0.5"/>
  <line x1="332.4" y1="16" x2="332.4" y2="171" stroke="#e5e7eb" stroke-width="0.5"/>
  <line x1="341.2" y1="16" x2="341.2" y2="171" stroke="#e5e7eb" stroke-width="0.5"/>
  <line x1="348.6" y1="16" x2="348.6" y2="171" stroke="#e5e7eb" stroke-width="0.5"/>
  <line x1="355.0" y1="16" x2="355.0" y2="171" stroke="#e5e7eb" stroke-width="0.5"/>
  <line x1="360.7" y1="16" x2="360.7" y2="171" stroke="#e5e7eb" stroke-width="0.5"/>
  <line x1="399.0" y1="16" x2="399.0" y2="171" stroke="#e5e7eb" stroke-width="0.5"/>
  <line x1="144.6" y1="16" x2="144.6" y2="171" stroke="#e5e7eb" stroke-width="0.5"/>
  <text x="144.6" y="183" text-anchor="middle" font-size="8" fill="#6b7280">100</text>
  <line x1="255.1" y1="16" x2="255.1" y2="171" stroke="#e5e7eb" stroke-width="0.5"/>
  <text x="255.1" y="183" text-anchor="middle" font-size="8" fill="#6b7280">1k</text>
  <line x1="365.7" y1="16" x2="365.7" y2="171" stroke="#e5e7eb" stroke-width="0.5"/>
  <text x="365.7" y="183" text-anchor="middle" font-size="8" fill="#6b7280">10k</text>
  <line x1="34" y1="31.5" x2="399" y2="31.5" stroke="#e5e7eb" stroke-width="0.5"/>
  <line x1="34" y1="62.5" x2="399" y2="62.5" stroke="#e5e7eb" stroke-width="0.5"/>
  <line x1="34" y1="16.0" x2="399" y2="16.0" stroke="#e5e7eb" stroke-width="0.5"/>
  <text x="30" y="19.0" text-anchor="end" font-size="8" fill="#6b7280">+20</text>
  <text x="30" y="50.0" text-anchor="end" font-size="8" fill="#6b7280">0</text>
  <line x1="34" y1="78.0" x2="399" y2="78.0" stroke="#e5e7eb" stroke-width="0.5"/>
  <text x="30" y="81.0" text-anchor="end" font-size="8" fill="#6b7280">-20</text>
  <line x1="34" y1="109.0" x2="399" y2="109.0" stroke="#e5e7eb" stroke-width="0.5"/>
  <text x="30" y="112.0" text-anchor="end" font-size="8" fill="#6b7280">-40</text>
  <line x1="34" y1="140.0" x2="399" y2="140.0" stroke="#e5e7eb" stroke-width="0.5"/>
  <text x="30" y="143.0" text-anchor="end" font-size="8" fill="#6b7280">-60</text>
  <line x1="34" y1="171.0" x2="399" y2="171.0" stroke="#e5e7eb" stroke-width="0.5"/>
  <text x="30" y="174.0" text-anchor="end" font-size="8" fill="#6b7280">-80</text>
  <defs><linearGradient id="g220" x1="0" y1="16" x2="0" y2="171" gradientUnits="userSpaceOnUse">
    <stop offset="0%" stop-color="#4a90d9" stop-opacity="0.15"/>
    <stop offset="100%" stop-color="#4a90d9" stop-opacity="0.02"/>
  </linearGradient></defs>
  <path d="M37.5,46.5 37.5,46.5 70.8,46.8 90.3,47.2 104.1,47.9 114.8,48.7 123.6,49.6 131.0,50.7 137.4,51.9 143.1,53.1 148.1,54.1 152.7,54.7 156.9,55.0 160.7,54.7 164.3,54.0 167.6,53.1 170.7,52.1 173.6,51.1 176.3,50.2 178.9,49.4 181.4,48.8 183.7,48.2 186.0,47.8 188.1,47.4 190.2,47.1 192.1,46.8 194.0,46.6 195.8,46.4 197.6,46.1 199.2,45.9 200.9,45.6 202.4,45.3 204.0,44.9 205.5,44.6 206.9,44.2 208.3,43.8 209.6,43.5 210.9,43.1 212.2,42.8 213.5,42.5 214.7,42.2 215.9,41.9 217.0,41.6 218.2,41.4 219.3,41.2 220.3,41.0 221.4,40.9 222.4,40.7 223.4,40.6 224.4,40.5 225.4,40.5 226.4,40.4 227.3,40.4 228.2,40.4 229.1,40.4 230.0,40.4 230.8,40.4 231.7,40.4 232.5,40.4 233.4,40.3 234.2,40.3 235.7,40.2 237.3,40.0 238.7,39.7 240.2,39.5 241.6,39.2 242.9,38.9 244.2,38.5 245.5,38.2 246.8,37.8 248.0,37.4 249.2,37.1 250.3,36.7 251.4,36.5 252.6,36.3 253.6,36.2 254.7,36.1 255.7,36.1 256.7,36.2 257.7,36.3 258.7,36.5 259.6,36.7 260.6,36.9 261.5,37.1 262.4,37.4 263.3,37.7 264.1,37.9 265.0,38.2 265.8,38.4 266.6,38.6 267.4,38.8 268.6,39.1 269.8,39.4 270.9,39.6 272.0,39.8 273.1,39.9 274.2,40.0 275.2,40.1 276.2,40.2 277.2,40.2 278.2,40.3 279.1,40.3 280.0,40.3 281.0,40.3 281.9,40.3 282.7,40.3 283.6,40.3 284.5,40.3 285.3,40.4 286.1,40.4 286.9,40.4 288.0,40.5 289.0,40.6 290.0,40.8 291.0,40.9 292.0,41.1 292.9,41.3 293.9,41.5 294.8,41.7 295.7,42.0 296.6,42.2 297.4,42.4 298.3,42.6 299.1,42.8 299.9,43.0 300.7,43.2 301.7,43.5 302.7,43.7 303.6,43.9 304.6,44.1 305.5,44.3 306.4,44.4 307.3,44.6 308.1,44.7 309.0,44.9 309.8,45.0 310.6,45.1 311.4,45.3 312.4,45.4 313.3,45.5 314.2,45.7 315.1,45.8 316.0,45.9 316.9,46.0 317.7,46.1 318.6,46.2 319.4,46.3 320.2,46.3 321.1,46.4 322.0,46.5 322.9,46.6 323.8,46.7 324.7,46.8 325.5,46.9 326.3,47.0 327.1,47.1 327.9,47.1 328.8,47.2 329.7,47.3 330.6,47.4 331.4,47.5 332.3,47.6 333.1,47.7 333.9,47.8 334.8,48.0 335.7,48.1 336.5,48.2 337.4,48.3 338.2,48.5 339.0,48.6 339.8,48.7 340.7,48.9 341.6,49.0 342.4,49.2 343.3,49.4 344.1,49.5 344.9,49.7 345.8,49.9 346.6,50.1 347.5,50.3 348.3,50.5 349.1,50.7 350.0,50.8 350.8,51.0 351.7,51.1 352.5,51.3 353.3,51.4 354.1,51.4 355.0,51.4 355.8,51.4 356.6,51.4 357.5,51.3 358.3,51.2 359.1,51.1 360.0,50.9 360.8,50.7 361.6,50.6 362.5,50.4 363.3,50.2 364.1,50.0 364.9,49.8 365.8,49.6 366.6,49.4 367.4,49.2 368.2,49.1 369.1,48.9 369.9,48.8 370.7,48.6 371.6,48.5 372.4,48.4 373.2,48.3 374.0,48.2 374.8,48.1 375.6,48.0 376.5,47.9 377.3,47.8 378.1,47.8 378.9,47.7 379.7,47.6 380.5,47.6 381.4,47.5 382.2,47.5 383.0,47.4 383.8,47.4 384.6,47.4 385.5,47.3 386.3,47.3 387.1,47.3 387.9,47.2 388.7,47.2 389.5,47.2 390.3,47.2 391.2,47.1 392.0,47.1 392.8,47.1 393.6,47.1 394.4,47.1 395.2,47.1 396.0,47.1 396.8,47.0 397.6,47.0 398.5,47.0 L398.5,171.0 L37.5,171.0 Z" fill="url(#g220)"/>
  <defs><clipPath id="pc221"><rect x="34" y="16" width="365" height="155"/></clipPath></defs>
  <polyline points="37.5,46.5 70.8,46.8 90.3,47.2 104.1,47.9 114.8,48.7 123.6,49.6 131.0,50.7 137.4,51.9 143.1,53.1 148.1,54.1 152.7,54.7 156.9,55.0 160.7,54.7 164.3,54.0 167.6,53.1 170.7,52.1 173.6,51.1 176.3,50.2 178.9,49.4 181.4,48.8 183.7,48.2 186.0,47.8 188.1,47.4 190.2,47.1 192.1,46.8 194.0,46.6 195.8,46.4 197.6,46.1 199.2,45.9 200.9,45.6 202.4,45.3 204.0,44.9 205.5,44.6 206.9,44.2 208.3,43.8 209.6,43.5 210.9,43.1 212.2,42.8 213.5,42.5 214.7,42.2 215.9,41.9 217.0,41.6 218.2,41.4 219.3,41.2 220.3,41.0 221.4,40.9 222.4,40.7 223.4,40.6 224.4,40.5 225.4,40.5 226.4,40.4 227.3,40.4 228.2,40.4 229.1,40.4 230.0,40.4 230.8,40.4 231.7,40.4 232.5,40.4 233.4,40.3 234.2,40.3 235.7,40.2 237.3,40.0 238.7,39.7 240.2,39.5 241.6,39.2 242.9,38.9 244.2,38.5 245.5,38.2 246.8,37.8 248.0,37.4 249.2,37.1 250.3,36.7 251.4,36.5 252.6,36.3 253.6,36.2 254.7,36.1 255.7,36.1 256.7,36.2 257.7,36.3 258.7,36.5 259.6,36.7 260.6,36.9 261.5,37.1 262.4,37.4 263.3,37.7 264.1,37.9 265.0,38.2 265.8,38.4 266.6,38.6 267.4,38.8 268.6,39.1 269.8,39.4 270.9,39.6 272.0,39.8 273.1,39.9 274.2,40.0 275.2,40.1 276.2,40.2 277.2,40.2 278.2,40.3 279.1,40.3 280.0,40.3 281.0,40.3 281.9,40.3 282.7,40.3 283.6,40.3 284.5,40.3 285.3,40.4 286.1,40.4 286.9,40.4 288.0,40.5 289.0,40.6 290.0,40.8 291.0,40.9 292.0,41.1 292.9,41.3 293.9,41.5 294.8,41.7 295.7,42.0 296.6,42.2 297.4,42.4 298.3,42.6 299.1,42.8 299.9,43.0 300.7,43.2 301.7,43.5 302.7,43.7 303.6,43.9 304.6,44.1 305.5,44.3 306.4,44.4 307.3,44.6 308.1,44.7 309.0,44.9 309.8,45.0 310.6,45.1 311.4,45.3 312.4,45.4 313.3,45.5 314.2,45.7 315.1,45.8 316.0,45.9 316.9,46.0 317.7,46.1 318.6,46.2 319.4,46.3 320.2,46.3 321.1,46.4 322.0,46.5 322.9,46.6 323.8,46.7 324.7,46.8 325.5,46.9 326.3,47.0 327.1,47.1 327.9,47.1 328.8,47.2 329.7,47.3 330.6,47.4 331.4,47.5 332.3,47.6 333.1,47.7 333.9,47.8 334.8,48.0 335.7,48.1 336.5,48.2 337.4,48.3 338.2,48.5 339.0,48.6 339.8,48.7 340.7,48.9 341.6,49.0 342.4,49.2 343.3,49.4 344.1,49.5 344.9,49.7 345.8,49.9 346.6,50.1 347.5,50.3 348.3,50.5 349.1,50.7 350.0,50.8 350.8,51.0 351.7,51.1 352.5,51.3 353.3,51.4 354.1,51.4 355.0,51.4 355.8,51.4 356.6,51.4 357.5,51.3 358.3,51.2 359.1,51.1 360.0,50.9 360.8,50.7 361.6,50.6 362.5,50.4 363.3,50.2 364.1,50.0 364.9,49.8 365.8,49.6 366.6,49.4 367.4,49.2 368.2,49.1 369.1,48.9 369.9,48.8 370.7,48.6 371.6,48.5 372.4,48.4 373.2,48.3 374.0,48.2 374.8,48.1 375.6,48.0 376.5,47.9 377.3,47.8 378.1,47.8 378.9,47.7 379.7,47.6 380.5,47.6 381.4,47.5 382.2,47.5 383.0,47.4 383.8,47.4 384.6,47.4 385.5,47.3 386.3,47.3 387.1,47.3 387.9,47.2 388.7,47.2 389.5,47.2 390.3,47.2 391.2,47.1 392.0,47.1 392.8,47.1 393.6,47.1 394.4,47.1 395.2,47.1 396.0,47.1 396.8,47.0 397.6,47.0 398.5,47.0" fill="none" stroke="#4a90d9" stroke-width="1.5" stroke-linejoin="round" clip-path="url(#pc221)"/>
  <line x1="435" y1="16" x2="435" y2="171" stroke="#d1d5db"/>
  <line x1="435" y1="93.5" x2="800" y2="93.5" stroke="#d1d5db"/>
  <text x="617.5" y="197" text-anchor="middle" font-size="9" fill="#6b7280">Hz</text>
  <text x="413" y="93.5" text-anchor="middle" font-size="9" fill="#6b7280" transform="rotate(-90 413 93.5)">Phase (deg)</text>
  <line x1="468.3" y1="16" x2="468.3" y2="171" stroke="#e5e7eb" stroke-width="0.5"/>
  <line x1="487.8" y1="16" x2="487.8" y2="171" stroke="#e5e7eb" stroke-width="0.5"/>
  <line x1="501.6" y1="16" x2="501.6" y2="171" stroke="#e5e7eb" stroke-width="0.5"/>
  <line x1="512.3" y1="16" x2="512.3" y2="171" stroke="#e5e7eb" stroke-width="0.5"/>
  <line x1="521.0" y1="16" x2="521.0" y2="171" stroke="#e5e7eb" stroke-width="0.5"/>
  <line x1="528.4" y1="16" x2="528.4" y2="171" stroke="#e5e7eb" stroke-width="0.5"/>
  <line x1="534.9" y1="16" x2="534.9" y2="171" stroke="#e5e7eb" stroke-width="0.5"/>
  <line x1="540.5" y1="16" x2="540.5" y2="171" stroke="#e5e7eb" stroke-width="0.5"/>
  <line x1="578.9" y1="16" x2="578.9" y2="171" stroke="#e5e7eb" stroke-width="0.5"/>
  <line x1="598.3" y1="16" x2="598.3" y2="171" stroke="#e5e7eb" stroke-width="0.5"/>
  <line x1="612.1" y1="16" x2="612.1" y2="171" stroke="#e5e7eb" stroke-width="0.5"/>
  <line x1="622.9" y1="16" x2="622.9" y2="171" stroke="#e5e7eb" stroke-width="0.5"/>
  <line x1="631.6" y1="16" x2="631.6" y2="171" stroke="#e5e7eb" stroke-width="0.5"/>
  <line x1="639.0" y1="16" x2="639.0" y2="171" stroke="#e5e7eb" stroke-width="0.5"/>
  <line x1="645.4" y1="16" x2="645.4" y2="171" stroke="#e5e7eb" stroke-width="0.5"/>
  <line x1="651.1" y1="16" x2="651.1" y2="171" stroke="#e5e7eb" stroke-width="0.5"/>
  <line x1="689.4" y1="16" x2="689.4" y2="171" stroke="#e5e7eb" stroke-width="0.5"/>
  <line x1="708.9" y1="16" x2="708.9" y2="171" stroke="#e5e7eb" stroke-width="0.5"/>
  <line x1="722.7" y1="16" x2="722.7" y2="171" stroke="#e5e7eb" stroke-width="0.5"/>
  <line x1="733.4" y1="16" x2="733.4" y2="171" stroke="#e5e7eb" stroke-width="0.5"/>
  <line x1="742.2" y1="16" x2="742.2" y2="171" stroke="#e5e7eb" stroke-width="0.5"/>
  <line x1="749.6" y1="16" x2="749.6" y2="171" stroke="#e5e7eb" stroke-width="0.5"/>
  <line x1="756.0" y1="16" x2="756.0" y2="171" stroke="#e5e7eb" stroke-width="0.5"/>
  <line x1="761.7" y1="16" x2="761.7" y2="171" stroke="#e5e7eb" stroke-width="0.5"/>
  <line x1="800.0" y1="16" x2="800.0" y2="171" stroke="#e5e7eb" stroke-width="0.5"/>
  <line x1="545.6" y1="16" x2="545.6" y2="171" stroke="#e5e7eb" stroke-width="0.5"/>
  <text x="545.6" y="183" text-anchor="middle" font-size="8" fill="#6b7280">100</text>
  <line x1="656.1" y1="16" x2="656.1" y2="171" stroke="#e5e7eb" stroke-width="0.5"/>
  <text x="656.1" y="183" text-anchor="middle" font-size="8" fill="#6b7280">1k</text>
  <line x1="766.7" y1="16" x2="766.7" y2="171" stroke="#e5e7eb" stroke-width="0.5"/>
  <text x="766.7" y="183" text-anchor="middle" font-size="8" fill="#6b7280">10k</text>
  <line x1="435" y1="58.6" x2="800" y2="58.6" stroke="#e5e7eb" stroke-width="0.5"/>
  <line x1="435" y1="128.4" x2="800" y2="128.4" stroke="#e5e7eb" stroke-width="0.5"/>
  <line x1="435" y1="23.8" x2="800" y2="23.8" stroke="#e5e7eb" stroke-width="0.5"/>
  <text x="431" y="26.8" text-anchor="end" font-size="8" fill="#6b7280">180</text>
  <text x="431" y="96.5" text-anchor="end" font-size="8" fill="#6b7280">0</text>
  <line x1="435" y1="163.3" x2="800" y2="163.3" stroke="#e5e7eb" stroke-width="0.5"/>
  <text x="431" y="166.3" text-anchor="end" font-size="8" fill="#6b7280">-180</text>
  <defs><linearGradient id="g222" x1="0" y1="16" x2="0" y2="93.5" gradientUnits="userSpaceOnUse">
    <stop offset="0%" stop-color="#e74c3c" stop-opacity="0.15"/>
    <stop offset="100%" stop-color="#e74c3c" stop-opacity="0.02"/>
  </linearGradient></defs>
  <defs><linearGradient id="g223" x1="0" y1="171" x2="0" y2="93.5" gradientUnits="userSpaceOnUse">
    <stop offset="0%" stop-color="#e74c3c" stop-opacity="0.15"/>
    <stop offset="100%" stop-color="#e74c3c" stop-opacity="0.02"/>
  </linearGradient></defs>
  <defs><clipPath id="c224"><rect x="435" y="16" width="365" height="77.5"/></clipPath></defs>
  <defs><clipPath id="c225"><rect x="435" y="93.5" width="365" height="77.5"/></clipPath></defs>
  <path d="M438.5,94.6 438.5,94.6 471.8,95.7 491.3,96.7 505.1,97.5 515.8,98.1 524.6,98.4 532.0,98.3 538.4,97.8 544.1,96.6 549.1,94.7 553.7,92.3 557.9,89.6 561.7,87.0 565.3,84.8 568.6,83.1 571.7,81.9 574.6,81.2 577.3,80.9 579.9,80.8 582.4,80.8 584.7,80.9 587.0,81.0 589.1,81.2 591.2,81.3 593.1,81.3 595.0,81.3 596.8,81.2 598.6,81.1 600.2,81.0 601.9,80.9 603.4,80.7 605.0,80.6 606.5,80.6 607.9,80.5 609.3,80.6 610.6,80.7 611.9,80.8 613.2,81.0 614.5,81.2 615.7,81.5 616.9,81.8 618.0,82.1 619.2,82.4 620.3,82.8 621.3,83.1 622.4,83.4 623.4,83.8 624.4,84.1 625.4,84.5 626.4,84.8 627.4,85.1 628.3,85.3 629.2,85.5 630.1,85.7 631.0,85.9 631.8,86.0 632.7,86.1 633.5,86.1 634.4,86.2 635.2,86.2 636.7,86.2 638.3,86.2 639.7,86.2 641.2,86.2 642.6,86.3 643.9,86.5 645.2,86.7 646.5,87.0 647.8,87.3 649.0,87.8 650.2,88.4 651.3,89.1 652.4,89.8 653.6,90.7 654.6,91.5 655.7,92.4 656.7,93.2 657.7,94.0 658.7,94.8 659.7,95.5 660.6,96.2 661.6,96.7 662.5,97.2 663.4,97.6 664.3,98.0 665.1,98.3 666.0,98.5 666.8,98.7 667.6,98.8 668.4,99.0 669.6,99.1 670.8,99.1 671.9,99.1 673.0,99.1 674.1,99.1 675.2,99.1 676.2,99.1 677.2,99.1 678.2,99.1 679.2,99.2 680.1,99.2 681.0,99.3 682.0,99.4 682.9,99.5 683.7,99.7 684.6,99.9 685.5,100.1 686.3,100.4 687.1,100.6 687.9,100.9 689.0,101.2 690.0,101.6 691.0,101.9 692.0,102.2 693.0,102.5 693.9,102.8 694.9,103.0 695.8,103.2 696.7,103.4 697.6,103.5 698.4,103.6 699.3,103.7 700.1,103.8 700.9,103.8 701.7,103.8 702.7,103.8 703.7,103.8 704.6,103.8 705.6,103.7 706.5,103.7 707.4,103.6 708.3,103.5 709.1,103.5 710.0,103.4 710.8,103.3 711.6,103.2 712.4,103.2 713.4,103.1 714.3,103.0 715.2,102.9 716.1,102.8 717.0,102.7 717.9,102.6 718.7,102.6 719.6,102.5 720.4,102.4 721.2,102.4 722.1,102.3 723.0,102.2 723.9,102.1 724.8,102.1 725.7,102.0 726.5,102.0 727.3,101.9 728.1,101.9 728.9,101.8 729.8,101.8 730.7,101.7 731.6,101.7 732.4,101.7 733.3,101.6 734.1,101.6 734.9,101.6 735.8,101.5 736.7,101.5 737.5,101.4 738.4,101.4 739.2,101.3 740.0,101.3 740.8,101.2 741.7,101.1 742.6,101.1 743.4,101.0 744.3,100.8 745.1,100.7 745.9,100.6 746.8,100.4 747.6,100.2 748.5,99.9 749.3,99.7 750.1,99.4 751.0,99.0 751.8,98.6 752.7,98.2 753.5,97.7 754.3,97.2 755.1,96.7 756.0,96.2 756.8,95.6 757.6,95.1 758.5,94.6 759.3,94.1 760.1,93.7 761.0,93.3 761.8,93.0 762.6,92.6 763.5,92.4 764.3,92.1 765.1,92.0 765.9,91.8 766.8,91.7 767.6,91.6 768.4,91.5 769.2,91.5 770.1,91.5 770.9,91.5 771.7,91.5 772.6,91.5 773.4,91.6 774.2,91.6 775.0,91.6 775.8,91.7 776.6,91.7 777.5,91.8 778.3,91.8 779.1,91.9 779.9,92.0 780.7,92.0 781.5,92.1 782.4,92.1 783.2,92.2 784.0,92.2 784.8,92.3 785.6,92.3 786.5,92.4 787.3,92.5 788.1,92.5 788.9,92.6 789.7,92.6 790.5,92.7 791.3,92.7 792.2,92.8 793.0,92.8 793.8,92.9 794.6,92.9 795.4,93.0 796.2,93.0 797.0,93.1 797.8,93.1 798.6,93.2 799.5,93.2 L799.5,93.5 L438.5,93.5 Z" fill="url(#g222)" clip-path="url(#c224)"/>
  <path d="M438.5,94.6 438.5,94.6 471.8,95.7 491.3,96.7 505.1,97.5 515.8,98.1 524.6,98.4 532.0,98.3 538.4,97.8 544.1,96.6 549.1,94.7 553.7,92.3 557.9,89.6 561.7,87.0 565.3,84.8 568.6,83.1 571.7,81.9 574.6,81.2 577.3,80.9 579.9,80.8 582.4,80.8 584.7,80.9 587.0,81.0 589.1,81.2 591.2,81.3 593.1,81.3 595.0,81.3 596.8,81.2 598.6,81.1 600.2,81.0 601.9,80.9 603.4,80.7 605.0,80.6 606.5,80.6 607.9,80.5 609.3,80.6 610.6,80.7 611.9,80.8 613.2,81.0 614.5,81.2 615.7,81.5 616.9,81.8 618.0,82.1 619.2,82.4 620.3,82.8 621.3,83.1 622.4,83.4 623.4,83.8 624.4,84.1 625.4,84.5 626.4,84.8 627.4,85.1 628.3,85.3 629.2,85.5 630.1,85.7 631.0,85.9 631.8,86.0 632.7,86.1 633.5,86.1 634.4,86.2 635.2,86.2 636.7,86.2 638.3,86.2 639.7,86.2 641.2,86.2 642.6,86.3 643.9,86.5 645.2,86.7 646.5,87.0 647.8,87.3 649.0,87.8 650.2,88.4 651.3,89.1 652.4,89.8 653.6,90.7 654.6,91.5 655.7,92.4 656.7,93.2 657.7,94.0 658.7,94.8 659.7,95.5 660.6,96.2 661.6,96.7 662.5,97.2 663.4,97.6 664.3,98.0 665.1,98.3 666.0,98.5 666.8,98.7 667.6,98.8 668.4,99.0 669.6,99.1 670.8,99.1 671.9,99.1 673.0,99.1 674.1,99.1 675.2,99.1 676.2,99.1 677.2,99.1 678.2,99.1 679.2,99.2 680.1,99.2 681.0,99.3 682.0,99.4 682.9,99.5 683.7,99.7 684.6,99.9 685.5,100.1 686.3,100.4 687.1,100.6 687.9,100.9 689.0,101.2 690.0,101.6 691.0,101.9 692.0,102.2 693.0,102.5 693.9,102.8 694.9,103.0 695.8,103.2 696.7,103.4 697.6,103.5 698.4,103.6 699.3,103.7 700.1,103.8 700.9,103.8 701.7,103.8 702.7,103.8 703.7,103.8 704.6,103.8 705.6,103.7 706.5,103.7 707.4,103.6 708.3,103.5 709.1,103.5 710.0,103.4 710.8,103.3 711.6,103.2 712.4,103.2 713.4,103.1 714.3,103.0 715.2,102.9 716.1,102.8 717.0,102.7 717.9,102.6 718.7,102.6 719.6,102.5 720.4,102.4 721.2,102.4 722.1,102.3 723.0,102.2 723.9,102.1 724.8,102.1 725.7,102.0 726.5,102.0 727.3,101.9 728.1,101.9 728.9,101.8 729.8,101.8 730.7,101.7 731.6,101.7 732.4,101.7 733.3,101.6 734.1,101.6 734.9,101.6 735.8,101.5 736.7,101.5 737.5,101.4 738.4,101.4 739.2,101.3 740.0,101.3 740.8,101.2 741.7,101.1 742.6,101.1 743.4,101.0 744.3,100.8 745.1,100.7 745.9,100.6 746.8,100.4 747.6,100.2 748.5,99.9 749.3,99.7 750.1,99.4 751.0,99.0 751.8,98.6 752.7,98.2 753.5,97.7 754.3,97.2 755.1,96.7 756.0,96.2 756.8,95.6 757.6,95.1 758.5,94.6 759.3,94.1 760.1,93.7 761.0,93.3 761.8,93.0 762.6,92.6 763.5,92.4 764.3,92.1 765.1,92.0 765.9,91.8 766.8,91.7 767.6,91.6 768.4,91.5 769.2,91.5 770.1,91.5 770.9,91.5 771.7,91.5 772.6,91.5 773.4,91.6 774.2,91.6 775.0,91.6 775.8,91.7 776.6,91.7 777.5,91.8 778.3,91.8 779.1,91.9 779.9,92.0 780.7,92.0 781.5,92.1 782.4,92.1 783.2,92.2 784.0,92.2 784.8,92.3 785.6,92.3 786.5,92.4 787.3,92.5 788.1,92.5 788.9,92.6 789.7,92.6 790.5,92.7 791.3,92.7 792.2,92.8 793.0,92.8 793.8,92.9 794.6,92.9 795.4,93.0 796.2,93.0 797.0,93.1 797.8,93.1 798.6,93.2 799.5,93.2 L799.5,93.5 L438.5,93.5 Z" fill="url(#g223)" clip-path="url(#c225)"/>
  <defs><clipPath id="pc226"><rect x="435" y="16" width="365" height="155"/></clipPath></defs>
  <polyline points="438.5,94.6 471.8,95.7 491.3,96.7 505.1,97.5 515.8,98.1 524.6,98.4 532.0,98.3 538.4,97.8 544.1,96.6 549.1,94.7 553.7,92.3 557.9,89.6 561.7,87.0 565.3,84.8 568.6,83.1 571.7,81.9 574.6,81.2 577.3,80.9 579.9,80.8 582.4,80.8 584.7,80.9 587.0,81.0 589.1,81.2 591.2,81.3 593.1,81.3 595.0,81.3 596.8,81.2 598.6,81.1 600.2,81.0 601.9,80.9 603.4,80.7 605.0,80.6 606.5,80.6 607.9,80.5 609.3,80.6 610.6,80.7 611.9,80.8 613.2,81.0 614.5,81.2 615.7,81.5 616.9,81.8 618.0,82.1 619.2,82.4 620.3,82.8 621.3,83.1 622.4,83.4 623.4,83.8 624.4,84.1 625.4,84.5 626.4,84.8 627.4,85.1 628.3,85.3 629.2,85.5 630.1,85.7 631.0,85.9 631.8,86.0 632.7,86.1 633.5,86.1 634.4,86.2 635.2,86.2 636.7,86.2 638.3,86.2 639.7,86.2 641.2,86.2 642.6,86.3 643.9,86.5 645.2,86.7 646.5,87.0 647.8,87.3 649.0,87.8 650.2,88.4 651.3,89.1 652.4,89.8 653.6,90.7 654.6,91.5 655.7,92.4 656.7,93.2 657.7,94.0 658.7,94.8 659.7,95.5 660.6,96.2 661.6,96.7 662.5,97.2 663.4,97.6 664.3,98.0 665.1,98.3 666.0,98.5 666.8,98.7 667.6,98.8 668.4,99.0 669.6,99.1 670.8,99.1 671.9,99.1 673.0,99.1 674.1,99.1 675.2,99.1 676.2,99.1 677.2,99.1 678.2,99.1 679.2,99.2 680.1,99.2 681.0,99.3 682.0,99.4 682.9,99.5 683.7,99.7 684.6,99.9 685.5,100.1 686.3,100.4 687.1,100.6 687.9,100.9 689.0,101.2 690.0,101.6 691.0,101.9 692.0,102.2 693.0,102.5 693.9,102.8 694.9,103.0 695.8,103.2 696.7,103.4 697.6,103.5 698.4,103.6 699.3,103.7 700.1,103.8 700.9,103.8 701.7,103.8 702.7,103.8 703.7,103.8 704.6,103.8 705.6,103.7 706.5,103.7 707.4,103.6 708.3,103.5 709.1,103.5 710.0,103.4 710.8,103.3 711.6,103.2 712.4,103.2 713.4,103.1 714.3,103.0 715.2,102.9 716.1,102.8 717.0,102.7 717.9,102.6 718.7,102.6 719.6,102.5 720.4,102.4 721.2,102.4 722.1,102.3 723.0,102.2 723.9,102.1 724.8,102.1 725.7,102.0 726.5,102.0 727.3,101.9 728.1,101.9 728.9,101.8 729.8,101.8 730.7,101.7 731.6,101.7 732.4,101.7 733.3,101.6 734.1,101.6 734.9,101.6 735.8,101.5 736.7,101.5 737.5,101.4 738.4,101.4 739.2,101.3 740.0,101.3 740.8,101.2 741.7,101.1 742.6,101.1 743.4,101.0 744.3,100.8 745.1,100.7 745.9,100.6 746.8,100.4 747.6,100.2 748.5,99.9 749.3,99.7 750.1,99.4 751.0,99.0 751.8,98.6 752.7,98.2 753.5,97.7 754.3,97.2 755.1,96.7 756.0,96.2 756.8,95.6 757.6,95.1 758.5,94.6 759.3,94.1 760.1,93.7 761.0,93.3 761.8,93.0 762.6,92.6 763.5,92.4 764.3,92.1 765.1,92.0 765.9,91.8 766.8,91.7 767.6,91.6 768.4,91.5 769.2,91.5 770.1,91.5 770.9,91.5 771.7,91.5 772.6,91.5 773.4,91.6 774.2,91.6 775.0,91.6 775.8,91.7 776.6,91.7 777.5,91.8 778.3,91.8 779.1,91.9 779.9,92.0 780.7,92.0 781.5,92.1 782.4,92.1 783.2,92.2 784.0,92.2 784.8,92.3 785.6,92.3 786.5,92.4 787.3,92.5 788.1,92.5 788.9,92.6 789.7,92.6 790.5,92.7 791.3,92.7 792.2,92.8 793.0,92.8 793.8,92.9 794.6,92.9 795.4,93.0 796.2,93.0 797.0,93.1 797.8,93.1 798.6,93.2 799.5,93.2" fill="none" stroke="#e74c3c" stroke-width="1.5" stroke-linejoin="round" clip-path="url(#pc226)"/>
  <line x1="34" y1="207" x2="34" y2="362" stroke="#d1d5db"/>
  <line x1="34" y1="284.5" x2="399" y2="284.5" stroke="#d1d5db"/>
  <text x="216.5" y="388" text-anchor="middle" font-size="9" fill="#6b7280">Hz</text>
  <text x="12" y="284.5" text-anchor="middle" font-size="9" fill="#6b7280" transform="rotate(-90 12 284.5)">Group delay</text>
  <line x1="67.3" y1="207" x2="67.3" y2="362" stroke="#e5e7eb" stroke-width="0.5"/>
  <line x1="86.8" y1="207" x2="86.8" y2="362" stroke="#e5e7eb" stroke-width="0.5"/>
  <line x1="100.6" y1="207" x2="100.6" y2="362" stroke="#e5e7eb" stroke-width="0.5"/>
  <line x1="111.3" y1="207" x2="111.3" y2="362" stroke="#e5e7eb" stroke-width="0.5"/>
  <line x1="120.0" y1="207" x2="120.0" y2="362" stroke="#e5e7eb" stroke-width="0.5"/>
  <line x1="127.4" y1="207" x2="127.4" y2="362" stroke="#e5e7eb" stroke-width="0.5"/>
  <line x1="133.9" y1="207" x2="133.9" y2="362" stroke="#e5e7eb" stroke-width="0.5"/>
  <line x1="139.5" y1="207" x2="139.5" y2="362" stroke="#e5e7eb" stroke-width="0.5"/>
  <line x1="177.9" y1="207" x2="177.9" y2="362" stroke="#e5e7eb" stroke-width="0.5"/>
  <line x1="197.3" y1="207" x2="197.3" y2="362" stroke="#e5e7eb" stroke-width="0.5"/>
  <line x1="211.1" y1="207" x2="211.1" y2="362" stroke="#e5e7eb" stroke-width="0.5"/>
  <line x1="221.9" y1="207" x2="221.9" y2="362" stroke="#e5e7eb" stroke-width="0.5"/>
  <line x1="230.6" y1="207" x2="230.6" y2="362" stroke="#e5e7eb" stroke-width="0.5"/>
  <line x1="238.0" y1="207" x2="238.0" y2="362" stroke="#e5e7eb" stroke-width="0.5"/>
  <line x1="244.4" y1="207" x2="244.4" y2="362" stroke="#e5e7eb" stroke-width="0.5"/>
  <line x1="250.1" y1="207" x2="250.1" y2="362" stroke="#e5e7eb" stroke-width="0.5"/>
  <line x1="288.4" y1="207" x2="288.4" y2="362" stroke="#e5e7eb" stroke-width="0.5"/>
  <line x1="307.9" y1="207" x2="307.9" y2="362" stroke="#e5e7eb" stroke-width="0.5"/>
  <line x1="321.7" y1="207" x2="321.7" y2="362" stroke="#e5e7eb" stroke-width="0.5"/>
  <line x1="332.4" y1="207" x2="332.4" y2="362" stroke="#e5e7eb" stroke-width="0.5"/>
  <line x1="341.2" y1="207" x2="341.2" y2="362" stroke="#e5e7eb" stroke-width="0.5"/>
  <line x1="348.6" y1="207" x2="348.6" y2="362" stroke="#e5e7eb" stroke-width="0.5"/>
  <line x1="355.0" y1="207" x2="355.0" y2="362" stroke="#e5e7eb" stroke-width="0.5"/>
  <line x1="360.7" y1="207" x2="360.7" y2="362" stroke="#e5e7eb" stroke-width="0.5"/>
  <line x1="399.0" y1="207" x2="399.0" y2="362" stroke="#e5e7eb" stroke-width="0.5"/>
  <line x1="144.6" y1="207" x2="144.6" y2="362" stroke="#e5e7eb" stroke-width="0.5"/>
  <text x="144.6" y="374" text-anchor="middle" font-size="8" fill="#6b7280">100</text>
  <line x1="255.1" y1="207" x2="255.1" y2="362" stroke="#e5e7eb" stroke-width="0.5"/>
  <text x="255.1" y="374" text-anchor="middle" font-size="8" fill="#6b7280">1k</text>
  <line x1="365.7" y1="207" x2="365.7" y2="362" stroke="#e5e7eb" stroke-width="0.5"/>
  <text x="365.7" y="374" text-anchor="middle" font-size="8" fill="#6b7280">10k</text>
  <line x1="34" y1="330.2" x2="399" y2="330.2" stroke="#e5e7eb" stroke-width="0.5"/>
  <text x="30" y="333.2" text-anchor="end" font-size="8" fill="#6b7280">-60</text>
  <text x="30" y="287.5" text-anchor="end" font-size="8" fill="#6b7280">0</text>
  <line x1="34" y1="238.8" x2="399" y2="238.8" stroke="#e5e7eb" stroke-width="0.5"/>
  <text x="30" y="241.8" text-anchor="end" font-size="8" fill="#6b7280">60</text>
  <defs><linearGradient id="g227" x1="0" y1="207" x2="0" y2="284.5" gradientUnits="userSpaceOnUse">
    <stop offset="0%" stop-color="#2ecc71" stop-opacity="0.15"/>
    <stop offset="100%" stop-color="#2ecc71" stop-opacity="0.02"/>
  </linearGradient></defs>
  <defs><linearGradient id="g228" x1="0" y1="362" x2="0" y2="284.5" gradientUnits="userSpaceOnUse">
    <stop offset="0%" stop-color="#2ecc71" stop-opacity="0.15"/>
    <stop offset="100%" stop-color="#2ecc71" stop-opacity="0.02"/>
  </linearGradient></defs>
  <defs><clipPath id="c229"><rect x="34" y="207" width="365" height="77.5"/></clipPath></defs>
  <defs><clipPath id="c230"><rect x="34" y="284.5" width="365" height="77.5"/></clipPath></defs>
  <path d="M37.5,260.1 37.5,260.1 70.8,261.6 90.3,264.4 104.1,268.4 114.8,274.2 123.6,281.9 131.0,291.9 137.4,304.3 143.1,318.3 148.1,331.9 152.7,341.6 156.9,344.1 160.7,338.8 164.3,328.2 167.6,316.0 170.7,305.0 173.6,296.2 176.3,289.8 178.9,285.5 181.4,283.0 183.7,281.7 186.0,281.4 188.1,281.9 190.2,282.9 192.1,284.0 194.0,285.3 195.8,286.4 197.6,287.2 199.2,287.6 200.9,287.6 202.4,287.2 204.0,286.4 205.5,285.4 206.9,284.3 208.3,283.1 209.6,282.0 210.9,280.9 212.2,279.9 213.5,279.1 214.7,278.4 215.9,277.8 217.0,277.3 218.2,277.0 219.3,276.8 220.3,276.7 221.4,276.7 222.4,276.8 223.4,277.1 224.4,277.4 225.4,277.9 226.4,278.5 227.3,279.1 228.2,279.9 229.1,280.7 230.0,281.4 230.8,282.2 231.7,282.9 232.5,283.5 233.4,284.0 234.2,284.4 235.7,284.7 237.3,284.5 238.7,284.1 240.2,283.6 241.6,283.1 242.9,282.5 244.2,281.8 245.5,280.9 246.8,279.8 248.0,278.6 249.2,277.4 250.3,276.4 251.4,275.7 252.6,275.2 253.6,275.0 254.7,275.0 255.7,275.2 256.7,275.6 257.7,276.1 258.7,276.8 259.6,277.6 260.6,278.5 261.5,279.4 262.4,280.3 263.3,281.0 264.1,281.7 265.0,282.1 265.8,282.6 266.6,283.0 267.4,283.4 268.6,284.0 269.8,284.3 270.9,284.5 272.0,284.5 273.1,284.5 274.2,284.6 275.2,284.6 276.2,284.5 277.2,284.3 278.2,284.1 279.1,283.9 280.0,283.8 281.0,283.6 281.9,283.3 282.7,283.1 283.6,282.9 284.5,282.9 285.3,282.8 286.1,282.6 286.9,282.5 288.0,282.5 289.0,282.6 290.0,282.7 291.0,282.7 292.0,282.9 292.9,283.1 293.9,283.3 294.8,283.4 295.7,283.6 296.6,283.9 297.4,284.0 298.3,284.1 299.1,284.2 299.9,284.4 300.7,284.5 301.7,284.5 302.7,284.6 303.6,284.8 304.6,284.7 305.5,284.7 306.4,284.9 307.3,284.8 308.1,284.8 309.0,284.9 309.8,284.9 310.6,284.8 311.4,284.9 312.4,284.8 313.3,284.8 314.2,284.9 315.1,284.8 316.0,284.8 316.9,284.8 317.7,284.7 318.6,284.8 319.4,284.8 320.2,284.7 321.1,284.8 322.0,284.7 322.9,284.8 323.8,284.6 324.7,284.7 325.5,284.7 326.3,284.6 327.1,284.7 327.9,284.6 328.8,284.7 329.7,284.6 330.6,284.7 331.4,284.6 332.3,284.7 333.1,284.6 333.9,284.6 334.8,284.6 335.7,284.6 336.5,284.6 337.4,284.6 338.2,284.7 339.0,284.6 339.8,284.7 340.7,284.6 341.6,284.7 342.4,284.8 343.3,284.7 344.1,284.8 344.9,284.8 345.8,284.9 346.6,285.0 347.5,285.0 348.3,285.0 349.1,285.2 350.0,285.3 350.8,285.3 351.7,285.3 352.5,285.4 353.3,285.4 354.1,285.4 355.0,285.4 355.8,285.4 356.6,285.4 357.5,285.4 358.3,285.3 359.1,285.2 360.0,285.1 360.8,285.0 361.6,284.9 362.5,284.8 363.3,284.8 364.1,284.7 364.9,284.7 365.8,284.6 366.6,284.6 367.4,284.6 368.2,284.5 369.1,284.5 369.9,284.5 370.7,284.5 371.6,284.5 372.4,284.5 373.2,284.5 374.0,284.5 374.8,284.4 375.6,284.4 376.5,284.4 377.3,284.5 378.1,284.4 378.9,284.4 379.7,284.5 380.5,284.5 381.4,284.4 382.2,284.5 383.0,284.4 383.8,284.4 384.6,284.5 385.5,284.4 386.3,284.5 387.1,284.4 387.9,284.5 388.7,284.5 389.5,284.4 390.3,284.5 391.2,284.5 392.0,284.4 392.8,284.5 393.6,284.5 394.4,284.4 395.2,284.5 396.0,284.5 396.8,284.5 397.6,284.5 398.5,284.5 L398.5,284.5 L37.5,284.5 Z" fill="url(#g227)" clip-path="url(#c229)"/>
  <path d="M37.5,260.1 37.5,260.1 70.8,261.6 90.3,264.4 104.1,268.4 114.8,274.2 123.6,281.9 131.0,291.9 137.4,304.3 143.1,318.3 148.1,331.9 152.7,341.6 156.9,344.1 160.7,338.8 164.3,328.2 167.6,316.0 170.7,305.0 173.6,296.2 176.3,289.8 178.9,285.5 181.4,283.0 183.7,281.7 186.0,281.4 188.1,281.9 190.2,282.9 192.1,284.0 194.0,285.3 195.8,286.4 197.6,287.2 199.2,287.6 200.9,287.6 202.4,287.2 204.0,286.4 205.5,285.4 206.9,284.3 208.3,283.1 209.6,282.0 210.9,280.9 212.2,279.9 213.5,279.1 214.7,278.4 215.9,277.8 217.0,277.3 218.2,277.0 219.3,276.8 220.3,276.7 221.4,276.7 222.4,276.8 223.4,277.1 224.4,277.4 225.4,277.9 226.4,278.5 227.3,279.1 228.2,279.9 229.1,280.7 230.0,281.4 230.8,282.2 231.7,282.9 232.5,283.5 233.4,284.0 234.2,284.4 235.7,284.7 237.3,284.5 238.7,284.1 240.2,283.6 241.6,283.1 242.9,282.5 244.2,281.8 245.5,280.9 246.8,279.8 248.0,278.6 249.2,277.4 250.3,276.4 251.4,275.7 252.6,275.2 253.6,275.0 254.7,275.0 255.7,275.2 256.7,275.6 257.7,276.1 258.7,276.8 259.6,277.6 260.6,278.5 261.5,279.4 262.4,280.3 263.3,281.0 264.1,281.7 265.0,282.1 265.8,282.6 266.6,283.0 267.4,283.4 268.6,284.0 269.8,284.3 270.9,284.5 272.0,284.5 273.1,284.5 274.2,284.6 275.2,284.6 276.2,284.5 277.2,284.3 278.2,284.1 279.1,283.9 280.0,283.8 281.0,283.6 281.9,283.3 282.7,283.1 283.6,282.9 284.5,282.9 285.3,282.8 286.1,282.6 286.9,282.5 288.0,282.5 289.0,282.6 290.0,282.7 291.0,282.7 292.0,282.9 292.9,283.1 293.9,283.3 294.8,283.4 295.7,283.6 296.6,283.9 297.4,284.0 298.3,284.1 299.1,284.2 299.9,284.4 300.7,284.5 301.7,284.5 302.7,284.6 303.6,284.8 304.6,284.7 305.5,284.7 306.4,284.9 307.3,284.8 308.1,284.8 309.0,284.9 309.8,284.9 310.6,284.8 311.4,284.9 312.4,284.8 313.3,284.8 314.2,284.9 315.1,284.8 316.0,284.8 316.9,284.8 317.7,284.7 318.6,284.8 319.4,284.8 320.2,284.7 321.1,284.8 322.0,284.7 322.9,284.8 323.8,284.6 324.7,284.7 325.5,284.7 326.3,284.6 327.1,284.7 327.9,284.6 328.8,284.7 329.7,284.6 330.6,284.7 331.4,284.6 332.3,284.7 333.1,284.6 333.9,284.6 334.8,284.6 335.7,284.6 336.5,284.6 337.4,284.6 338.2,284.7 339.0,284.6 339.8,284.7 340.7,284.6 341.6,284.7 342.4,284.8 343.3,284.7 344.1,284.8 344.9,284.8 345.8,284.9 346.6,285.0 347.5,285.0 348.3,285.0 349.1,285.2 350.0,285.3 350.8,285.3 351.7,285.3 352.5,285.4 353.3,285.4 354.1,285.4 355.0,285.4 355.8,285.4 356.6,285.4 357.5,285.4 358.3,285.3 359.1,285.2 360.0,285.1 360.8,285.0 361.6,284.9 362.5,284.8 363.3,284.8 364.1,284.7 364.9,284.7 365.8,284.6 366.6,284.6 367.4,284.6 368.2,284.5 369.1,284.5 369.9,284.5 370.7,284.5 371.6,284.5 372.4,284.5 373.2,284.5 374.0,284.5 374.8,284.4 375.6,284.4 376.5,284.4 377.3,284.5 378.1,284.4 378.9,284.4 379.7,284.5 380.5,284.5 381.4,284.4 382.2,284.5 383.0,284.4 383.8,284.4 384.6,284.5 385.5,284.4 386.3,284.5 387.1,284.4 387.9,284.5 388.7,284.5 389.5,284.4 390.3,284.5 391.2,284.5 392.0,284.4 392.8,284.5 393.6,284.5 394.4,284.4 395.2,284.5 396.0,284.5 396.8,284.5 397.6,284.5 398.5,284.5 L398.5,284.5 L37.5,284.5 Z" fill="url(#g228)" clip-path="url(#c230)"/>
  <defs><clipPath id="pc231"><rect x="34" y="207" width="365" height="155"/></clipPath></defs>
  <polyline points="37.5,260.1 70.8,261.6 90.3,264.4 104.1,268.4 114.8,274.2 123.6,281.9 131.0,291.9 137.4,304.3 143.1,318.3 148.1,331.9 152.7,341.6 156.9,344.1 160.7,338.8 164.3,328.2 167.6,316.0 170.7,305.0 173.6,296.2 176.3,289.8 178.9,285.5 181.4,283.0 183.7,281.7 186.0,281.4 188.1,281.9 190.2,282.9 192.1,284.0 194.0,285.3 195.8,286.4 197.6,287.2 199.2,287.6 200.9,287.6 202.4,287.2 204.0,286.4 205.5,285.4 206.9,284.3 208.3,283.1 209.6,282.0 210.9,280.9 212.2,279.9 213.5,279.1 214.7,278.4 215.9,277.8 217.0,277.3 218.2,277.0 219.3,276.8 220.3,276.7 221.4,276.7 222.4,276.8 223.4,277.1 224.4,277.4 225.4,277.9 226.4,278.5 227.3,279.1 228.2,279.9 229.1,280.7 230.0,281.4 230.8,282.2 231.7,282.9 232.5,283.5 233.4,284.0 234.2,284.4 235.7,284.7 237.3,284.5 238.7,284.1 240.2,283.6 241.6,283.1 242.9,282.5 244.2,281.8 245.5,280.9 246.8,279.8 248.0,278.6 249.2,277.4 250.3,276.4 251.4,275.7 252.6,275.2 253.6,275.0 254.7,275.0 255.7,275.2 256.7,275.6 257.7,276.1 258.7,276.8 259.6,277.6 260.6,278.5 261.5,279.4 262.4,280.3 263.3,281.0 264.1,281.7 265.0,282.1 265.8,282.6 266.6,283.0 267.4,283.4 268.6,284.0 269.8,284.3 270.9,284.5 272.0,284.5 273.1,284.5 274.2,284.6 275.2,284.6 276.2,284.5 277.2,284.3 278.2,284.1 279.1,283.9 280.0,283.8 281.0,283.6 281.9,283.3 282.7,283.1 283.6,282.9 284.5,282.9 285.3,282.8 286.1,282.6 286.9,282.5 288.0,282.5 289.0,282.6 290.0,282.7 291.0,282.7 292.0,282.9 292.9,283.1 293.9,283.3 294.8,283.4 295.7,283.6 296.6,283.9 297.4,284.0 298.3,284.1 299.1,284.2 299.9,284.4 300.7,284.5 301.7,284.5 302.7,284.6 303.6,284.8 304.6,284.7 305.5,284.7 306.4,284.9 307.3,284.8 308.1,284.8 309.0,284.9 309.8,284.9 310.6,284.8 311.4,284.9 312.4,284.8 313.3,284.8 314.2,284.9 315.1,284.8 316.0,284.8 316.9,284.8 317.7,284.7 318.6,284.8 319.4,284.8 320.2,284.7 321.1,284.8 322.0,284.7 322.9,284.8 323.8,284.6 324.7,284.7 325.5,284.7 326.3,284.6 327.1,284.7 327.9,284.6 328.8,284.7 329.7,284.6 330.6,284.7 331.4,284.6 332.3,284.7 333.1,284.6 333.9,284.6 334.8,284.6 335.7,284.6 336.5,284.6 337.4,284.6 338.2,284.7 339.0,284.6 339.8,284.7 340.7,284.6 341.6,284.7 342.4,284.8 343.3,284.7 344.1,284.8 344.9,284.8 345.8,284.9 346.6,285.0 347.5,285.0 348.3,285.0 349.1,285.2 350.0,285.3 350.8,285.3 351.7,285.3 352.5,285.4 353.3,285.4 354.1,285.4 355.0,285.4 355.8,285.4 356.6,285.4 357.5,285.4 358.3,285.3 359.1,285.2 360.0,285.1 360.8,285.0 361.6,284.9 362.5,284.8 363.3,284.8 364.1,284.7 364.9,284.7 365.8,284.6 366.6,284.6 367.4,284.6 368.2,284.5 369.1,284.5 369.9,284.5 370.7,284.5 371.6,284.5 372.4,284.5 373.2,284.5 374.0,284.5 374.8,284.4 375.6,284.4 376.5,284.4 377.3,284.5 378.1,284.4 378.9,284.4 379.7,284.5 380.5,284.5 381.4,284.4 382.2,284.5 383.0,284.4 383.8,284.4 384.6,284.5 385.5,284.4 386.3,284.5 387.1,284.4 387.9,284.5 388.7,284.5 389.5,284.4 390.3,284.5 391.2,284.5 392.0,284.4 392.8,284.5 393.6,284.5 394.4,284.4 395.2,284.5 396.0,284.5 396.8,284.5 397.6,284.5 398.5,284.5" fill="none" stroke="#2ecc71" stroke-width="1.5" stroke-linejoin="round" clip-path="url(#pc231)"/>
  <line x1="435" y1="207" x2="435" y2="362" stroke="#d1d5db"/>
  <line x1="435" y1="284.5" x2="800" y2="284.5" stroke="#d1d5db"/>
  <text x="617.5" y="388" text-anchor="middle" font-size="9" fill="#6b7280">Samples</text>
  <text x="413" y="284.5" text-anchor="middle" font-size="9" fill="#6b7280" transform="rotate(-90 413 284.5)">Impulse response</text>
  <line x1="435.0" y1="207" x2="435.0" y2="362" stroke="#e5e7eb" stroke-width="0.5"/>
  <text x="435.0" y="374" text-anchor="middle" font-size="8" fill="#6b7280">0</text>
  <line x1="563.3" y1="207" x2="563.3" y2="362" stroke="#e5e7eb" stroke-width="0.5"/>
  <text x="563.3" y="374" text-anchor="middle" font-size="8" fill="#6b7280">90</text>
  <line x1="691.6" y1="207" x2="691.6" y2="362" stroke="#e5e7eb" stroke-width="0.5"/>
  <text x="691.6" y="374" text-anchor="middle" font-size="8" fill="#6b7280">180</text>
  <line x1="435" y1="339.6" x2="800" y2="339.6" stroke="#e5e7eb" stroke-width="0.5"/>
  <text x="431" y="342.6" text-anchor="end" font-size="8" fill="#6b7280">-0.7</text>
  <text x="431" y="287.5" text-anchor="end" font-size="8" fill="#6b7280">0</text>
  <line x1="435" y1="229.4" x2="800" y2="229.4" stroke="#e5e7eb" stroke-width="0.5"/>
  <text x="431" y="232.4" text-anchor="end" font-size="8" fill="#6b7280">0.7</text>
  <defs><linearGradient id="g232" x1="0" y1="207" x2="0" y2="284.5" gradientUnits="userSpaceOnUse">
    <stop offset="0%" stop-color="#f39c12" stop-opacity="0.15"/>
    <stop offset="100%" stop-color="#f39c12" stop-opacity="0.02"/>
  </linearGradient></defs>
  <defs><linearGradient id="g233" x1="0" y1="362" x2="0" y2="284.5" gradientUnits="userSpaceOnUse">
    <stop offset="0%" stop-color="#f39c12" stop-opacity="0.15"/>
    <stop offset="100%" stop-color="#f39c12" stop-opacity="0.02"/>
  </linearGradient></defs>
  <defs><clipPath id="c234"><rect x="435" y="207" width="365" height="77.5"/></clipPath></defs>
  <defs><clipPath id="c235"><rect x="435" y="284.5" width="365" height="77.5"/></clipPath></defs>
  <path d="M435.0,207.0 435.0,207.0 436.4,278.8 437.9,269.2 439.3,270.9 440.7,277.6 442.1,282.4 443.6,283.8 445.0,283.9 446.4,284.6 447.8,286.0 449.3,287.5 450.7,288.3 452.1,288.7 453.5,288.8 455.0,288.9 456.4,288.8 457.8,288.7 459.2,288.5 460.7,288.3 462.1,288.0 463.5,287.8 464.9,287.5 466.4,287.4 467.8,287.2 469.2,287.0 470.6,286.9 472.1,286.8 473.5,286.6 474.9,286.5 476.3,286.3 477.8,286.2 479.2,286.0 480.6,285.7 482.1,285.5 483.5,285.3 484.9,285.0 486.3,284.8 487.8,284.6 489.2,284.3 490.6,284.2 492.0,284.0 493.5,283.9 494.9,283.8 496.3,283.7 497.7,283.7 499.2,283.7 500.6,283.8 502.0,283.8 503.4,283.9 504.9,284.0 506.3,284.1 507.7,284.2 509.1,284.3 510.6,284.5 512.0,284.6 513.4,284.6 514.8,284.7 516.3,284.8 517.7,284.8 519.1,284.9 520.5,284.9 522.0,284.9 523.4,284.9 524.8,284.9 526.3,284.9 527.7,284.8 529.1,284.8 530.5,284.8 532.0,284.7 533.4,284.6 534.8,284.6 536.2,284.5 537.7,284.5 539.1,284.4 540.5,284.3 541.9,284.3 543.4,284.2 544.8,284.2 546.2,284.1 547.6,284.1 549.1,284.0 550.5,284.0 551.9,283.9 553.3,283.9 554.8,283.9 556.2,283.9 557.6,283.9 559.0,283.9 560.5,283.9 561.9,283.9 563.3,283.9 564.7,284.0 566.2,284.0 567.6,284.0 569.0,284.1 570.4,284.1 571.9,284.1 573.3,284.2 574.7,284.2 576.2,284.2 577.6,284.3 579.0,284.3 580.4,284.3 581.9,284.4 583.3,284.4 584.7,284.4 586.1,284.4 587.6,284.4 589.0,284.5 590.4,284.5 591.8,284.5 593.3,284.5 594.7,284.5 596.1,284.5 597.5,284.5 599.0,284.5 600.4,284.5 601.8,284.5 603.2,284.4 604.7,284.4 606.1,284.4 607.5,284.4 608.9,284.4 610.4,284.4 611.8,284.4 613.2,284.4 614.6,284.4 616.1,284.4 617.5,284.3 618.9,284.3 620.4,284.3 621.8,284.3 623.2,284.3 624.6,284.3 626.1,284.3 627.5,284.3 628.9,284.3 630.3,284.3 631.8,284.3 633.2,284.3 634.6,284.3 636.0,284.3 637.5,284.3 638.9,284.3 640.3,284.3 641.7,284.3 643.2,284.3 644.6,284.3 646.0,284.3 647.4,284.3 648.9,284.3 650.3,284.3 651.7,284.3 653.1,284.3 654.6,284.3 656.0,284.3 657.4,284.3 658.8,284.3 660.3,284.3 661.7,284.3 663.1,284.3 664.6,284.3 666.0,284.3 667.4,284.3 668.8,284.3 670.3,284.3 671.7,284.3 673.1,284.3 674.5,284.3 676.0,284.3 677.4,284.3 678.8,284.3 680.2,284.3 681.7,284.3 683.1,284.3 684.5,284.3 685.9,284.3 687.4,284.3 688.8,284.3 690.2,284.3 691.6,284.3 693.1,284.3 694.5,284.3 695.9,284.3 697.3,284.3 698.8,284.3 700.2,284.3 701.6,284.3 703.0,284.4 704.5,284.4 705.9,284.4 707.3,284.4 708.8,284.4 710.2,284.4 711.6,284.4 713.0,284.4 714.5,284.4 715.9,284.4 717.3,284.4 718.7,284.4 720.2,284.4 721.6,284.4 723.0,284.4 724.4,284.4 725.9,284.4 727.3,284.4 728.7,284.4 730.1,284.4 731.6,284.4 733.0,284.4 734.4,284.4 735.8,284.4 737.3,284.4 738.7,284.4 740.1,284.4 741.5,284.4 743.0,284.4 744.4,284.4 745.8,284.4 747.2,284.4 748.7,284.4 750.1,284.4 751.5,284.4 752.9,284.5 754.4,284.5 755.8,284.5 757.2,284.5 758.7,284.5 760.1,284.5 761.5,284.5 762.9,284.5 764.4,284.5 765.8,284.5 767.2,284.5 768.6,284.5 770.1,284.5 771.5,284.5 772.9,284.5 774.3,284.5 775.8,284.5 777.2,284.5 778.6,284.5 780.0,284.5 781.5,284.5 782.9,284.5 784.3,284.5 785.7,284.5 787.2,284.5 788.6,284.5 790.0,284.5 791.4,284.5 792.9,284.5 794.3,284.5 795.7,284.5 797.1,284.5 798.6,284.5 L798.6,284.5 L435.0,284.5 Z" fill="url(#g232)" clip-path="url(#c234)"/>
  <path d="M435.0,207.0 435.0,207.0 436.4,278.8 437.9,269.2 439.3,270.9 440.7,277.6 442.1,282.4 443.6,283.8 445.0,283.9 446.4,284.6 447.8,286.0 449.3,287.5 450.7,288.3 452.1,288.7 453.5,288.8 455.0,288.9 456.4,288.8 457.8,288.7 459.2,288.5 460.7,288.3 462.1,288.0 463.5,287.8 464.9,287.5 466.4,287.4 467.8,287.2 469.2,287.0 470.6,286.9 472.1,286.8 473.5,286.6 474.9,286.5 476.3,286.3 477.8,286.2 479.2,286.0 480.6,285.7 482.1,285.5 483.5,285.3 484.9,285.0 486.3,284.8 487.8,284.6 489.2,284.3 490.6,284.2 492.0,284.0 493.5,283.9 494.9,283.8 496.3,283.7 497.7,283.7 499.2,283.7 500.6,283.8 502.0,283.8 503.4,283.9 504.9,284.0 506.3,284.1 507.7,284.2 509.1,284.3 510.6,284.5 512.0,284.6 513.4,284.6 514.8,284.7 516.3,284.8 517.7,284.8 519.1,284.9 520.5,284.9 522.0,284.9 523.4,284.9 524.8,284.9 526.3,284.9 527.7,284.8 529.1,284.8 530.5,284.8 532.0,284.7 533.4,284.6 534.8,284.6 536.2,284.5 537.7,284.5 539.1,284.4 540.5,284.3 541.9,284.3 543.4,284.2 544.8,284.2 546.2,284.1 547.6,284.1 549.1,284.0 550.5,284.0 551.9,283.9 553.3,283.9 554.8,283.9 556.2,283.9 557.6,283.9 559.0,283.9 560.5,283.9 561.9,283.9 563.3,283.9 564.7,284.0 566.2,284.0 567.6,284.0 569.0,284.1 570.4,284.1 571.9,284.1 573.3,284.2 574.7,284.2 576.2,284.2 577.6,284.3 579.0,284.3 580.4,284.3 581.9,284.4 583.3,284.4 584.7,284.4 586.1,284.4 587.6,284.4 589.0,284.5 590.4,284.5 591.8,284.5 593.3,284.5 594.7,284.5 596.1,284.5 597.5,284.5 599.0,284.5 600.4,284.5 601.8,284.5 603.2,284.4 604.7,284.4 606.1,284.4 607.5,284.4 608.9,284.4 610.4,284.4 611.8,284.4 613.2,284.4 614.6,284.4 616.1,284.4 617.5,284.3 618.9,284.3 620.4,284.3 621.8,284.3 623.2,284.3 624.6,284.3 626.1,284.3 627.5,284.3 628.9,284.3 630.3,284.3 631.8,284.3 633.2,284.3 634.6,284.3 636.0,284.3 637.5,284.3 638.9,284.3 640.3,284.3 641.7,284.3 643.2,284.3 644.6,284.3 646.0,284.3 647.4,284.3 648.9,284.3 650.3,284.3 651.7,284.3 653.1,284.3 654.6,284.3 656.0,284.3 657.4,284.3 658.8,284.3 660.3,284.3 661.7,284.3 663.1,284.3 664.6,284.3 666.0,284.3 667.4,284.3 668.8,284.3 670.3,284.3 671.7,284.3 673.1,284.3 674.5,284.3 676.0,284.3 677.4,284.3 678.8,284.3 680.2,284.3 681.7,284.3 683.1,284.3 684.5,284.3 685.9,284.3 687.4,284.3 688.8,284.3 690.2,284.3 691.6,284.3 693.1,284.3 694.5,284.3 695.9,284.3 697.3,284.3 698.8,284.3 700.2,284.3 701.6,284.3 703.0,284.4 704.5,284.4 705.9,284.4 707.3,284.4 708.8,284.4 710.2,284.4 711.6,284.4 713.0,284.4 714.5,284.4 715.9,284.4 717.3,284.4 718.7,284.4 720.2,284.4 721.6,284.4 723.0,284.4 724.4,284.4 725.9,284.4 727.3,284.4 728.7,284.4 730.1,284.4 731.6,284.4 733.0,284.4 734.4,284.4 735.8,284.4 737.3,284.4 738.7,284.4 740.1,284.4 741.5,284.4 743.0,284.4 744.4,284.4 745.8,284.4 747.2,284.4 748.7,284.4 750.1,284.4 751.5,284.4 752.9,284.5 754.4,284.5 755.8,284.5 757.2,284.5 758.7,284.5 760.1,284.5 761.5,284.5 762.9,284.5 764.4,284.5 765.8,284.5 767.2,284.5 768.6,284.5 770.1,284.5 771.5,284.5 772.9,284.5 774.3,284.5 775.8,284.5 777.2,284.5 778.6,284.5 780.0,284.5 781.5,284.5 782.9,284.5 784.3,284.5 785.7,284.5 787.2,284.5 788.6,284.5 790.0,284.5 791.4,284.5 792.9,284.5 794.3,284.5 795.7,284.5 797.1,284.5 798.6,284.5 L798.6,284.5 L435.0,284.5 Z" fill="url(#g233)" clip-path="url(#c235)"/>
  <defs><clipPath id="pc236"><rect x="435" y="207" width="365" height="155"/></clipPath></defs>
  <polyline points="435.0,207.0 436.4,278.8 437.9,269.2 439.3,270.9 440.7,277.6 442.1,282.4 443.6,283.8 445.0,283.9 446.4,284.6 447.8,286.0 449.3,287.5 450.7,288.3 452.1,288.7 453.5,288.8 455.0,288.9 456.4,288.8 457.8,288.7 459.2,288.5 460.7,288.3 462.1,288.0 463.5,287.8 464.9,287.5 466.4,287.4 467.8,287.2 469.2,287.0 470.6,286.9 472.1,286.8 473.5,286.6 474.9,286.5 476.3,286.3 477.8,286.2 479.2,286.0 480.6,285.7 482.1,285.5 483.5,285.3 484.9,285.0 486.3,284.8 487.8,284.6 489.2,284.3 490.6,284.2 492.0,284.0 493.5,283.9 494.9,283.8 496.3,283.7 497.7,283.7 499.2,283.7 500.6,283.8 502.0,283.8 503.4,283.9 504.9,284.0 506.3,284.1 507.7,284.2 509.1,284.3 510.6,284.5 512.0,284.6 513.4,284.6 514.8,284.7 516.3,284.8 517.7,284.8 519.1,284.9 520.5,284.9 522.0,284.9 523.4,284.9 524.8,284.9 526.3,284.9 527.7,284.8 529.1,284.8 530.5,284.8 532.0,284.7 533.4,284.6 534.8,284.6 536.2,284.5 537.7,284.5 539.1,284.4 540.5,284.3 541.9,284.3 543.4,284.2 544.8,284.2 546.2,284.1 547.6,284.1 549.1,284.0 550.5,284.0 551.9,283.9 553.3,283.9 554.8,283.9 556.2,283.9 557.6,283.9 559.0,283.9 560.5,283.9 561.9,283.9 563.3,283.9 564.7,284.0 566.2,284.0 567.6,284.0 569.0,284.1 570.4,284.1 571.9,284.1 573.3,284.2 574.7,284.2 576.2,284.2 577.6,284.3 579.0,284.3 580.4,284.3 581.9,284.4 583.3,284.4 584.7,284.4 586.1,284.4 587.6,284.4 589.0,284.5 590.4,284.5 591.8,284.5 593.3,284.5 594.7,284.5 596.1,284.5 597.5,284.5 599.0,284.5 600.4,284.5 601.8,284.5 603.2,284.4 604.7,284.4 606.1,284.4 607.5,284.4 608.9,284.4 610.4,284.4 611.8,284.4 613.2,284.4 614.6,284.4 616.1,284.4 617.5,284.3 618.9,284.3 620.4,284.3 621.8,284.3 623.2,284.3 624.6,284.3 626.1,284.3 627.5,284.3 628.9,284.3 630.3,284.3 631.8,284.3 633.2,284.3 634.6,284.3 636.0,284.3 637.5,284.3 638.9,284.3 640.3,284.3 641.7,284.3 643.2,284.3 644.6,284.3 646.0,284.3 647.4,284.3 648.9,284.3 650.3,284.3 651.7,284.3 653.1,284.3 654.6,284.3 656.0,284.3 657.4,284.3 658.8,284.3 660.3,284.3 661.7,284.3 663.1,284.3 664.6,284.3 666.0,284.3 667.4,284.3 668.8,284.3 670.3,284.3 671.7,284.3 673.1,284.3 674.5,284.3 676.0,284.3 677.4,284.3 678.8,284.3 680.2,284.3 681.7,284.3 683.1,284.3 684.5,284.3 685.9,284.3 687.4,284.3 688.8,284.3 690.2,284.3 691.6,284.3 693.1,284.3 694.5,284.3 695.9,284.3 697.3,284.3 698.8,284.3 700.2,284.3 701.6,284.3 703.0,284.4 704.5,284.4 705.9,284.4 707.3,284.4 708.8,284.4 710.2,284.4 711.6,284.4 713.0,284.4 714.5,284.4 715.9,284.4 717.3,284.4 718.7,284.4 720.2,284.4 721.6,284.4 723.0,284.4 724.4,284.4 725.9,284.4 727.3,284.4 728.7,284.4 730.1,284.4 731.6,284.4 733.0,284.4 734.4,284.4 735.8,284.4 737.3,284.4 738.7,284.4 740.1,284.4 741.5,284.4 743.0,284.4 744.4,284.4 745.8,284.4 747.2,284.4 748.7,284.4 750.1,284.4 751.5,284.4 752.9,284.5 754.4,284.5 755.8,284.5 757.2,284.5 758.7,284.5 760.1,284.5 761.5,284.5 762.9,284.5 764.4,284.5 765.8,284.5 767.2,284.5 768.6,284.5 770.1,284.5 771.5,284.5 772.9,284.5 774.3,284.5 775.8,284.5 777.2,284.5 778.6,284.5 780.0,284.5 781.5,284.5 782.9,284.5 784.3,284.5 785.7,284.5 787.2,284.5 788.6,284.5 790.0,284.5 791.4,284.5 792.9,284.5 794.3,284.5 795.7,284.5 797.1,284.5 798.6,284.5" fill="none" stroke="#f39c12" stroke-width="1.3" stroke-linejoin="round" clip-path="url(#pc236)"/>
</svg>
