<svg xmlns="http://www.w3.org/2000/svg" viewBox="0 0 820 378" style="font-family:system-ui,-apple-system,sans-serif">
  <text x="800" y="11" text-anchor="end" font-size="11" font-weight="600" fill="#6b7280">Korg35 ZDF highpass, fc=1kHz</text>
  <line x1="34" y1="16" x2="34" y2="171" stroke="#d1d5db"/>
  <line x1="34" y1="47.0" x2="399" y2="47.0" stroke="#d1d5db"/>
  <text x="216.5" y="197" text-anchor="middle" font-size="9" fill="#6b7280">Hz</text>
  <text x="12" y="93.5" text-anchor="middle" font-size="9" fill="#6b7280" transform="rotate(-90 12 93.5)">dB</text>
  <line x1="67.3" y1="16" x2="67.3" y2="171" stroke="#e5e7eb" stroke-width="0.5"/>
  <line x1="86.8" y1="16" x2="86.8" y2="171" stroke="#e5e7eb" stroke-width="0.5"/>
  <line x1="100.6" y1="16" x2="100.6" y2="171" stroke="#e5e7eb" stroke-width="0.5"/>
  <line x1="111.3" y1="16" x2="111.3" y2="171" stroke="#e5e7eb" stroke-width="0.5"/>
  <line x1="120.0" y1="16" x2="120.0" y2="171" stroke="#e5e7eb" stroke-width="0.5"/>
  <line x1="127.4" y1="16" x2="127.4" y2="171" stroke="#e5e7eb" stroke-width="0.5"/>
  <line x1="133.9" y1="16" x2="133.9" y2="171" stroke="#e5e7eb" stroke-width="0.5"/>
  <line x1="139.5" y1="16" x2="139.5" y2="171" stroke="#e5e7eb" stroke-width="0.5"/>
  <line x1="177.9" y1="16" x2="177.9" y2="171" stroke="#e5e7eb" stroke-width="0.5"/>
  <line x1="197.3" y1="16" x2="197.3" y2="171" stroke="#e5e7eb" stroke-width="0.5"/>
  <line x1="211.1" y1="16" x2="211.1" y2="171" stroke="#e5e7eb" stroke-width="0.5"/>
  <line x1="221.9" y1="16" x2="221.9" y2="171" stroke="#e5e7eb" stroke-width="0.5"/>
  <line x1="230.6" y1="16" x2="230.6" y2="171" stroke="#e5e7eb" stroke-width="0.5"/>
  <line x1="238.0" y1="16" x2="238.0" y2="171" stroke="#e5e7eb" stroke-width="0.5"/>
  <line x1="244.4" y1="16" x2="244.4" y2="171" stroke="#e5e7eb" stroke-width="0.5"/>
  <line x1="250.1" y1="16" x2="250.1" y2="171" stroke="#e5e7eb" stroke-width="0.5"/>
  <line x1="288.4" y1="16" x2="288.4" y2="171" stroke="#e5e7eb" stroke-width="0.5"/>
  <line x1="307.9" y1="16" x2="307.9" y2="171" stroke="#e5e7eb" stroke-width="0.5"/>
  <line x1="321.7" y1="16" x2="321.7" y2="171" stroke="#e5e7eb" stroke-width="0.5"/>
  <line x1="332.4" y1="16" x2="332.4" y2="171" stroke="#e5e7eb" stroke-width="0.5"/>
  <line x1="341.2" y1="16" x2="341.2" y2="171" stroke="#e5e7eb" stroke-width="0.5"/>
  <line x1="348.6" y1="16" x2="348.6" y2="171" stroke="#e5e7eb" stroke-width="0.5"/>
  <line x1="355.0" y1="16" x2="355.0" y2="171" stroke="#e5e7eb" stroke-width="0.5"/>
  <line x1="360.7" y1="16" x2="360.7" y2="171" stroke="#e5e7eb" stroke-width="0.5"/>
  <line x1="399.0" y1="16" x2="399.0" y2="171" stroke="#e5e7eb" stroke-width="0.5"/>
  <line x1="144.6" y1="16" x2="144.6" y2="171" stroke="#e5e7eb" stroke-width="0.5"/>
  <text x="144.6" y="183" text-anchor="middle" font-size="8" fill="#6b7280">100</text>
  <line x1="255.1" y1="16" x2="255.1" y2="171" stroke="#e5e7eb" stroke-width="0.5"/>
  <text x="255.1" y="183" text-anchor="middle" font-size="8" fill="#6b7280">1k</text>
  <line x1="365.7" y1="16" x2="365.7" y2="171" stroke="#e5e7eb" stroke-width="0.5"/>
  <text x="365.7" y="183" text-anchor="middle" font-size="8" fill="#6b7280">10k</text>
  <line x1="34" y1="31.5" x2="399" y2="31.5" stroke="#e5e7eb" stroke-width="0.5"/>
  <line x1="34" y1="62.5" x2="399" y2="62.5" stroke="#e5e7eb" stroke-width="0.5"/>
  <line x1="34" y1="16.0" x2="399" y2="16.0" stroke="#e5e7eb" stroke-width="0.5"/>
  <text x="30" y="19.0" text-anchor="end" font-size="8" fill="#6b7280">+20</text>
  <text x="30" y="50.0" text-anchor="end" font-size="8" fill="#6b7280">0</text>
  <line x1="34" y1="78.0" x2="399" y2="78.0" stroke="#e5e7eb" stroke-width="0.5"/>
  <text x="30" y="81.0" text-anchor="end" font-size="8" fill="#6b7280">-20</text>
  <line x1="34" y1="109.0" x2="399" y2="109.0" stroke="#e5e7eb" stroke-width="0.5"/>
  <text x="30" y="112.0" text-anchor="end" font-size="8" fill="#6b7280">-40</text>
  <line x1="34" y1="140.0" x2="399" y2="140.0" stroke="#e5e7eb" stroke-width="0.5"/>
  <text x="30" y="143.0" text-anchor="end" font-size="8" fill="#6b7280">-60</text>
  <line x1="34" y1="171.0" x2="399" y2="171.0" stroke="#e5e7eb" stroke-width="0.5"/>
  <text x="30" y="174.0" text-anchor="end" font-size="8" fill="#6b7280">-80</text>
  <line x1="255.1" y1="16" x2="255.1" y2="171" stroke="#d1d5db" stroke-width="1" stroke-dasharray="4 3"/>
  <defs><linearGradient id="g192" x1="0" y1="16" x2="0" y2="171" gradientUnits="userSpaceOnUse">
    <stop offset="0%" stop-color="#4a90d9" stop-opacity="0.15"/>
    <stop offset="100%" stop-color="#4a90d9" stop-opacity="0.02"/>
  </linearGradient></defs>
  <path d="M37.5,65.3 37.5,65.3 70.8,65.2 90.3,65.2 104.1,65.1 114.8,64.9 123.6,64.8 131.0,64.6 137.4,64.5 143.1,64.3 148.1,64.0 152.7,63.8 156.9,63.6 160.7,63.3 164.3,63.0 167.6,62.8 170.7,62.5 173.6,62.2 176.3,61.9 178.9,61.6 181.4,61.3 183.7,61.0 186.0,60.7 188.1,60.4 190.2,60.1 192.1,59.8 194.0,59.5 195.8,59.2 197.6,58.9 199.2,58.6 200.9,58.3 202.4,58.0 204.0,57.8 205.5,57.5 206.9,57.2 208.3,56.9 209.6,56.7 210.9,56.4 212.2,56.1 213.5,55.9 214.7,55.6 215.9,55.4 217.0,55.1 218.2,54.9 219.3,54.6 220.3,54.4 221.4,54.2 222.4,53.9 223.4,53.7 224.4,53.5 225.4,53.3 226.4,53.1 227.3,52.9 228.2,52.7 229.1,52.5 230.0,52.3 230.8,52.1 231.7,51.9 232.5,51.7 233.4,51.5 234.2,51.3 235.7,51.0 237.3,50.6 238.7,50.3 240.2,50.0 241.6,49.7 242.9,49.4 244.2,49.2 245.5,48.9 246.8,48.6 248.0,48.4 249.2,48.2 250.3,48.0 251.4,47.8 252.6,47.6 253.6,47.4 254.7,47.2 255.7,47.0 256.7,46.9 257.7,46.7 258.7,46.6 259.6,46.5 260.6,46.3 261.5,46.2 262.4,46.1 263.3,46.0 264.1,45.9 265.0,45.8 265.8,45.7 266.6,45.7 267.4,45.6 268.6,45.5 269.8,45.4 270.9,45.3 272.0,45.3 273.1,45.2 274.2,45.2 275.2,45.1 276.2,45.1 277.2,45.1 278.2,45.0 279.1,45.0 280.0,45.0 281.0,45.0 281.9,45.0 282.7,45.0 283.6,45.0 284.5,45.0 285.3,45.0 286.1,45.0 286.9,45.0 288.0,45.0 289.0,45.1 290.0,45.1 291.0,45.1 292.0,45.1 292.9,45.2 293.9,45.2 294.8,45.2 295.7,45.3 296.6,45.3 297.4,45.3 298.3,45.3 299.1,45.4 299.9,45.4 300.7,45.4 301.7,45.5 302.7,45.5 303.6,45.5 304.6,45.6 305.5,45.6 306.4,45.7 307.3,45.7 308.1,45.7 309.0,45.7 309.8,45.8 310.6,45.8 311.4,45.8 312.4,45.9 313.3,45.9 314.2,45.9 315.1,46.0 316.0,46.0 316.9,46.0 317.7,46.1 318.6,46.1 319.4,46.1 320.2,46.1 321.1,46.2 322.0,46.2 322.9,46.2 323.8,46.2 324.7,46.3 325.5,46.3 326.3,46.3 327.1,46.3 327.9,46.4 328.8,46.4 329.7,46.4 330.6,46.4 331.4,46.4 332.3,46.5 333.1,46.5 333.9,46.5 334.8,46.5 335.7,46.5 336.5,46.5 337.4,46.6 338.2,46.6 339.0,46.6 339.8,46.6 340.7,46.6 341.6,46.6 342.4,46.6 343.3,46.7 344.1,46.7 344.9,46.7 345.8,46.7 346.6,46.7 347.5,46.7 348.3,46.7 349.1,46.7 350.0,46.7 350.8,46.8 351.7,46.8 352.5,46.8 353.3,46.8 354.1,46.8 355.0,46.8 355.8,46.8 356.6,46.8 357.5,46.8 358.3,46.8 359.1,46.8 360.0,46.8 360.8,46.9 361.6,46.9 362.5,46.9 363.3,46.9 364.1,46.9 364.9,46.9 365.8,46.9 366.6,46.9 367.4,46.9 368.2,46.9 369.1,46.9 369.9,46.9 370.7,46.9 371.6,46.9 372.4,46.9 373.2,46.9 374.0,46.9 374.8,46.9 375.6,46.9 376.5,46.9 377.3,46.9 378.1,47.0 378.9,47.0 379.7,47.0 380.5,47.0 381.4,47.0 382.2,47.0 383.0,47.0 383.8,47.0 384.6,47.0 385.5,47.0 386.3,47.0 387.1,47.0 387.9,47.0 388.7,47.0 389.5,47.0 390.3,47.0 391.2,47.0 392.0,47.0 392.8,47.0 393.6,47.0 394.4,47.0 395.2,47.0 396.0,47.0 396.8,47.0 397.6,47.0 398.5,47.0 L398.5,171.0 L37.5,171.0 Z" fill="url(#g192)"/>
  <defs><clipPath id="pc193"><rect x="34" y="16" width="365" height="155"/></clipPath></defs>
  <polyline points="37.5,65.3 70.8,65.2 90.3,65.2 104.1,65.1 114.8,64.9 123.6,64.8 131.0,64.6 137.4,64.5 143.1,64.3 148.1,64.0 152.7,63.8 156.9,63.6 160.7,63.3 164.3,63.0 167.6,62.8 170.7,62.5 173.6,62.2 176.3,61.9 178.9,61.6 181.4,61.3 183.7,61.0 186.0,60.7 188.1,60.4 190.2,60.1 192.1,59.8 194.0,59.5 195.8,59.2 197.6,58.9 199.2,58.6 200.9,58.3 202.4,58.0 204.0,57.8 205.5,57.5 206.9,57.2 208.3,56.9 209.6,56.7 210.9,56.4 212.2,56.1 213.5,55.9 214.7,55.6 215.9,55.4 217.0,55.1 218.2,54.9 219.3,54.6 220.3,54.4 221.4,54.2 222.4,53.9 223.4,53.7 224.4,53.5 225.4,53.3 226.4,53.1 227.3,52.9 228.2,52.7 229.1,52.5 230.0,52.3 230.8,52.1 231.7,51.9 232.5,51.7 233.4,51.5 234.2,51.3 235.7,51.0 237.3,50.6 238.7,50.3 240.2,50.0 241.6,49.7 242.9,49.4 244.2,49.2 245.5,48.9 246.8,48.6 248.0,48.4 249.2,48.2 250.3,48.0 251.4,47.8 252.6,47.6 253.6,47.4 254.7,47.2 255.7,47.0 256.7,46.9 257.7,46.7 258.7,46.6 259.6,46.5 260.6,46.3 261.5,46.2 262.4,46.1 263.3,46.0 264.1,45.9 265.0,45.8 265.8,45.7 266.6,45.7 267.4,45.6 268.6,45.5 269.8,45.4 270.9,45.3 272.0,45.3 273.1,45.2 274.2,45.2 275.2,45.1 276.2,45.1 277.2,45.1 278.2,45.0 279.1,45.0 280.0,45.0 281.0,45.0 281.9,45.0 282.7,45.0 283.6,45.0 284.5,45.0 285.3,45.0 286.1,45.0 286.9,45.0 288.0,45.0 289.0,45.1 290.0,45.1 291.0,45.1 292.0,45.1 292.9,45.2 293.9,45.2 294.8,45.2 295.7,45.3 296.6,45.3 297.4,45.3 298.3,45.3 299.1,45.4 299.9,45.4 300.7,45.4 301.7,45.5 302.7,45.5 303.6,45.5 304.6,45.6 305.5,45.6 306.4,45.7 307.3,45.7 308.1,45.7 309.0,45.7 309.8,45.8 310.6,45.8 311.4,45.8 312.4,45.9 313.3,45.9 314.2,45.9 315.1,46.0 316.0,46.0 316.9,46.0 317.7,46.1 318.6,46.1 319.4,46.1 320.2,46.1 321.1,46.2 322.0,46.2 322.9,46.2 323.8,46.2 324.7,46.3 325.5,46.3 326.3,46.3 327.1,46.3 327.9,46.4 328.8,46.4 329.7,46.4 330.6,46.4 331.4,46.4 332.3,46.5 333.1,46.5 333.9,46.5 334.8,46.5 335.7,46.5 336.5,46.5 337.4,46.6 338.2,46.6 339.0,46.6 339.8,46.6 340.7,46.6 341.6,46.6 342.4,46.6 343.3,46.7 344.1,46.7 344.9,46.7 345.8,46.7 346.6,46.7 347.5,46.7 348.3,46.7 349.1,46.7 350.0,46.7 350.8,46.8 351.7,46.8 352.5,46.8 353.3,46.8 354.1,46.8 355.0,46.8 355.8,46.8 356.6,46.8 357.5,46.8 358.3,46.8 359.1,46.8 360.0,46.8 360.8,46.9 361.6,46.9 362.5,46.9 363.3,46.9 364.1,46.9 364.9,46.9 365.8,46.9 366.6,46.9 367.4,46.9 368.2,46.9 369.1,46.9 369.9,46.9 370.7,46.9 371.6,46.9 372.4,46.9 373.2,46.9 374.0,46.9 374.8,46.9 375.6,46.9 376.5,46.9 377.3,46.9 378.1,47.0 378.9,47.0 379.7,47.0 380.5,47.0 381.4,47.0 382.2,47.0 383.0,47.0 383.8,47.0 384.6,47.0 385.5,47.0 386.3,47.0 387.1,47.0 387.9,47.0 388.7,47.0 389.5,47.0 390.3,47.0 391.2,47.0 392.0,47.0 392.8,47.0 393.6,47.0 394.4,47.0 395.2,47.0 396.0,47.0 396.8,47.0 397.6,47.0 398.5,47.0" fill="none" stroke="#4a90d9" stroke-width="1.5" stroke-linejoin="round" clip-path="url(#pc193)"/>
  <line x1="435" y1="16" x2="435" y2="171" stroke="#d1d5db"/>
  <line x1="435" y1="93.5" x2="800" y2="93.5" stroke="#d1d5db"/>
  <text x="617.5" y="197" text-anchor="middle" font-size="9" fill="#6b7280">Hz</text>
  <text x="413" y="93.5" text-anchor="middle" font-size="9" fill="#6b7280" transform="rotate(-90 413 93.5)">Phase (deg)</text>
  <line x1="468.3" y1="16" x2="468.3" y2="171" stroke="#e5e7eb" stroke-width="0.5"/>
  <line x1="487.8" y1="16" x2="487.8" y2="171" stroke="#e5e7eb" stroke-width="0.5"/>
  <line x1="501.6" y1="16" x2="501.6" y2="171" stroke="#e5e7eb" stroke-width="0.5"/>
  <line x1="512.3" y1="16" x2="512.3" y2="171" stroke="#e5e7eb" stroke-width="0.5"/>
  <line x1="521.0" y1="16" x2="521.0" y2="171" stroke="#e5e7eb" stroke-width="0.5"/>
  <line x1="528.4" y1="16" x2="528.4" y2="171" stroke="#e5e7eb" stroke-width="0.5"/>
  <line x1="534.9" y1="16" x2="534.9" y2="171" stroke="#e5e7eb" stroke-width="0.5"/>
  <line x1="540.5" y1="16" x2="540.5" y2="171" stroke="#e5e7eb" stroke-width="0.5"/>
  <line x1="578.9" y1="16" x2="578.9" y2="171" stroke="#e5e7eb" stroke-width="0.5"/>
  <line x1="598.3" y1="16" x2="598.3" y2="171" stroke="#e5e7eb" stroke-width="0.5"/>
  <line x1="612.1" y1="16" x2="612.1" y2="171" stroke="#e5e7eb" stroke-width="0.5"/>
  <line x1="622.9" y1="16" x2="622.9" y2="171" stroke="#e5e7eb" stroke-width="0.5"/>
  <line x1="631.6" y1="16" x2="631.6" y2="171" stroke="#e5e7eb" stroke-width="0.5"/>
  <line x1="639.0" y1="16" x2="639.0" y2="171" stroke="#e5e7eb" stroke-width="0.5"/>
  <line x1="645.4" y1="16" x2="645.4" y2="171" stroke="#e5e7eb" stroke-width="0.5"/>
  <line x1="651.1" y1="16" x2="651.1" y2="171" stroke="#e5e7eb" stroke-width="0.5"/>
  <line x1="689.4" y1="16" x2="689.4" y2="171" stroke="#e5e7eb" stroke-width="0.5"/>
  <line x1="708.9" y1="16" x2="708.9" y2="171" stroke="#e5e7eb" stroke-width="0.5"/>
  <line x1="722.7" y1="16" x2="722.7" y2="171" stroke="#e5e7eb" stroke-width="0.5"/>
  <line x1="733.4" y1="16" x2="733.4" y2="171" stroke="#e5e7eb" stroke-width="0.5"/>
  <line x1="742.2" y1="16" x2="742.2" y2="171" stroke="#e5e7eb" stroke-width="0.5"/>
  <line x1="749.6" y1="16" x2="749.6" y2="171" stroke="#e5e7eb" stroke-width="0.5"/>
  <line x1="756.0" y1="16" x2="756.0" y2="171" stroke="#e5e7eb" stroke-width="0.5"/>
  <line x1="761.7" y1="16" x2="761.7" y2="171" stroke="#e5e7eb" stroke-width="0.5"/>
  <line x1="800.0" y1="16" x2="800.0" y2="171" stroke="#e5e7eb" stroke-width="0.5"/>
  <line x1="545.6" y1="16" x2="545.6" y2="171" stroke="#e5e7eb" stroke-width="0.5"/>
  <text x="545.6" y="183" text-anchor="middle" font-size="8" fill="#6b7280">100</text>
  <line x1="656.1" y1="16" x2="656.1" y2="171" stroke="#e5e7eb" stroke-width="0.5"/>
  <text x="656.1" y="183" text-anchor="middle" font-size="8" fill="#6b7280">1k</text>
  <line x1="766.7" y1="16" x2="766.7" y2="171" stroke="#e5e7eb" stroke-width="0.5"/>
  <text x="766.7" y="183" text-anchor="middle" font-size="8" fill="#6b7280">10k</text>
  <line x1="435" y1="58.6" x2="800" y2="58.6" stroke="#e5e7eb" stroke-width="0.5"/>
  <line x1="435" y1="128.4" x2="800" y2="128.4" stroke="#e5e7eb" stroke-width="0.5"/>
  <line x1="435" y1="23.8" x2="800" y2="23.8" stroke="#e5e7eb" stroke-width="0.5"/>
  <text x="431" y="26.8" text-anchor="end" font-size="8" fill="#6b7280">180</text>
  <text x="431" y="96.5" text-anchor="end" font-size="8" fill="#6b7280">0</text>
  <line x1="435" y1="163.3" x2="800" y2="163.3" stroke="#e5e7eb" stroke-width="0.5"/>
  <text x="431" y="166.3" text-anchor="end" font-size="8" fill="#6b7280">-180</text>
  <line x1="656.1" y1="16" x2="656.1" y2="171" stroke="#d1d5db" stroke-width="1" stroke-dasharray="4 3"/>
  <defs><linearGradient id="g194" x1="0" y1="16" x2="0" y2="93.5" gradientUnits="userSpaceOnUse">
    <stop offset="0%" stop-color="#e74c3c" stop-opacity="0.15"/>
    <stop offset="100%" stop-color="#e74c3c" stop-opacity="0.02"/>
  </linearGradient></defs>
  <path d="M438.5,92.7 438.5,92.7 471.8,91.8 491.3,91.0 505.1,90.2 515.8,89.4 524.6,88.6 532.0,87.8 538.4,87.1 544.1,86.4 549.1,85.7 553.7,85.1 557.9,84.4 561.7,83.8 565.3,83.3 568.6,82.7 571.7,82.2 574.6,81.7 577.3,81.3 579.9,80.8 582.4,80.4 584.7,80.1 587.0,79.7 589.1,79.4 591.2,79.1 593.1,78.8 595.0,78.5 596.8,78.3 598.6,78.0 600.2,77.8 601.9,77.6 603.4,77.4 605.0,77.3 606.5,77.1 607.9,77.0 609.3,76.9 610.6,76.8 611.9,76.7 613.2,76.6 614.5,76.5 615.7,76.4 616.9,76.4 618.0,76.3 619.2,76.3 620.3,76.3 621.3,76.3 622.4,76.2 623.4,76.2 624.4,76.2 625.4,76.3 626.4,76.3 627.4,76.3 628.3,76.3 629.2,76.4 630.1,76.4 631.0,76.4 631.8,76.5 632.7,76.5 633.5,76.6 634.4,76.7 635.2,76.7 636.7,76.9 638.3,77.0 639.7,77.2 641.2,77.4 642.6,77.6 643.9,77.8 645.2,78.0 646.5,78.3 647.8,78.5 649.0,78.7 650.2,79.0 651.3,79.2 652.4,79.5 653.6,79.7 654.6,80.0 655.7,80.2 656.7,80.5 657.7,80.8 658.7,81.0 659.7,81.3 660.6,81.5 661.6,81.8 662.5,82.1 663.4,82.3 664.3,82.6 665.1,82.8 666.0,83.0 666.8,83.3 667.6,83.5 668.4,83.8 669.6,84.1 670.8,84.4 671.9,84.8 673.0,85.1 674.1,85.4 675.2,85.7 676.2,86.0 677.2,86.3 678.2,86.5 679.2,86.8 680.1,87.0 681.0,87.3 682.0,87.5 682.9,87.7 683.7,87.9 684.6,88.1 685.5,88.3 686.3,88.5 687.1,88.7 687.9,88.9 689.0,89.1 690.0,89.3 691.0,89.5 692.0,89.7 693.0,89.8 693.9,90.0 694.9,90.2 695.8,90.3 696.7,90.5 697.6,90.6 698.4,90.7 699.3,90.8 700.1,91.0 700.9,91.1 701.7,91.2 702.7,91.3 703.7,91.4 704.6,91.5 705.6,91.6 706.5,91.7 707.4,91.8 708.3,91.9 709.1,91.9 710.0,92.0 710.8,92.1 711.6,92.1 712.4,92.2 713.4,92.3 714.3,92.3 715.2,92.4 716.1,92.5 717.0,92.5 717.9,92.6 718.7,92.6 719.6,92.7 720.4,92.7 721.2,92.7 722.1,92.8 723.0,92.8 723.9,92.8 724.8,92.9 725.7,92.9 726.5,92.9 727.3,93.0 728.1,93.0 728.9,93.0 729.8,93.1 730.7,93.1 731.6,93.1 732.4,93.1 733.3,93.1 734.1,93.2 734.9,93.2 735.8,93.2 736.7,93.2 737.5,93.2 738.4,93.2 739.2,93.3 740.0,93.3 740.8,93.3 741.7,93.3 742.6,93.3 743.4,93.3 744.3,93.3 745.1,93.3 745.9,93.3 746.8,93.4 747.6,93.4 748.5,93.4 749.3,93.4 750.1,93.4 751.0,93.4 751.8,93.4 752.7,93.4 753.5,93.4 754.3,93.4 755.1,93.4 756.0,93.4 756.8,93.4 757.6,93.4 758.5,93.4 759.3,93.4 760.1,93.4 761.0,93.5 761.8,93.5 762.6,93.5 763.5,93.5 764.3,93.5 765.1,93.5 765.9,93.5 766.8,93.5 767.6,93.5 768.4,93.5 769.2,93.5 770.1,93.5 770.9,93.5 771.7,93.5 772.6,93.5 773.4,93.5 774.2,93.5 775.0,93.5 775.8,93.5 776.6,93.5 777.5,93.5 778.3,93.5 779.1,93.5 779.9,93.5 780.7,93.5 781.5,93.5 782.4,93.5 783.2,93.5 784.0,93.5 784.8,93.5 785.6,93.5 786.5,93.5 787.3,93.5 788.1,93.5 788.9,93.5 789.7,93.5 790.5,93.5 791.3,93.5 792.2,93.5 793.0,93.5 793.8,93.5 794.6,93.5 795.4,93.5 796.2,93.5 797.0,93.5 797.8,93.5 798.6,93.5 799.5,93.5 L799.5,93.5 L438.5,93.5 Z" fill="url(#g194)"/>
  <defs><clipPath id="pc195"><rect x="435" y="16" width="365" height="155"/></clipPath></defs>
  <polyline points="438.5,92.7 471.8,91.8 491.3,91.0 505.1,90.2 515.8,89.4 524.6,88.6 532.0,87.8 538.4,87.1 544.1,86.4 549.1,85.7 553.7,85.1 557.9,84.4 561.7,83.8 565.3,83.3 568.6,82.7 571.7,82.2 574.6,81.7 577.3,81.3 579.9,80.8 582.4,80.4 584.7,80.1 587.0,79.7 589.1,79.4 591.2,79.1 593.1,78.8 595.0,78.5 596.8,78.3 598.6,78.0 600.2,77.8 601.9,77.6 603.4,77.4 605.0,77.3 606.5,77.1 607.9,77.0 609.3,76.9 610.6,76.8 611.9,76.7 613.2,76.6 614.5,76.5 615.7,76.4 616.9,76.4 618.0,76.3 619.2,76.3 620.3,76.3 621.3,76.3 622.4,76.2 623.4,76.2 624.4,76.2 625.4,76.3 626.4,76.3 627.4,76.3 628.3,76.3 629.2,76.4 630.1,76.4 631.0,76.4 631.8,76.5 632.7,76.5 633.5,76.6 634.4,76.7 635.2,76.7 636.7,76.9 638.3,77.0 639.7,77.2 641.2,77.4 642.6,77.6 643.9,77.8 645.2,78.0 646.5,78.3 647.8,78.5 649.0,78.7 650.2,79.0 651.3,79.2 652.4,79.5 653.6,79.7 654.6,80.0 655.7,80.2 656.7,80.5 657.7,80.8 658.7,81.0 659.7,81.3 660.6,81.5 661.6,81.8 662.5,82.1 663.4,82.3 664.3,82.6 665.1,82.8 666.0,83.0 666.8,83.3 667.6,83.5 668.4,83.8 669.6,84.1 670.8,84.4 671.9,84.8 673.0,85.1 674.1,85.4 675.2,85.7 676.2,86.0 677.2,86.3 678.2,86.5 679.2,86.8 680.1,87.0 681.0,87.3 682.0,87.5 682.9,87.7 683.7,87.9 684.6,88.1 685.5,88.3 686.3,88.5 687.1,88.7 687.9,88.9 689.0,89.1 690.0,89.3 691.0,89.5 692.0,89.7 693.0,89.8 693.9,90.0 694.9,90.2 695.8,90.3 696.7,90.5 697.6,90.6 698.4,90.7 699.3,90.8 700.1,91.0 700.9,91.1 701.7,91.2 702.7,91.3 703.7,91.4 704.6,91.5 705.6,91.6 706.5,91.7 707.4,91.8 708.3,91.9 709.1,91.9 710.0,92.0 710.8,92.1 711.6,92.1 712.4,92.2 713.4,92.3 714.3,92.3 715.2,92.4 716.1,92.5 717.0,92.5 717.9,92.6 718.7,92.6 719.6,92.7 720.4,92.7 721.2,92.7 722.1,92.8 723.0,92.8 723.9,92.8 724.8,92.9 725.7,92.9 726.5,92.9 727.3,93.0 728.1,93.0 728.9,93.0 729.8,93.1 730.7,93.1 731.6,93.1 732.4,93.1 733.3,93.1 734.1,93.2 734.9,93.2 735.8,93.2 736.7,93.2 737.5,93.2 738.4,93.2 739.2,93.3 740.0,93.3 740.8,93.3 741.7,93.3 742.6,93.3 743.4,93.3 744.3,93.3 745.1,93.3 745.9,93.3 746.8,93.4 747.6,93.4 748.5,93.4 749.3,93.4 750.1,93.4 751.0,93.4 751.8,93.4 752.7,93.4 753.5,93.4 754.3,93.4 755.1,93.4 756.0,93.4 756.8,93.4 757.6,93.4 758.5,93.4 759.3,93.4 760.1,93.4 761.0,93.5 761.8,93.5 762.6,93.5 763.5,93.5 764.3,93.5 765.1,93.5 765.9,93.5 766.8,93.5 767.6,93.5 768.4,93.5 769.2,93.5 770.1,93.5 770.9,93.5 771.7,93.5 772.6,93.5 773.4,93.5 774.2,93.5 775.0,93.5 775.8,93.5 776.6,93.5 777.5,93.5 778.3,93.5 779.1,93.5 779.9,93.5 780.7,93.5 781.5,93.5 782.4,93.5 783.2,93.5 784.0,93.5 784.8,93.5 785.6,93.5 786.5,93.5 787.3,93.5 788.1,93.5 788.9,93.5 789.7,93.5 790.5,93.5 791.3,93.5 792.2,93.5 793.0,93.5 793.8,93.5 794.6,93.5 795.4,93.5 796.2,93.5 797.0,93.5 797.8,93.5 798.6,93.5 799.5,93.5" fill="none" stroke="#e74c3c" stroke-width="1.5" stroke-linejoin="round" clip-path="url(#pc195)"/>
  <line x1="34" y1="207" x2="34" y2="362" stroke="#d1d5db"/>
  <line x1="34" y1="284.5" x2="399" y2="284.5" stroke="#d1d5db"/>
  <text x="216.5" y="388" text-anchor="middle" font-size="9" fill="#6b7280">Hz</text>
  <text x="12" y="284.5" text-anchor="middle" font-size="9" fill="#6b7280" transform="rotate(-90 12 284.5)">Group delay</text>
  <line x1="67.3" y1="207" x2="67.3" y2="362" stroke="#e5e7eb" stroke-width="0.5"/>
  <line x1="86.8" y1="207" x2="86.8" y2="362" stroke="#e5e7eb" stroke-width="0.5"/>
  <line x1="100.6" y1="207" x2="100.6" y2="362" stroke="#e5e7eb" stroke-width="0.5"/>
  <line x1="111.3" y1="207" x2="111.3" y2="362" stroke="#e5e7eb" stroke-width="0.5"/>
  <line x1="120.0" y1="207" x2="120.0" y2="362" stroke="#e5e7eb" stroke-width="0.5"/>
  <line x1="127.4" y1="207" x2="127.4" y2="362" stroke="#e5e7eb" stroke-width="0.5"/>
  <line x1="133.9" y1="207" x2="133.9" y2="362" stroke="#e5e7eb" stroke-width="0.5"/>
  <line x1="139.5" y1="207" x2="139.5" y2="362" stroke="#e5e7eb" stroke-width="0.5"/>
  <line x1="177.9" y1="207" x2="177.9" y2="362" stroke="#e5e7eb" stroke-width="0.5"/>
  <line x1="197.3" y1="207" x2="197.3" y2="362" stroke="#e5e7eb" stroke-width="0.5"/>
  <line x1="211.1" y1="207" x2="211.1" y2="362" stroke="#e5e7eb" stroke-width="0.5"/>
  <line x1="221.9" y1="207" x2="221.9" y2="362" stroke="#e5e7eb" stroke-width="0.5"/>
  <line x1="230.6" y1="207" x2="230.6" y2="362" stroke="#e5e7eb" stroke-width="0.5"/>
  <line x1="238.0" y1="207" x2="238.0" y2="362" stroke="#e5e7eb" stroke-width="0.5"/>
  <line x1="244.4" y1="207" x2="244.4" y2="362" stroke="#e5e7eb" stroke-width="0.5"/>
  <line x1="250.1" y1="207" x2="250.1" y2="362" stroke="#e5e7eb" stroke-width="0.5"/>
  <line x1="288.4" y1="207" x2="288.4" y2="362" stroke="#e5e7eb" stroke-width="0.5"/>
  <line x1="307.9" y1="207" x2="307.9" y2="362" stroke="#e5e7eb" stroke-width="0.5"/>
  <line x1="321.7" y1="207" x2="321.7" y2="362" stroke="#e5e7eb" stroke-width="0.5"/>
  <line x1="332.4" y1="207" x2="332.4" y2="362" stroke="#e5e7eb" stroke-width="0.5"/>
  <line x1="341.2" y1="207" x2="341.2" y2="362" stroke="#e5e7eb" stroke-width="0.5"/>
  <line x1="348.6" y1="207" x2="348.6" y2="362" stroke="#e5e7eb" stroke-width="0.5"/>
  <line x1="355.0" y1="207" x2="355.0" y2="362" stroke="#e5e7eb" stroke-width="0.5"/>
  <line x1="360.7" y1="207" x2="360.7" y2="362" stroke="#e5e7eb" stroke-width="0.5"/>
  <line x1="399.0" y1="207" x2="399.0" y2="362" stroke="#e5e7eb" stroke-width="0.5"/>
  <line x1="144.6" y1="207" x2="144.6" y2="362" stroke="#e5e7eb" stroke-width="0.5"/>
  <text x="144.6" y="374" text-anchor="middle" font-size="8" fill="#6b7280">100</text>
  <line x1="255.1" y1="207" x2="255.1" y2="362" stroke="#e5e7eb" stroke-width="0.5"/>
  <text x="255.1" y="374" text-anchor="middle" font-size="8" fill="#6b7280">1k</text>
  <line x1="365.7" y1="207" x2="365.7" y2="362" stroke="#e5e7eb" stroke-width="0.5"/>
  <text x="365.7" y="374" text-anchor="middle" font-size="8" fill="#6b7280">10k</text>
  <line x1="34" y1="333.1" x2="399" y2="333.1" stroke="#e5e7eb" stroke-width="0.5"/>
  <text x="30" y="336.1" text-anchor="end" font-size="8" fill="#6b7280">-20</text>
  <text x="30" y="287.5" text-anchor="end" font-size="8" fill="#6b7280">0</text>
  <line x1="34" y1="235.9" x2="399" y2="235.9" stroke="#e5e7eb" stroke-width="0.5"/>
  <text x="30" y="238.9" text-anchor="end" font-size="8" fill="#6b7280">20</text>
  <line x1="255.1" y1="207" x2="255.1" y2="362" stroke="#d1d5db" stroke-width="1" stroke-dasharray="4 3"/>
  <defs><linearGradient id="g196" x1="0" y1="207" x2="0" y2="284.5" gradientUnits="userSpaceOnUse">
    <stop offset="0%" stop-color="#2ecc71" stop-opacity="0.15"/>
    <stop offset="100%" stop-color="#2ecc71" stop-opacity="0.02"/>
  </linearGradient></defs>
  <defs><linearGradient id="g197" x1="0" y1="362" x2="0" y2="284.5" gradientUnits="userSpaceOnUse">
    <stop offset="0%" stop-color="#2ecc71" stop-opacity="0.15"/>
    <stop offset="100%" stop-color="#2ecc71" stop-opacity="0.02"/>
  </linearGradient></defs>
  <defs><clipPath id="c198"><rect x="34" y="207" width="365" height="77.5"/></clipPath></defs>
  <defs><clipPath id="c199"><rect x="34" y="284.5" width="365" height="77.5"/></clipPath></defs>
  <path d="M37.5,344.1 37.5,344.1 70.8,343.7 90.3,343.0 104.1,342.0 114.8,340.9 123.6,339.5 131.0,337.9 137.4,336.2 143.1,334.3 148.1,332.4 152.7,330.3 156.9,328.3 160.7,326.2 164.3,324.1 167.6,322.0 170.7,320.0 173.6,318.0 176.3,316.1 178.9,314.2 181.4,312.4 183.7,310.6 186.0,308.9 188.1,307.3 190.2,305.7 192.1,304.2 194.0,302.8 195.8,301.5 197.6,300.2 199.2,299.0 200.9,297.8 202.4,296.7 204.0,295.6 205.5,294.6 206.9,293.6 208.3,292.7 209.6,291.9 210.9,291.0 212.2,290.2 213.5,289.5 214.7,288.8 215.9,288.1 217.0,287.4 218.2,286.8 219.3,286.2 220.3,285.6 221.4,285.1 222.4,284.6 223.4,284.1 224.4,283.6 225.4,283.1 226.4,282.7 227.3,282.3 228.2,281.9 229.1,281.5 230.0,281.1 230.8,280.8 231.7,280.4 232.5,280.1 233.4,279.8 234.2,279.5 235.7,279.0 237.3,278.5 238.7,278.0 240.2,277.6 241.6,277.2 242.9,276.9 244.2,276.6 245.5,276.3 246.8,276.1 248.0,275.9 249.2,275.7 250.3,275.6 251.4,275.5 252.6,275.4 253.6,275.3 254.7,275.3 255.7,275.2 256.7,275.2 257.7,275.2 258.7,275.3 259.6,275.3 260.6,275.4 261.5,275.4 262.4,275.5 263.3,275.6 264.1,275.7 265.0,275.8 265.8,275.9 266.6,276.1 267.4,276.2 268.6,276.4 269.8,276.6 270.9,276.9 272.0,277.1 273.1,277.3 274.2,277.6 275.2,277.8 276.2,278.0 277.2,278.3 278.2,278.5 279.1,278.7 280.0,278.9 281.0,279.2 281.9,279.4 282.7,279.6 283.6,279.8 284.5,280.0 285.3,280.1 286.1,280.3 286.9,280.5 288.0,280.7 289.0,280.9 290.0,281.1 291.0,281.3 292.0,281.5 292.9,281.6 293.9,281.8 294.8,281.9 295.7,282.1 296.6,282.2 297.4,282.3 298.3,282.4 299.1,282.5 299.9,282.6 300.7,282.7 301.7,282.8 302.7,282.9 303.6,283.0 304.6,283.1 305.5,283.2 306.4,283.3 307.3,283.4 308.1,283.4 309.0,283.5 309.8,283.5 310.6,283.6 311.4,283.7 312.4,283.7 313.3,283.8 314.2,283.8 315.1,283.9 316.0,283.9 316.9,283.9 317.7,284.0 318.6,284.0 319.4,284.0 320.2,284.1 321.1,284.1 322.0,284.1 322.9,284.1 323.8,284.2 324.7,284.2 325.5,284.2 326.3,284.2 327.1,284.2 327.9,284.3 328.8,284.3 329.7,284.3 330.6,284.3 331.4,284.3 332.3,284.3 333.1,284.3 333.9,284.3 334.8,284.4 335.7,284.4 336.5,284.4 337.4,284.4 338.2,284.4 339.0,284.4 339.8,284.4 340.7,284.4 341.6,284.4 342.4,284.4 343.3,284.4 344.1,284.4 344.9,284.4 345.8,284.4 346.6,284.4 347.5,284.5 348.3,284.5 349.1,284.5 350.0,284.5 350.8,284.5 351.7,284.5 352.5,284.5 353.3,284.5 354.1,284.5 355.0,284.5 355.8,284.5 356.6,284.5 357.5,284.5 358.3,284.5 359.1,284.5 360.0,284.5 360.8,284.5 361.6,284.5 362.5,284.5 363.3,284.5 364.1,284.5 364.9,284.5 365.8,284.5 366.6,284.5 367.4,284.5 368.2,284.5 369.1,284.5 369.9,284.5 370.7,284.5 371.6,284.5 372.4,284.5 373.2,284.5 374.0,284.5 374.8,284.5 375.6,284.5 376.5,284.5 377.3,284.5 378.1,284.5 378.9,284.5 379.7,284.5 380.5,284.5 381.4,284.5 382.2,284.5 383.0,284.5 383.8,284.5 384.6,284.5 385.5,284.5 386.3,284.5 387.1,284.5 387.9,284.5 388.7,284.5 389.5,284.5 390.3,284.5 391.2,284.5 392.0,284.5 392.8,284.5 393.6,284.5 394.4,284.5 395.2,284.5 396.0,284.5 396.8,284.5 397.6,284.5 398.5,284.5 L398.5,284.5 L37.5,284.5 Z" fill="url(#g196)" clip-path="url(#c198)"/>
  <path d="M37.5,344.1 37.5,344.1 70.8,343.7 90.3,343.0 104.1,342.0 114.8,340.9 123.6,339.5 131.0,337.9 137.4,336.2 143.1,334.3 148.1,332.4 152.7,330.3 156.9,328.3 160.7,326.2 164.3,324.1 167.6,322.0 170.7,320.0 173.6,318.0 176.3,316.1 178.9,314.2 181.4,312.4 183.7,310.6 186.0,308.9 188.1,307.3 190.2,305.7 192.1,304.2 194.0,302.8 195.8,301.5 197.6,300.2 199.2,299.0 200.9,297.8 202.4,296.7 204.0,295.6 205.5,294.6 206.9,293.6 208.3,292.7 209.6,291.9 210.9,291.0 212.2,290.2 213.5,289.5 214.7,288.8 215.9,288.1 217.0,287.4 218.2,286.8 219.3,286.2 220.3,285.6 221.4,285.1 222.4,284.6 223.4,284.1 224.4,283.6 225.4,283.1 226.4,282.7 227.3,282.3 228.2,281.9 229.1,281.5 230.0,281.1 230.8,280.8 231.7,280.4 232.5,280.1 233.4,279.8 234.2,279.5 235.7,279.0 237.3,278.5 238.7,278.0 240.2,277.6 241.6,277.2 242.9,276.9 244.2,276.6 245.5,276.3 246.8,276.1 248.0,275.9 249.2,275.7 250.3,275.6 251.4,275.5 252.6,275.4 253.6,275.3 254.7,275.3 255.7,275.2 256.7,275.2 257.7,275.2 258.7,275.3 259.6,275.3 260.6,275.4 261.5,275.4 262.4,275.5 263.3,275.6 264.1,275.7 265.0,275.8 265.8,275.9 266.6,276.1 267.4,276.2 268.6,276.4 269.8,276.6 270.9,276.9 272.0,277.1 273.1,277.3 274.2,277.6 275.2,277.8 276.2,278.0 277.2,278.3 278.2,278.5 279.1,278.7 280.0,278.9 281.0,279.2 281.9,279.4 282.7,279.6 283.6,279.8 284.5,280.0 285.3,280.1 286.1,280.3 286.9,280.5 288.0,280.7 289.0,280.9 290.0,281.1 291.0,281.3 292.0,281.5 292.9,281.6 293.9,281.8 294.8,281.9 295.7,282.1 296.6,282.2 297.4,282.3 298.3,282.4 299.1,282.5 299.9,282.6 300.7,282.7 301.7,282.8 302.7,282.9 303.6,283.0 304.6,283.1 305.5,283.2 306.4,283.3 307.3,283.4 308.1,283.4 309.0,283.5 309.8,283.5 310.6,283.6 311.4,283.7 312.4,283.7 313.3,283.8 314.2,283.8 315.1,283.9 316.0,283.9 316.9,283.9 317.7,284.0 318.6,284.0 319.4,284.0 320.2,284.1 321.1,284.1 322.0,284.1 322.9,284.1 323.8,284.2 324.7,284.2 325.5,284.2 326.3,284.2 327.1,284.2 327.9,284.3 328.8,284.3 329.7,284.3 330.6,284.3 331.4,284.3 332.3,284.3 333.1,284.3 333.9,284.3 334.8,284.4 335.7,284.4 336.5,284.4 337.4,284.4 338.2,284.4 339.0,284.4 339.8,284.4 340.7,284.4 341.6,284.4 342.4,284.4 343.3,284.4 344.1,284.4 344.9,284.4 345.8,284.4 346.6,284.4 347.5,284.5 348.3,284.5 349.1,284.5 350.0,284.5 350.8,284.5 351.7,284.5 352.5,284.5 353.3,284.5 354.1,284.5 355.0,284.5 355.8,284.5 356.6,284.5 357.5,284.5 358.3,284.5 359.1,284.5 360.0,284.5 360.8,284.5 361.6,284.5 362.5,284.5 363.3,284.5 364.1,284.5 364.9,284.5 365.8,284.5 366.6,284.5 367.4,284.5 368.2,284.5 369.1,284.5 369.9,284.5 370.7,284.5 371.6,284.5 372.4,284.5 373.2,284.5 374.0,284.5 374.8,284.5 375.6,284.5 376.5,284.5 377.3,284.5 378.1,284.5 378.9,284.5 379.7,284.5 380.5,284.5 381.4,284.5 382.2,284.5 383.0,284.5 383.8,284.5 384.6,284.5 385.5,284.5 386.3,284.5 387.1,284.5 387.9,284.5 388.7,284.5 389.5,284.5 390.3,284.5 391.2,284.5 392.0,284.5 392.8,284.5 393.6,284.5 394.4,284.5 395.2,284.5 396.0,284.5 396.8,284.5 397.6,284.5 398.5,284.5 L398.5,284.5 L37.5,284.5 Z" fill="url(#g197)" clip-path="url(#c199)"/>
  <defs><clipPath id="pc200"><rect x="34" y="207" width="365" height="155"/></clipPath></defs>
  <polyline points="37.5,344.1 70.8,343.7 90.3,343.0 104.1,342.0 114.8,340.9 123.6,339.5 131.0,337.9 137.4,336.2 143.1,334.3 148.1,332.4 152.7,330.3 156.9,328.3 160.7,326.2 164.3,324.1 167.6,322.0 170.7,320.0 173.6,318.0 176.3,316.1 178.9,314.2 181.4,312.4 183.7,310.6 186.0,308.9 188.1,307.3 190.2,305.7 192.1,304.2 194.0,302.8 195.8,301.5 197.6,300.2 199.2,299.0 200.9,297.8 202.4,296.7 204.0,295.6 205.5,294.6 206.9,293.6 208.3,292.7 209.6,291.9 210.9,291.0 212.2,290.2 213.5,289.5 214.7,288.8 215.9,288.1 217.0,287.4 218.2,286.8 219.3,286.2 220.3,285.6 221.4,285.1 222.4,284.6 223.4,284.1 224.4,283.6 225.4,283.1 226.4,282.7 227.3,282.3 228.2,281.9 229.1,281.5 230.0,281.1 230.8,280.8 231.7,280.4 232.5,280.1 233.4,279.8 234.2,279.5 235.7,279.0 237.3,278.5 238.7,278.0 240.2,277.6 241.6,277.2 242.9,276.9 244.2,276.6 245.5,276.3 246.8,276.1 248.0,275.9 249.2,275.7 250.3,275.6 251.4,275.5 252.6,275.4 253.6,275.3 254.7,275.3 255.7,275.2 256.7,275.2 257.7,275.2 258.7,275.3 259.6,275.3 260.6,275.4 261.5,275.4 262.4,275.5 263.3,275.6 264.1,275.7 265.0,275.8 265.8,275.9 266.6,276.1 267.4,276.2 268.6,276.4 269.8,276.6 270.9,276.9 272.0,277.1 273.1,277.3 274.2,277.6 275.2,277.8 276.2,278.0 277.2,278.3 278.2,278.5 279.1,278.7 280.0,278.9 281.0,279.2 281.9,279.4 282.7,279.6 283.6,279.8 284.5,280.0 285.3,280.1 286.1,280.3 286.9,280.5 288.0,280.7 289.0,280.9 290.0,281.1 291.0,281.3 292.0,281.5 292.9,281.6 293.9,281.8 294.8,281.9 295.7,282.1 296.6,282.2 297.4,282.3 298.3,282.4 299.1,282.5 299.9,282.6 300.7,282.7 301.7,282.8 302.7,282.9 303.6,283.0 304.6,283.1 305.5,283.2 306.4,283.3 307.3,283.4 308.1,283.4 309.0,283.5 309.8,283.5 310.6,283.6 311.4,283.7 312.4,283.7 313.3,283.8 314.2,283.8 315.1,283.9 316.0,283.9 316.9,283.9 317.7,284.0 318.6,284.0 319.4,284.0 320.2,284.1 321.1,284.1 322.0,284.1 322.9,284.1 323.8,284.2 324.7,284.2 325.5,284.2 326.3,284.2 327.1,284.2 327.9,284.3 328.8,284.3 329.7,284.3 330.6,284.3 331.4,284.3 332.3,284.3 333.1,284.3 333.9,284.3 334.8,284.4 335.7,284.4 336.5,284.4 337.4,284.4 338.2,284.4 339.0,284.4 339.8,284.4 340.7,284.4 341.6,284.4 342.4,284.4 343.3,284.4 344.1,284.4 344.9,284.4 345.8,284.4 346.6,284.4 347.5,284.5 348.3,284.5 349.1,284.5 350.0,284.5 350.8,284.5 351.7,284.5 352.5,284.5 353.3,284.5 354.1,284.5 355.0,284.5 355.8,284.5 356.6,284.5 357.5,284.5 358.3,284.5 359.1,284.5 360.0,284.5 360.8,284.5 361.6,284.5 362.5,284.5 363.3,284.5 364.1,284.5 364.9,284.5 365.8,284.5 366.6,284.5 367.4,284.5 368.2,284.5 369.1,284.5 369.9,284.5 370.7,284.5 371.6,284.5 372.4,284.5 373.2,284.5 374.0,284.5 374.8,284.5 375.6,284.5 376.5,284.5 377.3,284.5 378.1,284.5 378.9,284.5 379.7,284.5 380.5,284.5 381.4,284.5 382.2,284.5 383.0,284.5 383.8,284.5 384.6,284.5 385.5,284.5 386.3,284.5 387.1,284.5 387.9,284.5 388.7,284.5 389.5,284.5 390.3,284.5 391.2,284.5 392.0,284.5 392.8,284.5 393.6,284.5 394.4,284.5 395.2,284.5 396.0,284.5 396.8,284.5 397.6,284.5 398.5,284.5" fill="none" stroke="#2ecc71" stroke-width="1.5" stroke-linejoin="round" clip-path="url(#pc200)"/>
  <line x1="435" y1="207" x2="435" y2="362" stroke="#d1d5db"/>
  <line x1="435" y1="284.5" x2="800" y2="284.5" stroke="#d1d5db"/>
  <text x="617.5" y="388" text-anchor="middle" font-size="9" fill="#6b7280">Samples</text>
  <text x="413" y="284.5" text-anchor="middle" font-size="9" fill="#6b7280" transform="rotate(-90 413 284.5)">Impulse response</text>
  <line x1="435.0" y1="207" x2="435.0" y2="362" stroke="#e5e7eb" stroke-width="0.5"/>
  <text x="435.0" y="374" text-anchor="middle" font-size="8" fill="#6b7280">0</text>
  <line x1="563.3" y1="207" x2="563.3" y2="362" stroke="#e5e7eb" stroke-width="0.5"/>
  <text x="563.3" y="374" text-anchor="middle" font-size="8" fill="#6b7280">90</text>
  <line x1="691.6" y1="207" x2="691.6" y2="362" stroke="#e5e7eb" stroke-width="0.5"/>
  <text x="691.6" y="374" text-anchor="middle" font-size="8" fill="#6b7280">180</text>
  <line x1="435" y1="339.0" x2="800" y2="339.0" stroke="#e5e7eb" stroke-width="0.5"/>
  <text x="431" y="342.0" text-anchor="end" font-size="8" fill="#6b7280">-0.7</text>
  <text x="431" y="287.5" text-anchor="end" font-size="8" fill="#6b7280">0</text>
  <line x1="435" y1="230.0" x2="800" y2="230.0" stroke="#e5e7eb" stroke-width="0.5"/>
  <text x="431" y="233.0" text-anchor="end" font-size="8" fill="#6b7280">0.7</text>
  <defs><linearGradient id="g201" x1="0" y1="207" x2="0" y2="284.5" gradientUnits="userSpaceOnUse">
    <stop offset="0%" stop-color="#f39c12" stop-opacity="0.15"/>
    <stop offset="100%" stop-color="#f39c12" stop-opacity="0.02"/>
  </linearGradient></defs>
  <defs><linearGradient id="g202" x1="0" y1="362" x2="0" y2="284.5" gradientUnits="userSpaceOnUse">
    <stop offset="0%" stop-color="#f39c12" stop-opacity="0.15"/>
    <stop offset="100%" stop-color="#f39c12" stop-opacity="0.02"/>
  </linearGradient></defs>
  <defs><clipPath id="c203"><rect x="435" y="207" width="365" height="77.5"/></clipPath></defs>
  <defs><clipPath id="c204"><rect x="435" y="284.5" width="365" height="77.5"/></clipPath></defs>
  <path d="M435.0,207.0 435.0,207.0 436.4,286.1 437.9,287.3 439.3,288.2 440.7,288.7 442.1,289.0 443.6,289.0 445.0,289.0 446.4,288.8 447.8,288.5 449.3,288.2 450.7,287.9 452.1,287.5 453.5,287.1 455.0,286.8 456.4,286.5 457.8,286.2 459.2,285.9 460.7,285.7 462.1,285.4 463.5,285.2 464.9,285.1 466.4,284.9 467.8,284.8 469.2,284.7 470.6,284.6 472.1,284.6 473.5,284.5 474.9,284.5 476.3,284.5 477.8,284.4 479.2,284.4 480.6,284.4 482.1,284.4 483.5,284.4 484.9,284.4 486.3,284.4 487.8,284.4 489.2,284.4 490.6,284.4 492.0,284.4 493.5,284.5 494.9,284.5 496.3,284.5 497.7,284.5 499.2,284.5 500.6,284.5 502.0,284.5 503.4,284.5 504.9,284.5 506.3,284.5 507.7,284.5 509.1,284.5 510.6,284.5 512.0,284.5 513.4,284.5 514.8,284.5 516.3,284.5 517.7,284.5 519.1,284.5 520.5,284.5 522.0,284.5 523.4,284.5 524.8,284.5 526.3,284.5 527.7,284.5 529.1,284.5 530.5,284.5 532.0,284.5 533.4,284.5 534.8,284.5 536.2,284.5 537.7,284.5 539.1,284.5 540.5,284.5 541.9,284.5 543.4,284.5 544.8,284.5 546.2,284.5 547.6,284.5 549.1,284.5 550.5,284.5 551.9,284.5 553.3,284.5 554.8,284.5 556.2,284.5 557.6,284.5 559.0,284.5 560.5,284.5 561.9,284.5 563.3,284.5 564.7,284.5 566.2,284.5 567.6,284.5 569.0,284.5 570.4,284.5 571.9,284.5 573.3,284.5 574.7,284.5 576.2,284.5 577.6,284.5 579.0,284.5 580.4,284.5 581.9,284.5 583.3,284.5 584.7,284.5 586.1,284.5 587.6,284.5 589.0,284.5 590.4,284.5 591.8,284.5 593.3,284.5 594.7,284.5 596.1,284.5 597.5,284.5 599.0,284.5 600.4,284.5 601.8,284.5 603.2,284.5 604.7,284.5 606.1,284.5 607.5,284.5 608.9,284.5 610.4,284.5 611.8,284.5 613.2,284.5 614.6,284.5 616.1,284.5 617.5,284.5 618.9,284.5 620.4,284.5 621.8,284.5 623.2,284.5 624.6,284.5 626.1,284.5 627.5,284.5 628.9,284.5 630.3,284.5 631.8,284.5 633.2,284.5 634.6,284.5 636.0,284.5 637.5,284.5 638.9,284.5 640.3,284.5 641.7,284.5 643.2,284.5 644.6,284.5 646.0,284.5 647.4,284.5 648.9,284.5 650.3,284.5 651.7,284.5 653.1,284.5 654.6,284.5 656.0,284.5 657.4,284.5 658.8,284.5 660.3,284.5 661.7,284.5 663.1,284.5 664.6,284.5 666.0,284.5 667.4,284.5 668.8,284.5 670.3,284.5 671.7,284.5 673.1,284.5 674.5,284.5 676.0,284.5 677.4,284.5 678.8,284.5 680.2,284.5 681.7,284.5 683.1,284.5 684.5,284.5 685.9,284.5 687.4,284.5 688.8,284.5 690.2,284.5 691.6,284.5 693.1,284.5 694.5,284.5 695.9,284.5 697.3,284.5 698.8,284.5 700.2,284.5 701.6,284.5 703.0,284.5 704.5,284.5 705.9,284.5 707.3,284.5 708.8,284.5 710.2,284.5 711.6,284.5 713.0,284.5 714.5,284.5 715.9,284.5 717.3,284.5 718.7,284.5 720.2,284.5 721.6,284.5 723.0,284.5 724.4,284.5 725.9,284.5 727.3,284.5 728.7,284.5 730.1,284.5 731.6,284.5 733.0,284.5 734.4,284.5 735.8,284.5 737.3,284.5 738.7,284.5 740.1,284.5 741.5,284.5 743.0,284.5 744.4,284.5 745.8,284.5 747.2,284.5 748.7,284.5 750.1,284.5 751.5,284.5 752.9,284.5 754.4,284.5 755.8,284.5 757.2,284.5 758.7,284.5 760.1,284.5 761.5,284.5 762.9,284.5 764.4,284.5 765.8,284.5 767.2,284.5 768.6,284.5 770.1,284.5 771.5,284.5 772.9,284.5 774.3,284.5 775.8,284.5 777.2,284.5 778.6,284.5 780.0,284.5 781.5,284.5 782.9,284.5 784.3,284.5 785.7,284.5 787.2,284.5 788.6,284.5 790.0,284.5 791.4,284.5 792.9,284.5 794.3,284.5 795.7,284.5 797.1,284.5 798.6,284.5 L798.6,284.5 L435.0,284.5 Z" fill="url(#g201)" clip-path="url(#c203)"/>
  <path d="M435.0,207.0 435.0,207.0 436.4,286.1 437.9,287.3 439.3,288.2 440.7,288.7 442.1,289.0 443.6,289.0 445.0,289.0 446.4,288.8 447.8,288.5 449.3,288.2 450.7,287.9 452.1,287.5 453.5,287.1 455.0,286.8 456.4,286.5 457.8,286.2 459.2,285.9 460.7,285.7 462.1,285.4 463.5,285.2 464.9,285.1 466.4,284.9 467.8,284.8 469.2,284.7 470.6,284.6 472.1,284.6 473.5,284.5 474.9,284.5 476.3,284.5 477.8,284.4 479.2,284.4 480.6,284.4 482.1,284.4 483.5,284.4 484.9,284.4 486.3,284.4 487.8,284.4 489.2,284.4 490.6,284.4 492.0,284.4 493.5,284.5 494.9,284.5 496.3,284.5 497.7,284.5 499.2,284.5 500.6,284.5 502.0,284.5 503.4,284.5 504.9,284.5 506.3,284.5 507.7,284.5 509.1,284.5 510.6,284.5 512.0,284.5 513.4,284.5 514.8,284.5 516.3,284.5 517.7,284.5 519.1,284.5 520.5,284.5 522.0,284.5 523.4,284.5 524.8,284.5 526.3,284.5 527.7,284.5 529.1,284.5 530.5,284.5 532.0,284.5 533.4,284.5 534.8,284.5 536.2,284.5 537.7,284.5 539.1,284.5 540.5,284.5 541.9,284.5 543.4,284.5 544.8,284.5 546.2,284.5 547.6,284.5 549.1,284.5 550.5,284.5 551.9,284.5 553.3,284.5 554.8,284.5 556.2,284.5 557.6,284.5 559.0,284.5 560.5,284.5 561.9,284.5 563.3,284.5 564.7,284.5 566.2,284.5 567.6,284.5 569.0,284.5 570.4,284.5 571.9,284.5 573.3,284.5 574.7,284.5 576.2,284.5 577.6,284.5 579.0,284.5 580.4,284.5 581.9,284.5 583.3,284.5 584.7,284.5 586.1,284.5 587.6,284.5 589.0,284.5 590.4,284.5 591.8,284.5 593.3,284.5 594.7,284.5 596.1,284.5 597.5,284.5 599.0,284.5 600.4,284.5 601.8,284.5 603.2,284.5 604.7,284.5 606.1,284.5 607.5,284.5 608.9,284.5 610.4,284.5 611.8,284.5 613.2,284.5 614.6,284.5 616.1,284.5 617.5,284.5 618.9,284.5 620.4,284.5 621.8,284.5 623.2,284.5 624.6,284.5 626.1,284.5 627.5,284.5 628.9,284.5 630.3,284.5 631.8,284.5 633.2,284.5 634.6,284.5 636.0,284.5 637.5,284.5 638.9,284.5 640.3,284.5 641.7,284.5 643.2,284.5 644.6,284.5 646.0,284.5 647.4,284.5 648.9,284.5 650.3,284.5 651.7,284.5 653.1,284.5 654.6,284.5 656.0,284.5 657.4,284.5 658.8,284.5 660.3,284.5 661.7,284.5 663.1,284.5 664.6,284.5 666.0,284.5 667.4,284.5 668.8,284.5 670.3,284.5 671.7,284.5 673.1,284.5 674.5,284.5 676.0,284.5 677.4,284.5 678.8,284.5 680.2,284.5 681.7,284.5 683.1,284.5 684.5,284.5 685.9,284.5 687.4,284.5 688.8,284.5 690.2,284.5 691.6,284.5 693.1,284.5 694.5,284.5 695.9,284.5 697.3,284.5 698.8,284.5 700.2,284.5 701.6,284.5 703.0,284.5 704.5,284.5 705.9,284.5 707.3,284.5 708.8,284.5 710.2,284.5 711.6,284.5 713.0,284.5 714.5,284.5 715.9,284.5 717.3,284.5 718.7,284.5 720.2,284.5 721.6,284.5 723.0,284.5 724.4,284.5 725.9,284.5 727.3,284.5 728.7,284.5 730.1,284.5 731.6,284.5 733.0,284.5 734.4,284.5 735.8,284.5 737.3,284.5 738.7,284.5 740.1,284.5 741.5,284.5 743.0,284.5 744.4,284.5 745.8,284.5 747.2,284.5 748.7,284.5 750.1,284.5 751.5,284.5 752.9,284.5 754.4,284.5 755.8,284.5 757.2,284.5 758.7,284.5 760.1,284.5 761.5,284.5 762.9,284.5 764.4,284.5 765.8,284.5 767.2,284.5 768.6,284.5 770.1,284.5 771.5,284.5 772.9,284.5 774.3,284.5 775.8,284.5 777.2,284.5 778.6,284.5 780.0,284.5 781.5,284.5 782.9,284.5 784.3,284.5 785.7,284.5 787.2,284.5 788.6,284.5 790.0,284.5 791.4,284.5 792.9,284.5 794.3,284.5 795.7,284.5 797.1,284.5 798.6,284.5 L798.6,284.5 L435.0,284.5 Z" fill="url(#g202)" clip-path="url(#c204)"/>
  <defs><clipPath id="pc205"><rect x="435" y="207" width="365" height="155"/></clipPath></defs>
  <polyline points="435.0,207.0 436.4,286.1 437.9,287.3 439.3,288.2 440.7,288.7 442.1,289.0 443.6,289.0 445.0,289.0 446.4,288.8 447.8,288.5 449.3,288.2 450.7,287.9 452.1,287.5 453.5,287.1 455.0,286.8 456.4,286.5 457.8,286.2 459.2,285.9 460.7,285.7 462.1,285.4 463.5,285.2 464.9,285.1 466.4,284.9 467.8,284.8 469.2,284.7 470.6,284.6 472.1,284.6 473.5,284.5 474.9,284.5 476.3,284.5 477.8,284.4 479.2,284.4 480.6,284.4 482.1,284.4 483.5,284.4 484.9,284.4 486.3,284.4 487.8,284.4 489.2,284.4 490.6,284.4 492.0,284.4 493.5,284.5 494.9,284.5 496.3,284.5 497.7,284.5 499.2,284.5 500.6,284.5 502.0,284.5 503.4,284.5 504.9,284.5 506.3,284.5 507.7,284.5 509.1,284.5 510.6,284.5 512.0,284.5 513.4,284.5 514.8,284.5 516.3,284.5 517.7,284.5 519.1,284.5 520.5,284.5 522.0,284.5 523.4,284.5 524.8,284.5 526.3,284.5 527.7,284.5 529.1,284.5 530.5,284.5 532.0,284.5 533.4,284.5 534.8,284.5 536.2,284.5 537.7,284.5 539.1,284.5 540.5,284.5 541.9,284.5 543.4,284.5 544.8,284.5 546.2,284.5 547.6,284.5 549.1,284.5 550.5,284.5 551.9,284.5 553.3,284.5 554.8,284.5 556.2,284.5 557.6,284.5 559.0,284.5 560.5,284.5 561.9,284.5 563.3,284.5 564.7,284.5 566.2,284.5 567.6,284.5 569.0,284.5 570.4,284.5 571.9,284.5 573.3,284.5 574.7,284.5 576.2,284.5 577.6,284.5 579.0,284.5 580.4,284.5 581.9,284.5 583.3,284.5 584.7,284.5 586.1,284.5 587.6,284.5 589.0,284.5 590.4,284.5 591.8,284.5 593.3,284.5 594.7,284.5 596.1,284.5 597.5,284.5 599.0,284.5 600.4,284.5 601.8,284.5 603.2,284.5 604.7,284.5 606.1,284.5 607.5,284.5 608.9,284.5 610.4,284.5 611.8,284.5 613.2,284.5 614.6,284.5 616.1,284.5 617.5,284.5 618.9,284.5 620.4,284.5 621.8,284.5 623.2,284.5 624.6,284.5 626.1,284.5 627.5,284.5 628.9,284.5 630.3,284.5 631.8,284.5 633.2,284.5 634.6,284.5 636.0,284.5 637.5,284.5 638.9,284.5 640.3,284.5 641.7,284.5 643.2,284.5 644.6,284.5 646.0,284.5 647.4,284.5 648.9,284.5 650.3,284.5 651.7,284.5 653.1,284.5 654.6,284.5 656.0,284.5 657.4,284.5 658.8,284.5 660.3,284.5 661.7,284.5 663.1,284.5 664.6,284.5 666.0,284.5 667.4,284.5 668.8,284.5 670.3,284.5 671.7,284.5 673.1,284.5 674.5,284.5 676.0,284.5 677.4,284.5 678.8,284.5 680.2,284.5 681.7,284.5 683.1,284.5 684.5,284.5 685.9,284.5 687.4,284.5 688.8,284.5 690.2,284.5 691.6,284.5 693.1,284.5 694.5,284.5 695.9,284.5 697.3,284.5 698.8,284.5 700.2,284.5 701.6,284.5 703.0,284.5 704.5,284.5 705.9,284.5 707.3,284.5 708.8,284.5 710.2,284.5 711.6,284.5 713.0,284.5 714.5,284.5 715.9,284.5 717.3,284.5 718.7,284.5 720.2,284.5 721.6,284.5 723.0,284.5 724.4,284.5 725.9,284.5 727.3,284.5 728.7,284.5 730.1,284.5 731.6,284.5 733.0,284.5 734.4,284.5 735.8,284.5 737.3,284.5 738.7,284.5 740.1,284.5 741.5,284.5 743.0,284.5 744.4,284.5 745.8,284.5 747.2,284.5 748.7,284.5 750.1,284.5 751.5,284.5 752.9,284.5 754.4,284.5 755.8,284.5 757.2,284.5 758.7,284.5 760.1,284.5 761.5,284.5 762.9,284.5 764.4,284.5 765.8,284.5 767.2,284.5 768.6,284.5 770.1,284.5 771.5,284.5 772.9,284.5 774.3,284.5 775.8,284.5 777.2,284.5 778.6,284.5 780.0,284.5 781.5,284.5 782.9,284.5 784.3,284.5 785.7,284.5 787.2,284.5 788.6,284.5 790.0,284.5 791.4,284.5 792.9,284.5 794.3,284.5 795.7,284.5 797.1,284.5 798.6,284.5" fill="none" stroke="#f39c12" stroke-width="1.3" stroke-linejoin="round" clip-path="url(#pc205)"/>
</svg>
