<svg xmlns="http://www.w3.org/2000/svg" viewBox="0 0 800 240" style="font-family:system-ui,-apple-system,sans-serif">
  <text x="775" y="7" text-anchor="end" font-size="11" font-weight="600" fill="#6b7280">Moog ladder — resonance sweep, fc=1kHz</text>
  <line x1="55" y1="12" x2="55" y2="192" stroke="#d1d5db"/>
  <line x1="55" y1="48.0" x2="385" y2="48.0" stroke="#d1d5db"/>
  <text x="220" y="218" text-anchor="middle" font-size="9" fill="#6b7280">Hz</text>
  <text x="33" y="102" text-anchor="middle" font-size="9" fill="#6b7280" transform="rotate(-90 33 102)">dB</text>
  <line x1="85.1" y1="12" x2="85.1" y2="192" stroke="#e5e7eb" stroke-width="0.5"/>
  <line x1="102.7" y1="12" x2="102.7" y2="192" stroke="#e5e7eb" stroke-width="0.5"/>
  <line x1="115.2" y1="12" x2="115.2" y2="192" stroke="#e5e7eb" stroke-width="0.5"/>
  <line x1="124.9" y1="12" x2="124.9" y2="192" stroke="#e5e7eb" stroke-width="0.5"/>
  <line x1="132.8" y1="12" x2="132.8" y2="192" stroke="#e5e7eb" stroke-width="0.5"/>
  <line x1="139.5" y1="12" x2="139.5" y2="192" stroke="#e5e7eb" stroke-width="0.5"/>
  <line x1="145.3" y1="12" x2="145.3" y2="192" stroke="#e5e7eb" stroke-width="0.5"/>
  <line x1="150.4" y1="12" x2="150.4" y2="192" stroke="#e5e7eb" stroke-width="0.5"/>
  <line x1="185.1" y1="12" x2="185.1" y2="192" stroke="#e5e7eb" stroke-width="0.5"/>
  <line x1="202.7" y1="12" x2="202.7" y2="192" stroke="#e5e7eb" stroke-width="0.5"/>
  <line x1="215.2" y1="12" x2="215.2" y2="192" stroke="#e5e7eb" stroke-width="0.5"/>
  <line x1="224.8" y1="12" x2="224.8" y2="192" stroke="#e5e7eb" stroke-width="0.5"/>
  <line x1="232.8" y1="12" x2="232.8" y2="192" stroke="#e5e7eb" stroke-width="0.5"/>
  <line x1="239.5" y1="12" x2="239.5" y2="192" stroke="#e5e7eb" stroke-width="0.5"/>
  <line x1="245.2" y1="12" x2="245.2" y2="192" stroke="#e5e7eb" stroke-width="0.5"/>
  <line x1="250.4" y1="12" x2="250.4" y2="192" stroke="#e5e7eb" stroke-width="0.5"/>
  <line x1="285.0" y1="12" x2="285.0" y2="192" stroke="#e5e7eb" stroke-width="0.5"/>
  <line x1="302.6" y1="12" x2="302.6" y2="192" stroke="#e5e7eb" stroke-width="0.5"/>
  <line x1="315.1" y1="12" x2="315.1" y2="192" stroke="#e5e7eb" stroke-width="0.5"/>
  <line x1="324.8" y1="12" x2="324.8" y2="192" stroke="#e5e7eb" stroke-width="0.5"/>
  <line x1="332.7" y1="12" x2="332.7" y2="192" stroke="#e5e7eb" stroke-width="0.5"/>
  <line x1="339.4" y1="12" x2="339.4" y2="192" stroke="#e5e7eb" stroke-width="0.5"/>
  <line x1="345.2" y1="12" x2="345.2" y2="192" stroke="#e5e7eb" stroke-width="0.5"/>
  <line x1="350.3" y1="12" x2="350.3" y2="192" stroke="#e5e7eb" stroke-width="0.5"/>
  <line x1="385.0" y1="12" x2="385.0" y2="192" stroke="#e5e7eb" stroke-width="0.5"/>
  <line x1="155.0" y1="12" x2="155.0" y2="192" stroke="#e5e7eb" stroke-width="0.5"/>
  <text x="155.0" y="204" text-anchor="middle" font-size="8" fill="#6b7280">100</text>
  <line x1="254.9" y1="12" x2="254.9" y2="192" stroke="#e5e7eb" stroke-width="0.5"/>
  <text x="254.9" y="204" text-anchor="middle" font-size="8" fill="#6b7280">1k</text>
  <line x1="354.9" y1="12" x2="354.9" y2="192" stroke="#e5e7eb" stroke-width="0.5"/>
  <text x="354.9" y="204" text-anchor="middle" font-size="8" fill="#6b7280">10k</text>
  <line x1="55" y1="30.0" x2="385" y2="30.0" stroke="#e5e7eb" stroke-width="0.5"/>
  <line x1="55" y1="66.0" x2="385" y2="66.0" stroke="#e5e7eb" stroke-width="0.5"/>
  <line x1="55" y1="12.0" x2="385" y2="12.0" stroke="#e5e7eb" stroke-width="0.5"/>
  <text x="51" y="15.0" text-anchor="end" font-size="8" fill="#6b7280">+20</text>
  <text x="51" y="51.0" text-anchor="end" font-size="8" fill="#6b7280">0</text>
  <line x1="55" y1="84.0" x2="385" y2="84.0" stroke="#e5e7eb" stroke-width="0.5"/>
  <text x="51" y="87.0" text-anchor="end" font-size="8" fill="#6b7280">-20</text>
  <line x1="55" y1="120.0" x2="385" y2="120.0" stroke="#e5e7eb" stroke-width="0.5"/>
  <text x="51" y="123.0" text-anchor="end" font-size="8" fill="#6b7280">-40</text>
  <line x1="55" y1="156.0" x2="385" y2="156.0" stroke="#e5e7eb" stroke-width="0.5"/>
  <text x="51" y="159.0" text-anchor="end" font-size="8" fill="#6b7280">-60</text>
  <line x1="55" y1="192.0" x2="385" y2="192.0" stroke="#e5e7eb" stroke-width="0.5"/>
  <text x="51" y="195.0" text-anchor="end" font-size="8" fill="#6b7280">-80</text>
  <line x1="445" y1="12" x2="445" y2="192" stroke="#d1d5db"/>
  <line x1="445" y1="102.0" x2="775" y2="102.0" stroke="#d1d5db"/>
  <text x="610" y="218" text-anchor="middle" font-size="9" fill="#6b7280">Samples</text>
  <text x="423" y="102" text-anchor="middle" font-size="9" fill="#6b7280" transform="rotate(-90 423 102)">Impulse response</text>
  <line x1="445.0" y1="12" x2="445.0" y2="192" stroke="#e5e7eb" stroke-width="0.5"/>
  <text x="445.0" y="204" text-anchor="middle" font-size="8" fill="#6b7280">0</text>
  <line x1="527.5" y1="12" x2="527.5" y2="192" stroke="#e5e7eb" stroke-width="0.5"/>
  <text x="527.5" y="204" text-anchor="middle" font-size="8" fill="#6b7280">64</text>
  <line x1="610.0" y1="12" x2="610.0" y2="192" stroke="#e5e7eb" stroke-width="0.5"/>
  <text x="610.0" y="204" text-anchor="middle" font-size="8" fill="#6b7280">128</text>
  <line x1="692.5" y1="12" x2="692.5" y2="192" stroke="#e5e7eb" stroke-width="0.5"/>
  <text x="692.5" y="204" text-anchor="middle" font-size="8" fill="#6b7280">192</text>
  <line x1="775.0" y1="12" x2="775.0" y2="192" stroke="#e5e7eb" stroke-width="0.5"/>
  <text x="775.0" y="204" text-anchor="middle" font-size="8" fill="#6b7280">256</text>
  <line x1="445" y1="192.0" x2="775" y2="192.0" stroke="#e5e7eb" stroke-width="0.5"/>
  <text x="441" y="195.0" text-anchor="end" font-size="8" fill="#6b7280">-1</text>
  <text x="441" y="105.0" text-anchor="end" font-size="8" fill="#6b7280">0</text>
  <line x1="445" y1="12.0" x2="775" y2="12.0" stroke="#e5e7eb" stroke-width="0.5"/>
  <text x="441" y="15.0" text-anchor="end" font-size="8" fill="#6b7280">1</text>
  <defs><clipPath id="pc154"><rect x="55" y="12" width="330" height="180"/></clipPath></defs>
  <polyline points="58.2,52.3 88.3,52.3 105.9,52.3 118.4,52.3 128.1,52.3 136.0,52.4 142.7,52.4 148.5,52.5 153.6,52.5 158.2,52.6 162.3,52.7 166.1,52.8 169.6,52.9 172.8,53.0 175.8,53.1 178.6,53.2 181.2,53.3 183.7,53.4 186.0,53.5 188.3,53.7 190.4,53.8 192.4,54.0 194.3,54.1 196.2,54.3 198.0,54.4 199.7,54.6 201.3,54.8 202.9,55.0 204.4,55.2 205.9,55.4 207.3,55.6 208.7,55.8 210.0,56.0 211.3,56.2 212.6,56.4 213.8,56.6 215.0,56.9 216.1,57.1 217.3,57.3 218.4,57.6 219.4,57.8 220.5,58.1 221.5,58.3 222.5,58.6 223.5,58.8 224.4,59.1 225.4,59.4 226.3,59.6 227.2,59.9 228.1,60.2 228.9,60.5 229.8,60.8 230.6,61.1 231.4,61.3 233.0,61.9 234.5,62.5 236.0,63.1 237.4,63.8 238.8,64.4 240.1,65.0 241.4,65.7 242.7,66.3 243.9,67.0 245.1,67.6 246.2,68.3 247.4,68.9 248.5,69.6 249.5,70.3 250.6,70.9 251.6,71.6 252.6,72.3 253.6,73.0 254.5,73.6 255.5,74.3 256.4,75.0 257.3,75.7 258.1,76.3 259.0,77.0 259.8,77.7 260.7,78.4 261.5,79.0 262.7,80.0 263.8,81.0 265.0,82.0 266.1,83.0 267.1,84.0 268.2,85.0 269.2,85.9 270.2,86.9 271.2,87.8 272.1,88.8 273.1,89.7 274.0,90.7 274.9,91.6 275.7,92.5 276.6,93.4 277.5,94.3 278.3,95.2 279.1,96.1 280.1,97.3 281.2,98.4 282.2,99.6 283.2,100.7 284.1,101.8 285.1,102.9 286.0,104.0 286.9,105.1 287.8,106.1 288.7,107.2 289.5,108.2 290.4,109.2 291.2,110.2 292.0,111.2 293.0,112.5 293.9,113.7 294.9,114.9 295.8,116.1 296.7,117.2 297.6,118.4 298.4,119.5 299.3,120.6 300.1,121.7 300.9,122.8 301.7,123.8 302.7,125.1 303.6,126.3 304.5,127.6 305.4,128.8 306.3,130.0 307.1,131.1 308.0,132.3 308.8,133.4 309.6,134.5 310.5,135.8 311.4,137.1 312.3,138.3 313.2,139.6 314.0,140.8 314.8,142.0 315.6,143.1 316.4,144.3 317.3,145.6 318.2,146.9 319.1,148.1 319.9,149.4 320.8,150.6 321.6,151.8 322.5,153.1 323.3,154.5 324.2,155.7 325.1,157.0 325.9,158.3 326.7,159.5 327.6,160.9 328.5,162.2 329.3,163.6 330.1,164.9 331.0,166.1 331.8,167.4 332.6,168.8 333.5,170.1 334.3,171.5 335.1,172.8 335.9,174.1 336.8,175.5 337.6,176.9 338.5,178.3 339.3,179.6 340.1,181.1 341.0,182.5 341.8,184.0 342.6,185.4 343.5,186.9 344.3,188.3 345.2,189.8 346.0,191.3 346.8,192.8 347.7,194.3 348.5,195.9 349.3,197.4 350.1,199.0 351.0,200.5 351.8,202.1 352.6,203.8 353.4,205.4 354.3,207.1 355.1,208.8 355.9,210.5 356.7,212.3 357.6,214.1 358.4,215.9 359.2,217.7 360.1,219.6 360.9,221.5 361.7,223.4 362.5,225.5 363.3,227.5 364.1,229.5 365.0,231.7 365.8,233.9 366.6,236.1 367.4,238.5 368.3,240.9 369.1,243.4 369.9,245.9 370.7,248.6 371.5,251.3 372.3,254.2 373.1,257.2 373.9,260.3 374.8,263.6 375.6,267.1 376.4,270.8 377.2,274.7 378.0,278.8 378.8,283.3 379.6,288.1 380.4,293.4 381.3,299.2 382.1,305.6 382.9,312.8 383.7,320.9 384.5,330.4" fill="none" stroke="#4a90d9" stroke-width="1.3" stroke-linejoin="round" clip-path="url(#pc154)"/>
  <defs><clipPath id="pc155"><rect x="445" y="12" width="330" height="180"/></clipPath></defs>
  <polyline points="445.0,102.0 446.3,102.0 447.6,102.0 448.9,101.9 450.2,101.8 451.4,101.7 452.7,101.6 454.0,101.4 455.3,101.2 456.6,101.0 457.9,100.9 459.2,100.7 460.5,100.5 461.8,100.4 463.0,100.2 464.3,100.1 465.6,100.0 466.9,99.9 468.2,99.9 469.5,99.8 470.8,99.8 472.1,99.8 473.4,99.8 474.6,99.8 475.9,99.9 477.2,99.9 478.5,100.0 479.8,100.0 481.1,100.1 482.4,100.2 483.7,100.2 485.0,100.3 486.3,100.4 487.5,100.5 488.8,100.5 490.1,100.6 491.4,100.7 492.7,100.8 494.0,100.9 495.3,100.9 496.6,101.0 497.9,101.1 499.1,101.1 500.4,101.2 501.7,101.2 503.0,101.3 504.3,101.3 505.6,101.4 506.9,101.4 508.2,101.5 509.5,101.5 510.7,101.6 512.0,101.6 513.3,101.6 514.6,101.7 515.9,101.7 517.2,101.7 518.5,101.7 519.8,101.8 521.1,101.8 522.3,101.8 523.6,101.8 524.9,101.8 526.2,101.9 527.5,101.9 528.8,101.9 530.1,101.9 531.4,101.9 532.7,101.9 533.9,101.9 535.2,101.9 536.5,101.9 537.8,101.9 539.1,101.9 540.4,102.0 541.7,102.0 543.0,102.0 544.3,102.0 545.5,102.0 546.8,102.0 548.1,102.0 549.4,102.0 550.7,102.0 552.0,102.0 553.3,102.0 554.6,102.0 555.9,102.0 557.1,102.0 558.4,102.0 559.7,102.0 561.0,102.0 562.3,102.0 563.6,102.0 564.9,102.0 566.2,102.0 567.5,102.0 568.8,102.0 570.0,102.0 571.3,102.0 572.6,102.0 573.9,102.0 575.2,102.0 576.5,102.0 577.8,102.0 579.1,102.0 580.4,102.0 581.6,102.0 582.9,102.0 584.2,102.0 585.5,102.0 586.8,102.0 588.1,102.0 589.4,102.0 590.7,102.0 592.0,102.0 593.2,102.0 594.5,102.0 595.8,102.0 597.1,102.0 598.4,102.0 599.7,102.0 601.0,102.0 602.3,102.0 603.6,102.0 604.8,102.0 606.1,102.0 607.4,102.0 608.7,102.0 610.0,102.0 611.3,102.0 612.6,102.0 613.9,102.0 615.2,102.0 616.4,102.0 617.7,102.0 619.0,102.0 620.3,102.0 621.6,102.0 622.9,102.0 624.2,102.0 625.5,102.0 626.8,102.0 628.0,102.0 629.3,102.0 630.6,102.0 631.9,102.0 633.2,102.0 634.5,102.0 635.8,102.0 637.1,102.0 638.4,102.0 639.6,102.0 640.9,102.0 642.2,102.0 643.5,102.0 644.8,102.0 646.1,102.0 647.4,102.0 648.7,102.0 650.0,102.0 651.3,102.0 652.5,102.0 653.8,102.0 655.1,102.0 656.4,102.0 657.7,102.0 659.0,102.0 660.3,102.0 661.6,102.0 662.9,102.0 664.1,102.0 665.4,102.0 666.7,102.0 668.0,102.0 669.3,102.0 670.6,102.0 671.9,102.0 673.2,102.0 674.5,102.0 675.7,102.0 677.0,102.0 678.3,102.0 679.6,102.0 680.9,102.0 682.2,102.0 683.5,102.0 684.8,102.0 686.1,102.0 687.3,102.0 688.6,102.0 689.9,102.0 691.2,102.0 692.5,102.0 693.8,102.0 695.1,102.0 696.4,102.0 697.7,102.0 698.9,102.0 700.2,102.0 701.5,102.0 702.8,102.0 704.1,102.0 705.4,102.0 706.7,102.0 708.0,102.0 709.3,102.0 710.5,102.0 711.8,102.0 713.1,102.0 714.4,102.0 715.7,102.0 717.0,102.0 718.3,102.0 719.6,102.0 720.9,102.0 722.1,102.0 723.4,102.0 724.7,102.0 726.0,102.0 727.3,102.0 728.6,102.0 729.9,102.0 731.2,102.0 732.5,102.0 733.8,102.0 735.0,102.0 736.3,102.0 737.6,102.0 738.9,102.0 740.2,102.0 741.5,102.0 742.8,102.0 744.1,102.0 745.4,102.0 746.6,102.0 747.9,102.0 749.2,102.0 750.5,102.0 751.8,102.0 753.1,102.0 754.4,102.0 755.7,102.0 757.0,102.0 758.2,102.0 759.5,102.0 760.8,102.0 762.1,102.0 763.4,102.0 764.7,102.0 766.0,102.0 767.3,102.0 768.6,102.0 769.8,102.0 771.1,102.0 772.4,102.0 773.7,102.0" fill="none" stroke="#4a90d9" stroke-width="1.3" stroke-linejoin="round" clip-path="url(#pc155)"/>
  <defs><clipPath id="pc156"><rect x="55" y="12" width="330" height="180"/></clipPath></defs>
  <polyline points="58.2,63.6 88.3,63.6 105.9,63.6 118.4,63.6 128.1,63.6 136.0,63.6 142.7,63.6 148.5,63.5 153.6,63.5 158.2,63.5 162.3,63.4 166.1,63.4 169.6,63.3 172.8,63.3 175.8,63.2 178.6,63.2 181.2,63.1 183.7,63.0 186.0,63.0 188.3,62.9 190.4,62.8 192.4,62.7 194.3,62.7 196.2,62.6 198.0,62.5 199.7,62.4 201.3,62.3 202.9,62.2 204.4,62.1 205.9,62.0 207.3,61.9 208.7,61.7 210.0,61.6 211.3,61.5 212.6,61.4 213.8,61.3 215.0,61.1 216.1,61.0 217.3,60.9 218.4,60.7 219.4,60.6 220.5,60.5 221.5,60.3 222.5,60.2 223.5,60.1 224.4,59.9 225.4,59.8 226.3,59.7 227.2,59.6 228.1,59.5 228.9,59.4 229.8,59.3 230.6,59.2 231.4,59.1 233.0,59.0 234.5,58.9 236.0,58.9 237.4,58.9 238.8,59.1 240.1,59.3 241.4,59.7 242.7,60.1 243.9,60.6 245.1,61.2 246.2,61.8 247.4,62.6 248.5,63.3 249.5,64.2 250.6,65.0 251.6,65.9 252.6,66.8 253.6,67.7 254.5,68.7 255.5,69.6 256.4,70.5 257.3,71.4 258.1,72.3 259.0,73.2 259.8,74.1 260.7,75.0 261.5,75.9 262.7,77.2 263.8,78.4 265.0,79.7 266.1,80.9 267.1,82.0 268.2,83.2 269.2,84.3 270.2,85.5 271.2,86.6 272.1,87.6 273.1,88.7 274.0,89.7 274.9,90.8 275.7,91.8 276.6,92.7 277.5,93.7 278.3,94.7 279.1,95.6 280.1,96.9 281.2,98.1 282.2,99.3 283.2,100.4 284.1,101.6 285.1,102.7 286.0,103.9 286.9,105.0 287.8,106.0 288.7,107.1 289.5,108.2 290.4,109.2 291.2,110.2 292.0,111.2 293.0,112.5 293.9,113.7 294.9,114.9 295.8,116.1 296.7,117.2 297.6,118.4 298.4,119.5 299.3,120.6 300.1,121.7 300.9,122.8 301.7,123.9 302.7,125.2 303.6,126.4 304.5,127.6 305.4,128.8 306.3,130.0 307.1,131.2 308.0,132.3 308.8,133.5 309.6,134.6 310.5,135.9 311.4,137.1 312.3,138.4 313.2,139.6 314.0,140.8 314.8,142.0 315.6,143.2 316.4,144.3 317.3,145.6 318.2,146.9 319.1,148.1 319.9,149.4 320.8,150.6 321.6,151.8 322.5,153.2 323.3,154.5 324.2,155.8 325.1,157.0 325.9,158.3 326.7,159.5 327.6,160.9 328.5,162.2 329.3,163.6 330.1,164.9 331.0,166.1 331.8,167.4 332.6,168.8 333.5,170.2 334.3,171.5 335.1,172.8 335.9,174.1 336.8,175.5 337.6,176.9 338.5,178.3 339.3,179.6 340.1,181.1 341.0,182.5 341.8,184.0 342.6,185.4 343.5,186.9 344.3,188.3 345.2,189.8 346.0,191.3 346.8,192.8 347.7,194.3 348.5,195.9 349.3,197.4 350.1,199.0 351.0,200.5 351.8,202.1 352.6,203.8 353.4,205.4 354.3,207.1 355.1,208.8 355.9,210.5 356.7,212.3 357.6,214.1 358.4,215.9 359.2,217.7 360.1,219.6 360.9,221.5 361.7,223.4 362.5,225.5 363.3,227.5 364.1,229.5 365.0,231.7 365.8,233.9 366.6,236.1 367.4,238.5 368.3,240.9 369.1,243.4 369.9,245.9 370.7,248.6 371.5,251.3 372.3,254.2 373.1,257.2 373.9,260.3 374.8,263.6 375.6,267.1 376.4,270.8 377.2,274.7 378.0,278.8 378.8,283.3 379.6,288.1 380.4,293.4 381.3,299.2 382.1,305.6 382.9,312.8 383.7,320.9 384.5,330.4" fill="none" stroke="#e74c3c" stroke-width="1.3" stroke-linejoin="round" clip-path="url(#pc156)"/>
  <defs><clipPath id="pc157"><rect x="445" y="12" width="330" height="180"/></clipPath></defs>
  <polyline points="445.0,102.0 446.3,102.0 447.6,102.0 448.9,101.9 450.2,101.8 451.4,101.7 452.7,101.6 454.0,101.4 455.3,101.2 456.6,101.1 457.9,100.9 459.2,100.7 460.5,100.5 461.8,100.4 463.0,100.3 464.3,100.2 465.6,100.1 466.9,100.0 468.2,100.0 469.5,100.0 470.8,100.0 472.1,100.0 473.4,100.1 474.6,100.2 475.9,100.2 477.2,100.3 478.5,100.4 479.8,100.6 481.1,100.7 482.4,100.8 483.7,101.0 485.0,101.1 486.3,101.2 487.5,101.4 488.8,101.5 490.1,101.6 491.4,101.7 492.7,101.9 494.0,102.0 495.3,102.1 496.6,102.2 497.9,102.2 499.1,102.3 500.4,102.4 501.7,102.4 503.0,102.5 504.3,102.5 505.6,102.6 506.9,102.6 508.2,102.6 509.5,102.6 510.7,102.6 512.0,102.6 513.3,102.6 514.6,102.5 515.9,102.5 517.2,102.5 518.5,102.4 519.8,102.4 521.1,102.4 522.3,102.3 523.6,102.3 524.9,102.3 526.2,102.2 527.5,102.2 528.8,102.1 530.1,102.1 531.4,102.1 532.7,102.0 533.9,102.0 535.2,102.0 536.5,101.9 537.8,101.9 539.1,101.9 540.4,101.9 541.7,101.9 543.0,101.9 544.3,101.8 545.5,101.8 546.8,101.8 548.1,101.8 549.4,101.8 550.7,101.8 552.0,101.8 553.3,101.8 554.6,101.8 555.9,101.9 557.1,101.9 558.4,101.9 559.7,101.9 561.0,101.9 562.3,101.9 563.6,101.9 564.9,101.9 566.2,101.9 567.5,102.0 568.8,102.0 570.0,102.0 571.3,102.0 572.6,102.0 573.9,102.0 575.2,102.0 576.5,102.0 577.8,102.0 579.1,102.0 580.4,102.0 581.6,102.0 582.9,102.0 584.2,102.0 585.5,102.0 586.8,102.1 588.1,102.1 589.4,102.1 590.7,102.0 592.0,102.0 593.2,102.0 594.5,102.0 595.8,102.0 597.1,102.0 598.4,102.0 599.7,102.0 601.0,102.0 602.3,102.0 603.6,102.0 604.8,102.0 606.1,102.0 607.4,102.0 608.7,102.0 610.0,102.0 611.3,102.0 612.6,102.0 613.9,102.0 615.2,102.0 616.4,102.0 617.7,102.0 619.0,102.0 620.3,102.0 621.6,102.0 622.9,102.0 624.2,102.0 625.5,102.0 626.8,102.0 628.0,102.0 629.3,102.0 630.6,102.0 631.9,102.0 633.2,102.0 634.5,102.0 635.8,102.0 637.1,102.0 638.4,102.0 639.6,102.0 640.9,102.0 642.2,102.0 643.5,102.0 644.8,102.0 646.1,102.0 647.4,102.0 648.7,102.0 650.0,102.0 651.3,102.0 652.5,102.0 653.8,102.0 655.1,102.0 656.4,102.0 657.7,102.0 659.0,102.0 660.3,102.0 661.6,102.0 662.9,102.0 664.1,102.0 665.4,102.0 666.7,102.0 668.0,102.0 669.3,102.0 670.6,102.0 671.9,102.0 673.2,102.0 674.5,102.0 675.7,102.0 677.0,102.0 678.3,102.0 679.6,102.0 680.9,102.0 682.2,102.0 683.5,102.0 684.8,102.0 686.1,102.0 687.3,102.0 688.6,102.0 689.9,102.0 691.2,102.0 692.5,102.0 693.8,102.0 695.1,102.0 696.4,102.0 697.7,102.0 698.9,102.0 700.2,102.0 701.5,102.0 702.8,102.0 704.1,102.0 705.4,102.0 706.7,102.0 708.0,102.0 709.3,102.0 710.5,102.0 711.8,102.0 713.1,102.0 714.4,102.0 715.7,102.0 717.0,102.0 718.3,102.0 719.6,102.0 720.9,102.0 722.1,102.0 723.4,102.0 724.7,102.0 726.0,102.0 727.3,102.0 728.6,102.0 729.9,102.0 731.2,102.0 732.5,102.0 733.8,102.0 735.0,102.0 736.3,102.0 737.6,102.0 738.9,102.0 740.2,102.0 741.5,102.0 742.8,102.0 744.1,102.0 745.4,102.0 746.6,102.0 747.9,102.0 749.2,102.0 750.5,102.0 751.8,102.0 753.1,102.0 754.4,102.0 755.7,102.0 757.0,102.0 758.2,102.0 759.5,102.0 760.8,102.0 762.1,102.0 763.4,102.0 764.7,102.0 766.0,102.0 767.3,102.0 768.6,102.0 769.8,102.0 771.1,102.0 772.4,102.0 773.7,102.0" fill="none" stroke="#e74c3c" stroke-width="1.3" stroke-linejoin="round" clip-path="url(#pc157)"/>
  <defs><clipPath id="pc158"><rect x="55" y="12" width="330" height="180"/></clipPath></defs>
  <polyline points="58.2,70.2 88.3,70.1 105.9,70.1 118.4,70.1 128.1,70.1 136.0,70.1 142.7,70.1 148.5,70.0 153.6,70.0 158.2,70.0 162.3,69.9 166.1,69.9 169.6,69.8 172.8,69.8 175.8,69.7 178.6,69.6 181.2,69.6 183.7,69.5 186.0,69.4 188.3,69.3 190.4,69.3 192.4,69.2 194.3,69.1 196.2,69.0 198.0,68.9 199.7,68.7 201.3,68.6 202.9,68.5 204.4,68.4 205.9,68.2 207.3,68.1 208.7,68.0 210.0,67.8 211.3,67.7 212.6,67.5 213.8,67.3 215.0,67.1 216.1,67.0 217.3,66.8 218.4,66.6 219.4,66.4 220.5,66.1 221.5,65.9 222.5,65.7 223.5,65.5 224.4,65.2 225.4,64.9 226.3,64.7 227.2,64.4 228.1,64.1 228.9,63.8 229.8,63.5 230.6,63.2 231.4,62.9 233.0,62.2 234.5,61.5 236.0,60.7 237.4,59.9 238.8,59.0 240.1,58.1 241.4,57.3 242.7,56.4 243.9,55.7 245.1,55.0 246.2,54.6 247.4,54.5 248.5,54.7 249.5,55.2 250.6,56.1 251.6,57.2 252.6,58.5 253.6,59.9 254.5,61.3 255.5,62.8 256.4,64.2 257.3,65.6 258.1,67.0 259.0,68.3 259.8,69.6 260.7,70.9 261.5,72.1 262.7,73.8 263.8,75.5 265.0,77.0 266.1,78.6 267.1,80.0 268.2,81.4 269.2,82.7 270.2,84.0 271.2,85.3 272.1,86.5 273.1,87.7 274.0,88.8 274.9,90.0 275.7,91.1 276.6,92.1 277.5,93.2 278.3,94.2 279.1,95.2 280.1,96.5 281.2,97.8 282.2,99.0 283.2,100.2 284.1,101.4 285.1,102.6 286.0,103.7 286.9,104.9 287.8,106.0 288.7,107.1 289.5,108.1 290.4,109.2 291.2,110.2 292.0,111.2 293.0,112.5 293.9,113.7 294.9,114.9 295.8,116.1 296.7,117.3 297.6,118.4 298.4,119.6 299.3,120.7 300.1,121.8 300.9,122.9 301.7,123.9 302.7,125.2 303.6,126.4 304.5,127.7 305.4,128.9 306.3,130.1 307.1,131.2 308.0,132.4 308.8,133.5 309.6,134.6 310.5,135.9 311.4,137.2 312.3,138.4 313.2,139.6 314.0,140.8 314.8,142.0 315.6,143.2 316.4,144.3 317.3,145.6 318.2,146.9 319.1,148.2 319.9,149.4 320.8,150.6 321.6,151.8 322.5,153.2 323.3,154.5 324.2,155.8 325.1,157.1 325.9,158.3 326.7,159.6 327.6,160.9 328.5,162.3 329.3,163.6 330.1,164.9 331.0,166.2 331.8,167.4 332.6,168.8 333.5,170.2 334.3,171.5 335.1,172.8 335.9,174.1 336.8,175.5 337.6,176.9 338.5,178.3 339.3,179.7 340.1,181.1 341.0,182.5 341.8,184.0 342.6,185.4 343.5,186.9 344.3,188.3 345.2,189.8 346.0,191.3 346.8,192.8 347.7,194.3 348.5,195.9 349.3,197.4 350.1,199.0 351.0,200.5 351.8,202.1 352.6,203.8 353.4,205.4 354.3,207.1 355.1,208.8 355.9,210.5 356.7,212.3 357.6,214.1 358.4,215.9 359.2,217.7 360.1,219.6 360.9,221.5 361.7,223.5 362.5,225.5 363.3,227.5 364.1,229.5 365.0,231.7 365.8,233.9 366.6,236.1 367.4,238.5 368.3,240.9 369.1,243.4 369.9,245.9 370.7,248.6 371.5,251.3 372.3,254.2 373.1,257.2 373.9,260.3 374.8,263.6 375.6,267.1 376.4,270.8 377.2,274.7 378.0,278.8 378.8,283.3 379.6,288.1 380.4,293.4 381.3,299.2 382.1,305.6 382.9,312.8 383.7,320.9 384.5,330.4" fill="none" stroke="#2ecc71" stroke-width="1.3" stroke-linejoin="round" clip-path="url(#pc158)"/>
  <defs><clipPath id="pc159"><rect x="445" y="12" width="330" height="180"/></clipPath></defs>
  <polyline points="445.0,102.0 446.3,102.0 447.6,102.0 448.9,101.9 450.2,101.8 451.4,101.7 452.7,101.6 454.0,101.4 455.3,101.2 456.6,101.1 457.9,100.9 459.2,100.7 460.5,100.6 461.8,100.4 463.0,100.3 464.3,100.2 465.6,100.2 466.9,100.1 468.2,100.1 469.5,100.1 470.8,100.2 472.1,100.3 473.4,100.3 474.6,100.5 475.9,100.6 477.2,100.7 478.5,100.9 479.8,101.1 481.1,101.2 482.4,101.4 483.7,101.6 485.0,101.8 486.3,102.0 487.5,102.1 488.8,102.3 490.1,102.4 491.4,102.6 492.7,102.7 494.0,102.8 495.3,102.9 496.6,103.0 497.9,103.0 499.1,103.1 500.4,103.1 501.7,103.1 503.0,103.1 504.3,103.1 505.6,103.0 506.9,103.0 508.2,102.9 509.5,102.8 510.7,102.7 512.0,102.6 513.3,102.5 514.6,102.4 515.9,102.3 517.2,102.2 518.5,102.1 519.8,102.0 521.1,101.9 522.3,101.8 523.6,101.7 524.9,101.6 526.2,101.6 527.5,101.5 528.8,101.5 530.1,101.4 531.4,101.4 532.7,101.4 533.9,101.4 535.2,101.4 536.5,101.4 537.8,101.4 539.1,101.4 540.4,101.4 541.7,101.5 543.0,101.5 544.3,101.6 545.5,101.6 546.8,101.7 548.1,101.8 549.4,101.8 550.7,101.9 552.0,102.0 553.3,102.0 554.6,102.1 555.9,102.1 557.1,102.2 558.4,102.2 559.7,102.3 561.0,102.3 562.3,102.3 563.6,102.4 564.9,102.4 566.2,102.4 567.5,102.4 568.8,102.4 570.0,102.4 571.3,102.4 572.6,102.3 573.9,102.3 575.2,102.3 576.5,102.3 577.8,102.2 579.1,102.2 580.4,102.2 581.6,102.1 582.9,102.1 584.2,102.1 585.5,102.0 586.8,102.0 588.1,101.9 589.4,101.9 590.7,101.9 592.0,101.9 593.2,101.8 594.5,101.8 595.8,101.8 597.1,101.8 598.4,101.8 599.7,101.8 601.0,101.8 602.3,101.8 603.6,101.8 604.8,101.8 606.1,101.8 607.4,101.8 608.7,101.8 610.0,101.8 611.3,101.9 612.6,101.9 613.9,101.9 615.2,101.9 616.4,102.0 617.7,102.0 619.0,102.0 620.3,102.0 621.6,102.0 622.9,102.1 624.2,102.1 625.5,102.1 626.8,102.1 628.0,102.1 629.3,102.1 630.6,102.1 631.9,102.1 633.2,102.1 634.5,102.1 635.8,102.1 637.1,102.1 638.4,102.1 639.6,102.1 640.9,102.1 642.2,102.1 643.5,102.1 644.8,102.1 646.1,102.1 647.4,102.1 648.7,102.0 650.0,102.0 651.3,102.0 652.5,102.0 653.8,102.0 655.1,102.0 656.4,102.0 657.7,102.0 659.0,101.9 660.3,101.9 661.6,101.9 662.9,101.9 664.1,101.9 665.4,101.9 666.7,101.9 668.0,101.9 669.3,101.9 670.6,101.9 671.9,101.9 673.2,101.9 674.5,101.9 675.7,101.9 677.0,101.9 678.3,102.0 679.6,102.0 680.9,102.0 682.2,102.0 683.5,102.0 684.8,102.0 686.1,102.0 687.3,102.0 688.6,102.0 689.9,102.0 691.2,102.0 692.5,102.0 693.8,102.0 695.1,102.0 696.4,102.0 697.7,102.0 698.9,102.0 700.2,102.0 701.5,102.0 702.8,102.0 704.1,102.0 705.4,102.0 706.7,102.0 708.0,102.0 709.3,102.0 710.5,102.0 711.8,102.0 713.1,102.0 714.4,102.0 715.7,102.0 717.0,102.0 718.3,102.0 719.6,102.0 720.9,102.0 722.1,102.0 723.4,102.0 724.7,102.0 726.0,102.0 727.3,102.0 728.6,102.0 729.9,102.0 731.2,102.0 732.5,102.0 733.8,102.0 735.0,102.0 736.3,102.0 737.6,102.0 738.9,102.0 740.2,102.0 741.5,102.0 742.8,102.0 744.1,102.0 745.4,102.0 746.6,102.0 747.9,102.0 749.2,102.0 750.5,102.0 751.8,102.0 753.1,102.0 754.4,102.0 755.7,102.0 757.0,102.0 758.2,102.0 759.5,102.0 760.8,102.0 762.1,102.0 763.4,102.0 764.7,102.0 766.0,102.0 767.3,102.0 768.6,102.0 769.8,102.0 771.1,102.0 772.4,102.0 773.7,102.0" fill="none" stroke="#2ecc71" stroke-width="1.3" stroke-linejoin="round" clip-path="url(#pc159)"/>
  <defs><clipPath id="pc160"><rect x="55" y="12" width="330" height="180"/></clipPath></defs>
  <polyline points="58.2,74.7 88.3,74.7 105.9,74.7 118.4,74.7 128.1,74.7 136.0,74.7 142.7,74.6 148.5,74.6 153.6,74.6 158.2,74.6 162.3,74.5 166.1,74.5 169.6,74.4 172.8,74.4 175.8,74.3 178.6,74.3 181.2,74.2 183.7,74.2 186.0,74.1 188.3,74.0 190.4,73.9 192.4,73.9 194.3,73.8 196.2,73.7 198.0,73.6 199.7,73.5 201.3,73.4 202.9,73.3 204.4,73.2 205.9,73.0 207.3,72.9 208.7,72.8 210.0,72.7 211.3,72.5 212.6,72.4 213.8,72.2 215.0,72.1 216.1,71.9 217.3,71.7 218.4,71.5 219.4,71.4 220.5,71.2 221.5,71.0 222.5,70.8 223.5,70.6 224.4,70.3 225.4,70.1 226.3,69.9 227.2,69.6 228.1,69.3 228.9,69.1 229.8,68.8 230.6,68.5 231.4,68.2 233.0,67.5 234.5,66.8 236.0,66.0 237.4,65.2 238.8,64.2 240.1,63.2 241.4,62.1 242.7,60.8 243.9,59.4 245.1,57.7 246.2,55.9 247.4,53.8 248.5,51.4 249.5,48.7 250.6,45.8 251.6,43.3 252.6,42.5 253.6,44.0 254.5,47.0 255.5,50.4 256.4,53.7 257.3,56.6 258.1,59.2 259.0,61.6 259.8,63.7 260.7,65.7 261.5,67.5 262.7,70.0 263.8,72.2 265.0,74.3 266.1,76.2 267.1,77.9 268.2,79.6 269.2,81.2 270.2,82.7 271.2,84.1 272.1,85.5 273.1,86.8 274.0,88.0 274.9,89.3 275.7,90.4 276.6,91.6 277.5,92.7 278.3,93.8 279.1,94.8 280.1,96.2 281.2,97.5 282.2,98.8 283.2,100.1 284.1,101.3 285.1,102.5 286.0,103.7 286.9,104.8 287.8,105.9 288.7,107.0 289.5,108.1 290.4,109.2 291.2,110.2 292.0,111.2 293.0,112.5 293.9,113.7 294.9,115.0 295.8,116.1 296.7,117.3 297.6,118.5 298.4,119.6 299.3,120.7 300.1,121.8 300.9,122.9 301.7,124.0 302.7,125.3 303.6,126.5 304.5,127.7 305.4,128.9 306.3,130.1 307.1,131.3 308.0,132.4 308.8,133.5 309.6,134.7 310.5,135.9 311.4,137.2 312.3,138.4 313.2,139.7 314.0,140.9 314.8,142.0 315.6,143.2 316.4,144.4 317.3,145.7 318.2,146.9 319.1,148.2 319.9,149.4 320.8,150.7 321.6,151.9 322.5,153.2 323.3,154.5 324.2,155.8 325.1,157.1 325.9,158.3 326.7,159.6 327.6,160.9 328.5,162.3 329.3,163.6 330.1,164.9 331.0,166.2 331.8,167.4 332.6,168.8 333.5,170.2 334.3,171.5 335.1,172.8 335.9,174.1 336.8,175.5 337.6,176.9 338.5,178.3 339.3,179.7 340.1,181.1 341.0,182.5 341.8,184.0 342.6,185.4 343.5,186.9 344.3,188.3 345.2,189.8 346.0,191.3 346.8,192.8 347.7,194.3 348.5,195.9 349.3,197.4 350.1,199.0 351.0,200.5 351.8,202.1 352.6,203.8 353.4,205.4 354.3,207.1 355.1,208.8 355.9,210.5 356.7,212.3 357.6,214.1 358.4,215.9 359.2,217.7 360.1,219.6 360.9,221.5 361.7,223.4 362.5,225.5 363.3,227.5 364.1,229.5 365.0,231.7 365.8,233.9 366.6,236.1 367.4,238.5 368.3,240.9 369.1,243.4 369.9,245.9 370.7,248.6 371.5,251.3 372.3,254.2 373.1,257.2 373.9,260.3 374.8,263.6 375.6,267.1 376.4,270.8 377.2,274.7 378.0,278.9 378.8,283.4 379.6,288.2 380.4,293.2 381.3,299.0 382.1,305.2 382.9,313.5 383.7,319.9 384.5,328.6" fill="none" stroke="#f39c12" stroke-width="1.3" stroke-linejoin="round" clip-path="url(#pc160)"/>
  <defs><clipPath id="pc161"><rect x="445" y="12" width="330" height="180"/></clipPath></defs>
  <polyline points="445.0,102.0 446.3,102.0 447.6,102.0 448.9,101.9 450.2,101.8 451.4,101.7 452.7,101.6 454.0,101.4 455.3,101.2 456.6,101.1 457.9,100.9 459.2,100.7 460.5,100.6 461.8,100.5 463.0,100.4 464.3,100.3 465.6,100.2 466.9,100.2 468.2,100.2 469.5,100.3 470.8,100.4 472.1,100.5 473.4,100.6 474.6,100.8 475.9,100.9 477.2,101.1 478.5,101.3 479.8,101.5 481.1,101.8 482.4,102.0 483.7,102.2 485.0,102.4 486.3,102.6 487.5,102.8 488.8,103.0 490.1,103.1 491.4,103.2 492.7,103.3 494.0,103.4 495.3,103.5 496.6,103.5 497.9,103.5 499.1,103.5 500.4,103.4 501.7,103.3 503.0,103.2 504.3,103.1 505.6,102.9 506.9,102.8 508.2,102.6 509.5,102.4 510.7,102.3 512.0,102.1 513.3,101.9 514.6,101.7 515.9,101.5 517.2,101.4 518.5,101.2 519.8,101.1 521.1,101.0 522.3,100.9 523.6,100.8 524.9,100.8 526.2,100.8 527.5,100.8 528.8,100.8 530.1,100.8 531.4,100.9 532.7,101.0 533.9,101.1 535.2,101.2 536.5,101.3 537.8,101.4 539.1,101.6 540.4,101.7 541.7,101.9 543.0,102.0 544.3,102.2 545.5,102.3 546.8,102.5 548.1,102.6 549.4,102.7 550.7,102.8 552.0,102.9 553.3,103.0 554.6,103.0 555.9,103.0 557.1,103.0 558.4,103.0 559.7,103.0 561.0,103.0 562.3,102.9 563.6,102.8 564.9,102.7 566.2,102.6 567.5,102.5 568.8,102.4 570.0,102.3 571.3,102.1 572.6,102.0 573.9,101.9 575.2,101.7 576.5,101.6 577.8,101.5 579.1,101.4 580.4,101.3 581.6,101.3 582.9,101.2 584.2,101.2 585.5,101.1 586.8,101.1 588.1,101.1 589.4,101.1 590.7,101.2 592.0,101.2 593.2,101.3 594.5,101.4 595.8,101.5 597.1,101.5 598.4,101.6 599.7,101.8 601.0,101.9 602.3,102.0 603.6,102.1 604.8,102.2 606.1,102.3 607.4,102.4 608.7,102.5 610.0,102.5 611.3,102.6 612.6,102.7 613.9,102.7 615.2,102.7 616.4,102.7 617.7,102.7 619.0,102.7 620.3,102.7 621.6,102.7 622.9,102.6 624.2,102.5 625.5,102.5 626.8,102.4 628.0,102.3 629.3,102.2 630.6,102.1 631.9,102.1 633.2,102.0 634.5,101.9 635.8,101.8 637.1,101.7 638.4,101.6 639.6,101.6 640.9,101.5 642.2,101.5 643.5,101.4 644.8,101.4 646.1,101.4 647.4,101.4 648.7,101.4 650.0,101.4 651.3,101.4 652.5,101.5 653.8,101.5 655.1,101.6 656.4,101.6 657.7,101.7 659.0,101.8 660.3,101.9 661.6,101.9 662.9,102.0 664.1,102.1 665.4,102.2 666.7,102.2 668.0,102.3 669.3,102.3 670.6,102.4 671.9,102.4 673.2,102.5 674.5,102.5 675.7,102.5 677.0,102.5 678.3,102.5 679.6,102.5 680.9,102.5 682.2,102.4 683.5,102.4 684.8,102.4 686.1,102.3 687.3,102.3 688.6,102.2 689.9,102.1 691.2,102.1 692.5,102.0 693.8,101.9 695.1,101.9 696.4,101.8 697.7,101.8 698.9,101.7 700.2,101.7 701.5,101.6 702.8,101.6 704.1,101.6 705.4,101.6 706.7,101.6 708.0,101.6 709.3,101.6 710.5,101.6 711.8,101.6 713.1,101.6 714.4,101.7 715.7,101.7 717.0,101.8 718.3,101.8 719.6,101.9 720.9,101.9 722.1,102.0 723.4,102.0 724.7,102.1 726.0,102.1 727.3,102.2 728.6,102.2 729.9,102.3 731.2,102.3 732.5,102.3 733.8,102.3 735.0,102.4 736.3,102.4 737.6,102.4 738.9,102.4 740.2,102.3 741.5,102.3 742.8,102.3 744.1,102.3 745.4,102.2 746.6,102.2 747.9,102.2 749.2,102.1 750.5,102.1 751.8,102.0 753.1,102.0 754.4,101.9 755.7,101.9 757.0,101.9 758.2,101.8 759.5,101.8 760.8,101.8 762.1,101.7 763.4,101.7 764.7,101.7 766.0,101.7 767.3,101.7 768.6,101.7 769.8,101.7 771.1,101.7 772.4,101.7 773.7,101.8" fill="none" stroke="#f39c12" stroke-width="1.3" stroke-linejoin="round" clip-path="url(#pc161)"/>
  <defs><clipPath id="pc162"><rect x="55" y="12" width="330" height="180"/></clipPath></defs>
  <polyline points="58.2,57.4 88.3,50.8 105.9,57.4 118.4,50.8 128.1,57.3 136.0,50.7 142.7,57.2 148.5,50.7 153.6,57.1 158.2,50.6 162.3,57.0 166.1,50.5 169.6,56.8 172.8,50.4 175.8,56.6 178.6,50.3 181.2,56.4 183.7,50.2 186.0,56.2 188.3,50.0 190.4,55.9 192.4,49.8 194.3,55.6 196.2,49.7 198.0,55.3 199.7,49.5 201.3,55.0 202.9,49.2 204.4,54.6 205.9,49.0 207.3,54.2 208.7,48.7 210.0,53.7 211.3,48.4 212.6,53.3 213.8,48.1 215.0,52.8 216.1,47.8 217.3,52.3 218.4,47.4 219.4,51.8 220.5,47.0 221.5,51.2 222.5,46.6 223.5,50.6 224.4,46.2 225.4,49.9 226.3,45.7 227.2,49.3 228.1,45.2 228.9,48.6 229.8,44.6 230.6,47.8 231.4,44.0 233.0,43.4 234.5,42.7 236.0,41.9 237.4,41.1 238.8,40.2 240.1,39.3 241.4,38.2 242.7,37.1 243.9,35.8 245.1,34.3 246.2,32.7 247.4,30.9 248.5,28.7 249.5,26.2 250.6,23.1 251.6,19.3 252.6,13.5 253.6,7.0 254.5,-15.8 255.5,-20.0 256.4,11.3 257.3,17.7 258.1,21.1 259.0,25.2 259.8,28.2 260.7,30.8 261.5,33.1 262.7,34.7 263.8,38.4 265.0,39.2 266.1,42.5 267.1,42.6 268.2,45.7 269.2,45.5 270.2,48.4 271.2,47.8 272.1,50.7 273.1,49.9 274.0,52.7 274.9,51.7 275.7,54.5 276.6,53.3 277.5,56.1 278.3,54.8 279.1,57.5 280.1,58.4 281.2,59.2 282.2,60.0 283.2,60.7 284.1,61.4 285.1,62.1 286.0,62.7 286.9,63.3 287.8,63.8 288.7,64.4 289.5,64.9 290.4,65.4 291.2,65.9 292.0,66.4 293.0,65.3 293.9,67.4 294.9,66.5 295.8,68.4 296.7,67.6 297.6,69.4 298.4,68.6 299.3,70.2 300.1,69.5 300.9,71.1 301.7,70.5 302.7,74.1 303.6,71.2 304.5,71.7 305.4,72.2 306.3,72.6 307.1,73.1 308.0,73.5 308.8,73.9 309.6,74.3 310.5,75.3 311.4,75.1 312.3,76.1 313.2,76.0 314.0,76.8 314.8,76.7 315.6,77.5 316.4,77.4 317.3,77.8 318.2,78.2 319.1,78.6 319.9,79.0 320.8,79.3 321.6,79.6 322.5,80.2 323.3,80.4 324.2,80.9 325.1,81.1 325.9,81.5 326.7,81.7 327.6,82.1 328.5,82.4 329.3,82.8 330.1,83.1 331.0,83.4 331.8,83.7 332.6,84.1 333.5,84.4 334.3,84.7 335.1,85.0 335.9,85.3 336.8,85.6 337.6,85.9 338.5,86.2 339.3,86.5 340.1,86.8 341.0,87.1 341.8,87.4 342.6,87.7 343.5,88.0 344.3,88.3 345.2,88.5 346.0,88.8 346.8,89.1 347.7,89.4 348.5,89.7 349.3,89.9 350.1,90.2 351.0,90.5 351.8,90.7 352.6,91.0 353.4,91.3 354.3,91.5 355.1,91.8 355.9,92.0 356.7,92.3 357.6,92.5 358.4,92.8 359.2,93.0 360.1,93.3 360.9,93.5 361.7,93.7 362.5,94.0 363.3,94.2 364.1,94.4 365.0,94.6 365.8,94.8 366.6,95.0 367.4,95.3 368.3,95.5 369.1,95.7 369.9,95.9 370.7,96.0 371.5,96.2 372.3,96.4 373.1,96.6 373.9,96.8 374.8,96.9 375.6,97.1 376.4,97.2 377.2,97.4 378.0,97.5 378.8,97.6 379.6,97.8 380.4,97.9 381.3,98.0 382.1,98.1 382.9,98.2 383.7,98.3 384.5,98.3" fill="none" stroke="#9b59b6" stroke-width="1.3" stroke-linejoin="round" clip-path="url(#pc162)"/>
  <defs><clipPath id="pc163"><rect x="445" y="12" width="330" height="180"/></clipPath></defs>
  <polyline points="445.0,102.0 446.3,102.0 447.6,102.0 448.9,101.9 450.2,101.8 451.4,101.7 452.7,101.6 454.0,101.4 455.3,101.2 456.6,101.1 457.9,100.9 459.2,100.7 460.5,100.6 461.8,100.5 463.0,100.4 464.3,100.3 465.6,100.3 466.9,100.3 468.2,100.3 469.5,100.4 470.8,100.5 472.1,100.7 473.4,100.8 474.6,101.0 475.9,101.2 477.2,101.5 478.5,101.7 479.8,102.0 481.1,102.2 482.4,102.5 483.7,102.7 485.0,102.9 486.3,103.2 487.5,103.3 488.8,103.5 490.1,103.6 491.4,103.7 492.7,103.8 494.0,103.8 495.3,103.8 496.6,103.7 497.9,103.6 499.1,103.5 500.4,103.3 501.7,103.2 503.0,103.0 504.3,102.7 505.6,102.5 506.9,102.2 508.2,101.9 509.5,101.7 510.7,101.4 512.0,101.2 513.3,100.9 514.6,100.7 515.9,100.5 517.2,100.4 518.5,100.3 519.8,100.2 521.1,100.1 522.3,100.1 523.6,100.1 524.9,100.2 526.2,100.3 527.5,100.5 528.8,100.6 530.1,100.8 531.4,101.1 532.7,101.3 533.9,101.6 535.2,101.9 536.5,102.1 537.8,102.4 539.1,102.7 540.4,103.0 541.7,103.2 543.0,103.4 544.3,103.6 545.5,103.7 546.8,103.9 548.1,103.9 549.4,104.0 550.7,104.0 552.0,103.9 553.3,103.9 554.6,103.7 555.9,103.6 557.1,103.4 558.4,103.1 559.7,102.9 561.0,102.6 562.3,102.3 563.6,102.0 564.9,101.8 566.2,101.5 567.5,101.2 568.8,100.9 570.0,100.7 571.3,100.5 572.6,100.3 573.9,100.1 575.2,100.0 576.5,99.9 577.8,99.9 579.1,99.9 580.4,100.0 581.6,100.1 582.9,100.2 584.2,100.4 585.5,100.6 586.8,100.9 588.1,101.1 589.4,101.4 590.7,101.7 592.0,102.0 593.2,102.4 594.5,102.7 595.8,103.0 597.1,103.2 598.4,103.5 599.7,103.7 601.0,103.9 602.3,104.0 603.6,104.1 604.8,104.2 606.1,104.2 607.4,104.2 608.7,104.1 610.0,104.0 611.3,103.8 612.6,103.6 613.9,103.4 615.2,103.1 616.4,102.8 617.7,102.5 619.0,102.2 620.3,101.8 621.6,101.5 622.9,101.2 624.2,100.9 625.5,100.6 626.8,100.4 628.0,100.1 629.3,100.0 630.6,99.8 631.9,99.7 633.2,99.7 634.5,99.7 635.8,99.7 637.1,99.8 638.4,100.0 639.6,100.2 640.9,100.4 642.2,100.6 643.5,100.9 644.8,101.2 646.1,101.6 647.4,101.9 648.7,102.3 650.0,102.6 651.3,102.9 652.5,103.2 653.8,103.5 655.1,103.8 656.4,104.0 657.7,104.2 659.0,104.3 660.3,104.4 661.6,104.4 662.9,104.4 664.1,104.4 665.4,104.2 666.7,104.1 668.0,103.9 669.3,103.6 670.6,103.3 671.9,103.0 673.2,102.7 674.5,102.3 675.7,102.0 677.0,101.6 678.3,101.3 679.6,100.9 680.9,100.6 682.2,100.3 683.5,100.0 684.8,99.8 686.1,99.6 687.3,99.5 688.6,99.5 689.9,99.4 691.2,99.5 692.5,99.6 693.8,99.7 695.1,99.9 696.4,100.1 697.7,100.4 698.9,100.7 700.2,101.0 701.5,101.4 702.8,101.8 704.1,102.1 705.4,102.5 706.7,102.9 708.0,103.3 709.3,103.6 710.5,103.9 711.8,104.1 713.1,104.4 714.4,104.5 715.7,104.6 717.0,104.7 718.3,104.7 719.6,104.6 720.9,104.5 722.1,104.4 723.4,104.2 724.7,103.9 726.0,103.6 727.3,103.3 728.6,102.9 729.9,102.5 731.2,102.1 732.5,101.7 733.8,101.3 735.0,100.9 736.3,100.6 737.6,100.2 738.9,99.9 740.2,99.7 741.5,99.5 742.8,99.3 744.1,99.2 745.4,99.2 746.6,99.2 747.9,99.2 749.2,99.4 750.5,99.6 751.8,99.8 753.1,100.1 754.4,100.4 755.7,100.8 757.0,101.2 758.2,101.6 759.5,102.0 760.8,102.4 762.1,102.8 763.4,103.2 764.7,103.6 766.0,103.9 767.3,104.3 768.6,104.5 769.8,104.7 771.1,104.9 772.4,105.0 773.7,105.0" fill="none" stroke="#9b59b6" stroke-width="1.3" stroke-linejoin="round" clip-path="url(#pc163)"/>
  <rect x="69" y="116" width="92" height="70" fill="white" fill-opacity="0.85" rx="3"/>
  <line x1="75" y1="127" x2="87" y2="127" stroke="#4a90d9" stroke-width="2"/>
  <text x="91" y="130" font-size="8" fill="#6b7280">res=0</text>
  <line x1="75" y1="139" x2="87" y2="139" stroke="#e74c3c" stroke-width="2"/>
  <text x="91" y="142" font-size="8" fill="#6b7280">res=0.25</text>
  <line x1="75" y1="151" x2="87" y2="151" stroke="#2ecc71" stroke-width="2"/>
  <text x="91" y="154" font-size="8" fill="#6b7280">res=0.5</text>
  <line x1="75" y1="163" x2="87" y2="163" stroke="#f39c12" stroke-width="2"/>
  <text x="91" y="166" font-size="8" fill="#6b7280">res=0.75</text>
  <line x1="75" y1="175" x2="87" y2="175" stroke="#9b59b6" stroke-width="2"/>
  <text x="91" y="178" font-size="8" fill="#6b7280">res=1</text>
</svg>
