<svg xmlns="http://www.w3.org/2000/svg" viewBox="0 0 820 378" style="font-family:system-ui,-apple-system,sans-serif">
  <text x="800" y="11" text-anchor="end" font-size="11" font-weight="600" fill="#6b7280">Parametric EQ (3 bands)</text>
  <line x1="34" y1="16" x2="34" y2="171" stroke="#d1d5db"/>
  <line x1="34" y1="47.0" x2="399" y2="47.0" stroke="#d1d5db"/>
  <text x="216.5" y="197" text-anchor="middle" font-size="9" fill="#6b7280">Hz</text>
  <text x="12" y="93.5" text-anchor="middle" font-size="9" fill="#6b7280" transform="rotate(-90 12 93.5)">dB</text>
  <line x1="67.3" y1="16" x2="67.3" y2="171" stroke="#e5e7eb" stroke-width="0.5"/>
  <line x1="86.8" y1="16" x2="86.8" y2="171" stroke="#e5e7eb" stroke-width="0.5"/>
  <line x1="100.6" y1="16" x2="100.6" y2="171" stroke="#e5e7eb" stroke-width="0.5"/>
  <line x1="111.3" y1="16" x2="111.3" y2="171" stroke="#e5e7eb" stroke-width="0.5"/>
  <line x1="120.0" y1="16" x2="120.0" y2="171" stroke="#e5e7eb" stroke-width="0.5"/>
  <line x1="127.4" y1="16" x2="127.4" y2="171" stroke="#e5e7eb" stroke-width="0.5"/>
  <line x1="133.9" y1="16" x2="133.9" y2="171" stroke="#e5e7eb" stroke-width="0.5"/>
  <line x1="139.5" y1="16" x2="139.5" y2="171" stroke="#e5e7eb" stroke-width="0.5"/>
  <line x1="177.9" y1="16" x2="177.9" y2="171" stroke="#e5e7eb" stroke-width="0.5"/>
  <line x1="197.3" y1="16" x2="197.3" y2="171" stroke="#e5e7eb" stroke-width="0.5"/>
  <line x1="211.1" y1="16" x2="211.1" y2="171" stroke="#e5e7eb" stroke-width="0.5"/>
  <line x1="221.9" y1="16" x2="221.9" y2="171" stroke="#e5e7eb" stroke-width="0.5"/>
  <line x1="230.6" y1="16" x2="230.6" y2="171" stroke="#e5e7eb" stroke-width="0.5"/>
  <line x1="238.0" y1="16" x2="238.0" y2="171" stroke="#e5e7eb" stroke-width="0.5"/>
  <line x1="244.4" y1="16" x2="244.4" y2="171" stroke="#e5e7eb" stroke-width="0.5"/>
  <line x1="250.1" y1="16" x2="250.1" y2="171" stroke="#e5e7eb" stroke-width="0.5"/>
  <line x1="288.4" y1="16" x2="288.4" y2="171" stroke="#e5e7eb" stroke-width="0.5"/>
  <line x1="307.9" y1="16" x2="307.9" y2="171" stroke="#e5e7eb" stroke-width="0.5"/>
  <line x1="321.7" y1="16" x2="321.7" y2="171" stroke="#e5e7eb" stroke-width="0.5"/>
  <line x1="332.4" y1="16" x2="332.4" y2="171" stroke="#e5e7eb" stroke-width="0.5"/>
  <line x1="341.2" y1="16" x2="341.2" y2="171" stroke="#e5e7eb" stroke-width="0.5"/>
  <line x1="348.6" y1="16" x2="348.6" y2="171" stroke="#e5e7eb" stroke-width="0.5"/>
  <line x1="355.0" y1="16" x2="355.0" y2="171" stroke="#e5e7eb" stroke-width="0.5"/>
  <line x1="360.7" y1="16" x2="360.7" y2="171" stroke="#e5e7eb" stroke-width="0.5"/>
  <line x1="399.0" y1="16" x2="399.0" y2="171" stroke="#e5e7eb" stroke-width="0.5"/>
  <line x1="144.6" y1="16" x2="144.6" y2="171" stroke="#e5e7eb" stroke-width="0.5"/>
  <text x="144.6" y="183" text-anchor="middle" font-size="8" fill="#6b7280">100</text>
  <line x1="255.1" y1="16" x2="255.1" y2="171" stroke="#e5e7eb" stroke-width="0.5"/>
  <text x="255.1" y="183" text-anchor="middle" font-size="8" fill="#6b7280">1k</text>
  <line x1="365.7" y1="16" x2="365.7" y2="171" stroke="#e5e7eb" stroke-width="0.5"/>
  <text x="365.7" y="183" text-anchor="middle" font-size="8" fill="#6b7280">10k</text>
  <line x1="34" y1="31.5" x2="399" y2="31.5" stroke="#e5e7eb" stroke-width="0.5"/>
  <line x1="34" y1="62.5" x2="399" y2="62.5" stroke="#e5e7eb" stroke-width="0.5"/>
  <line x1="34" y1="16.0" x2="399" y2="16.0" stroke="#e5e7eb" stroke-width="0.5"/>
  <text x="30" y="19.0" text-anchor="end" font-size="8" fill="#6b7280">+20</text>
  <text x="30" y="50.0" text-anchor="end" font-size="8" fill="#6b7280">0</text>
  <line x1="34" y1="78.0" x2="399" y2="78.0" stroke="#e5e7eb" stroke-width="0.5"/>
  <text x="30" y="81.0" text-anchor="end" font-size="8" fill="#6b7280">-20</text>
  <line x1="34" y1="109.0" x2="399" y2="109.0" stroke="#e5e7eb" stroke-width="0.5"/>
  <text x="30" y="112.0" text-anchor="end" font-size="8" fill="#6b7280">-40</text>
  <line x1="34" y1="140.0" x2="399" y2="140.0" stroke="#e5e7eb" stroke-width="0.5"/>
  <text x="30" y="143.0" text-anchor="end" font-size="8" fill="#6b7280">-60</text>
  <line x1="34" y1="171.0" x2="399" y2="171.0" stroke="#e5e7eb" stroke-width="0.5"/>
  <text x="30" y="174.0" text-anchor="end" font-size="8" fill="#6b7280">-80</text>
  <defs><linearGradient id="g237" x1="0" y1="16" x2="0" y2="171" gradientUnits="userSpaceOnUse">
    <stop offset="0%" stop-color="#4a90d9" stop-opacity="0.15"/>
    <stop offset="100%" stop-color="#4a90d9" stop-opacity="0.02"/>
  </linearGradient></defs>
  <path d="M37.5,47.0 37.5,47.0 70.8,47.0 90.3,47.1 104.1,47.1 114.8,47.2 123.6,47.3 131.0,47.4 137.4,47.5 143.1,47.6 148.1,47.8 152.7,47.9 156.9,48.1 160.7,48.3 164.3,48.6 167.6,48.8 170.7,49.1 173.6,49.4 176.3,49.7 178.9,50.0 181.4,50.4 183.7,50.8 186.0,51.2 188.1,51.6 190.2,52.1 192.1,52.5 194.0,53.0 195.8,53.4 197.6,53.9 199.2,54.3 200.9,54.7 202.4,55.1 204.0,55.4 205.5,55.7 206.9,55.9 208.3,56.1 209.6,56.2 210.9,56.2 212.2,56.2 213.5,56.1 214.7,56.0 215.9,55.8 217.0,55.6 218.2,55.4 219.3,55.1 220.3,54.9 221.4,54.6 222.4,54.3 223.4,54.1 224.4,53.8 225.4,53.5 226.4,53.3 227.3,53.0 228.2,52.8 229.1,52.6 230.0,52.4 230.8,52.1 231.7,51.9 232.5,51.7 233.4,51.5 234.2,51.4 235.7,51.0 237.3,50.7 238.7,50.4 240.2,50.1 241.6,49.9 242.9,49.6 244.2,49.4 245.5,49.2 246.8,49.0 248.0,48.8 249.2,48.7 250.3,48.5 251.4,48.3 252.6,48.2 253.6,48.0 254.7,47.9 255.7,47.7 256.7,47.6 257.7,47.4 258.7,47.3 259.6,47.2 260.6,47.0 261.5,46.9 262.4,46.7 263.3,46.6 264.1,46.4 265.0,46.3 265.8,46.1 266.6,46.0 267.4,45.8 268.6,45.5 269.8,45.3 270.9,45.0 272.0,44.7 273.1,44.3 274.2,44.0 275.2,43.6 276.2,43.2 277.2,42.8 278.2,42.4 279.1,41.9 280.0,41.4 281.0,41.0 281.9,40.5 282.7,40.0 283.6,39.6 284.5,39.2 285.3,38.8 286.1,38.5 286.9,38.3 288.0,38.1 289.0,38.1 290.0,38.2 291.0,38.5 292.0,38.8 292.9,39.3 293.9,39.7 294.8,40.1 295.7,40.6 296.6,41.0 297.4,41.4 298.3,41.8 299.1,42.2 299.9,42.5 300.7,42.8 301.7,43.1 302.7,43.4 303.6,43.7 304.6,43.9 305.5,44.2 306.4,44.4 307.3,44.5 308.1,44.7 309.0,44.8 309.8,45.0 310.6,45.1 311.4,45.2 312.4,45.3 313.3,45.4 314.2,45.5 315.1,45.6 316.0,45.6 316.9,45.7 317.7,45.8 318.6,45.8 319.4,45.9 320.2,45.9 321.1,45.9 322.0,46.0 322.9,46.0 323.8,46.0 324.7,46.0 325.5,46.1 326.3,46.1 327.1,46.1 327.9,46.1 328.8,46.1 329.7,46.1 330.6,46.1 331.4,46.1 332.3,46.1 333.1,46.1 333.9,46.0 334.8,46.0 335.7,46.0 336.5,46.0 337.4,45.9 338.2,45.9 339.0,45.9 339.8,45.8 340.7,45.8 341.6,45.7 342.4,45.7 343.3,45.6 344.1,45.6 344.9,45.5 345.8,45.5 346.6,45.4 347.5,45.3 348.3,45.2 349.1,45.2 350.0,45.1 350.8,45.0 351.7,44.9 352.5,44.8 353.3,44.7 354.1,44.7 355.0,44.6 355.8,44.5 356.6,44.4 357.5,44.3 358.3,44.2 359.1,44.1 360.0,44.0 360.8,43.9 361.6,43.8 362.5,43.7 363.3,43.6 364.1,43.6 364.9,43.5 365.8,43.4 366.6,43.3 367.4,43.2 368.2,43.2 369.1,43.1 369.9,43.0 370.7,43.0 371.6,42.9 372.4,42.9 373.2,42.8 374.0,42.8 374.8,42.7 375.6,42.7 376.5,42.7 377.3,42.6 378.1,42.6 378.9,42.6 379.7,42.5 380.5,42.5 381.4,42.5 382.2,42.5 383.0,42.5 383.8,42.4 384.6,42.4 385.5,42.4 386.3,42.4 387.1,42.4 387.9,42.4 388.7,42.4 389.5,42.4 390.3,42.4 391.2,42.4 392.0,42.4 392.8,42.4 393.6,42.4 394.4,42.4 395.2,42.4 396.0,42.4 396.8,42.4 397.6,42.4 398.5,42.4 L398.5,171.0 L37.5,171.0 Z" fill="url(#g237)"/>
  <defs><clipPath id="pc238"><rect x="34" y="16" width="365" height="155"/></clipPath></defs>
  <polyline points="37.5,47.0 70.8,47.0 90.3,47.1 104.1,47.1 114.8,47.2 123.6,47.3 131.0,47.4 137.4,47.5 143.1,47.6 148.1,47.8 152.7,47.9 156.9,48.1 160.7,48.3 164.3,48.6 167.6,48.8 170.7,49.1 173.6,49.4 176.3,49.7 178.9,50.0 181.4,50.4 183.7,50.8 186.0,51.2 188.1,51.6 190.2,52.1 192.1,52.5 194.0,53.0 195.8,53.4 197.6,53.9 199.2,54.3 200.9,54.7 202.4,55.1 204.0,55.4 205.5,55.7 206.9,55.9 208.3,56.1 209.6,56.2 210.9,56.2 212.2,56.2 213.5,56.1 214.7,56.0 215.9,55.8 217.0,55.6 218.2,55.4 219.3,55.1 220.3,54.9 221.4,54.6 222.4,54.3 223.4,54.1 224.4,53.8 225.4,53.5 226.4,53.3 227.3,53.0 228.2,52.8 229.1,52.6 230.0,52.4 230.8,52.1 231.7,51.9 232.5,51.7 233.4,51.5 234.2,51.4 235.7,51.0 237.3,50.7 238.7,50.4 240.2,50.1 241.6,49.9 242.9,49.6 244.2,49.4 245.5,49.2 246.8,49.0 248.0,48.8 249.2,48.7 250.3,48.5 251.4,48.3 252.6,48.2 253.6,48.0 254.7,47.9 255.7,47.7 256.7,47.6 257.7,47.4 258.7,47.3 259.6,47.2 260.6,47.0 261.5,46.9 262.4,46.7 263.3,46.6 264.1,46.4 265.0,46.3 265.8,46.1 266.6,46.0 267.4,45.8 268.6,45.5 269.8,45.3 270.9,45.0 272.0,44.7 273.1,44.3 274.2,44.0 275.2,43.6 276.2,43.2 277.2,42.8 278.2,42.4 279.1,41.9 280.0,41.4 281.0,41.0 281.9,40.5 282.7,40.0 283.6,39.6 284.5,39.2 285.3,38.8 286.1,38.5 286.9,38.3 288.0,38.1 289.0,38.1 290.0,38.2 291.0,38.5 292.0,38.8 292.9,39.3 293.9,39.7 294.8,40.1 295.7,40.6 296.6,41.0 297.4,41.4 298.3,41.8 299.1,42.2 299.9,42.5 300.7,42.8 301.7,43.1 302.7,43.4 303.6,43.7 304.6,43.9 305.5,44.2 306.4,44.4 307.3,44.5 308.1,44.7 309.0,44.8 309.8,45.0 310.6,45.1 311.4,45.2 312.4,45.3 313.3,45.4 314.2,45.5 315.1,45.6 316.0,45.6 316.9,45.7 317.7,45.8 318.6,45.8 319.4,45.9 320.2,45.9 321.1,45.9 322.0,46.0 322.9,46.0 323.8,46.0 324.7,46.0 325.5,46.1 326.3,46.1 327.1,46.1 327.9,46.1 328.8,46.1 329.7,46.1 330.6,46.1 331.4,46.1 332.3,46.1 333.1,46.1 333.9,46.0 334.8,46.0 335.7,46.0 336.5,46.0 337.4,45.9 338.2,45.9 339.0,45.9 339.8,45.8 340.7,45.8 341.6,45.7 342.4,45.7 343.3,45.6 344.1,45.6 344.9,45.5 345.8,45.5 346.6,45.4 347.5,45.3 348.3,45.2 349.1,45.2 350.0,45.1 350.8,45.0 351.7,44.9 352.5,44.8 353.3,44.7 354.1,44.7 355.0,44.6 355.8,44.5 356.6,44.4 357.5,44.3 358.3,44.2 359.1,44.1 360.0,44.0 360.8,43.9 361.6,43.8 362.5,43.7 363.3,43.6 364.1,43.6 364.9,43.5 365.8,43.4 366.6,43.3 367.4,43.2 368.2,43.2 369.1,43.1 369.9,43.0 370.7,43.0 371.6,42.9 372.4,42.9 373.2,42.8 374.0,42.8 374.8,42.7 375.6,42.7 376.5,42.7 377.3,42.6 378.1,42.6 378.9,42.6 379.7,42.5 380.5,42.5 381.4,42.5 382.2,42.5 383.0,42.5 383.8,42.4 384.6,42.4 385.5,42.4 386.3,42.4 387.1,42.4 387.9,42.4 388.7,42.4 389.5,42.4 390.3,42.4 391.2,42.4 392.0,42.4 392.8,42.4 393.6,42.4 394.4,42.4 395.2,42.4 396.0,42.4 396.8,42.4 397.6,42.4 398.5,42.4" fill="none" stroke="#4a90d9" stroke-width="1.5" stroke-linejoin="round" clip-path="url(#pc238)"/>
  <line x1="435" y1="16" x2="435" y2="171" stroke="#d1d5db"/>
  <line x1="435" y1="93.5" x2="800" y2="93.5" stroke="#d1d5db"/>
  <text x="617.5" y="197" text-anchor="middle" font-size="9" fill="#6b7280">Hz</text>
  <text x="413" y="93.5" text-anchor="middle" font-size="9" fill="#6b7280" transform="rotate(-90 413 93.5)">Phase (deg)</text>
  <line x1="468.3" y1="16" x2="468.3" y2="171" stroke="#e5e7eb" stroke-width="0.5"/>
  <line x1="487.8" y1="16" x2="487.8" y2="171" stroke="#e5e7eb" stroke-width="0.5"/>
  <line x1="501.6" y1="16" x2="501.6" y2="171" stroke="#e5e7eb" stroke-width="0.5"/>
  <line x1="512.3" y1="16" x2="512.3" y2="171" stroke="#e5e7eb" stroke-width="0.5"/>
  <line x1="521.0" y1="16" x2="521.0" y2="171" stroke="#e5e7eb" stroke-width="0.5"/>
  <line x1="528.4" y1="16" x2="528.4" y2="171" stroke="#e5e7eb" stroke-width="0.5"/>
  <line x1="534.9" y1="16" x2="534.9" y2="171" stroke="#e5e7eb" stroke-width="0.5"/>
  <line x1="540.5" y1="16" x2="540.5" y2="171" stroke="#e5e7eb" stroke-width="0.5"/>
  <line x1="578.9" y1="16" x2="578.9" y2="171" stroke="#e5e7eb" stroke-width="0.5"/>
  <line x1="598.3" y1="16" x2="598.3" y2="171" stroke="#e5e7eb" stroke-width="0.5"/>
  <line x1="612.1" y1="16" x2="612.1" y2="171" stroke="#e5e7eb" stroke-width="0.5"/>
  <line x1="622.9" y1="16" x2="622.9" y2="171" stroke="#e5e7eb" stroke-width="0.5"/>
  <line x1="631.6" y1="16" x2="631.6" y2="171" stroke="#e5e7eb" stroke-width="0.5"/>
  <line x1="639.0" y1="16" x2="639.0" y2="171" stroke="#e5e7eb" stroke-width="0.5"/>
  <line x1="645.4" y1="16" x2="645.4" y2="171" stroke="#e5e7eb" stroke-width="0.5"/>
  <line x1="651.1" y1="16" x2="651.1" y2="171" stroke="#e5e7eb" stroke-width="0.5"/>
  <line x1="689.4" y1="16" x2="689.4" y2="171" stroke="#e5e7eb" stroke-width="0.5"/>
  <line x1="708.9" y1="16" x2="708.9" y2="171" stroke="#e5e7eb" stroke-width="0.5"/>
  <line x1="722.7" y1="16" x2="722.7" y2="171" stroke="#e5e7eb" stroke-width="0.5"/>
  <line x1="733.4" y1="16" x2="733.4" y2="171" stroke="#e5e7eb" stroke-width="0.5"/>
  <line x1="742.2" y1="16" x2="742.2" y2="171" stroke="#e5e7eb" stroke-width="0.5"/>
  <line x1="749.6" y1="16" x2="749.6" y2="171" stroke="#e5e7eb" stroke-width="0.5"/>
  <line x1="756.0" y1="16" x2="756.0" y2="171" stroke="#e5e7eb" stroke-width="0.5"/>
  <line x1="761.7" y1="16" x2="761.7" y2="171" stroke="#e5e7eb" stroke-width="0.5"/>
  <line x1="800.0" y1="16" x2="800.0" y2="171" stroke="#e5e7eb" stroke-width="0.5"/>
  <line x1="545.6" y1="16" x2="545.6" y2="171" stroke="#e5e7eb" stroke-width="0.5"/>
  <text x="545.6" y="183" text-anchor="middle" font-size="8" fill="#6b7280">100</text>
  <line x1="656.1" y1="16" x2="656.1" y2="171" stroke="#e5e7eb" stroke-width="0.5"/>
  <text x="656.1" y="183" text-anchor="middle" font-size="8" fill="#6b7280">1k</text>
  <line x1="766.7" y1="16" x2="766.7" y2="171" stroke="#e5e7eb" stroke-width="0.5"/>
  <text x="766.7" y="183" text-anchor="middle" font-size="8" fill="#6b7280">10k</text>
  <line x1="435" y1="58.6" x2="800" y2="58.6" stroke="#e5e7eb" stroke-width="0.5"/>
  <line x1="435" y1="128.4" x2="800" y2="128.4" stroke="#e5e7eb" stroke-width="0.5"/>
  <line x1="435" y1="23.8" x2="800" y2="23.8" stroke="#e5e7eb" stroke-width="0.5"/>
  <text x="431" y="26.8" text-anchor="end" font-size="8" fill="#6b7280">180</text>
  <text x="431" y="96.5" text-anchor="end" font-size="8" fill="#6b7280">0</text>
  <line x1="435" y1="163.3" x2="800" y2="163.3" stroke="#e5e7eb" stroke-width="0.5"/>
  <text x="431" y="166.3" text-anchor="end" font-size="8" fill="#6b7280">-180</text>
  <defs><linearGradient id="g239" x1="0" y1="16" x2="0" y2="93.5" gradientUnits="userSpaceOnUse">
    <stop offset="0%" stop-color="#e74c3c" stop-opacity="0.15"/>
    <stop offset="100%" stop-color="#e74c3c" stop-opacity="0.02"/>
  </linearGradient></defs>
  <defs><linearGradient id="g240" x1="0" y1="171" x2="0" y2="93.5" gradientUnits="userSpaceOnUse">
    <stop offset="0%" stop-color="#e74c3c" stop-opacity="0.15"/>
    <stop offset="100%" stop-color="#e74c3c" stop-opacity="0.02"/>
  </linearGradient></defs>
  <defs><clipPath id="c241"><rect x="435" y="16" width="365" height="77.5"/></clipPath></defs>
  <defs><clipPath id="c242"><rect x="435" y="93.5" width="365" height="77.5"/></clipPath></defs>
  <path d="M438.5,93.9 438.5,93.9 471.8,94.2 491.3,94.6 505.1,95.0 515.8,95.4 524.6,95.7 532.0,96.1 538.4,96.4 544.1,96.8 549.1,97.2 553.7,97.5 557.9,97.8 561.7,98.1 565.3,98.5 568.6,98.7 571.7,99.0 574.6,99.3 577.3,99.5 579.9,99.6 582.4,99.8 584.7,99.9 587.0,99.9 589.1,99.9 591.2,99.8 593.1,99.7 595.0,99.4 596.8,99.1 598.6,98.7 600.2,98.2 601.9,97.6 603.4,96.9 605.0,96.2 606.5,95.4 607.9,94.5 609.3,93.6 610.6,92.7 611.9,91.8 613.2,90.9 614.5,90.1 615.7,89.3 616.9,88.5 618.0,87.8 619.2,87.2 620.3,86.6 621.3,86.1 622.4,85.6 623.4,85.2 624.4,84.9 625.4,84.5 626.4,84.3 627.4,84.0 628.3,83.8 629.2,83.6 630.1,83.5 631.0,83.3 631.8,83.2 632.7,83.1 633.5,83.0 634.4,82.9 635.2,82.9 636.7,82.8 638.3,82.7 639.7,82.7 641.2,82.6 642.6,82.6 643.9,82.6 645.2,82.6 646.5,82.5 647.8,82.5 649.0,82.5 650.2,82.5 651.3,82.5 652.4,82.5 653.6,82.4 654.6,82.4 655.7,82.4 656.7,82.3 657.7,82.3 658.7,82.3 659.7,82.2 660.6,82.2 661.6,82.1 662.5,82.0 663.4,82.0 664.3,81.9 665.1,81.9 666.0,81.8 666.8,81.7 667.6,81.6 668.4,81.6 669.6,81.5 670.8,81.4 671.9,81.3 673.0,81.2 674.1,81.1 675.2,81.1 676.2,81.0 677.2,81.1 678.2,81.1 679.2,81.2 680.1,81.4 681.0,81.6 682.0,82.0 682.9,82.4 683.7,82.9 684.6,83.6 685.5,84.3 686.3,85.2 687.1,86.1 687.9,87.1 689.0,88.5 690.0,89.9 691.0,91.2 692.0,92.4 693.0,93.5 693.9,94.4 694.9,95.1 695.8,95.7 696.7,96.1 697.6,96.4 698.4,96.6 699.3,96.8 700.1,96.9 700.9,96.9 701.7,96.9 702.7,96.9 703.7,96.8 704.6,96.7 705.6,96.6 706.5,96.4 707.4,96.3 708.3,96.1 709.1,96.0 710.0,95.9 710.8,95.7 711.6,95.6 712.4,95.4 713.4,95.2 714.3,95.1 715.2,94.9 716.1,94.7 717.0,94.6 717.9,94.4 718.7,94.3 719.6,94.1 720.4,94.0 721.2,93.9 722.1,93.7 723.0,93.5 723.9,93.4 724.8,93.3 725.7,93.1 726.5,93.0 727.3,92.8 728.1,92.7 728.9,92.6 729.8,92.4 730.7,92.3 731.6,92.2 732.4,92.0 733.3,91.9 734.1,91.8 734.9,91.6 735.8,91.5 736.7,91.4 737.5,91.2 738.4,91.1 739.2,91.0 740.0,90.9 740.8,90.8 741.7,90.6 742.6,90.5 743.4,90.4 744.3,90.3 745.1,90.2 745.9,90.1 746.8,90.0 747.6,89.9 748.5,89.8 749.3,89.7 750.1,89.6 751.0,89.6 751.8,89.5 752.7,89.4 753.5,89.4 754.3,89.3 755.1,89.3 756.0,89.3 756.8,89.2 757.6,89.2 758.5,89.2 759.3,89.2 760.1,89.2 761.0,89.2 761.8,89.3 762.6,89.3 763.5,89.3 764.3,89.4 765.1,89.4 765.9,89.5 766.8,89.6 767.6,89.6 768.4,89.7 769.2,89.8 770.1,89.9 770.9,90.0 771.7,90.1 772.6,90.1 773.4,90.2 774.2,90.3 775.0,90.4 775.8,90.5 776.6,90.6 777.5,90.7 778.3,90.8 779.1,90.9 779.9,91.0 780.7,91.1 781.5,91.2 782.4,91.3 783.2,91.4 784.0,91.5 784.8,91.6 785.6,91.7 786.5,91.8 787.3,91.9 788.1,91.9 788.9,92.0 789.7,92.1 790.5,92.2 791.3,92.3 792.2,92.4 793.0,92.4 793.8,92.5 794.6,92.6 795.4,92.7 796.2,92.7 797.0,92.8 797.8,92.9 798.6,93.0 799.5,93.0 L799.5,93.5 L438.5,93.5 Z" fill="url(#g239)" clip-path="url(#c241)"/>
  <path d="M438.5,93.9 438.5,93.9 471.8,94.2 491.3,94.6 505.1,95.0 515.8,95.4 524.6,95.7 532.0,96.1 538.4,96.4 544.1,96.8 549.1,97.2 553.7,97.5 557.9,97.8 561.7,98.1 565.3,98.5 568.6,98.7 571.7,99.0 574.6,99.3 577.3,99.5 579.9,99.6 582.4,99.8 584.7,99.9 587.0,99.9 589.1,99.9 591.2,99.8 593.1,99.7 595.0,99.4 596.8,99.1 598.6,98.7 600.2,98.2 601.9,97.6 603.4,96.9 605.0,96.2 606.5,95.4 607.9,94.5 609.3,93.6 610.6,92.7 611.9,91.8 613.2,90.9 614.5,90.1 615.7,89.3 616.9,88.5 618.0,87.8 619.2,87.2 620.3,86.6 621.3,86.1 622.4,85.6 623.4,85.2 624.4,84.9 625.4,84.5 626.4,84.3 627.4,84.0 628.3,83.8 629.2,83.6 630.1,83.5 631.0,83.3 631.8,83.2 632.7,83.1 633.5,83.0 634.4,82.9 635.2,82.9 636.7,82.8 638.3,82.7 639.7,82.7 641.2,82.6 642.6,82.6 643.9,82.6 645.2,82.6 646.5,82.5 647.8,82.5 649.0,82.5 650.2,82.5 651.3,82.5 652.4,82.5 653.6,82.4 654.6,82.4 655.7,82.4 656.7,82.3 657.7,82.3 658.7,82.3 659.7,82.2 660.6,82.2 661.6,82.1 662.5,82.0 663.4,82.0 664.3,81.9 665.1,81.9 666.0,81.8 666.8,81.7 667.6,81.6 668.4,81.6 669.6,81.5 670.8,81.4 671.9,81.3 673.0,81.2 674.1,81.1 675.2,81.1 676.2,81.0 677.2,81.1 678.2,81.1 679.2,81.2 680.1,81.4 681.0,81.6 682.0,82.0 682.9,82.4 683.7,82.9 684.6,83.6 685.5,84.3 686.3,85.2 687.1,86.1 687.9,87.1 689.0,88.5 690.0,89.9 691.0,91.2 692.0,92.4 693.0,93.5 693.9,94.4 694.9,95.1 695.8,95.7 696.7,96.1 697.6,96.4 698.4,96.6 699.3,96.8 700.1,96.9 700.9,96.9 701.7,96.9 702.7,96.9 703.7,96.8 704.6,96.7 705.6,96.6 706.5,96.4 707.4,96.3 708.3,96.1 709.1,96.0 710.0,95.9 710.8,95.7 711.6,95.6 712.4,95.4 713.4,95.2 714.3,95.1 715.2,94.9 716.1,94.7 717.0,94.6 717.9,94.4 718.7,94.3 719.6,94.1 720.4,94.0 721.2,93.9 722.1,93.7 723.0,93.5 723.9,93.4 724.8,93.3 725.7,93.1 726.5,93.0 727.3,92.8 728.1,92.7 728.9,92.6 729.8,92.4 730.7,92.3 731.6,92.2 732.4,92.0 733.3,91.9 734.1,91.8 734.9,91.6 735.8,91.5 736.7,91.4 737.5,91.2 738.4,91.1 739.2,91.0 740.0,90.9 740.8,90.8 741.7,90.6 742.6,90.5 743.4,90.4 744.3,90.3 745.1,90.2 745.9,90.1 746.8,90.0 747.6,89.9 748.5,89.8 749.3,89.7 750.1,89.6 751.0,89.6 751.8,89.5 752.7,89.4 753.5,89.4 754.3,89.3 755.1,89.3 756.0,89.3 756.8,89.2 757.6,89.2 758.5,89.2 759.3,89.2 760.1,89.2 761.0,89.2 761.8,89.3 762.6,89.3 763.5,89.3 764.3,89.4 765.1,89.4 765.9,89.5 766.8,89.6 767.6,89.6 768.4,89.7 769.2,89.8 770.1,89.9 770.9,90.0 771.7,90.1 772.6,90.1 773.4,90.2 774.2,90.3 775.0,90.4 775.8,90.5 776.6,90.6 777.5,90.7 778.3,90.8 779.1,90.9 779.9,91.0 780.7,91.1 781.5,91.2 782.4,91.3 783.2,91.4 784.0,91.5 784.8,91.6 785.6,91.7 786.5,91.8 787.3,91.9 788.1,91.9 788.9,92.0 789.7,92.1 790.5,92.2 791.3,92.3 792.2,92.4 793.0,92.4 793.8,92.5 794.6,92.6 795.4,92.7 796.2,92.7 797.0,92.8 797.8,92.9 798.6,93.0 799.5,93.0 L799.5,93.5 L438.5,93.5 Z" fill="url(#g240)" clip-path="url(#c242)"/>
  <defs><clipPath id="pc243"><rect x="435" y="16" width="365" height="155"/></clipPath></defs>
  <polyline points="438.5,93.9 471.8,94.2 491.3,94.6 505.1,95.0 515.8,95.4 524.6,95.7 532.0,96.1 538.4,96.4 544.1,96.8 549.1,97.2 553.7,97.5 557.9,97.8 561.7,98.1 565.3,98.5 568.6,98.7 571.7,99.0 574.6,99.3 577.3,99.5 579.9,99.6 582.4,99.8 584.7,99.9 587.0,99.9 589.1,99.9 591.2,99.8 593.1,99.7 595.0,99.4 596.8,99.1 598.6,98.7 600.2,98.2 601.9,97.6 603.4,96.9 605.0,96.2 606.5,95.4 607.9,94.5 609.3,93.6 610.6,92.7 611.9,91.8 613.2,90.9 614.5,90.1 615.7,89.3 616.9,88.5 618.0,87.8 619.2,87.2 620.3,86.6 621.3,86.1 622.4,85.6 623.4,85.2 624.4,84.9 625.4,84.5 626.4,84.3 627.4,84.0 628.3,83.8 629.2,83.6 630.1,83.5 631.0,83.3 631.8,83.2 632.7,83.1 633.5,83.0 634.4,82.9 635.2,82.9 636.7,82.8 638.3,82.7 639.7,82.7 641.2,82.6 642.6,82.6 643.9,82.6 645.2,82.6 646.5,82.5 647.8,82.5 649.0,82.5 650.2,82.5 651.3,82.5 652.4,82.5 653.6,82.4 654.6,82.4 655.7,82.4 656.7,82.3 657.7,82.3 658.7,82.3 659.7,82.2 660.6,82.2 661.6,82.1 662.5,82.0 663.4,82.0 664.3,81.9 665.1,81.9 666.0,81.8 666.8,81.7 667.6,81.6 668.4,81.6 669.6,81.5 670.8,81.4 671.9,81.3 673.0,81.2 674.1,81.1 675.2,81.1 676.2,81.0 677.2,81.1 678.2,81.1 679.2,81.2 680.1,81.4 681.0,81.6 682.0,82.0 682.9,82.4 683.7,82.9 684.6,83.6 685.5,84.3 686.3,85.2 687.1,86.1 687.9,87.1 689.0,88.5 690.0,89.9 691.0,91.2 692.0,92.4 693.0,93.5 693.9,94.4 694.9,95.1 695.8,95.7 696.7,96.1 697.6,96.4 698.4,96.6 699.3,96.8 700.1,96.9 700.9,96.9 701.7,96.9 702.7,96.9 703.7,96.8 704.6,96.7 705.6,96.6 706.5,96.4 707.4,96.3 708.3,96.1 709.1,96.0 710.0,95.9 710.8,95.7 711.6,95.6 712.4,95.4 713.4,95.2 714.3,95.1 715.2,94.9 716.1,94.7 717.0,94.6 717.9,94.4 718.7,94.3 719.6,94.1 720.4,94.0 721.2,93.9 722.1,93.7 723.0,93.5 723.9,93.4 724.8,93.3 725.7,93.1 726.5,93.0 727.3,92.8 728.1,92.7 728.9,92.6 729.8,92.4 730.7,92.3 731.6,92.2 732.4,92.0 733.3,91.9 734.1,91.8 734.9,91.6 735.8,91.5 736.7,91.4 737.5,91.2 738.4,91.1 739.2,91.0 740.0,90.9 740.8,90.8 741.7,90.6 742.6,90.5 743.4,90.4 744.3,90.3 745.1,90.2 745.9,90.1 746.8,90.0 747.6,89.9 748.5,89.8 749.3,89.7 750.1,89.6 751.0,89.6 751.8,89.5 752.7,89.4 753.5,89.4 754.3,89.3 755.1,89.3 756.0,89.3 756.8,89.2 757.6,89.2 758.5,89.2 759.3,89.2 760.1,89.2 761.0,89.2 761.8,89.3 762.6,89.3 763.5,89.3 764.3,89.4 765.1,89.4 765.9,89.5 766.8,89.6 767.6,89.6 768.4,89.7 769.2,89.8 770.1,89.9 770.9,90.0 771.7,90.1 772.6,90.1 773.4,90.2 774.2,90.3 775.0,90.4 775.8,90.5 776.6,90.6 777.5,90.7 778.3,90.8 779.1,90.9 779.9,91.0 780.7,91.1 781.5,91.2 782.4,91.3 783.2,91.4 784.0,91.5 784.8,91.6 785.6,91.7 786.5,91.8 787.3,91.9 788.1,91.9 788.9,92.0 789.7,92.1 790.5,92.2 791.3,92.3 792.2,92.4 793.0,92.4 793.8,92.5 794.6,92.6 795.4,92.7 796.2,92.7 797.0,92.8 797.8,92.9 798.6,93.0 799.5,93.0" fill="none" stroke="#e74c3c" stroke-width="1.5" stroke-linejoin="round" clip-path="url(#pc243)"/>
  <line x1="34" y1="207" x2="34" y2="362" stroke="#d1d5db"/>
  <line x1="34" y1="284.5" x2="399" y2="284.5" stroke="#d1d5db"/>
  <text x="216.5" y="388" text-anchor="middle" font-size="9" fill="#6b7280">Hz</text>
  <text x="12" y="284.5" text-anchor="middle" font-size="9" fill="#6b7280" transform="rotate(-90 12 284.5)">Group delay</text>
  <line x1="67.3" y1="207" x2="67.3" y2="362" stroke="#e5e7eb" stroke-width="0.5"/>
  <line x1="86.8" y1="207" x2="86.8" y2="362" stroke="#e5e7eb" stroke-width="0.5"/>
  <line x1="100.6" y1="207" x2="100.6" y2="362" stroke="#e5e7eb" stroke-width="0.5"/>
  <line x1="111.3" y1="207" x2="111.3" y2="362" stroke="#e5e7eb" stroke-width="0.5"/>
  <line x1="120.0" y1="207" x2="120.0" y2="362" stroke="#e5e7eb" stroke-width="0.5"/>
  <line x1="127.4" y1="207" x2="127.4" y2="362" stroke="#e5e7eb" stroke-width="0.5"/>
  <line x1="133.9" y1="207" x2="133.9" y2="362" stroke="#e5e7eb" stroke-width="0.5"/>
  <line x1="139.5" y1="207" x2="139.5" y2="362" stroke="#e5e7eb" stroke-width="0.5"/>
  <line x1="177.9" y1="207" x2="177.9" y2="362" stroke="#e5e7eb" stroke-width="0.5"/>
  <line x1="197.3" y1="207" x2="197.3" y2="362" stroke="#e5e7eb" stroke-width="0.5"/>
  <line x1="211.1" y1="207" x2="211.1" y2="362" stroke="#e5e7eb" stroke-width="0.5"/>
  <line x1="221.9" y1="207" x2="221.9" y2="362" stroke="#e5e7eb" stroke-width="0.5"/>
  <line x1="230.6" y1="207" x2="230.6" y2="362" stroke="#e5e7eb" stroke-width="0.5"/>
  <line x1="238.0" y1="207" x2="238.0" y2="362" stroke="#e5e7eb" stroke-width="0.5"/>
  <line x1="244.4" y1="207" x2="244.4" y2="362" stroke="#e5e7eb" stroke-width="0.5"/>
  <line x1="250.1" y1="207" x2="250.1" y2="362" stroke="#e5e7eb" stroke-width="0.5"/>
  <line x1="288.4" y1="207" x2="288.4" y2="362" stroke="#e5e7eb" stroke-width="0.5"/>
  <line x1="307.9" y1="207" x2="307.9" y2="362" stroke="#e5e7eb" stroke-width="0.5"/>
  <line x1="321.7" y1="207" x2="321.7" y2="362" stroke="#e5e7eb" stroke-width="0.5"/>
  <line x1="332.4" y1="207" x2="332.4" y2="362" stroke="#e5e7eb" stroke-width="0.5"/>
  <line x1="341.2" y1="207" x2="341.2" y2="362" stroke="#e5e7eb" stroke-width="0.5"/>
  <line x1="348.6" y1="207" x2="348.6" y2="362" stroke="#e5e7eb" stroke-width="0.5"/>
  <line x1="355.0" y1="207" x2="355.0" y2="362" stroke="#e5e7eb" stroke-width="0.5"/>
  <line x1="360.7" y1="207" x2="360.7" y2="362" stroke="#e5e7eb" stroke-width="0.5"/>
  <line x1="399.0" y1="207" x2="399.0" y2="362" stroke="#e5e7eb" stroke-width="0.5"/>
  <line x1="144.6" y1="207" x2="144.6" y2="362" stroke="#e5e7eb" stroke-width="0.5"/>
  <text x="144.6" y="374" text-anchor="middle" font-size="8" fill="#6b7280">100</text>
  <line x1="255.1" y1="207" x2="255.1" y2="362" stroke="#e5e7eb" stroke-width="0.5"/>
  <text x="255.1" y="374" text-anchor="middle" font-size="8" fill="#6b7280">1k</text>
  <line x1="365.7" y1="207" x2="365.7" y2="362" stroke="#e5e7eb" stroke-width="0.5"/>
  <text x="365.7" y="374" text-anchor="middle" font-size="8" fill="#6b7280">10k</text>
  <line x1="34" y1="329.3" x2="399" y2="329.3" stroke="#e5e7eb" stroke-width="0.5"/>
  <text x="30" y="332.3" text-anchor="end" font-size="8" fill="#6b7280">-20</text>
  <text x="30" y="287.5" text-anchor="end" font-size="8" fill="#6b7280">0</text>
  <line x1="34" y1="239.7" x2="399" y2="239.7" stroke="#e5e7eb" stroke-width="0.5"/>
  <text x="30" y="242.7" text-anchor="end" font-size="8" fill="#6b7280">20</text>
  <defs><linearGradient id="g244" x1="0" y1="207" x2="0" y2="284.5" gradientUnits="userSpaceOnUse">
    <stop offset="0%" stop-color="#2ecc71" stop-opacity="0.15"/>
    <stop offset="100%" stop-color="#2ecc71" stop-opacity="0.02"/>
  </linearGradient></defs>
  <defs><linearGradient id="g245" x1="0" y1="362" x2="0" y2="284.5" gradientUnits="userSpaceOnUse">
    <stop offset="0%" stop-color="#2ecc71" stop-opacity="0.15"/>
    <stop offset="100%" stop-color="#2ecc71" stop-opacity="0.02"/>
  </linearGradient></defs>
  <defs><clipPath id="c246"><rect x="34" y="207" width="365" height="77.5"/></clipPath></defs>
  <defs><clipPath id="c247"><rect x="34" y="284.5" width="365" height="77.5"/></clipPath></defs>
  <path d="M37.5,260.0 37.5,260.0 70.8,260.1 90.3,260.1 104.1,260.2 114.8,260.3 123.6,260.5 131.0,260.7 137.4,261.0 143.1,261.3 148.1,261.8 152.7,262.3 156.9,263.0 160.7,263.9 164.3,264.9 167.6,266.2 170.7,267.7 173.6,269.5 176.3,271.6 178.9,274.1 181.4,276.9 183.7,280.2 186.0,283.9 188.1,288.0 190.2,292.6 192.1,297.6 194.0,302.9 195.8,308.6 197.6,314.4 199.2,320.2 200.9,325.8 202.4,331.1 204.0,335.7 205.5,339.4 206.9,342.2 208.3,343.7 209.6,344.1 210.9,343.4 212.2,341.6 213.5,338.9 214.7,335.7 215.9,332.0 217.0,328.1 218.2,324.1 219.3,320.2 220.3,316.5 221.4,313.0 222.4,309.7 223.4,306.7 224.4,304.0 225.4,301.6 226.4,299.4 227.3,297.5 228.2,295.7 229.1,294.2 230.0,292.9 230.8,291.7 231.7,290.7 232.5,289.8 233.4,289.1 234.2,288.4 235.7,287.3 237.3,286.5 238.7,285.9 240.2,285.5 241.6,285.2 242.9,285.1 244.2,285.0 245.5,284.9 246.8,284.9 248.0,285.0 249.2,285.0 250.3,285.1 251.4,285.2 252.6,285.4 253.6,285.5 254.7,285.6 255.7,285.8 256.7,285.9 257.7,286.0 258.7,286.1 259.6,286.3 260.6,286.4 261.5,286.5 262.4,286.6 263.3,286.7 264.1,286.7 265.0,286.8 265.8,286.9 266.6,286.9 267.4,286.9 268.6,286.8 269.8,286.7 270.9,286.5 272.0,286.2 273.1,285.8 274.2,285.3 275.2,284.6 276.2,283.7 277.2,282.7 278.2,281.4 279.1,279.9 280.0,278.1 281.0,276.2 281.9,274.0 282.7,271.7 283.6,269.3 284.5,267.0 285.3,264.9 286.1,263.2 286.9,262.0 288.0,261.4 289.0,262.0 290.0,263.6 291.0,265.9 292.0,268.6 292.9,271.4 293.9,274.0 294.8,276.3 295.7,278.4 296.6,280.1 297.4,281.5 298.3,282.6 299.1,283.5 299.9,284.2 300.7,284.8 301.7,285.3 302.7,285.7 303.6,286.0 304.6,286.2 305.5,286.3 306.4,286.4 307.3,286.4 308.1,286.5 309.0,286.5 309.8,286.5 310.6,286.4 311.4,286.4 312.4,286.4 313.3,286.3 314.2,286.3 315.1,286.2 316.0,286.2 316.9,286.2 317.7,286.1 318.6,286.1 319.4,286.0 320.2,286.0 321.1,286.0 322.0,285.9 322.9,285.9 323.8,285.8 324.7,285.8 325.5,285.8 326.3,285.7 327.1,285.7 327.9,285.7 328.8,285.7 329.7,285.6 330.6,285.6 331.4,285.6 332.3,285.6 333.1,285.5 333.9,285.5 334.8,285.5 335.7,285.5 336.5,285.4 337.4,285.4 338.2,285.4 339.0,285.4 339.8,285.3 340.7,285.3 341.6,285.3 342.4,285.2 343.3,285.2 344.1,285.2 344.9,285.1 345.8,285.1 346.6,285.1 347.5,285.0 348.3,285.0 349.1,284.9 350.0,284.9 350.8,284.9 351.7,284.8 352.5,284.8 353.3,284.7 354.1,284.7 355.0,284.6 355.8,284.6 356.6,284.6 357.5,284.5 358.3,284.5 359.1,284.4 360.0,284.4 360.8,284.4 361.6,284.3 362.5,284.3 363.3,284.3 364.1,284.3 364.9,284.2 365.8,284.2 366.6,284.2 367.4,284.2 368.2,284.2 369.1,284.2 369.9,284.2 370.7,284.2 371.6,284.2 372.4,284.2 373.2,284.2 374.0,284.2 374.8,284.2 375.6,284.2 376.5,284.2 377.3,284.2 378.1,284.2 378.9,284.2 379.7,284.2 380.5,284.2 381.4,284.2 382.2,284.2 383.0,284.2 383.8,284.2 384.6,284.2 385.5,284.3 386.3,284.3 387.1,284.3 387.9,284.3 388.7,284.3 389.5,284.3 390.3,284.3 391.2,284.3 392.0,284.3 392.8,284.3 393.6,284.3 394.4,284.3 395.2,284.3 396.0,284.3 396.8,284.3 397.6,284.3 398.5,284.3 L398.5,284.5 L37.5,284.5 Z" fill="url(#g244)" clip-path="url(#c246)"/>
  <path d="M37.5,260.0 37.5,260.0 70.8,260.1 90.3,260.1 104.1,260.2 114.8,260.3 123.6,260.5 131.0,260.7 137.4,261.0 143.1,261.3 148.1,261.8 152.7,262.3 156.9,263.0 160.7,263.9 164.3,264.9 167.6,266.2 170.7,267.7 173.6,269.5 176.3,271.6 178.9,274.1 181.4,276.9 183.7,280.2 186.0,283.9 188.1,288.0 190.2,292.6 192.1,297.6 194.0,302.9 195.8,308.6 197.6,314.4 199.2,320.2 200.9,325.8 202.4,331.1 204.0,335.7 205.5,339.4 206.9,342.2 208.3,343.7 209.6,344.1 210.9,343.4 212.2,341.6 213.5,338.9 214.7,335.7 215.9,332.0 217.0,328.1 218.2,324.1 219.3,320.2 220.3,316.5 221.4,313.0 222.4,309.7 223.4,306.7 224.4,304.0 225.4,301.6 226.4,299.4 227.3,297.5 228.2,295.7 229.1,294.2 230.0,292.9 230.8,291.7 231.7,290.7 232.5,289.8 233.4,289.1 234.2,288.4 235.7,287.3 237.3,286.5 238.7,285.9 240.2,285.5 241.6,285.2 242.9,285.1 244.2,285.0 245.5,284.9 246.8,284.9 248.0,285.0 249.2,285.0 250.3,285.1 251.4,285.2 252.6,285.4 253.6,285.5 254.7,285.6 255.7,285.8 256.7,285.9 257.7,286.0 258.7,286.1 259.6,286.3 260.6,286.4 261.5,286.5 262.4,286.6 263.3,286.7 264.1,286.7 265.0,286.8 265.8,286.9 266.6,286.9 267.4,286.9 268.6,286.8 269.8,286.7 270.9,286.5 272.0,286.2 273.1,285.8 274.2,285.3 275.2,284.6 276.2,283.7 277.2,282.7 278.2,281.4 279.1,279.9 280.0,278.1 281.0,276.2 281.9,274.0 282.7,271.7 283.6,269.3 284.5,267.0 285.3,264.9 286.1,263.2 286.9,262.0 288.0,261.4 289.0,262.0 290.0,263.6 291.0,265.9 292.0,268.6 292.9,271.4 293.9,274.0 294.8,276.3 295.7,278.4 296.6,280.1 297.4,281.5 298.3,282.6 299.1,283.5 299.9,284.2 300.7,284.8 301.7,285.3 302.7,285.7 303.6,286.0 304.6,286.2 305.5,286.3 306.4,286.4 307.3,286.4 308.1,286.5 309.0,286.5 309.8,286.5 310.6,286.4 311.4,286.4 312.4,286.4 313.3,286.3 314.2,286.3 315.1,286.2 316.0,286.2 316.9,286.2 317.7,286.1 318.6,286.1 319.4,286.0 320.2,286.0 321.1,286.0 322.0,285.9 322.9,285.9 323.8,285.8 324.7,285.8 325.5,285.8 326.3,285.7 327.1,285.7 327.9,285.7 328.8,285.7 329.7,285.6 330.6,285.6 331.4,285.6 332.3,285.6 333.1,285.5 333.9,285.5 334.8,285.5 335.7,285.5 336.5,285.4 337.4,285.4 338.2,285.4 339.0,285.4 339.8,285.3 340.7,285.3 341.6,285.3 342.4,285.2 343.3,285.2 344.1,285.2 344.9,285.1 345.8,285.1 346.6,285.1 347.5,285.0 348.3,285.0 349.1,284.9 350.0,284.9 350.8,284.9 351.7,284.8 352.5,284.8 353.3,284.7 354.1,284.7 355.0,284.6 355.8,284.6 356.6,284.6 357.5,284.5 358.3,284.5 359.1,284.4 360.0,284.4 360.8,284.4 361.6,284.3 362.5,284.3 363.3,284.3 364.1,284.3 364.9,284.2 365.8,284.2 366.6,284.2 367.4,284.2 368.2,284.2 369.1,284.2 369.9,284.2 370.7,284.2 371.6,284.2 372.4,284.2 373.2,284.2 374.0,284.2 374.8,284.2 375.6,284.2 376.5,284.2 377.3,284.2 378.1,284.2 378.9,284.2 379.7,284.2 380.5,284.2 381.4,284.2 382.2,284.2 383.0,284.2 383.8,284.2 384.6,284.2 385.5,284.3 386.3,284.3 387.1,284.3 387.9,284.3 388.7,284.3 389.5,284.3 390.3,284.3 391.2,284.3 392.0,284.3 392.8,284.3 393.6,284.3 394.4,284.3 395.2,284.3 396.0,284.3 396.8,284.3 397.6,284.3 398.5,284.3 L398.5,284.5 L37.5,284.5 Z" fill="url(#g245)" clip-path="url(#c247)"/>
  <defs><clipPath id="pc248"><rect x="34" y="207" width="365" height="155"/></clipPath></defs>
  <polyline points="37.5,260.0 70.8,260.1 90.3,260.1 104.1,260.2 114.8,260.3 123.6,260.5 131.0,260.7 137.4,261.0 143.1,261.3 148.1,261.8 152.7,262.3 156.9,263.0 160.7,263.9 164.3,264.9 167.6,266.2 170.7,267.7 173.6,269.5 176.3,271.6 178.9,274.1 181.4,276.9 183.7,280.2 186.0,283.9 188.1,288.0 190.2,292.6 192.1,297.6 194.0,302.9 195.8,308.6 197.6,314.4 199.2,320.2 200.9,325.8 202.4,331.1 204.0,335.7 205.5,339.4 206.9,342.2 208.3,343.7 209.6,344.1 210.9,343.4 212.2,341.6 213.5,338.9 214.7,335.7 215.9,332.0 217.0,328.1 218.2,324.1 219.3,320.2 220.3,316.5 221.4,313.0 222.4,309.7 223.4,306.7 224.4,304.0 225.4,301.6 226.4,299.4 227.3,297.5 228.2,295.7 229.1,294.2 230.0,292.9 230.8,291.7 231.7,290.7 232.5,289.8 233.4,289.1 234.2,288.4 235.7,287.3 237.3,286.5 238.7,285.9 240.2,285.5 241.6,285.2 242.9,285.1 244.2,285.0 245.5,284.9 246.8,284.9 248.0,285.0 249.2,285.0 250.3,285.1 251.4,285.2 252.6,285.4 253.6,285.5 254.7,285.6 255.7,285.8 256.7,285.9 257.7,286.0 258.7,286.1 259.6,286.3 260.6,286.4 261.5,286.5 262.4,286.6 263.3,286.7 264.1,286.7 265.0,286.8 265.8,286.9 266.6,286.9 267.4,286.9 268.6,286.8 269.8,286.7 270.9,286.5 272.0,286.2 273.1,285.8 274.2,285.3 275.2,284.6 276.2,283.7 277.2,282.7 278.2,281.4 279.1,279.9 280.0,278.1 281.0,276.2 281.9,274.0 282.7,271.7 283.6,269.3 284.5,267.0 285.3,264.9 286.1,263.2 286.9,262.0 288.0,261.4 289.0,262.0 290.0,263.6 291.0,265.9 292.0,268.6 292.9,271.4 293.9,274.0 294.8,276.3 295.7,278.4 296.6,280.1 297.4,281.5 298.3,282.6 299.1,283.5 299.9,284.2 300.7,284.8 301.7,285.3 302.7,285.7 303.6,286.0 304.6,286.2 305.5,286.3 306.4,286.4 307.3,286.4 308.1,286.5 309.0,286.5 309.8,286.5 310.6,286.4 311.4,286.4 312.4,286.4 313.3,286.3 314.2,286.3 315.1,286.2 316.0,286.2 316.9,286.2 317.7,286.1 318.6,286.1 319.4,286.0 320.2,286.0 321.1,286.0 322.0,285.9 322.9,285.9 323.8,285.8 324.7,285.8 325.5,285.8 326.3,285.7 327.1,285.7 327.9,285.7 328.8,285.7 329.7,285.6 330.6,285.6 331.4,285.6 332.3,285.6 333.1,285.5 333.9,285.5 334.8,285.5 335.7,285.5 336.5,285.4 337.4,285.4 338.2,285.4 339.0,285.4 339.8,285.3 340.7,285.3 341.6,285.3 342.4,285.2 343.3,285.2 344.1,285.2 344.9,285.1 345.8,285.1 346.6,285.1 347.5,285.0 348.3,285.0 349.1,284.9 350.0,284.9 350.8,284.9 351.7,284.8 352.5,284.8 353.3,284.7 354.1,284.7 355.0,284.6 355.8,284.6 356.6,284.6 357.5,284.5 358.3,284.5 359.1,284.4 360.0,284.4 360.8,284.4 361.6,284.3 362.5,284.3 363.3,284.3 364.1,284.3 364.9,284.2 365.8,284.2 366.6,284.2 367.4,284.2 368.2,284.2 369.1,284.2 369.9,284.2 370.7,284.2 371.6,284.2 372.4,284.2 373.2,284.2 374.0,284.2 374.8,284.2 375.6,284.2 376.5,284.2 377.3,284.2 378.1,284.2 378.9,284.2 379.7,284.2 380.5,284.2 381.4,284.2 382.2,284.2 383.0,284.2 383.8,284.2 384.6,284.2 385.5,284.3 386.3,284.3 387.1,284.3 387.9,284.3 388.7,284.3 389.5,284.3 390.3,284.3 391.2,284.3 392.0,284.3 392.8,284.3 393.6,284.3 394.4,284.3 395.2,284.3 396.0,284.3 396.8,284.3 397.6,284.3 398.5,284.3" fill="none" stroke="#2ecc71" stroke-width="1.5" stroke-linejoin="round" clip-path="url(#pc248)"/>
  <line x1="435" y1="207" x2="435" y2="362" stroke="#d1d5db"/>
  <line x1="435" y1="284.5" x2="800" y2="284.5" stroke="#d1d5db"/>
  <text x="617.5" y="388" text-anchor="middle" font-size="9" fill="#6b7280">Samples</text>
  <text x="413" y="284.5" text-anchor="middle" font-size="9" fill="#6b7280" transform="rotate(-90 413 284.5)">Impulse response</text>
  <line x1="435.0" y1="207" x2="435.0" y2="362" stroke="#e5e7eb" stroke-width="0.5"/>
  <text x="435.0" y="374" text-anchor="middle" font-size="8" fill="#6b7280">0</text>
  <line x1="563.3" y1="207" x2="563.3" y2="362" stroke="#e5e7eb" stroke-width="0.5"/>
  <text x="563.3" y="374" text-anchor="middle" font-size="8" fill="#6b7280">90</text>
  <line x1="691.6" y1="207" x2="691.6" y2="362" stroke="#e5e7eb" stroke-width="0.5"/>
  <text x="691.6" y="374" text-anchor="middle" font-size="8" fill="#6b7280">180</text>
  <line x1="435" y1="339.2" x2="800" y2="339.2" stroke="#e5e7eb" stroke-width="0.5"/>
  <text x="431" y="342.2" text-anchor="end" font-size="8" fill="#6b7280">-0.9</text>
  <text x="431" y="287.5" text-anchor="end" font-size="8" fill="#6b7280">0</text>
  <line x1="435" y1="229.8" x2="800" y2="229.8" stroke="#e5e7eb" stroke-width="0.5"/>
  <text x="431" y="232.8" text-anchor="end" font-size="8" fill="#6b7280">0.9</text>
  <defs><linearGradient id="g249" x1="0" y1="207" x2="0" y2="284.5" gradientUnits="userSpaceOnUse">
    <stop offset="0%" stop-color="#f39c12" stop-opacity="0.15"/>
    <stop offset="100%" stop-color="#f39c12" stop-opacity="0.02"/>
  </linearGradient></defs>
  <defs><linearGradient id="g250" x1="0" y1="362" x2="0" y2="284.5" gradientUnits="userSpaceOnUse">
    <stop offset="0%" stop-color="#f39c12" stop-opacity="0.15"/>
    <stop offset="100%" stop-color="#f39c12" stop-opacity="0.02"/>
  </linearGradient></defs>
  <defs><clipPath id="c251"><rect x="435" y="207" width="365" height="77.5"/></clipPath></defs>
  <defs><clipPath id="c252"><rect x="435" y="284.5" width="365" height="77.5"/></clipPath></defs>
  <path d="M435.0,207.0 435.0,207.0 436.4,295.5 437.9,286.4 439.3,283.0 440.7,284.4 442.1,286.6 443.6,287.9 445.0,288.6 446.4,289.0 447.8,289.0 449.3,288.8 450.7,288.4 452.1,287.7 453.5,286.9 455.0,286.0 456.4,285.1 457.8,284.2 459.2,283.5 460.7,282.9 462.1,282.5 463.5,282.2 464.9,282.2 466.4,282.3 467.8,282.6 469.2,283.0 470.6,283.4 472.1,283.8 473.5,284.3 474.9,284.6 476.3,284.9 477.8,285.1 479.2,285.2 480.6,285.2 482.1,285.1 483.5,285.0 484.9,284.7 486.3,284.5 487.8,284.2 489.2,283.9 490.6,283.7 492.0,283.5 493.5,283.4 494.9,283.3 496.3,283.3 497.7,283.4 499.2,283.4 500.6,283.6 502.0,283.7 503.4,283.9 504.9,284.1 506.3,284.2 507.7,284.3 509.1,284.4 510.6,284.5 512.0,284.5 513.4,284.5 514.8,284.5 516.3,284.4 517.7,284.4 519.1,284.3 520.5,284.2 522.0,284.2 523.4,284.1 524.8,284.1 526.3,284.0 527.7,284.0 529.1,284.1 530.5,284.1 532.0,284.1 533.4,284.2 534.8,284.3 536.2,284.3 537.7,284.4 539.1,284.4 540.5,284.5 541.9,284.5 543.4,284.5 544.8,284.5 546.2,284.5 547.6,284.5 549.1,284.5 550.5,284.5 551.9,284.5 553.3,284.4 554.8,284.4 556.2,284.4 557.6,284.4 559.0,284.4 560.5,284.4 561.9,284.4 563.3,284.4 564.7,284.4 566.2,284.5 567.6,284.5 569.0,284.5 570.4,284.5 571.9,284.5 573.3,284.5 574.7,284.5 576.2,284.6 577.6,284.6 579.0,284.5 580.4,284.5 581.9,284.5 583.3,284.5 584.7,284.5 586.1,284.5 587.6,284.5 589.0,284.5 590.4,284.5 591.8,284.5 593.3,284.5 594.7,284.5 596.1,284.5 597.5,284.5 599.0,284.5 600.4,284.5 601.8,284.5 603.2,284.5 604.7,284.5 606.1,284.5 607.5,284.5 608.9,284.5 610.4,284.5 611.8,284.5 613.2,284.5 614.6,284.5 616.1,284.5 617.5,284.5 618.9,284.5 620.4,284.5 621.8,284.5 623.2,284.5 624.6,284.5 626.1,284.5 627.5,284.5 628.9,284.5 630.3,284.5 631.8,284.5 633.2,284.5 634.6,284.5 636.0,284.5 637.5,284.5 638.9,284.5 640.3,284.5 641.7,284.5 643.2,284.5 644.6,284.5 646.0,284.5 647.4,284.5 648.9,284.5 650.3,284.5 651.7,284.5 653.1,284.5 654.6,284.5 656.0,284.5 657.4,284.5 658.8,284.5 660.3,284.5 661.7,284.5 663.1,284.5 664.6,284.5 666.0,284.5 667.4,284.5 668.8,284.5 670.3,284.5 671.7,284.5 673.1,284.5 674.5,284.5 676.0,284.5 677.4,284.5 678.8,284.5 680.2,284.5 681.7,284.5 683.1,284.5 684.5,284.5 685.9,284.5 687.4,284.5 688.8,284.5 690.2,284.5 691.6,284.5 693.1,284.5 694.5,284.5 695.9,284.5 697.3,284.5 698.8,284.5 700.2,284.5 701.6,284.5 703.0,284.5 704.5,284.5 705.9,284.5 707.3,284.5 708.8,284.5 710.2,284.5 711.6,284.5 713.0,284.5 714.5,284.5 715.9,284.5 717.3,284.5 718.7,284.5 720.2,284.5 721.6,284.5 723.0,284.5 724.4,284.5 725.9,284.5 727.3,284.5 728.7,284.5 730.1,284.5 731.6,284.5 733.0,284.5 734.4,284.5 735.8,284.5 737.3,284.5 738.7,284.5 740.1,284.5 741.5,284.5 743.0,284.5 744.4,284.5 745.8,284.5 747.2,284.5 748.7,284.5 750.1,284.5 751.5,284.5 752.9,284.5 754.4,284.5 755.8,284.5 757.2,284.5 758.7,284.5 760.1,284.5 761.5,284.5 762.9,284.5 764.4,284.5 765.8,284.5 767.2,284.5 768.6,284.5 770.1,284.5 771.5,284.5 772.9,284.5 774.3,284.5 775.8,284.5 777.2,284.5 778.6,284.5 780.0,284.5 781.5,284.5 782.9,284.5 784.3,284.5 785.7,284.5 787.2,284.5 788.6,284.5 790.0,284.5 791.4,284.5 792.9,284.5 794.3,284.5 795.7,284.5 797.1,284.5 798.6,284.5 L798.6,284.5 L435.0,284.5 Z" fill="url(#g249)" clip-path="url(#c251)"/>
  <path d="M435.0,207.0 435.0,207.0 436.4,295.5 437.9,286.4 439.3,283.0 440.7,284.4 442.1,286.6 443.6,287.9 445.0,288.6 446.4,289.0 447.8,289.0 449.3,288.8 450.7,288.4 452.1,287.7 453.5,286.9 455.0,286.0 456.4,285.1 457.8,284.2 459.2,283.5 460.7,282.9 462.1,282.5 463.5,282.2 464.9,282.2 466.4,282.3 467.8,282.6 469.2,283.0 470.6,283.4 472.1,283.8 473.5,284.3 474.9,284.6 476.3,284.9 477.8,285.1 479.2,285.2 480.6,285.2 482.1,285.1 483.5,285.0 484.9,284.7 486.3,284.5 487.8,284.2 489.2,283.9 490.6,283.7 492.0,283.5 493.5,283.4 494.9,283.3 496.3,283.3 497.7,283.4 499.2,283.4 500.6,283.6 502.0,283.7 503.4,283.9 504.9,284.1 506.3,284.2 507.7,284.3 509.1,284.4 510.6,284.5 512.0,284.5 513.4,284.5 514.8,284.5 516.3,284.4 517.7,284.4 519.1,284.3 520.5,284.2 522.0,284.2 523.4,284.1 524.8,284.1 526.3,284.0 527.7,284.0 529.1,284.1 530.5,284.1 532.0,284.1 533.4,284.2 534.8,284.3 536.2,284.3 537.7,284.4 539.1,284.4 540.5,284.5 541.9,284.5 543.4,284.5 544.8,284.5 546.2,284.5 547.6,284.5 549.1,284.5 550.5,284.5 551.9,284.5 553.3,284.4 554.8,284.4 556.2,284.4 557.6,284.4 559.0,284.4 560.5,284.4 561.9,284.4 563.3,284.4 564.7,284.4 566.2,284.5 567.6,284.5 569.0,284.5 570.4,284.5 571.9,284.5 573.3,284.5 574.7,284.5 576.2,284.6 577.6,284.6 579.0,284.5 580.4,284.5 581.9,284.5 583.3,284.5 584.7,284.5 586.1,284.5 587.6,284.5 589.0,284.5 590.4,284.5 591.8,284.5 593.3,284.5 594.7,284.5 596.1,284.5 597.5,284.5 599.0,284.5 600.4,284.5 601.8,284.5 603.2,284.5 604.7,284.5 606.1,284.5 607.5,284.5 608.9,284.5 610.4,284.5 611.8,284.5 613.2,284.5 614.6,284.5 616.1,284.5 617.5,284.5 618.9,284.5 620.4,284.5 621.8,284.5 623.2,284.5 624.6,284.5 626.1,284.5 627.5,284.5 628.9,284.5 630.3,284.5 631.8,284.5 633.2,284.5 634.6,284.5 636.0,284.5 637.5,284.5 638.9,284.5 640.3,284.5 641.7,284.5 643.2,284.5 644.6,284.5 646.0,284.5 647.4,284.5 648.9,284.5 650.3,284.5 651.7,284.5 653.1,284.5 654.6,284.5 656.0,284.5 657.4,284.5 658.8,284.5 660.3,284.5 661.7,284.5 663.1,284.5 664.6,284.5 666.0,284.5 667.4,284.5 668.8,284.5 670.3,284.5 671.7,284.5 673.1,284.5 674.5,284.5 676.0,284.5 677.4,284.5 678.8,284.5 680.2,284.5 681.7,284.5 683.1,284.5 684.5,284.5 685.9,284.5 687.4,284.5 688.8,284.5 690.2,284.5 691.6,284.5 693.1,284.5 694.5,284.5 695.9,284.5 697.3,284.5 698.8,284.5 700.2,284.5 701.6,284.5 703.0,284.5 704.5,284.5 705.9,284.5 707.3,284.5 708.8,284.5 710.2,284.5 711.6,284.5 713.0,284.5 714.5,284.5 715.9,284.5 717.3,284.5 718.7,284.5 720.2,284.5 721.6,284.5 723.0,284.5 724.4,284.5 725.9,284.5 727.3,284.5 728.7,284.5 730.1,284.5 731.6,284.5 733.0,284.5 734.4,284.5 735.8,284.5 737.3,284.5 738.7,284.5 740.1,284.5 741.5,284.5 743.0,284.5 744.4,284.5 745.8,284.5 747.2,284.5 748.7,284.5 750.1,284.5 751.5,284.5 752.9,284.5 754.4,284.5 755.8,284.5 757.2,284.5 758.7,284.5 760.1,284.5 761.5,284.5 762.9,284.5 764.4,284.5 765.8,284.5 767.2,284.5 768.6,284.5 770.1,284.5 771.5,284.5 772.9,284.5 774.3,284.5 775.8,284.5 777.2,284.5 778.6,284.5 780.0,284.5 781.5,284.5 782.9,284.5 784.3,284.5 785.7,284.5 787.2,284.5 788.6,284.5 790.0,284.5 791.4,284.5 792.9,284.5 794.3,284.5 795.7,284.5 797.1,284.5 798.6,284.5 L798.6,284.5 L435.0,284.5 Z" fill="url(#g250)" clip-path="url(#c252)"/>
  <defs><clipPath id="pc253"><rect x="435" y="207" width="365" height="155"/></clipPath></defs>
  <polyline points="435.0,207.0 436.4,295.5 437.9,286.4 439.3,283.0 440.7,284.4 442.1,286.6 443.6,287.9 445.0,288.6 446.4,289.0 447.8,289.0 449.3,288.8 450.7,288.4 452.1,287.7 453.5,286.9 455.0,286.0 456.4,285.1 457.8,284.2 459.2,283.5 460.7,282.9 462.1,282.5 463.5,282.2 464.9,282.2 466.4,282.3 467.8,282.6 469.2,283.0 470.6,283.4 472.1,283.8 473.5,284.3 474.9,284.6 476.3,284.9 477.8,285.1 479.2,285.2 480.6,285.2 482.1,285.1 483.5,285.0 484.9,284.7 486.3,284.5 487.8,284.2 489.2,283.9 490.6,283.7 492.0,283.5 493.5,283.4 494.9,283.3 496.3,283.3 497.7,283.4 499.2,283.4 500.6,283.6 502.0,283.7 503.4,283.9 504.9,284.1 506.3,284.2 507.7,284.3 509.1,284.4 510.6,284.5 512.0,284.5 513.4,284.5 514.8,284.5 516.3,284.4 517.7,284.4 519.1,284.3 520.5,284.2 522.0,284.2 523.4,284.1 524.8,284.1 526.3,284.0 527.7,284.0 529.1,284.1 530.5,284.1 532.0,284.1 533.4,284.2 534.8,284.3 536.2,284.3 537.7,284.4 539.1,284.4 540.5,284.5 541.9,284.5 543.4,284.5 544.8,284.5 546.2,284.5 547.6,284.5 549.1,284.5 550.5,284.5 551.9,284.5 553.3,284.4 554.8,284.4 556.2,284.4 557.6,284.4 559.0,284.4 560.5,284.4 561.9,284.4 563.3,284.4 564.7,284.4 566.2,284.5 567.6,284.5 569.0,284.5 570.4,284.5 571.9,284.5 573.3,284.5 574.7,284.5 576.2,284.6 577.6,284.6 579.0,284.5 580.4,284.5 581.9,284.5 583.3,284.5 584.7,284.5 586.1,284.5 587.6,284.5 589.0,284.5 590.4,284.5 591.8,284.5 593.3,284.5 594.7,284.5 596.1,284.5 597.5,284.5 599.0,284.5 600.4,284.5 601.8,284.5 603.2,284.5 604.7,284.5 606.1,284.5 607.5,284.5 608.9,284.5 610.4,284.5 611.8,284.5 613.2,284.5 614.6,284.5 616.1,284.5 617.5,284.5 618.9,284.5 620.4,284.5 621.8,284.5 623.2,284.5 624.6,284.5 626.1,284.5 627.5,284.5 628.9,284.5 630.3,284.5 631.8,284.5 633.2,284.5 634.6,284.5 636.0,284.5 637.5,284.5 638.9,284.5 640.3,284.5 641.7,284.5 643.2,284.5 644.6,284.5 646.0,284.5 647.4,284.5 648.9,284.5 650.3,284.5 651.7,284.5 653.1,284.5 654.6,284.5 656.0,284.5 657.4,284.5 658.8,284.5 660.3,284.5 661.7,284.5 663.1,284.5 664.6,284.5 666.0,284.5 667.4,284.5 668.8,284.5 670.3,284.5 671.7,284.5 673.1,284.5 674.5,284.5 676.0,284.5 677.4,284.5 678.8,284.5 680.2,284.5 681.7,284.5 683.1,284.5 684.5,284.5 685.9,284.5 687.4,284.5 688.8,284.5 690.2,284.5 691.6,284.5 693.1,284.5 694.5,284.5 695.9,284.5 697.3,284.5 698.8,284.5 700.2,284.5 701.6,284.5 703.0,284.5 704.5,284.5 705.9,284.5 707.3,284.5 708.8,284.5 710.2,284.5 711.6,284.5 713.0,284.5 714.5,284.5 715.9,284.5 717.3,284.5 718.7,284.5 720.2,284.5 721.6,284.5 723.0,284.5 724.4,284.5 725.9,284.5 727.3,284.5 728.7,284.5 730.1,284.5 731.6,284.5 733.0,284.5 734.4,284.5 735.8,284.5 737.3,284.5 738.7,284.5 740.1,284.5 741.5,284.5 743.0,284.5 744.4,284.5 745.8,284.5 747.2,284.5 748.7,284.5 750.1,284.5 751.5,284.5 752.9,284.5 754.4,284.5 755.8,284.5 757.2,284.5 758.7,284.5 760.1,284.5 761.5,284.5 762.9,284.5 764.4,284.5 765.8,284.5 767.2,284.5 768.6,284.5 770.1,284.5 771.5,284.5 772.9,284.5 774.3,284.5 775.8,284.5 777.2,284.5 778.6,284.5 780.0,284.5 781.5,284.5 782.9,284.5 784.3,284.5 785.7,284.5 787.2,284.5 788.6,284.5 790.0,284.5 791.4,284.5 792.9,284.5 794.3,284.5 795.7,284.5 797.1,284.5 798.6,284.5" fill="none" stroke="#f39c12" stroke-width="1.3" stroke-linejoin="round" clip-path="url(#pc253)"/>
</svg>
