<svg xmlns="http://www.w3.org/2000/svg" viewBox="0 0 800 240" style="font-family:system-ui,-apple-system,sans-serif">
  <line x1="55" y1="12" x2="55" y2="192" stroke="#d1d5db"/>
  <line x1="55" y1="48.0" x2="385" y2="48.0" stroke="#d1d5db"/>
  <text x="220" y="218" text-anchor="middle" font-size="9" fill="#6b7280">Hz</text>
  <text x="33" y="102" text-anchor="middle" font-size="9" fill="#6b7280" transform="rotate(-90 33 102)">dB</text>
  <line x1="85.1" y1="12" x2="85.1" y2="192" stroke="#e5e7eb" stroke-width="0.5"/>
  <line x1="102.7" y1="12" x2="102.7" y2="192" stroke="#e5e7eb" stroke-width="0.5"/>
  <line x1="115.2" y1="12" x2="115.2" y2="192" stroke="#e5e7eb" stroke-width="0.5"/>
  <line x1="124.9" y1="12" x2="124.9" y2="192" stroke="#e5e7eb" stroke-width="0.5"/>
  <line x1="132.8" y1="12" x2="132.8" y2="192" stroke="#e5e7eb" stroke-width="0.5"/>
  <line x1="139.5" y1="12" x2="139.5" y2="192" stroke="#e5e7eb" stroke-width="0.5"/>
  <line x1="145.3" y1="12" x2="145.3" y2="192" stroke="#e5e7eb" stroke-width="0.5"/>
  <line x1="150.4" y1="12" x2="150.4" y2="192" stroke="#e5e7eb" stroke-width="0.5"/>
  <line x1="185.1" y1="12" x2="185.1" y2="192" stroke="#e5e7eb" stroke-width="0.5"/>
  <line x1="202.7" y1="12" x2="202.7" y2="192" stroke="#e5e7eb" stroke-width="0.5"/>
  <line x1="215.2" y1="12" x2="215.2" y2="192" stroke="#e5e7eb" stroke-width="0.5"/>
  <line x1="224.8" y1="12" x2="224.8" y2="192" stroke="#e5e7eb" stroke-width="0.5"/>
  <line x1="232.8" y1="12" x2="232.8" y2="192" stroke="#e5e7eb" stroke-width="0.5"/>
  <line x1="239.5" y1="12" x2="239.5" y2="192" stroke="#e5e7eb" stroke-width="0.5"/>
  <line x1="245.2" y1="12" x2="245.2" y2="192" stroke="#e5e7eb" stroke-width="0.5"/>
  <line x1="250.4" y1="12" x2="250.4" y2="192" stroke="#e5e7eb" stroke-width="0.5"/>
  <line x1="285.0" y1="12" x2="285.0" y2="192" stroke="#e5e7eb" stroke-width="0.5"/>
  <line x1="302.6" y1="12" x2="302.6" y2="192" stroke="#e5e7eb" stroke-width="0.5"/>
  <line x1="315.1" y1="12" x2="315.1" y2="192" stroke="#e5e7eb" stroke-width="0.5"/>
  <line x1="324.8" y1="12" x2="324.8" y2="192" stroke="#e5e7eb" stroke-width="0.5"/>
  <line x1="332.7" y1="12" x2="332.7" y2="192" stroke="#e5e7eb" stroke-width="0.5"/>
  <line x1="339.4" y1="12" x2="339.4" y2="192" stroke="#e5e7eb" stroke-width="0.5"/>
  <line x1="345.2" y1="12" x2="345.2" y2="192" stroke="#e5e7eb" stroke-width="0.5"/>
  <line x1="350.3" y1="12" x2="350.3" y2="192" stroke="#e5e7eb" stroke-width="0.5"/>
  <line x1="385.0" y1="12" x2="385.0" y2="192" stroke="#e5e7eb" stroke-width="0.5"/>
  <line x1="155.0" y1="12" x2="155.0" y2="192" stroke="#e5e7eb" stroke-width="0.5"/>
  <text x="155.0" y="204" text-anchor="middle" font-size="8" fill="#6b7280">100</text>
  <line x1="254.9" y1="12" x2="254.9" y2="192" stroke="#e5e7eb" stroke-width="0.5"/>
  <text x="254.9" y="204" text-anchor="middle" font-size="8" fill="#6b7280">1k</text>
  <line x1="354.9" y1="12" x2="354.9" y2="192" stroke="#e5e7eb" stroke-width="0.5"/>
  <text x="354.9" y="204" text-anchor="middle" font-size="8" fill="#6b7280">10k</text>
  <line x1="55" y1="30.0" x2="385" y2="30.0" stroke="#e5e7eb" stroke-width="0.5"/>
  <line x1="55" y1="66.0" x2="385" y2="66.0" stroke="#e5e7eb" stroke-width="0.5"/>
  <line x1="55" y1="12.0" x2="385" y2="12.0" stroke="#e5e7eb" stroke-width="0.5"/>
  <text x="51" y="15.0" text-anchor="end" font-size="8" fill="#6b7280">+20</text>
  <text x="51" y="51.0" text-anchor="end" font-size="8" fill="#6b7280">0</text>
  <line x1="55" y1="84.0" x2="385" y2="84.0" stroke="#e5e7eb" stroke-width="0.5"/>
  <text x="51" y="87.0" text-anchor="end" font-size="8" fill="#6b7280">-20</text>
  <line x1="55" y1="120.0" x2="385" y2="120.0" stroke="#e5e7eb" stroke-width="0.5"/>
  <text x="51" y="123.0" text-anchor="end" font-size="8" fill="#6b7280">-40</text>
  <line x1="55" y1="156.0" x2="385" y2="156.0" stroke="#e5e7eb" stroke-width="0.5"/>
  <text x="51" y="159.0" text-anchor="end" font-size="8" fill="#6b7280">-60</text>
  <line x1="55" y1="192.0" x2="385" y2="192.0" stroke="#e5e7eb" stroke-width="0.5"/>
  <text x="51" y="195.0" text-anchor="end" font-size="8" fill="#6b7280">-80</text>
  <line x1="445" y1="12" x2="445" y2="192" stroke="#d1d5db"/>
  <line x1="445" y1="102.0" x2="775" y2="102.0" stroke="#d1d5db"/>
  <text x="610" y="218" text-anchor="middle" font-size="9" fill="#6b7280">Hz</text>
  <text x="423" y="102" text-anchor="middle" font-size="9" fill="#6b7280" transform="rotate(-90 423 102)">Phase (deg)</text>
  <line x1="475.1" y1="12" x2="475.1" y2="192" stroke="#e5e7eb" stroke-width="0.5"/>
  <line x1="492.7" y1="12" x2="492.7" y2="192" stroke="#e5e7eb" stroke-width="0.5"/>
  <line x1="505.2" y1="12" x2="505.2" y2="192" stroke="#e5e7eb" stroke-width="0.5"/>
  <line x1="514.9" y1="12" x2="514.9" y2="192" stroke="#e5e7eb" stroke-width="0.5"/>
  <line x1="522.8" y1="12" x2="522.8" y2="192" stroke="#e5e7eb" stroke-width="0.5"/>
  <line x1="529.5" y1="12" x2="529.5" y2="192" stroke="#e5e7eb" stroke-width="0.5"/>
  <line x1="535.3" y1="12" x2="535.3" y2="192" stroke="#e5e7eb" stroke-width="0.5"/>
  <line x1="540.4" y1="12" x2="540.4" y2="192" stroke="#e5e7eb" stroke-width="0.5"/>
  <line x1="575.1" y1="12" x2="575.1" y2="192" stroke="#e5e7eb" stroke-width="0.5"/>
  <line x1="592.7" y1="12" x2="592.7" y2="192" stroke="#e5e7eb" stroke-width="0.5"/>
  <line x1="605.2" y1="12" x2="605.2" y2="192" stroke="#e5e7eb" stroke-width="0.5"/>
  <line x1="614.8" y1="12" x2="614.8" y2="192" stroke="#e5e7eb" stroke-width="0.5"/>
  <line x1="622.8" y1="12" x2="622.8" y2="192" stroke="#e5e7eb" stroke-width="0.5"/>
  <line x1="629.5" y1="12" x2="629.5" y2="192" stroke="#e5e7eb" stroke-width="0.5"/>
  <line x1="635.2" y1="12" x2="635.2" y2="192" stroke="#e5e7eb" stroke-width="0.5"/>
  <line x1="640.4" y1="12" x2="640.4" y2="192" stroke="#e5e7eb" stroke-width="0.5"/>
  <line x1="675.0" y1="12" x2="675.0" y2="192" stroke="#e5e7eb" stroke-width="0.5"/>
  <line x1="692.6" y1="12" x2="692.6" y2="192" stroke="#e5e7eb" stroke-width="0.5"/>
  <line x1="705.1" y1="12" x2="705.1" y2="192" stroke="#e5e7eb" stroke-width="0.5"/>
  <line x1="714.8" y1="12" x2="714.8" y2="192" stroke="#e5e7eb" stroke-width="0.5"/>
  <line x1="722.7" y1="12" x2="722.7" y2="192" stroke="#e5e7eb" stroke-width="0.5"/>
  <line x1="729.4" y1="12" x2="729.4" y2="192" stroke="#e5e7eb" stroke-width="0.5"/>
  <line x1="735.2" y1="12" x2="735.2" y2="192" stroke="#e5e7eb" stroke-width="0.5"/>
  <line x1="740.3" y1="12" x2="740.3" y2="192" stroke="#e5e7eb" stroke-width="0.5"/>
  <line x1="775.0" y1="12" x2="775.0" y2="192" stroke="#e5e7eb" stroke-width="0.5"/>
  <line x1="545.0" y1="12" x2="545.0" y2="192" stroke="#e5e7eb" stroke-width="0.5"/>
  <text x="545.0" y="204" text-anchor="middle" font-size="8" fill="#6b7280">100</text>
  <line x1="644.9" y1="12" x2="644.9" y2="192" stroke="#e5e7eb" stroke-width="0.5"/>
  <text x="644.9" y="204" text-anchor="middle" font-size="8" fill="#6b7280">1k</text>
  <line x1="744.9" y1="12" x2="744.9" y2="192" stroke="#e5e7eb" stroke-width="0.5"/>
  <text x="744.9" y="204" text-anchor="middle" font-size="8" fill="#6b7280">10k</text>
  <line x1="445" y1="61.5" x2="775" y2="61.5" stroke="#e5e7eb" stroke-width="0.5"/>
  <line x1="445" y1="142.5" x2="775" y2="142.5" stroke="#e5e7eb" stroke-width="0.5"/>
  <line x1="445" y1="21.0" x2="775" y2="21.0" stroke="#e5e7eb" stroke-width="0.5"/>
  <text x="441" y="24.0" text-anchor="end" font-size="8" fill="#6b7280">180</text>
  <text x="441" y="105.0" text-anchor="end" font-size="8" fill="#6b7280">0</text>
  <line x1="445" y1="183.0" x2="775" y2="183.0" stroke="#e5e7eb" stroke-width="0.5"/>
  <text x="441" y="186.0" text-anchor="end" font-size="8" fill="#6b7280">-180</text>
  <defs><clipPath id="pc0"><rect x="55" y="12" width="330" height="180"/></clipPath></defs>
  <polyline points="58.2,170.7 88.3,135.4 105.9,118.2 118.4,107.6 128.1,100.2 136.0,94.5 142.7,90.0 148.5,86.4 153.6,83.3 158.2,80.7 162.3,78.4 166.1,76.5 169.6,74.7 172.8,73.1 175.8,71.7 178.6,70.4 181.2,69.2 183.7,68.2 186.0,67.2 188.3,66.2 190.4,65.4 192.4,64.6 194.3,63.8 196.2,63.1 198.0,62.5 199.7,61.8 201.3,61.2 202.9,60.7 204.4,60.1 205.9,59.6 207.3,59.2 208.7,58.7 210.0,58.3 211.3,57.8 212.6,57.4 213.8,57.1 215.0,56.7 216.1,56.3 217.3,56.0 218.4,55.7 219.4,55.4 220.5,55.1 221.5,54.8 222.5,54.5 223.5,54.3 224.4,54.0 225.4,53.8 226.3,53.5 227.2,53.3 228.1,53.1 228.9,52.9 229.8,52.7 230.6,52.5 231.4,52.3 233.0,51.9 234.5,51.6 236.0,51.2 237.4,50.9 238.8,50.7 240.1,50.4 241.4,50.1 242.7,49.9 243.9,49.7 245.1,49.5 246.2,49.3 247.4,49.1 248.5,48.9 249.5,48.8 250.6,48.6 251.6,48.5 252.6,48.3 253.6,48.2 254.5,48.1 255.5,47.9 256.4,47.8 257.3,47.7 258.1,47.6 259.0,47.5 259.8,47.4 260.7,47.3 261.5,47.2 262.7,47.1 263.8,47.0 265.0,46.9 266.1,46.8 267.1,46.7 268.2,46.6 269.2,46.5 270.2,46.5 271.2,46.4 272.1,46.3 273.1,46.3 274.0,46.2 274.9,46.2 275.7,46.1 276.6,46.1 277.5,46.0 278.3,46.0 279.1,45.9 280.1,45.9 281.2,45.8 282.2,45.8 283.2,45.8 284.1,45.7 285.1,45.7 286.0,45.7 286.9,45.6 287.8,45.6 288.7,45.6 289.5,45.6 290.4,45.5 291.2,45.5 292.0,45.5 293.0,45.5 293.9,45.5 294.9,45.5 295.8,45.5 296.7,45.4 297.6,45.4 298.4,45.4 299.3,45.4 300.1,45.4 300.9,45.4 301.7,45.4 302.7,45.4 303.6,45.4 304.5,45.4 305.4,45.4 306.3,45.5 307.1,45.5 308.0,45.5 308.8,45.5 309.6,45.5 310.5,45.5 311.4,45.5 312.3,45.6 313.2,45.6 314.0,45.6 314.8,45.6 315.6,45.7 316.4,45.7 317.3,45.7 318.2,45.8 319.1,45.8 319.9,45.8 320.8,45.9 321.6,45.9 322.5,46.0 323.3,46.0 324.2,46.1 325.1,46.1 325.9,46.2 326.7,46.2 327.6,46.3 328.5,46.3 329.3,46.4 330.1,46.5 331.0,46.6 331.8,46.6 332.6,46.7 333.5,46.8 334.3,46.9 335.1,47.0 335.9,47.1 336.8,47.2 337.6,47.3 338.5,47.4 339.3,47.5 340.1,47.6 341.0,47.8 341.8,47.9 342.6,48.0 343.5,48.2 344.3,48.4 345.2,48.5 346.0,48.7 346.8,48.9 347.7,49.1 348.5,49.3 349.3,49.5 350.1,49.7 351.0,49.9 351.8,50.1 352.6,50.4 353.4,50.7 354.3,50.9 355.1,51.2 355.9,51.6 356.7,51.9 357.6,52.2 358.4,52.6 359.2,53.0 360.1,53.4 360.9,53.8 361.7,54.2 362.5,54.7 363.3,55.2 364.1,55.7 365.0,56.3 365.8,56.9 366.6,57.5 367.4,58.2 368.3,58.9 369.1,59.6 369.9,60.4 370.7,61.3 371.5,62.2 372.3,63.2 373.1,64.3 373.9,65.4 374.8,66.7 375.6,68.0 376.4,69.4 377.2,71.0 378.0,72.7 378.8,74.6 379.6,76.7 380.4,79.0 381.3,81.7 382.1,84.6 382.9,87.9 383.7,91.8 384.5,96.3" fill="none" stroke="#4a90d9" stroke-width="1.3" stroke-linejoin="round" clip-path="url(#pc0)"/>
  <defs><clipPath id="pc1"><rect x="445" y="12" width="330" height="180"/></clipPath></defs>
  <polyline points="448.2,-32.2 478.3,-12.4 495.9,0.5 508.4,9.4 518.1,16.2 526.0,21.5 532.7,25.8 538.5,29.6 543.6,32.8 548.2,35.6 552.3,38.1 556.1,40.3 559.6,42.3 562.8,44.2 565.8,45.9 568.6,47.4 571.2,48.8 573.7,50.2 576.0,51.4 578.3,52.6 580.4,53.7 582.4,54.8 584.3,55.8 586.2,56.7 588.0,57.6 589.7,58.5 591.3,59.3 592.9,60.1 594.4,60.8 595.9,61.6 597.3,62.3 598.7,62.9 600.0,63.6 601.3,64.2 602.6,64.8 603.8,65.4 605.0,66.0 606.1,66.6 607.3,67.1 608.4,67.7 609.4,68.2 610.5,68.7 611.5,69.2 612.5,69.7 613.5,70.2 614.4,70.6 615.4,71.1 616.3,71.5 617.2,71.9 618.1,72.4 618.9,72.8 619.8,73.2 620.6,73.6 621.4,74.0 623.0,74.7 624.5,75.4 626.0,76.1 627.4,76.8 628.8,77.5 630.1,78.1 631.4,78.7 632.7,79.3 633.9,79.9 635.1,80.4 636.2,81.0 637.4,81.5 638.5,82.0 639.5,82.5 640.6,82.9 641.6,83.4 642.6,83.9 643.6,84.3 644.5,84.7 645.5,85.1 646.4,85.5 647.3,85.9 648.1,86.3 649.0,86.7 649.8,87.1 650.7,87.4 651.5,87.8 652.7,88.3 653.8,88.8 655.0,89.2 656.1,89.7 657.1,90.1 658.2,90.6 659.2,91.0 660.2,91.4 661.2,91.8 662.1,92.2 663.1,92.6 664.0,92.9 664.9,93.3 665.7,93.6 666.6,94.0 667.5,94.3 668.3,94.6 669.1,95.0 670.1,95.4 671.2,95.8 672.2,96.2 673.2,96.5 674.1,96.9 675.1,97.3 676.0,97.6 676.9,98.0 677.8,98.3 678.7,98.6 679.5,99.0 680.4,99.3 681.2,99.6 682.0,99.9 683.0,100.3 683.9,100.6 684.9,101.0 685.8,101.3 686.7,101.7 687.6,102.0 688.4,102.4 689.3,102.7 690.1,103.0 690.9,103.3 691.7,103.6 692.7,104.0 693.6,104.4 694.5,104.7 695.4,105.1 696.3,105.4 697.1,105.7 698.0,106.1 698.8,106.4 699.6,106.7 700.5,107.1 701.4,107.5 702.3,107.8 703.2,108.2 704.0,108.5 704.8,108.9 705.6,109.2 706.4,109.6 707.3,110.0 708.2,110.3 709.1,110.7 709.9,111.1 710.8,111.5 711.6,111.8 712.5,112.3 713.3,112.7 714.2,113.1 715.1,113.5 715.9,113.9 716.7,114.3 717.6,114.7 718.5,115.2 719.3,115.6 720.1,116.0 721.0,116.5 721.8,116.9 722.6,117.3 723.5,117.8 724.3,118.3 725.1,118.7 725.9,119.2 726.8,119.7 727.6,120.2 728.5,120.7 729.3,121.2 730.1,121.7 731.0,122.3 731.8,122.8 732.6,123.3 733.5,123.9 734.3,124.5 735.2,125.0 736.0,125.6 736.8,126.2 737.7,126.8 738.5,127.4 739.3,128.0 740.1,128.7 741.0,129.3 741.8,130.0 742.6,130.7 743.4,131.4 744.3,132.1 745.1,132.8 745.9,133.6 746.7,134.3 747.6,135.1 748.4,135.9 749.2,136.7 750.1,137.5 750.9,138.3 751.7,139.2 752.5,140.0 753.3,140.9 754.1,141.8 755.0,142.8 755.8,143.7 756.6,144.7 757.4,145.7 758.3,146.7 759.1,147.7 759.9,148.8 760.7,149.9 761.5,151.0 762.3,152.1 763.1,153.3 763.9,154.5 764.8,155.7 765.6,157.0 766.4,158.3 767.2,159.6 768.0,160.9 768.8,162.3 769.6,163.7 770.4,165.1 771.3,166.6 772.1,168.1 772.9,169.7 773.7,171.2 774.5,172.9" fill="none" stroke="#4a90d9" stroke-width="1.3" stroke-linejoin="round" clip-path="url(#pc1)"/>
  <defs><clipPath id="pc2"><rect x="55" y="12" width="330" height="180"/></clipPath></defs>
  <polyline points="58.2,72.0 88.3,58.1 105.9,53.3 118.4,51.2 128.1,50.1 136.0,49.5 142.7,49.1 148.5,48.8 153.6,48.6 158.2,48.5 162.3,48.4 166.1,48.3 169.6,48.3 172.8,48.2 175.8,48.2 178.6,48.2 181.2,48.1 183.7,48.1 186.0,48.1 188.3,48.1 190.4,48.1 192.4,48.1 194.3,48.0 196.2,48.0 198.0,48.0 199.7,48.0 201.3,48.0 202.9,48.0 204.4,48.0 205.9,48.0 207.3,48.0 208.7,48.0 210.0,48.0 211.3,48.0 212.6,48.0 213.8,48.0 215.0,48.0 216.1,48.0 217.3,48.0 218.4,48.0 219.4,48.0 220.5,48.0 221.5,48.0 222.5,48.0 223.5,48.0 224.4,48.0 225.4,48.0 226.3,48.0 227.2,48.0 228.1,48.0 228.9,48.0 229.8,48.0 230.6,48.0 231.4,48.0 233.0,48.0 234.5,48.0 236.0,48.0 237.4,48.0 238.8,48.0 240.1,48.0 241.4,48.0 242.7,48.0 243.9,48.0 245.1,48.0 246.2,48.0 247.4,48.0 248.5,48.0 249.5,48.0 250.6,48.0 251.6,48.0 252.6,48.0 253.6,48.0 254.5,48.0 255.5,48.0 256.4,48.0 257.3,48.0 258.1,48.0 259.0,48.0 259.8,48.0 260.7,48.0 261.5,48.0 262.7,48.0 263.8,48.0 265.0,48.0 266.1,48.0 267.1,48.0 268.2,48.0 269.2,48.0 270.2,48.1 271.2,48.1 272.1,48.1 273.1,48.1 274.0,48.1 274.9,48.1 275.7,48.1 276.6,48.1 277.5,48.1 278.3,48.1 279.1,48.1 280.1,48.1 281.2,48.1 282.2,48.1 283.2,48.1 284.1,48.2 285.1,48.2 286.0,48.2 286.9,48.2 287.8,48.2 288.7,48.2 289.5,48.2 290.4,48.2 291.2,48.2 292.0,48.3 293.0,48.3 293.9,48.3 294.9,48.3 295.8,48.3 296.7,48.3 297.6,48.3 298.4,48.4 299.3,48.4 300.1,48.4 300.9,48.4 301.7,48.4 302.7,48.5 303.6,48.5 304.5,48.5 305.4,48.5 306.3,48.6 307.1,48.6 308.0,48.6 308.8,48.6 309.6,48.7 310.5,48.7 311.4,48.7 312.3,48.8 313.2,48.8 314.0,48.8 314.8,48.9 315.6,48.9 316.4,48.9 317.3,49.0 318.2,49.0 319.1,49.1 319.9,49.1 320.8,49.2 321.6,49.2 322.5,49.3 323.3,49.3 324.2,49.4 325.1,49.4 325.9,49.5 326.7,49.6 327.6,49.6 328.5,49.7 329.3,49.8 330.1,49.8 331.0,49.9 331.8,50.0 332.6,50.1 333.5,50.2 334.3,50.3 335.1,50.4 335.9,50.5 336.8,50.6 337.6,50.7 338.5,50.8 339.3,50.9 340.1,51.1 341.0,51.2 341.8,51.3 342.6,51.5 343.5,51.6 344.3,51.8 345.2,52.0 346.0,52.1 346.8,52.3 347.7,52.5 348.5,52.7 349.3,52.9 350.1,53.1 351.0,53.4 351.8,53.6 352.6,53.9 353.4,54.1 354.3,54.4 355.1,54.7 355.9,55.0 356.7,55.3 357.6,55.7 358.4,56.0 359.2,56.4 360.1,56.8 360.9,57.2 361.7,57.7 362.5,58.2 363.3,58.7 364.1,59.2 365.0,59.7 365.8,60.3 366.6,61.0 367.4,61.6 368.3,62.4 369.1,63.1 369.9,63.9 370.7,64.8 371.5,65.7 372.3,66.7 373.1,67.8 373.9,68.9 374.8,70.1 375.6,71.5 376.4,72.9 377.2,74.5 378.0,76.2 378.8,78.1 379.6,80.2 380.4,82.5 381.3,85.1 382.1,88.1 382.9,91.4 383.7,95.3 384.5,99.8" fill="none" stroke="#e74c3c" stroke-width="1.3" stroke-linejoin="round" clip-path="url(#pc2)"/>
  <defs><clipPath id="pc3"><rect x="445" y="12" width="330" height="180"/></clipPath></defs>
  <polyline points="448.2,45.9 478.3,62.7 495.9,72.8 508.4,79.1 518.1,83.3 526.0,86.3 532.7,88.5 538.5,90.2 543.6,91.5 548.2,92.6 552.3,93.5 556.1,94.2 559.6,94.9 562.8,95.5 565.8,96.0 568.6,96.4 571.2,96.8 573.7,97.1 576.0,97.5 578.3,97.8 580.4,98.0 582.4,98.3 584.3,98.5 586.2,98.7 588.0,98.9 589.7,99.1 591.3,99.3 592.9,99.4 594.4,99.6 595.9,99.7 597.3,99.9 598.7,100.0 600.0,100.1 601.3,100.2 602.6,100.4 603.8,100.5 605.0,100.6 606.1,100.7 607.3,100.8 608.4,100.9 609.4,101.0 610.5,101.1 611.5,101.1 612.5,101.2 613.5,101.3 614.4,101.4 615.4,101.5 616.3,101.6 617.2,101.6 618.1,101.7 618.9,101.8 619.8,101.8 620.6,101.9 621.4,102.0 623.0,102.1 624.5,102.2 626.0,102.4 627.4,102.5 628.8,102.6 630.1,102.7 631.4,102.8 632.7,102.9 633.9,103.0 635.1,103.1 636.2,103.2 637.4,103.3 638.5,103.4 639.5,103.5 640.6,103.6 641.6,103.7 642.6,103.8 643.6,103.9 644.5,104.0 645.5,104.1 646.4,104.2 647.3,104.3 648.1,104.4 649.0,104.4 649.8,104.5 650.7,104.6 651.5,104.7 652.7,104.8 653.8,105.0 655.0,105.1 656.1,105.2 657.1,105.3 658.2,105.4 659.2,105.6 660.2,105.7 661.2,105.8 662.1,105.9 663.1,106.0 664.0,106.1 664.9,106.3 665.7,106.4 666.6,106.5 667.5,106.6 668.3,106.7 669.1,106.8 670.1,107.0 671.2,107.1 672.2,107.3 673.2,107.4 674.1,107.6 675.1,107.7 676.0,107.9 676.9,108.0 677.8,108.1 678.7,108.3 679.5,108.4 680.4,108.6 681.2,108.7 682.0,108.9 683.0,109.0 683.9,109.2 684.9,109.4 685.8,109.6 686.7,109.8 687.6,109.9 688.4,110.1 689.3,110.3 690.1,110.5 690.9,110.6 691.7,110.8 692.7,111.0 693.6,111.2 694.5,111.4 695.4,111.7 696.3,111.9 697.1,112.1 698.0,112.3 698.8,112.5 699.6,112.7 700.5,113.0 701.4,113.2 702.3,113.4 703.2,113.7 704.0,113.9 704.8,114.2 705.6,114.4 706.4,114.7 707.3,114.9 708.2,115.2 709.1,115.5 709.9,115.8 710.8,116.1 711.6,116.3 712.5,116.7 713.3,117.0 714.2,117.3 715.1,117.6 715.9,117.9 716.7,118.2 717.6,118.6 718.5,118.9 719.3,119.3 720.1,119.7 721.0,120.0 721.8,120.4 722.6,120.8 723.5,121.1 724.3,121.5 725.1,121.9 725.9,122.3 726.8,122.8 727.6,123.2 728.5,123.6 729.3,124.0 730.1,124.5 731.0,125.0 731.8,125.5 732.6,125.9 733.5,126.4 734.3,126.9 735.2,127.5 736.0,128.0 736.8,128.5 737.7,129.1 738.5,129.6 739.3,130.2 740.1,130.8 741.0,131.4 741.8,132.0 742.6,132.6 743.4,133.3 744.3,133.9 745.1,134.6 745.9,135.3 746.7,136.0 747.6,136.7 748.4,137.5 749.2,138.2 750.1,139.0 750.9,139.8 751.7,140.6 752.5,141.4 753.3,142.3 754.1,143.1 755.0,144.0 755.8,144.9 756.6,145.8 757.4,146.8 758.3,147.8 759.1,148.8 759.9,149.8 760.7,150.8 761.5,151.9 762.3,153.0 763.1,154.1 763.9,155.3 764.8,156.5 765.6,157.7 766.4,158.9 767.2,160.2 768.0,161.5 768.8,162.8 769.6,164.2 770.4,165.6 771.3,167.0 772.1,168.5 772.9,170.0 773.7,171.5 774.5,173.1" fill="none" stroke="#e74c3c" stroke-width="1.3" stroke-linejoin="round" clip-path="url(#pc3)"/>
  <defs><clipPath id="pc4"><rect x="55" y="12" width="330" height="180"/></clipPath></defs>
  <polyline points="58.2,86.2 88.3,68.1 105.9,60.1 118.4,55.9 128.1,53.4 136.0,51.9 142.7,51.0 148.5,50.3 153.6,49.8 158.2,49.5 162.3,49.2 166.1,49.0 169.6,48.9 172.8,48.7 175.8,48.6 178.6,48.6 181.2,48.5 183.7,48.4 186.0,48.4 188.3,48.3 190.4,48.3 192.4,48.3 194.3,48.2 196.2,48.2 198.0,48.2 199.7,48.2 201.3,48.1 202.9,48.1 204.4,48.1 205.9,48.1 207.3,48.1 208.7,48.1 210.0,48.0 211.3,48.0 212.6,48.0 213.8,48.0 215.0,48.0 216.1,48.0 217.3,48.0 218.4,48.0 219.4,47.9 220.5,47.9 221.5,47.9 222.5,47.9 223.5,47.9 224.4,47.9 225.4,47.9 226.3,47.9 227.2,47.8 228.1,47.8 228.9,47.8 229.8,47.8 230.6,47.8 231.4,47.8 233.0,47.7 234.5,47.7 236.0,47.6 237.4,47.6 238.8,47.5 240.1,47.5 241.4,47.4 242.7,47.4 243.9,47.3 245.1,47.2 246.2,47.1 247.4,47.1 248.5,47.0 249.5,46.9 250.6,46.8 251.6,46.7 252.6,46.6 253.6,46.5 254.5,46.4 255.5,46.3 256.4,46.2 257.3,46.1 258.1,46.0 259.0,45.9 259.8,45.7 260.7,45.6 261.5,45.5 262.7,45.3 263.8,45.1 265.0,45.0 266.1,44.8 267.1,44.6 268.2,44.4 269.2,44.3 270.2,44.1 271.2,44.0 272.1,43.8 273.1,43.7 274.0,43.5 274.9,43.4 275.7,43.2 276.6,43.1 277.5,43.0 278.3,42.9 279.1,42.8 280.1,42.6 281.2,42.5 282.2,42.4 283.2,42.3 284.1,42.2 285.1,42.1 286.0,42.0 286.9,41.9 287.8,41.8 288.7,41.7 289.5,41.7 290.4,41.6 291.2,41.5 292.0,41.5 293.0,41.4 293.9,41.4 294.9,41.3 295.8,41.3 296.7,41.2 297.6,41.2 298.4,41.2 299.3,41.1 300.1,41.1 300.9,41.1 301.7,41.1 302.7,41.0 303.6,41.0 304.5,41.0 305.4,41.0 306.3,40.9 307.1,40.9 308.0,40.9 308.8,40.9 309.6,40.9 310.5,40.9 311.4,40.9 312.3,40.8 313.2,40.8 314.0,40.8 314.8,40.8 315.6,40.8 316.4,40.8 317.3,40.8 318.2,40.8 319.1,40.8 319.9,40.8 320.8,40.8 321.6,40.8 322.5,40.8 323.3,40.8 324.2,40.8 325.1,40.8 325.9,40.8 326.7,40.8 327.6,40.8 328.5,40.7 329.3,40.7 330.1,40.7 331.0,40.7 331.8,40.7 332.6,40.7 333.5,40.7 334.3,40.7 335.1,40.7 335.9,40.7 336.8,40.7 337.6,40.7 338.5,40.7 339.3,40.7 340.1,40.7 341.0,40.7 341.8,40.7 342.6,40.7 343.5,40.7 344.3,40.7 345.2,40.7 346.0,40.7 346.8,40.7 347.7,40.7 348.5,40.7 349.3,40.7 350.1,40.7 351.0,40.7 351.8,40.7 352.6,40.7 353.4,40.7 354.3,40.7 355.1,40.7 355.9,40.7 356.7,40.7 357.6,40.7 358.4,40.7 359.2,40.7 360.1,40.7 360.9,40.7 361.7,40.7 362.5,40.7 363.3,40.7 364.1,40.7 365.0,40.7 365.8,40.7 366.6,40.7 367.4,40.7 368.3,40.7 369.1,40.7 369.9,40.7 370.7,40.7 371.5,40.7 372.3,40.7 373.1,40.7 373.9,40.7 374.8,40.7 375.6,40.7 376.4,40.7 377.2,40.7 378.0,40.7 378.8,40.7 379.6,40.7 380.4,40.7 381.3,40.7 382.1,40.7 382.9,40.7 383.7,40.7 384.5,40.7" fill="none" stroke="#2ecc71" stroke-width="1.3" stroke-linejoin="round" clip-path="url(#pc4)"/>
  <defs><clipPath id="pc5"><rect x="445" y="12" width="330" height="180"/></clipPath></defs>
  <polyline points="448.2,36.3 478.3,49.3 495.9,59.2 508.4,66.5 518.1,71.9 526.0,76.0 532.7,79.1 538.5,81.6 543.6,83.5 548.2,85.1 552.3,86.5 556.1,87.6 559.6,88.5 562.8,89.3 565.8,90.0 568.6,90.6 571.2,91.1 573.7,91.6 576.0,92.0 578.3,92.3 580.4,92.7 582.4,93.0 584.3,93.2 586.2,93.4 588.0,93.6 589.7,93.8 591.3,94.0 592.9,94.1 594.4,94.3 595.9,94.4 597.3,94.5 598.7,94.6 600.0,94.6 601.3,94.7 602.6,94.8 603.8,94.8 605.0,94.9 606.1,94.9 607.3,94.9 608.4,95.0 609.4,95.0 610.5,95.0 611.5,95.0 612.5,95.0 613.5,95.0 614.4,95.0 615.4,95.0 616.3,95.0 617.2,95.0 618.1,95.0 618.9,94.9 619.8,94.9 620.6,94.9 621.4,94.9 623.0,94.8 624.5,94.7 626.0,94.6 627.4,94.5 628.8,94.5 630.1,94.4 631.4,94.2 632.7,94.1 633.9,94.0 635.1,93.9 636.2,93.8 637.4,93.7 638.5,93.6 639.5,93.5 640.6,93.4 641.6,93.3 642.6,93.2 643.6,93.1 644.5,93.0 645.5,92.9 646.4,92.8 647.3,92.7 648.1,92.7 649.0,92.6 649.8,92.5 650.7,92.5 651.5,92.4 652.7,92.4 653.8,92.4 655.0,92.3 656.1,92.3 657.1,92.3 658.2,92.3 659.2,92.4 660.2,92.4 661.2,92.5 662.1,92.5 663.1,92.6 664.0,92.7 664.9,92.7 665.7,92.8 666.6,92.9 667.5,93.0 668.3,93.1 669.1,93.3 670.1,93.4 671.2,93.6 672.2,93.7 673.2,93.9 674.1,94.0 675.1,94.2 676.0,94.3 676.9,94.5 677.8,94.6 678.7,94.8 679.5,94.9 680.4,95.1 681.2,95.2 682.0,95.3 683.0,95.5 683.9,95.7 684.9,95.8 685.8,96.0 686.7,96.1 687.6,96.2 688.4,96.4 689.3,96.5 690.1,96.6 690.9,96.7 691.7,96.9 692.7,97.0 693.6,97.1 694.5,97.2 695.4,97.4 696.3,97.5 697.1,97.6 698.0,97.7 698.8,97.8 699.6,97.9 700.5,98.0 701.4,98.1 702.3,98.2 703.2,98.2 704.0,98.3 704.8,98.4 705.6,98.5 706.4,98.6 707.3,98.7 708.2,98.7 709.1,98.8 709.9,98.9 710.8,99.0 711.6,99.0 712.5,99.1 713.3,99.2 714.2,99.2 715.1,99.3 715.9,99.4 716.7,99.4 717.6,99.5 718.5,99.5 719.3,99.6 720.1,99.7 721.0,99.7 721.8,99.8 722.6,99.8 723.5,99.9 724.3,99.9 725.1,100.0 725.9,100.0 726.8,100.1 727.6,100.1 728.5,100.1 729.3,100.2 730.1,100.2 731.0,100.3 731.8,100.3 732.6,100.4 733.5,100.4 734.3,100.4 735.2,100.5 736.0,100.5 736.8,100.5 737.7,100.6 738.5,100.6 739.3,100.7 740.1,100.7 741.0,100.7 741.8,100.8 742.6,100.8 743.4,100.8 744.3,100.9 745.1,100.9 745.9,100.9 746.7,100.9 747.6,101.0 748.4,101.0 749.2,101.0 750.1,101.1 750.9,101.1 751.7,101.1 752.5,101.2 753.3,101.2 754.1,101.2 755.0,101.2 755.8,101.3 756.6,101.3 757.4,101.3 758.3,101.3 759.1,101.4 759.9,101.4 760.7,101.4 761.5,101.4 762.3,101.5 763.1,101.5 763.9,101.5 764.8,101.5 765.6,101.6 766.4,101.6 767.2,101.6 768.0,101.6 768.8,101.7 769.6,101.7 770.4,101.7 771.3,101.7 772.1,101.8 772.9,101.8 773.7,101.8 774.5,101.8" fill="none" stroke="#2ecc71" stroke-width="1.3" stroke-linejoin="round" clip-path="url(#pc5)"/>
  <defs><clipPath id="pc6"><rect x="55" y="12" width="330" height="180"/></clipPath></defs>
  <polyline points="58.2,66.4 88.3,52.6 105.9,49.6 118.4,48.7 128.1,48.4 136.0,48.2 142.7,48.1 148.5,48.1 153.6,48.0 158.2,47.9 162.3,47.9 166.1,47.9 169.6,47.8 172.8,47.8 175.8,47.7 178.6,47.7 181.2,47.6 183.7,47.6 186.0,47.5 188.3,47.5 190.4,47.4 192.4,47.4 194.3,47.3 196.2,47.2 198.0,47.2 199.7,47.1 201.3,47.0 202.9,47.0 204.4,46.9 205.9,46.8 207.3,46.8 208.7,46.7 210.0,46.6 211.3,46.6 212.6,46.5 213.8,46.4 215.0,46.3 216.1,46.3 217.3,46.2 218.4,46.1 219.4,46.0 220.5,46.0 221.5,45.9 222.5,45.8 223.5,45.7 224.4,45.7 225.4,45.6 226.3,45.5 227.2,45.4 228.1,45.4 228.9,45.3 229.8,45.2 230.6,45.1 231.4,45.0 233.0,44.9 234.5,44.7 236.0,44.6 237.4,44.4 238.8,44.3 240.1,44.1 241.4,43.9 242.7,43.8 243.9,43.6 245.1,43.5 246.2,43.3 247.4,43.2 248.5,43.0 249.5,42.9 250.6,42.7 251.6,42.6 252.6,42.4 253.6,42.3 254.5,42.1 255.5,42.0 256.4,41.8 257.3,41.7 258.1,41.6 259.0,41.4 259.8,41.3 260.7,41.1 261.5,41.0 262.7,40.8 263.8,40.5 265.0,40.3 266.1,40.1 267.1,39.9 268.2,39.7 269.2,39.5 270.2,39.3 271.2,39.1 272.1,38.9 273.1,38.7 274.0,38.5 274.9,38.3 275.7,38.0 276.6,37.8 277.5,37.6 278.3,37.4 279.1,37.2 280.1,37.0 281.2,36.7 282.2,36.4 283.2,36.1 284.1,35.9 285.1,35.6 286.0,35.3 286.9,35.1 287.8,34.8 288.7,34.5 289.5,34.3 290.4,34.0 291.2,33.7 292.0,33.5 293.0,33.1 293.9,32.8 294.9,32.5 295.8,32.1 296.7,31.8 297.6,31.5 298.4,31.1 299.3,30.8 300.1,30.5 300.9,30.1 301.7,29.8 302.7,29.4 303.6,29.0 304.5,28.6 305.4,28.2 306.3,27.8 307.1,27.4 308.0,27.0 308.8,26.6 309.6,26.2 310.5,25.7 311.4,25.3 312.3,24.8 313.2,24.3 314.0,23.9 314.8,23.4 315.6,23.0 316.4,22.5 317.3,22.0 318.2,21.6 319.1,21.1 319.9,20.6 320.8,20.1 321.6,19.7 322.5,19.2 323.3,18.8 324.2,18.4 325.1,18.0 325.9,17.7 326.7,17.4 327.6,17.1 328.5,16.8 329.3,16.7 330.1,16.5 331.0,16.5 331.8,16.5 332.6,16.5 333.5,16.7 334.3,16.8 335.1,17.0 335.9,17.3 336.8,17.6 337.6,18.0 338.5,18.4 339.3,18.8 340.1,19.2 341.0,19.7 341.8,20.2 342.6,20.6 343.5,21.1 344.3,21.6 345.2,22.1 346.0,22.6 346.8,23.1 347.7,23.6 348.5,24.1 349.3,24.6 350.1,25.1 351.0,25.6 351.8,26.0 352.6,26.5 353.4,26.9 354.3,27.4 355.1,27.8 355.9,28.3 356.7,28.7 357.6,29.1 358.4,29.5 359.2,29.9 360.1,30.3 360.9,30.7 361.7,31.1 362.5,31.5 363.3,31.8 364.1,32.2 365.0,32.5 365.8,32.9 366.6,33.2 367.4,33.6 368.3,33.9 369.1,34.2 369.9,34.5 370.7,34.9 371.5,35.2 372.3,35.5 373.1,35.8 373.9,36.1 374.8,36.4 375.6,36.7 376.4,37.0 377.2,37.4 378.0,37.7 378.8,38.1 379.6,38.5 380.4,39.0 381.3,39.6 382.1,40.3 382.9,41.2 383.7,42.3 384.5,44.0" fill="none" stroke="#f39c12" stroke-width="1.3" stroke-linejoin="round" clip-path="url(#pc6)"/>
  <defs><clipPath id="pc7"><rect x="445" y="12" width="330" height="180"/></clipPath></defs>
  <polyline points="448.2,45.0 478.3,66.2 495.9,77.7 508.4,83.5 518.1,86.9 526.0,89.0 532.7,90.4 538.5,91.4 543.6,92.1 548.2,92.6 552.3,92.9 556.1,93.2 559.6,93.4 562.8,93.5 565.8,93.6 568.6,93.6 571.2,93.7 573.7,93.6 576.0,93.6 578.3,93.6 580.4,93.5 582.4,93.4 584.3,93.3 586.2,93.2 588.0,93.1 589.7,93.0 591.3,92.9 592.9,92.8 594.4,92.6 595.9,92.5 597.3,92.4 598.7,92.3 600.0,92.1 601.3,92.0 602.6,91.9 603.8,91.7 605.0,91.6 606.1,91.5 607.3,91.3 608.4,91.2 609.4,91.1 610.5,91.0 611.5,90.8 612.5,90.7 613.5,90.6 614.4,90.5 615.4,90.3 616.3,90.2 617.2,90.1 618.1,90.0 618.9,89.8 619.8,89.7 620.6,89.6 621.4,89.5 623.0,89.3 624.5,89.1 626.0,88.8 627.4,88.6 628.8,88.4 630.1,88.2 631.4,88.0 632.7,87.8 633.9,87.7 635.1,87.5 636.2,87.3 637.4,87.1 638.5,87.0 639.5,86.8 640.6,86.6 641.6,86.5 642.6,86.3 643.6,86.1 644.5,86.0 645.5,85.9 646.4,85.7 647.3,85.6 648.1,85.4 649.0,85.3 649.8,85.2 650.7,85.0 651.5,84.9 652.7,84.7 653.8,84.5 655.0,84.3 656.1,84.2 657.1,84.0 658.2,83.8 659.2,83.7 660.2,83.5 661.2,83.4 662.1,83.2 663.1,83.1 664.0,83.0 664.9,82.8 665.7,82.7 666.6,82.6 667.5,82.5 668.3,82.4 669.1,82.2 670.1,82.1 671.2,82.0 672.2,81.8 673.2,81.7 674.1,81.6 675.1,81.5 676.0,81.4 676.9,81.3 677.8,81.2 678.7,81.1 679.5,81.1 680.4,81.0 681.2,80.9 682.0,80.9 683.0,80.8 683.9,80.8 684.9,80.7 685.8,80.7 686.7,80.7 687.6,80.7 688.4,80.7 689.3,80.7 690.1,80.7 690.9,80.7 691.7,80.8 692.7,80.8 693.6,80.9 694.5,81.0 695.4,81.1 696.3,81.2 697.1,81.4 698.0,81.5 698.8,81.7 699.6,81.9 700.5,82.2 701.4,82.4 702.3,82.7 703.2,83.1 704.0,83.4 704.8,83.8 705.6,84.2 706.4,84.6 707.3,85.2 708.2,85.8 709.1,86.4 709.9,87.0 710.8,87.7 711.6,88.5 712.5,89.4 713.3,90.3 714.2,91.3 715.1,92.3 715.9,93.4 716.7,94.5 717.6,95.8 718.5,97.1 719.3,98.4 720.1,99.7 721.0,101.0 721.8,102.3 722.6,103.7 723.5,105.0 724.3,106.3 725.1,107.6 725.9,108.8 726.8,110.0 727.6,111.1 728.5,112.1 729.3,113.1 730.1,114.1 731.0,115.0 731.8,115.8 732.6,116.5 733.5,117.2 734.3,117.8 735.2,118.4 736.0,118.9 736.8,119.4 737.7,119.9 738.5,120.3 739.3,120.6 740.1,121.0 741.0,121.3 741.8,121.5 742.6,121.8 743.4,122.0 744.3,122.2 745.1,122.3 745.9,122.5 746.7,122.6 747.6,122.7 748.4,122.8 749.2,122.9 750.1,123.0 750.9,123.0 751.7,123.1 752.5,123.1 753.3,123.2 754.1,123.2 755.0,123.2 755.8,123.3 756.6,123.3 757.4,123.3 758.3,123.4 759.1,123.4 759.9,123.5 760.7,123.6 761.5,123.7 762.3,123.8 763.1,123.9 763.9,124.1 764.8,124.4 765.6,124.7 766.4,125.0 767.2,125.5 768.0,126.1 768.8,126.7 769.6,127.6 770.4,128.6 771.3,130.0 772.1,131.7 772.9,133.8 773.7,136.5 774.5,139.9" fill="none" stroke="#f39c12" stroke-width="1.3" stroke-linejoin="round" clip-path="url(#pc7)"/>
  <defs><clipPath id="pc8"><rect x="55" y="12" width="330" height="180"/></clipPath></defs>
  <polyline points="58.2,12.6 88.3,13.5 105.9,14.9 118.4,16.5 128.1,18.1 136.0,19.7 142.7,21.3 148.5,22.8 153.6,24.1 158.2,25.4 162.3,26.6 166.1,27.7 169.6,28.7 172.8,29.6 175.8,30.5 178.6,31.3 181.2,32.1 183.7,32.8 186.0,33.5 188.3,34.2 190.4,34.8 192.4,35.4 194.3,35.9 196.2,36.4 198.0,36.9 199.7,37.4 201.3,37.8 202.9,38.2 204.4,38.6 205.9,39.0 207.3,39.4 208.7,39.7 210.0,40.0 211.3,40.3 212.6,40.6 213.8,40.9 215.0,41.2 216.1,41.5 217.3,41.7 218.4,41.9 219.4,42.2 220.5,42.4 221.5,42.6 222.5,42.8 223.5,43.0 224.4,43.2 225.4,43.4 226.3,43.5 227.2,43.7 228.1,43.9 228.9,44.0 229.8,44.2 230.6,44.3 231.4,44.5 233.0,44.8 234.5,45.0 236.0,45.3 237.4,45.5 238.8,45.7 240.1,45.9 241.4,46.1 242.7,46.3 243.9,46.5 245.1,46.6 246.2,46.8 247.4,47.0 248.5,47.1 249.5,47.3 250.6,47.4 251.6,47.5 252.6,47.7 253.6,47.8 254.5,47.9 255.5,48.1 256.4,48.2 257.3,48.3 258.1,48.4 259.0,48.5 259.8,48.7 260.7,48.8 261.5,48.9 262.7,49.0 263.8,49.2 265.0,49.4 266.1,49.5 267.1,49.7 268.2,49.8 269.2,50.0 270.2,50.1 271.2,50.3 272.1,50.4 273.1,50.5 274.0,50.7 274.9,50.8 275.7,51.0 276.6,51.1 277.5,51.2 278.3,51.4 279.1,51.5 280.1,51.7 281.2,51.9 282.2,52.0 283.2,52.2 284.1,52.4 285.1,52.6 286.0,52.7 286.9,52.9 287.8,53.1 288.7,53.2 289.5,53.4 290.4,53.6 291.2,53.8 292.0,53.9 293.0,54.1 293.9,54.3 294.9,54.5 295.8,54.7 296.7,54.9 297.6,55.1 298.4,55.3 299.3,55.5 300.1,55.7 300.9,55.9 301.7,56.1 302.7,56.3 303.6,56.6 304.5,56.8 305.4,57.0 306.3,57.2 307.1,57.4 308.0,57.6 308.8,57.9 309.6,58.1 310.5,58.3 311.4,58.5 312.3,58.8 313.2,59.0 314.0,59.2 314.8,59.5 315.6,59.7 316.4,59.9 317.3,60.2 318.2,60.4 319.1,60.7 319.9,60.9 320.8,61.1 321.6,61.4 322.5,61.6 323.3,61.9 324.2,62.1 325.1,62.4 325.9,62.6 326.7,62.9 327.6,63.1 328.5,63.4 329.3,63.6 330.1,63.9 331.0,64.1 331.8,64.4 332.6,64.6 333.5,64.9 334.3,65.1 335.1,65.4 335.9,65.6 336.8,65.9 337.6,66.1 338.5,66.4 339.3,66.6 340.1,66.9 341.0,67.1 341.8,67.4 342.6,67.6 343.5,67.9 344.3,68.1 345.2,68.4 346.0,68.6 346.8,68.9 347.7,69.1 348.5,69.4 349.3,69.6 350.1,69.8 351.0,70.1 351.8,70.3 352.6,70.6 353.4,70.8 354.3,71.0 355.1,71.3 355.9,71.5 356.7,71.7 357.6,72.0 358.4,72.2 359.2,72.4 360.1,72.6 360.9,72.9 361.7,73.1 362.5,73.3 363.3,73.5 364.1,73.7 365.0,73.9 365.8,74.1 366.6,74.3 367.4,74.5 368.3,74.7 369.1,74.9 369.9,75.1 370.7,75.2 371.5,75.4 372.3,75.6 373.1,75.7 373.9,75.9 374.8,76.1 375.6,76.2 376.4,76.4 377.2,76.5 378.0,76.6 378.8,76.8 379.6,76.9 380.4,77.0 381.3,77.1 382.1,77.2 382.9,77.3 383.7,77.4 384.5,77.4" fill="none" stroke="#9b59b6" stroke-width="1.3" stroke-linejoin="round" clip-path="url(#pc8)"/>
  <defs><clipPath id="pc9"><rect x="445" y="12" width="330" height="180"/></clipPath></defs>
  <polyline points="448.2,107.0 478.3,111.6 495.9,115.4 508.4,118.5 518.1,121.0 526.0,122.9 532.7,124.3 538.5,125.4 543.6,126.3 548.2,126.9 552.3,127.4 556.1,127.8 559.6,128.0 562.8,128.2 565.8,128.4 568.6,128.4 571.2,128.4 573.7,128.4 576.0,128.4 578.3,128.3 580.4,128.2 582.4,128.1 584.3,128.0 586.2,127.9 588.0,127.8 589.7,127.6 591.3,127.5 592.9,127.3 594.4,127.2 595.9,127.0 597.3,126.9 598.7,126.7 600.0,126.6 601.3,126.4 602.6,126.3 603.8,126.1 605.0,126.0 606.1,125.8 607.3,125.7 608.4,125.5 609.4,125.4 610.5,125.3 611.5,125.1 612.5,125.0 613.5,124.9 614.4,124.8 615.4,124.6 616.3,124.5 617.2,124.4 618.1,124.3 618.9,124.2 619.8,124.1 620.6,124.0 621.4,123.9 623.0,123.7 624.5,123.5 626.0,123.4 627.4,123.2 628.8,123.1 630.1,123.0 631.4,122.9 632.7,122.8 633.9,122.7 635.1,122.6 636.2,122.5 637.4,122.4 638.5,122.4 639.5,122.3 640.6,122.3 641.6,122.2 642.6,122.2 643.6,122.2 644.5,122.1 645.5,122.1 646.4,122.1 647.3,122.1 648.1,122.1 649.0,122.1 649.8,122.1 650.7,122.1 651.5,122.1 652.7,122.1 653.8,122.1 655.0,122.2 656.1,122.2 657.1,122.2 658.2,122.3 659.2,122.3 660.2,122.4 661.2,122.4 662.1,122.5 663.1,122.5 664.0,122.6 664.9,122.6 665.7,122.7 666.6,122.8 667.5,122.8 668.3,122.9 669.1,122.9 670.1,123.0 671.2,123.1 672.2,123.2 673.2,123.3 674.1,123.4 675.1,123.5 676.0,123.5 676.9,123.6 677.8,123.7 678.7,123.8 679.5,123.9 680.4,123.9 681.2,124.0 682.0,124.1 683.0,124.2 683.9,124.3 684.9,124.3 685.8,124.4 686.7,124.5 687.6,124.6 688.4,124.7 689.3,124.7 690.1,124.8 690.9,124.9 691.7,124.9 692.7,125.0 693.6,125.1 694.5,125.1 695.4,125.2 696.3,125.2 697.1,125.3 698.0,125.3 698.8,125.4 699.6,125.4 700.5,125.5 701.4,125.5 702.3,125.5 703.2,125.5 704.0,125.6 704.8,125.6 705.6,125.6 706.4,125.6 707.3,125.6 708.2,125.6 709.1,125.6 709.9,125.6 710.8,125.6 711.6,125.6 712.5,125.6 713.3,125.6 714.2,125.5 715.1,125.5 715.9,125.5 716.7,125.4 717.6,125.4 718.5,125.3 719.3,125.3 720.1,125.2 721.0,125.1 721.8,125.1 722.6,125.0 723.5,124.9 724.3,124.8 725.1,124.7 725.9,124.6 726.8,124.5 727.6,124.4 728.5,124.3 729.3,124.2 730.1,124.0 731.0,123.9 731.8,123.7 732.6,123.6 733.5,123.4 734.3,123.3 735.2,123.1 736.0,122.9 736.8,122.7 737.7,122.5 738.5,122.3 739.3,122.2 740.1,121.9 741.0,121.7 741.8,121.5 742.6,121.3 743.4,121.0 744.3,120.8 745.1,120.5 745.9,120.3 746.7,120.0 747.6,119.7 748.4,119.4 749.2,119.1 750.1,118.8 750.9,118.5 751.7,118.2 752.5,117.9 753.3,117.6 754.1,117.2 755.0,116.9 755.8,116.5 756.6,116.2 757.4,115.8 758.3,115.4 759.1,115.0 759.9,114.6 760.7,114.2 761.5,113.8 762.3,113.4 763.1,112.9 763.9,112.5 764.8,112.0 765.6,111.5 766.4,111.1 767.2,110.6 768.0,110.1 768.8,109.6 769.6,109.0 770.4,108.5 771.3,108.0 772.1,107.4 772.9,106.8 773.7,106.3 774.5,105.7" fill="none" stroke="#9b59b6" stroke-width="1.3" stroke-linejoin="round" clip-path="url(#pc9)"/>
  <rect x="69" y="116" width="92" height="70" fill="white" fill-opacity="0.85" rx="3"/>
  <line x1="75" y1="127" x2="87" y2="127" stroke="#4a90d9" stroke-width="2"/>
  <text x="91" y="130" font-size="8" fill="#6b7280">A-weighting</text>
  <line x1="75" y1="139" x2="87" y2="139" stroke="#e74c3c" stroke-width="2"/>
  <text x="91" y="142" font-size="8" fill="#6b7280">C-weighting</text>
  <line x1="75" y1="151" x2="87" y2="151" stroke="#2ecc71" stroke-width="2"/>
  <text x="91" y="154" font-size="8" fill="#6b7280">K-weighting</text>
  <line x1="75" y1="163" x2="87" y2="163" stroke="#f39c12" stroke-width="2"/>
  <text x="91" y="166" font-size="8" fill="#6b7280">ITU-R 468</text>
  <line x1="75" y1="175" x2="87" y2="175" stroke="#9b59b6" stroke-width="2"/>
  <text x="91" y="178" font-size="8" fill="#6b7280">RIAA</text>
</svg>
